<svg xmlns="http://www.w3.org/2000/svg" viewBox="0 0 249.37 47.12"><defs><style>.cls-1{fill:#231815;}.cls-2{fill:none;}</style></defs><g id="レイヤー_2" data-name="レイヤー 2"><g id="レイヤー_1-2" data-name="レイヤー 1"><path class="cls-1" d="M18.84,21.19a3.17,3.17,0,0,1,2,1c.74.65,1.11,1.13,1.11,1.43,0,.59-1.27,1.08-3.8,1.5a42.47,42.47,0,0,1-7,.64q-6,0-8.57-1.72A4.94,4.94,0,0,1,0,19.89a7.34,7.34,0,0,1,1.14-3.48q1.17-2,2-2a.83.83,0,0,1,.5.18A1,1,0,0,1,4,15a1.27,1.27,0,0,1,.1.59,1.09,1.09,0,0,1-.28.65,6.7,6.7,0,0,0-1.1,3.18,2.73,2.73,0,0,0,2.11,2.63,18.47,18.47,0,0,0,6.11.78c3,0,5.15-.37,6.43-1.1A2.78,2.78,0,0,1,18.84,21.19Zm-4.52-18a3.72,3.72,0,0,1,2.05,1.24c.89.82,1.33,1.4,1.33,1.75s-.5.73-1.49.88A9.73,9.73,0,0,0,13,8.13,14.79,14.79,0,0,0,10,10.21a1.37,1.37,0,0,1-.65.37.9.9,0,0,1-.52-.06,1.06,1.06,0,0,1-.37-.33,1,1,0,0,1-.18-.44c0-.62.93-1.59,2.79-2.89.13-.08.2-.16.2-.22s-.07-.1-.2-.1a26.15,26.15,0,0,0-3.93.78,9.65,9.65,0,0,1-1.69.26,2,2,0,0,1-1.85-1.5A7.72,7.72,0,0,1,3,3.87c0-.52.17-.77.5-.77a1.5,1.5,0,0,1,1.06.61,2.56,2.56,0,0,0,1,.75,4.2,4.2,0,0,0,1.17.13l1,0,1.6-.1c.62,0,1.14-.1,1.56-.16l1-.17a4.93,4.93,0,0,0,.67-.24l.66-.31q.33-.17.6-.27A1.25,1.25,0,0,1,14.32,3.19Zm3.06-.78a8.12,8.12,0,0,1,1.94.39A4.05,4.05,0,0,1,21.4,4a2,2,0,0,1,.65,1.13,1.66,1.66,0,0,1-.14,1,1.63,1.63,0,0,1-.65.68,1.74,1.74,0,0,1-.86.26c-.57,0-1-.34-1.17-1a3.86,3.86,0,0,0-.6-1.18,4.94,4.94,0,0,0-1.22-1.19c-.48-.37-.72-.67-.72-.92S16.92,2.41,17.38,2.41ZM21.21.5a7.13,7.13,0,0,1,1.88.39A3.69,3.69,0,0,1,25,2.12a2.88,2.88,0,0,1,.62,1.22,1.78,1.78,0,0,1-.1,1A1.53,1.53,0,0,1,25,5a1.44,1.44,0,0,1-.8.24A1.19,1.19,0,0,1,23,4.36,4.56,4.56,0,0,0,21.34,2c-.63-.37-.94-.71-.94-1S20.67.5,21.21.5Z" transform="translate(7.02)"/><path class="cls-1" d="M51.84,13.39c-.37,0-.71.1-1,.16a6.36,6.36,0,0,0-.94.3,10.49,10.49,0,0,0-1.11.52c-.41.21-.9.49-1.46.84-.84.5-1.4.66-1.65.49s-.16-.7.32-1.56c.3-.57.52-1,.67-1.33a1.43,1.43,0,0,0,.17-.72.3.3,0,0,0-.29-.27,3.64,3.64,0,0,0-.75-.05c-.49,0-1.23.05-2.22.14s-2.27.27-3.85.51A11.52,11.52,0,0,1,41.1,13a2,2,0,0,1,.72.54.79.79,0,0,1,.16.61,3.06,3.06,0,0,1-.24.8,1.39,1.39,0,0,0-.1.39,7.62,7.62,0,0,0,0,.84q0,.63.06,1.77c0,.77.1,1.83.16,3.17.07,1,.09,1.87.07,2.57a9.09,9.09,0,0,1-.21,1.8,4.54,4.54,0,0,1-.54,1.35,6.63,6.63,0,0,1-1,1.2,2.73,2.73,0,0,1-1.81,1.05,1.31,1.31,0,0,1-1.25-.92,7.27,7.27,0,0,0-1-1.58A10.59,10.59,0,0,0,34.3,25a11.52,11.52,0,0,1-.93-.79c-.23-.23-.33-.41-.31-.54s.18-.2.47-.23a7,7,0,0,1,1.38.13,15.58,15.58,0,0,0,1.81.23,2.26,2.26,0,0,0,1-.14,1,1,0,0,0,.49-.59A5.54,5.54,0,0,0,38.42,22a31.91,31.91,0,0,0,.12-5.77,7.35,7.35,0,0,0-1-3.46l-2.08.33c-.56.08-1.06.17-1.49.27s-.84.2-1.21.31-.77.24-1.2.39-.87.3-1.18.39a2.74,2.74,0,0,1-.86.11,2.16,2.16,0,0,1-.75-.17,5.92,5.92,0,0,1-.85-.52c-1.14-.81-1.75-1.35-1.81-1.63s.54-.39,1.81-.32a16.65,16.65,0,0,0,1.74-.05c.77-.06,1.65-.13,2.63-.23s2.05-.22,3.19-.36,2.26-.29,3.39-.47c-.37-.37-.76-.79-1.19-1.28L36.51,8.1c-.48-.54-.7-1-.65-1.24s.45-.33,1.23-.16a12.89,12.89,0,0,1,2.31.62c.3-.35.63-.77,1-1.25s.65-.92.89-1.29c.35-.54.49-.86.42-1s-.34-.1-.84,0l-1.45.31c-.38.08-.73.16-1.07.26s-.69.22-1.07.36l-1.48.57c-.39.15-.72.26-1,.34a2.4,2.4,0,0,1-.79.09,2.16,2.16,0,0,1-.82-.21,6.46,6.46,0,0,1-1-.58A8.05,8.05,0,0,1,31.08,4c-.21-.24-.29-.42-.21-.54s.29-.19.63-.21.82,0,1.4,0a18.73,18.73,0,0,0,4.52-.36A14.28,14.28,0,0,0,41.35,1.6a7.69,7.69,0,0,1,1-.44A2.24,2.24,0,0,1,43.16,1a2.4,2.4,0,0,1,.88.21,6.9,6.9,0,0,1,1,.59,14.81,14.81,0,0,1,1.64,1.22,2.63,2.63,0,0,1,.72.86.49.49,0,0,1-.09.58,1.64,1.64,0,0,1-.74.36l-1,.34a7.31,7.31,0,0,0-1.17.54c-.44.23-.94.54-1.53.92s-1.3.86-2.14,1.45a1.61,1.61,0,0,1,.49,1A3.83,3.83,0,0,1,41,10.5c2-.3,3.4-.56,4.3-.78A12.79,12.79,0,0,0,47,9.23a6.5,6.5,0,0,1,.89-.35,2,2,0,0,1,.8-.1,2.45,2.45,0,0,1,.84.24,6.13,6.13,0,0,1,1,.64,12.43,12.43,0,0,1,1.82,1.49,2.8,2.8,0,0,1,.73,1.12.7.7,0,0,1-.23.75A2.14,2.14,0,0,1,51.84,13.39Z" transform="translate(7.02)"/><path class="cls-1" d="M62.62,11.31a14,14,0,0,0-1.74.72,11.76,11.76,0,0,0-1.35.81,2,2,0,0,1-.52.32.63.63,0,0,1-.47,0,1.94,1.94,0,0,1-.58-.37,11.74,11.74,0,0,1-.89-.88q-.78-.81-.72-1.17c0-.24.46-.52,1.23-.84a4.73,4.73,0,0,0,.74-.39A3.75,3.75,0,0,0,59,8.84a10.81,10.81,0,0,0,.84-1.2c.32-.5.69-1.16,1.13-2a7.47,7.47,0,0,0,.82-2,3,3,0,0,0-.08-1.48C61.5,1.37,61.59.91,62,.76s1.07.09,2,.74c1.11.78,1.71,1.4,1.81,1.85s-.16.84-.77,1.14a6,6,0,0,0-.68.54,9.92,9.92,0,0,0-.88.92c-.32.39-.62.75-.89,1.06l-.8.92-.84,1-1.07,1.23c.73-.11,1.38-.19,1.93-.26l1.87-.22c.32-.5.58-.92.76-1.25a6.39,6.39,0,0,0,.41-.87,2.31,2.31,0,0,0,.14-.6,2.44,2.44,0,0,0,0-.47c-.2-.8-.12-1.27.23-1.41s1,.14,2,.83S68.48,7,68.51,7.35s-.28.67-1,1a12.14,12.14,0,0,0-2.15,2q-1.53,1.7-3.64,4.39l1-.36.84-.31.81-.26c.27-.07.56-.16.86-.27a2.14,2.14,0,0,0-.16-.39c-.06-.13-.12-.25-.16-.36-.24-.56-.27-.92-.1-1.09s.53-.12,1.07.12a11.92,11.92,0,0,1,1.27.66,2.63,2.63,0,0,1,.73.64,1.34,1.34,0,0,1,.28.69,3,3,0,0,1-.07.86c-.13.65-.39,1.05-.78,1.19s-.73,0-1-.47a3.74,3.74,0,0,0-.24-.37,2.55,2.55,0,0,1-.24-.41c-.67.3-1.24.58-1.71.83s-.86.49-1.2.71a8.74,8.74,0,0,0-.88.67,6.71,6.71,0,0,0-.7.71,1.15,1.15,0,0,1-1,.47,3,3,0,0,1-1.55-.89c-.36-.32-.65-.59-.84-.8a.9.9,0,0,1-.31-.51.38.38,0,0,1,.21-.36,4.14,4.14,0,0,1,.72-.34,5.75,5.75,0,0,0,.87-.41,4.8,4.8,0,0,0,.88-.66,12.74,12.74,0,0,0,1-1.09C61.76,12.57,62.16,12,62.62,11.31ZM60.74,24.37c-.37.76-.79,1.13-1.26,1.12s-.83-.34-1.12-1a20.81,20.81,0,0,1-.82-2.28,12.91,12.91,0,0,1-.47-2c-.11-.76-.08-1.18.09-1.28s.59.06,1.24.47a5.7,5.7,0,0,1,2.43,2.48A3,3,0,0,1,60.74,24.37Zm3.93-2.53c-.13.62-.4,1-.8,1s-.76-.15-1.09-.65a7.5,7.5,0,0,1-.58-1.07,7.41,7.41,0,0,1-.52-1.46c-.18-.69-.19-1.09,0-1.2s.48,0,1,.23a10.64,10.64,0,0,1,1.25.76,2.56,2.56,0,0,1,.68.68,1.42,1.42,0,0,1,.21.75A5.58,5.58,0,0,1,64.67,21.84Zm3.76-1.79c-.08.65-.32,1-.71,1.14a1.14,1.14,0,0,1-1.14-.43,6.79,6.79,0,0,1-.57-.84c-.18-.33-.46-.87-.82-1.63S64.79,17.2,65,17s.67-.12,1.45.18a9.76,9.76,0,0,1,1.15.55,2,2,0,0,1,.65.59,1.63,1.63,0,0,1,.25.73A5,5,0,0,1,68.43,20.05ZM72,9.59a13.85,13.85,0,0,1-1.5,1.35c-.54.42-1.17.87-1.88,1.35s-1,.49-1.12.32,0-.52.47-1,.79-.91,1.14-1.36a13.05,13.05,0,0,0,1-1.51c.3-.55.61-1.16.91-1.82s.63-1.44,1-2.32c.19-.48.34-.87.43-1.17s.17-.57.22-.78a1.74,1.74,0,0,0,0-.54,2.59,2.59,0,0,0-.13-.47C72.21.74,72.18.22,72.48.06s1.1,0,2.42.53a9.34,9.34,0,0,1,1.62.8,1.92,1.92,0,0,1,.7.71.69.69,0,0,1-.08.69,2.82,2.82,0,0,1-.72.69,2.69,2.69,0,0,0-.6.64,12.57,12.57,0,0,0-.7,1.15c-.3.56-.59,1.06-.87,1.49S73.68,7.6,73.4,8a11.66,11.66,0,0,0,2-.44,6.23,6.23,0,0,0,1.46-.73q.36-.22.63-.36a1.42,1.42,0,0,1,.55-.15,1.76,1.76,0,0,1,.59.07,4.39,4.39,0,0,1,.73.28c.56.23,1,.43,1.36.6s.74.36,1.17.6.75.49.76.69a2.19,2.19,0,0,1-.5,1.09,5.52,5.52,0,0,0-.36.73,5.81,5.81,0,0,0-.27,1.22c-.08.54-.14,1.27-.2,2.18s-.1,2.1-.14,3.57a17.59,17.59,0,0,1-.94,5.73,6.88,6.88,0,0,1-2.64,3.33,2.48,2.48,0,0,1-1.68.6.91.91,0,0,1-.78-.76c-.07-.28-.14-.55-.22-.8a5.4,5.4,0,0,0-.32-.81,8.48,8.48,0,0,0-.55-1q-.34-.54-.9-1.32c-.62-.86-.88-1.38-.76-1.56s.6,0,1.45.39a14.51,14.51,0,0,0,1.6.72,2.44,2.44,0,0,0,1,.18.82.82,0,0,0,.6-.38,3.34,3.34,0,0,0,.37-.91A21,21,0,0,0,78,18.39c.13-.84.23-1.7.29-2.58s.1-1.75.11-2.63,0-1.73,0-2.55A2.54,2.54,0,0,0,78,9.14c-.2-.18-.57-.21-1.14-.1l-1.52.27c-.44.08-.83.14-1.19.18a9.49,9.49,0,0,1-1,.08C72.75,9.59,72.41,9.59,72,9.59Zm2.73,6.79a1.53,1.53,0,0,1-.65,1.33,1,1,0,0,1-1.24-.23c-.58-.49-1.11-1-1.57-1.43a18.57,18.57,0,0,1-1.55-1.75c-.47-.58-.67-1-.58-1.09s.49-.19,1.2-.14a10.73,10.73,0,0,1,2.26.34,3.69,3.69,0,0,1,1.35.65,2,2,0,0,1,.65,1A4.59,4.59,0,0,1,74.77,16.38Z" transform="translate(7.02)"/><path class="cls-1" d="M102.7,13.84a3.35,3.35,0,1,1-3.34-3.35A3.33,3.33,0,0,1,102.7,13.84Z" transform="translate(7.02)"/><path class="cls-1" d="M137.09,4.72q-5.16.42-8.94,1A49.54,49.54,0,0,0,121.83,7a7.36,7.36,0,0,1-1.87.36,1.82,1.82,0,0,1-1.18-.45,8,8,0,0,1-1.21-1.46,3.26,3.26,0,0,1-.68-1.56c0-.37.25-.56.75-.56a2,2,0,0,1,.62.12l.79.24c.29.09.6.17.93.25a4.58,4.58,0,0,0,1,.11,9.55,9.55,0,0,0,1-.1l2.14-.26,3.12-.37c1.17-.14,2.5-.29,4-.44,3-.3,4.81-.5,5.4-.58a9.27,9.27,0,0,0,1.3-.26l.86-.26a1.68,1.68,0,0,1,.6-.09,1.16,1.16,0,0,1,.55.25c.11.08.25.21.44.37A7.25,7.25,0,0,1,141,3a9.84,9.84,0,0,1,1.12,1.41,2,2,0,0,1,.38.89.36.36,0,0,1-.15.41,2.18,2.18,0,0,1-.57.26l-.79.28a3.94,3.94,0,0,0-.83.39,46.83,46.83,0,0,1-8.45,4.05,24.13,24.13,0,0,1-2.86,8.74,18.53,18.53,0,0,1-4.71,5.95c-1.66,1.29-2.83,1.94-3.5,1.94-.28,0-.43-.1-.43-.32,0-.43.48-1.15,1.43-2.14a21.27,21.27,0,0,0,4-5.82,23.27,23.27,0,0,0,2-5.65c.18-.82.31-1.53.39-2.11a9.52,9.52,0,0,0,.13-1.36,1.36,1.36,0,0,0-.39-1,1.87,1.87,0,0,1-.71-1.19c0-.33.29-.5.87-.5a5.93,5.93,0,0,1,1.73.39,3.76,3.76,0,0,1,1.81,1.27A23.21,23.21,0,0,0,137.09,4.72Z" transform="translate(7.02)"/><path class="cls-1" d="M160.25,6a34.81,34.81,0,0,0,3.93-.58,6.27,6.27,0,0,0,2.63-1.14A2.11,2.11,0,0,1,168,3.78a4.63,4.63,0,0,1,2,1.17,7.84,7.84,0,0,1,1.1,1,1.37,1.37,0,0,1,.39.71.7.7,0,0,1-.29.6,4.48,4.48,0,0,1-.94.62,5.33,5.33,0,0,0-1.4,1.92,44.92,44.92,0,0,1-6.27,8.93,25.32,25.32,0,0,1-7.76,5.91c-2.79,1.38-4.64,2.08-5.55,2.08-.39,0-.59-.1-.59-.3,0-.41.58-.93,1.73-1.55a35,35,0,0,0,6.07-4.19,34.32,34.32,0,0,0,2.48-2.49c.84-.92,1.69-1.94,2.55-3.07a33.68,33.68,0,0,0,2.29-3.33,35.44,35.44,0,0,0,1.74-3.23,5.46,5.46,0,0,0,.39-1c0-.13-.09-.19-.26-.19a27.23,27.23,0,0,0-3,.48,12.92,12.92,0,0,1-2.13.23A3.19,3.19,0,0,1,159,7.67a21.91,21.91,0,0,1-5.53,5.59q-3.37,2.4-4.48,2.4c-.3,0-.45-.1-.45-.32,0-.39.44-.91,1.33-1.56a21.29,21.29,0,0,0,5.29-5.72c1.56-2.33,2.34-3.83,2.34-4.48a2.72,2.72,0,0,0-.15-.68A3.57,3.57,0,0,1,157.2,2c0-.5.24-.75.71-.75a6.62,6.62,0,0,1,2.47.94c1.17.63,1.76,1.15,1.76,1.56s-.3.82-.88,1.17c0,0-.15.16-.33.34Z" transform="translate(7.02)"/><path class="cls-1" d="M186.59,13.62a43.65,43.65,0,0,0-5.88,1.91,3.29,3.29,0,0,1-1.59.46c-.48,0-1.12-.41-2-1.24S176,13.34,176,13a.38.38,0,0,1,.18-.34,1.19,1.19,0,0,1,.47-.14,2.16,2.16,0,0,1,.62,0c.22,0,.42.07.62.12a6,6,0,0,0,1.88,0l6.82-1.59L186.66,7a10.26,10.26,0,0,0,0-1,3.86,3.86,0,0,0-.15-.78,2.06,2.06,0,0,0-.28-.62,3.2,3.2,0,0,0-.47-.57,3.09,3.09,0,0,1-1-1.7c0-.4.3-.6.91-.6a9.08,9.08,0,0,1,2.86.71c1.32.48,2,1,2,1.69a2.63,2.63,0,0,1-.29,1A7.56,7.56,0,0,0,190,6.72c-.07.87-.13,2.09-.18,3.65l5-1.2c1.22-.3,2-.51,2.37-.62a4.17,4.17,0,0,0,1.73-.91.93.93,0,0,1,.58-.29,6.22,6.22,0,0,1,2.37,1.27q1.78,1.26,1.8,2c0,.47-.6.89-1.83,1.23a3.64,3.64,0,0,0-1.4.88q-5,4.48-6.14,4.48c-.23,0-.35-.15-.35-.45a3.1,3.1,0,0,1,.87-1.5l2-2.43q.73-.88.9-1.11a1.94,1.94,0,0,0,.35-.65c0-.13-.08-.19-.26-.19a23,23,0,0,0-2.5.52c-.76.17-1.59.38-2.51.61s-1.94.51-3,.82c0,.93,0,1.83-.05,2.69s0,1.7,0,2.5,0,1.45,0,2a7.1,7.1,0,0,0,.16,1.39,2.92,2.92,0,0,0,.34.9,1.53,1.53,0,0,0,.57.53,3.69,3.69,0,0,0,1.52.36,17.52,17.52,0,0,0,2,0,20.43,20.43,0,0,0,2.1-.24,8.81,8.81,0,0,0,1.67-.44,4.71,4.71,0,0,1,1.72-.39,3.61,3.61,0,0,1,1.95,1q1.2.91,1.2,1.5c0,.36-.28.67-.84.91a6.73,6.73,0,0,1-1.4.27c-.65.08-1.51.14-2.57.18l-2.82.1-2.15,0c-2.44,0-4.08-.37-4.9-1.1a4.84,4.84,0,0,1-1.49-3.28C186.66,20.21,186.59,17.52,186.59,13.62Z" transform="translate(7.02)"/><path class="cls-1" d="M223.75,14.85a37.76,37.76,0,0,1,3.63,1.87c1,.62,1.93,1.2,2.67,1.75A15.77,15.77,0,0,1,231.82,20a7.77,7.77,0,0,1,1,1.19,2.51,2.51,0,0,1,.32,1.28,4.46,4.46,0,0,1-.68,2c-.46.83-.89,1.24-1.3,1.24s-.87-.49-1.36-1.46a19.74,19.74,0,0,0-3-4.37,18.82,18.82,0,0,0-4.08-3.49,25.65,25.65,0,0,1-8.08,6.85q-4.35,2.21-6.21,2.21c-.43,0-.65-.11-.65-.33s.62-.83,1.86-1.46a33.39,33.39,0,0,0,4.09-2.48,31,31,0,0,0,3.51-2.94,29.72,29.72,0,0,0,5.29-6.79c1.36-2.43,2.05-3.87,2.05-4.32a.37.37,0,0,0-.43-.42,31.64,31.64,0,0,0-3.34.84,20.15,20.15,0,0,0-4.22,1.56,2.36,2.36,0,0,1-1.27.42c-.37,0-.92-.4-1.66-1.2s-1.07-1.4-1.07-1.74.32-.5.94-.5a5.2,5.2,0,0,1,1,.1,6,6,0,0,0,.94.1,35.21,35.21,0,0,0,4.84-1q4-.9,4.84-1.62a1.87,1.87,0,0,1,1.21-.39,4.41,4.41,0,0,1,2.13.94c.93.61,1.4,1.08,1.4,1.41s-.35.68-1,1c-.35.15-.75.72-1.2,1.72A46.46,46.46,0,0,1,223.75,14.85Z" transform="translate(7.02)"/><path class="cls-1" d="M165.38,40.82c.15,0,.1-.38.12-.45C165.25,40.46,165.39,40.93,165.38,40.82Z" transform="translate(7.02)"/><polygon class="cls-1" points="169.9 41.77 169.94 41.6 169.57 42.02 169.9 41.77"/><path class="cls-1" d="M160.54,41.77c.23.71.85-.12,1.27.14l.07.16.18-.58C161.56,41.59,160.9,42,160.54,41.77Z" transform="translate(7.02)"/><path class="cls-1" d="M159.3,40.22c.08.28-.27.24.29.09a.23.23,0,0,1-.05-.07A1.3,1.3,0,0,1,159.3,40.22Z" transform="translate(7.02)"/><path class="cls-1" d="M159.54,40.24c.24,0-.16-.23,0,0Z" transform="translate(7.02)"/><path class="cls-1" d="M158.4,40.4l.32-.25c-.06-.16-.35-.2-.25-.32C158.14,40,158.21,40.13,158.4,40.4Z" transform="translate(7.02)"/><path class="cls-1" d="M158.09,40.92l.17-.1C158.23,40.75,158.19,40.72,158.09,40.92Z" transform="translate(7.02)"/><path class="cls-1" d="M158.62,40.59l-.36.23c.05.11.05.34.16-.08C158.39,41,158.47,40.74,158.62,40.59Z" transform="translate(7.02)"/><path class="cls-1" d="M158.82,40.7c.18.16.42.26.09.5C159.53,41.1,159.44,40.6,158.82,40.7Z" transform="translate(7.02)"/><path class="cls-1" d="M160.43,42.51l.24.2.21-.23C160.77,42.59,160.41,42.28,160.43,42.51Z" transform="translate(7.02)"/><path class="cls-1" d="M156.38,40a4.39,4.39,0,0,0,.13.6l.24-.18C156.63,40.35,156.4,40.25,156.38,40Z" transform="translate(7.02)"/><path class="cls-1" d="M156.51,40.63l-.35.26C156.48,40.92,156.53,40.8,156.51,40.63Z" transform="translate(7.02)"/><polygon class="cls-1" points="165.05 41.71 165.64 41.16 164.94 41.72 165.05 41.71"/><polygon class="cls-1" points="162.03 40.01 162.23 39.66 161.87 40.19 162.03 40.01"/><path class="cls-1" d="M154.1,40.07c.15-.29-.2-.49,0-.67a1.35,1.35,0,0,0-.65.53C153.61,39.8,153.83,39.83,154.1,40.07Z" transform="translate(7.02)"/><path class="cls-1" d="M153.09,40.25a1.92,1.92,0,0,0,.32-.32A1,1,0,0,0,153.09,40.25Z" transform="translate(7.02)"/><path class="cls-1" d="M155.54,40.81a.62.62,0,0,0-.28-.43l.14.43Z" transform="translate(7.02)"/><path class="cls-1" d="M155.41,40.82h0l-.3,0Z" transform="translate(7.02)"/><path class="cls-1" d="M155.58,40.82h0S155.57,40.87,155.58,40.82Z" transform="translate(7.02)"/><path class="cls-1" d="M157.1,41.33c-.22.23-.65.49-.23.86C157,41.89,156.78,41.69,157.1,41.33Z" transform="translate(7.02)"/><path class="cls-1" d="M155.76,41.35l.38.1c0-.11-.08-.28,0-.4Z" transform="translate(7.02)"/><polygon class="cls-1" points="162.59 41.49 162.77 41.35 162.63 41.31 162.59 41.49"/><path class="cls-1" d="M153.74,40.65a.75.75,0,0,1-.54.24,1.66,1.66,0,0,0,.65.12C153.88,40.88,154,40.64,153.74,40.65Z" transform="translate(7.02)"/><path class="cls-1" d="M154.55,40.77l0,0S154.56,40.85,154.55,40.77Z" transform="translate(7.02)"/><path class="cls-1" d="M151.2,40.88l0,.08a.17.17,0,0,1,0-.07Z" transform="translate(7.02)"/><path class="cls-1" d="M153.89,41.09c.16.09.26,0,.35-.15a1.23,1.23,0,0,1-.39.07C153.84,41.07,153.84,41.12,153.89,41.09Z" transform="translate(7.02)"/><path class="cls-1" d="M152.53,40.45a2.17,2.17,0,0,0,.29.24C152.73,40.55,152.56,40.34,152.53,40.45Z" transform="translate(7.02)"/><path class="cls-1" d="M154.46,40.68l0,0C154.43,40.57,154.44,40.61,154.46,40.68Z" transform="translate(7.02)"/><path class="cls-1" d="M154.46,40.68a1.43,1.43,0,0,0-.22.26.92.92,0,0,0,.28-.14A1.34,1.34,0,0,1,154.46,40.68Z" transform="translate(7.02)"/><path class="cls-1" d="M150.59,43.63c0-.4.46-.77.83-.34.37-.3.13-1.6-.19-2.33,0,.17,0,.33-.39.57.13.21.84.5.52.86-.5.21-.41-.14-.65-.35.2.5-.64.72-.53,1.45l.44-.26C150.63,43.34,150.47,43.52,150.59,43.63Z" transform="translate(7.02)"/><path class="cls-1" d="M152,41l.15,0c-.18-.07-.3-.23-.53-.54-.26.2-.32.35-.33.48l.76,0Z" transform="translate(7.02)"/><path class="cls-1" d="M152.8,41c-.13.43-.5.61-.27,1.08.45,0,.32-.36.59-.55-.73.11.21-.24-.32-.48a1,1,0,0,1,.4-.11,2.28,2.28,0,0,1-.38-.2v0h0c0,.06,0,.09,0,.06h0l0,.16c-.22-.09,0-.11,0-.16s0,0,0-.07h0l-.73.23A1.45,1.45,0,0,0,152.8,41Z" transform="translate(7.02)"/><path class="cls-1" d="M156.48,43.11a.2.2,0,0,1,0-.1C156.41,43.06,156.39,43.1,156.48,43.11Z" transform="translate(7.02)"/><path class="cls-1" d="M156.18,42.85c0-.06.1-.23.27-.19s0,.21,0,.35c.1-.11.36-.31,0-.52l-.05.06c-.29-.15-.67-.68-.62-.74A3.48,3.48,0,0,0,156.18,42.85Z" transform="translate(7.02)"/><path class="cls-1" d="M154.47,42l-.62.21.32.38,0-.23C154.5,42.46,154.42,42.18,154.47,42Z" transform="translate(7.02)"/><polygon class="cls-1" points="158.14 40.67 158.22 40.21 157.87 40.86 158.14 40.67"/><polygon class="cls-1" points="157.35 40.72 157.38 40.33 157.17 40.57 157.35 40.72"/><path class="cls-1" d="M105.5,45.63l-.18.12A.56.56,0,0,0,105.5,45.63Z" transform="translate(7.02)"/><path class="cls-1" d="M106.8,45.66l0-.19C106.77,45.57,106.75,45.65,106.8,45.66Z" transform="translate(7.02)"/><path class="cls-1" d="M130.82,40.77c-.26-.37-.55-1-.52-.5l.08.43A.41.41,0,0,1,130.82,40.77Z" transform="translate(7.02)"/><path class="cls-1" d="M117.46,43.36l.08.13.17-.42Z" transform="translate(7.02)"/><path class="cls-1" d="M117.27,45.15l-.34-.28A1.24,1.24,0,0,0,117.27,45.15Z" transform="translate(7.02)"/><path class="cls-1" d="M98.4,46.09l-.21.45C98.52,46.53,98.37,46.31,98.4,46.09Z" transform="translate(7.02)"/><path class="cls-1" d="M142.2,40.88a1.21,1.21,0,0,0-.57-.26C141.9,40.87,142.12,41.24,142.2,40.88Z" transform="translate(7.02)"/><path class="cls-1" d="M106,41a.31.31,0,0,0-.15.26C106,41.22,106,41.14,106,41Z" transform="translate(7.02)"/><path class="cls-1" d="M141,40.62a.53.53,0,0,0,.12.1.94.94,0,0,1,.53-.1C141.43,40.44,141.2,40.32,141,40.62Z" transform="translate(7.02)"/><path class="cls-1" d="M72.64,45.73s0,0-.06,0S72.6,45.74,72.64,45.73Z" transform="translate(7.02)"/><path class="cls-1" d="M65.14,41.36a1.21,1.21,0,0,1,.3,0S65.3,41.3,65.14,41.36Z" transform="translate(7.02)"/><path class="cls-1" d="M147.14,40.53c.16,0,0,0,0,0Z" transform="translate(7.02)"/><path class="cls-1" d="M148,42.25a.31.31,0,0,0-.07.21A.43.43,0,0,1,148,42.25Z" transform="translate(7.02)"/><path class="cls-1" d="M139.3,43.32h0C139.34,43.41,139.33,43.39,139.3,43.32Z" transform="translate(7.02)"/><path class="cls-1" d="M147.39,40.73a.8.8,0,0,0-.22-.13A.65.65,0,0,0,147.39,40.73Z" transform="translate(7.02)"/><path class="cls-1" d="M147.36,40.53l.14,0C147.52,40.5,147.51,40.45,147.36,40.53Z" transform="translate(7.02)"/><path class="cls-1" d="M146.9,40.56a.59.59,0,0,1,.27,0s0-.05,0-.07Z" transform="translate(7.02)"/><path class="cls-1" d="M86.44,44.57l0,0C86.24,44.71,86.31,44.68,86.44,44.57Z" transform="translate(7.02)"/><path class="cls-1" d="M126.44,45.27l0,0h0Z" transform="translate(7.02)"/><path class="cls-1" d="M125.83,45.6c.26-.54.41-.48.6-.36l-.2-1.25Z" transform="translate(7.02)"/><path class="cls-1" d="M102.39,45.76l.42.39c-.51.64-.88.42-.48,1,.06-1.36,1.65-.14,1.71-1.5l.28.29c-.08,0-.09.06-.17.05.54.65.4-1,1.1-.79.25.11.42.3.25.46l.55-.33a.12.12,0,1,1,0,.23l.83-.1v0a4.43,4.43,0,0,1,.52-.69c.21.2-.1.15,0,.32l.46-.33c.19.35-.19.69-.51.64.43,1.36.38-.34,1.31.45l-.44.17c.28.77.62.49,1.12,1-.12-.25-1-1.21-.49-1.54.14.1.33.15.6-.13,0,.49.26.37.59.34l0,.64c.36-.18.33-.51.54-.8.39.06.48.56.57,1,.64.1-.44-.8.31-.92.53.25.9,0,1.53-.4.37.22-.06.39.07.58l.33-.51c.08,0,.06.17,0,.25.28-.2,0-.64.46-.82.12-.7.89,1,1.43.23.13.18-.07.39,0,.64a4,4,0,0,0,1.23-1.09l.52.42c-.38-.48.1-1,.53-1.51a5.45,5.45,0,0,0-.33-.53l.68-.35c.08.11,0,.33-.1.59l.13-.15c.24.24.11.61-.06,1-.08-.12-.17-.26-.24-.39a2.54,2.54,0,0,0-.29,1.19.48.48,0,0,1,.22-.17.39.39,0,0,0,0,.26c0,.07.09-.07.2-.23l.16.71,0-.28.89.44c.63-.71,1.18-1.77,2.19-2.07-.25.53,0,.86-.07,1.48-.27-.66-.78.28-1.3.14.27.07.21.37.14.47l.93-.6c0,.51.2.38.45.59-.19-1,.69-.66,1.07-1,0,.34-.07.68-.53.6.51.75.66-1.18,1.16-.54-.12,0-.18,0-.22.13.26-.3.9-.06.75.23h-.11c.75.12,2.28,0,2.39-.85a11.38,11.38,0,0,1-.14,1.2l1.33-2.86c-.12.73.34,2.47-.28,2.88a.6.6,0,0,0,.77,0c-.12-.1-.3-1.06-.14-1.12.46.81.32.43.88,1.13-.18-.16,0-1.31.31-1.27a9.85,9.85,0,0,1-.08,1.25l.71-1.12c-.17.2,0,.95.13,1.27-.07-.22.62,0,.81-.09l-.3-.27c.81.17.8-1.58,1.6-1.52-.1.23-.24,1.43.17,1.57.19-.57.83-2.77,1.54-3.21l.13.33.55-.38a21.17,21.17,0,0,1-1.81,3.4c.3.26.08.39.54.36.16.31-.25.47-.38.49l1.05.2c-.05-.68.81-.68.77-1.24l-1.15.7c-.05-.67.66-1.91,1.41-1.79.19.27-.14,1.2-.12,1.42.09-.23.71-.44.77-.28l-.31.36c.41.26.68-.89,1.18-.25.17.05.51.87.54.47a10.29,10.29,0,0,1-.15-3.72A6.45,6.45,0,0,1,137,43c.28.6-.43,1.43-.19,1.95a1,1,0,0,1,.24-.49c.18.16-.08.57.31.49.07-.68.81.06.19-.58.39-.19.41.14.86.11a2.11,2.11,0,0,1,.8-1.69,1.06,1.06,0,0,0,.1.5c.79.06,1.22.37,1.95.38.07.17.43.36.28.66.1-.12.2-.35.43-.37.44.59-.51.09-.18.8,0-.4.59-.55.92-.79-.1-.62-.75-.12-1.08.13A2.51,2.51,0,0,1,143,42c.61-.21.26.54.37.42,1.15.15,1-1.47,1.93-.86.38.54,0,1.07.1,1.46-.49.2-.76-.35-1.1-.32l.42.25c-.16.18-.49.32-.68.16.32.48,1.95.09,2.83.54.16-.18.43-.37.3-.59l-.28.08c-.25-.43.53-.6.18-.8.37-.31.8-.79,1.33-.54l.1.61c0-.18-.35-.36-.5-.18.22-.27.81.83,1,0l-.37-.42c.38-.31.85-1,1.32-.77-.22-.6-.11.07-.44-.64.29.88-1.21,0-.74.89-.34-.82-.59-.35-1-1,0,.2.16.39-.24.29,0,.06-.06.13-.08.18l0,0,0,0s0,0,0,0a.75.75,0,0,1,.2.31c-.2.47-.82.45-1,.69-.24-.1.09-.23,0-.45l-.32.36c0-.45-.62-.74-.07-1l-.5,0a.79.79,0,0,0-.94-.16c-.23-.1-.59.5-.39.15l-.77.27v-.11c-.77,0-1.58.75-2.46-.07a1.2,1.2,0,0,1-1,.13l-.08-.39c-.33.14-1-.39-1.14,0-.36-1-1.61-.23-2.2-.42l0,.51a2.93,2.93,0,0,0-1.28.32l0,.45c-.43.37-1.11-.32-1.79-.28.05-.17.22-.12.34,0-.81-1-1.71.74-2.45,0a.29.29,0,0,1-.44,0s0,0,0,0h-.07a3,3,0,0,0-.26-.24A.88.88,0,0,0,131,41a1.37,1.37,0,0,0-.57.18l-.09-.49,0,0c-.21-.18-.17.23-.06.59a1.07,1.07,0,0,0-.27.29c-.17-.78-.56.26-.79-.57-.14.41-1.05.31-1.17,1.16,0-.12-.06-.17.05-.17-.24-.1-.47-.2-.68,0l-.1-.61-.51.82c-.31-.37-.44-.59-.13-1.06-.75.73-.61.27-1.24,1l0-.39c-.23,0-.59.54-.73.21-.51-.75-2.51-.1-3.81-.8.25,1.17-.61-.52-.66.38-.08-.27-.26-.43-.05-.67-.66.27-1-.44-1.46.33-.07-.28.15-.41.08-.57-.06.06-.21.24-.28.07s.09-.23.2-.35c-.68.05-.75.9-.8,1.7-.34-.38-.51-.33-.76.19-.12-.26-.32-.53.1-.62-.24,0-1.45-.39-1.47.25-.08-.16-.34,0-.4,0a4.07,4.07,0,0,0-1.1,0l.14.11c-.2.77-.43.17-.85.26v-.08c-1-.55-.42.27-1.37-.36l0,.48c-.09,1-.85-.61-1.4-.22l.2.28c-.3.35-.85-1.41-1.15-1.54-.07-.09.11-.14.2-.21-.8-.6-.11.63-.7.78-.11-.34.14-.86-.26-.93-.19-.27-1.15,1.1-1.7.45.12.26.24.53,0,.72s-1.14-1-1.52-.16a.31.31,0,0,1-.08-.21c-.32.22-1,.36-1.24.8-.3-1.65-2,.81-2-.72l-1,.08,0-.15c-.63-.1-.85.26-1.08.63-.14-.11,0-.25,0-.33-.93-.31-1-.24-1.8.52l-.08-.5c-.21.29-1.34-.77-2.25-.2a.42.42,0,0,1,.1-.22c-1,.58-2.45-1.37-2.82.43l-.67.45c.87.14-.13.78.22,1.08-.34.11-.88-.54-.46-.64l.06.09c.16-.94-1.08-.33-1.06-1-1.71,0-3.39-.48-5-.52l.19.74-.56,0c-.15-.17-.2-.57.2-.54-.21-.41-.67.35-.68.51-.79-.3.3-.85.06-.87l-.32.05.07.09c-.26.3-.29.61-.77.58-.3-.15-.15-.45-.27-.48s0-.08-.19,0l-.71-.07.29.58c-.32.29-.67,0-.34.63-.48-1-2.64-.37-2.93-.68a1.56,1.56,0,0,1-1.41.36c.13.12.21.77-.25.69.17-1.34-.85-.58-1.22-1.54.33.64-1.32.16-.79,1.06-.39-.1,0-.5-.32-.81-.92.52-2-.34-3.16-.17,0,.18.17.45-.07.71L73,41c-.23.09-.21,1-.62.41.06.14.14.37,0,.42-2.22-.85-4.54.71-6.8-.9.3.34.1.37-.14.38.16.08,0,.44,0,.68l-1-.67c-.17.67-1,.05-1.11.68l.3-.11c-.4.74.56,1.66.5,2.61.45-.84,1.18,1.26,1.91.05.16.19-.14.31-.05.53.18-.41.41-.5.82-.31l0,.1c1.17-.1,1.67.3,3,.57L69.73,45c.28.06.34.21.47.33.32-.72-.79,0-.5-.83.38,1,2,0,2.24,1.11.43,0-.13-.55.31-.55l.11.3.11-.38c.29.06.43.43.44.68-.07,0-.2.07-.27.09.37.35,1-.11,1.17,0l-.42-.18c1.18-.28,2.63.11,3.77-.49l-.09-.23c.87-.41.7.25,1.66.06l0,0a.84.84,0,0,1,.71-.31c-.24.26.46.51.14.8.95-.45.47-.35,1.09-1.18l.15.37c.21-.34.23-.51.71-.61-.39.32.3.57-.14,1,1,.81,1.49-.82,2,.36.47-1-.86-.57-.61-.79-.21-.33.38-.76.7-.66s.54,1.31,1.35,1.29c-.08,0-.08.08-.16.07.3.26.59-.35,1,.07.21-.62.48,0,.54-.75l-.74.18c.42-.21.81-1.13,1.5-.68a1.3,1.3,0,0,1-.4.48c.2.24.39-.15.6.09-.06.79-.9.17-1.35.77.22.34.85-.57.63.29.32-1.09.79.14,1.34-.7l0,.48c.09-.08.27-.3.43-.29l-.29.62c.44-.53.85.46,1.27.17-.88,0-.19-.57-.57-.92,1.1-.63.63,1.24,1.86,1-.17.06-.63-.29-.37-.51a1.48,1.48,0,0,1,.69.53c.81-.1-.13-.49.22-.78.28.58.4-.24.75-.42v.48c.92.31.24-1,1.08-.63l-.36.67.44-.17-.09.55c.47-.41.62-.31,1.08-.15-.11-.34.06-.88.47-.89.28.28-.15.46.43.39-.13.3-.28.68-.53.23,0,.16-.13.31-.16.46.31.33.76.08,1,.07a.38.38,0,0,1-.23-.11l.85-.67c.13.18,0,.33-.08.47.17,0,.29-.27.54-.32-.07.4,0,.8-.4,1l.8-.44c0,.17.41.47.31.61.44.23,1.09-.76,1.68-.45a.38.38,0,0,1,.22-.21c.55.09,1,.57,1.7,0l.37.71c.52-.16-.5-.89.36-1.15.6-.23.22.6.44.79.3-.35.82-1.07,1.38-.5C102.71,45.81,102.56,45.71,102.39,45.76Zm6.35-.31c-.12.1-.37.41-.46.13C108.42,45,108.53,45.29,108.74,45.45Zm9.65-1.16c-.09.16-.23.08-.39-.11A.37.37,0,0,1,118.39,44.29Zm26.9-3.36s0,0,0,0C145,40.76,145.1,40.84,145.29,40.93Zm.57.21a.2.2,0,0,0,0-.21c0,.13-.17.13-.32.1C145.62,41.16,145.69,41.24,145.86,41.14Zm-61.22.19.11.12C84.5,41.59,84.57,41.47,84.64,41.33Z" transform="translate(7.02)"/><path class="cls-1" d="M117.3,45a.65.65,0,0,1,0-.27A.2.2,0,0,0,117.3,45Z" transform="translate(7.02)"/><path class="cls-1" d="M98.44,46h0a.24.24,0,0,0,0,.08Z" transform="translate(7.02)"/><path class="cls-1" d="M137,45.23a.6.6,0,0,1-.23-.25C136.8,45.1,136.85,45.2,137,45.23Z" transform="translate(7.02)"/><path class="cls-1" d="M148.88,40.32l-.37.12c.18,0,.24.08.33.16C148.84,40.49,148.77,40.32,148.88,40.32Z" transform="translate(7.02)"/><path class="cls-1" d="M152.05,43.3c0-.06.11,0,.17-.06l0-.23C152,43,151.81,43.21,152.05,43.3Z" transform="translate(7.02)"/><path class="cls-1" d="M149.22,41.92c0,.4.26.27.51.19h0C149.76,41.54,149.49,41.73,149.22,41.92Z" transform="translate(7.02)"/><path class="cls-1" d="M149.79,42.1a.49.49,0,0,1,.24,0C150.06,41.86,149.93,42,149.79,42.1Z" transform="translate(7.02)"/><path class="cls-1" d="M146.58,40.87c.12.1.08-.52.15-.36C146.86,40,145.92,41.14,146.58,40.87Z" transform="translate(7.02)"/><polygon class="cls-1" points="156.44 43.26 156.35 42.76 156.21 43.16 156.44 43.26"/><path class="cls-1" d="M147.41,42.89l.4.14a.18.18,0,0,1,.11-.17C147.67,42.84,147.4,42.74,147.41,42.89Z" transform="translate(7.02)"/><path class="cls-1" d="M147.92,42.86a.37.37,0,0,0,.33-.09A1,1,0,0,0,147.92,42.86Z" transform="translate(7.02)"/><polygon class="cls-1" points="155.88 43.41 155.76 43.3 155.47 43.27 155.88 43.41"/><path class="cls-1" d="M143,42.79l-.44.15c0,.17.07.27.24.2S143.08,43,143,42.79Z" transform="translate(7.02)"/><path class="cls-1" d="M144.36,44.16c-.12-.1-.13-.21-.2-.38v.62Z" transform="translate(7.02)"/><path class="cls-1" d="M143.06,44.31c0,.17-.65.49-.08.45C143,44.59,143.47,44.45,143.06,44.31Z" transform="translate(7.02)"/><polygon class="cls-1" points="143.35 43.52 143.47 43.52 143.45 42.5 143.35 43.52"/><path class="cls-1" d="M130.42,46c.52.24.12-.63.6-.32.12-.24-.39-.25-.26-.46C130.44,45.43,130.27,45.29,130.42,46Z" transform="translate(7.02)"/><path class="cls-1" d="M130.76,45.18a1.2,1.2,0,0,0,.16-.16A.58.58,0,0,0,130.76,45.18Z" transform="translate(7.02)"/><polygon class="cls-1" points="70.91 40.81 70.57 40.6 70.78 40.94 70.91 40.81"/><path class="cls-1" d="M63.24,41.56l-.08-.64L63,41.5C63,41.47,63.18,41.42,63.24,41.56Z" transform="translate(7.02)"/><path class="cls-1" d="M109.68,46.75l0-.15c0-.17-.13-.18-.29-.21Z" transform="translate(7.02)"/><polygon class="cls-1" points="112.09 46.27 112.17 46.28 112.02 45.7 112.09 46.27"/><path class="cls-1" d="M101.2,47c.16,0,.35-.11.51-.08C101.36,47,101.16,46.29,101.2,47Z" transform="translate(7.02)"/><line class="cls-2" y1="34.77" x2="249.37" y2="34.77"/></g></g></svg>