<svg xmlns="http://www.w3.org/2000/svg" viewBox="0 0 330.35 114.86"><defs><style>.cls-1{fill:#fff;}</style></defs><g id="レイヤー_2" data-name="レイヤー 2"><g id="レイヤー_1-2" data-name="レイヤー 1"><rect class="cls-1" x="7.17" y="99.19" width="7.83" height="15.66" rx="1.42"/><polygon class="cls-1" points="114.86 102.46 0 105.07 0 106.37 114.86 106.37 114.86 102.46"/><polygon class="cls-1" points="114.86 111.59 0 108.98 0 107.68 114.86 107.68 114.86 111.59"/><path class="cls-1" d="M7.18,54.17A50.25,50.25,0,1,1,84.41,96.53h6.75A54.16,54.16,0,1,0,3.26,54.17,53.8,53.8,0,0,0,23.69,96.53h6.76A50,50,0,0,1,7.18,54.17Z"/><path class="cls-1" d="M41.2,74h.7v3.6c0,1.44-.7,1.87-1.63,1.87a2.36,2.36,0,0,1-.75-.12l.11-.57a1.78,1.78,0,0,0,.58.1c.62,0,1-.28,1-1.33Z"/><path class="cls-1" d="M47.45,77.72l-.56,1.7h-.72L48,74h.84l1.84,5.39h-.74l-.58-1.7Zm1.77-.54-.53-1.55c-.12-.36-.2-.68-.28-1h0c-.08.32-.16.65-.27,1l-.53,1.56Z"/><path class="cls-1" d="M55,74.09a8.71,8.71,0,0,1,1.33-.1,2.2,2.2,0,0,1,1.51.45,1.41,1.41,0,0,1,.47,1.12,1.58,1.58,0,0,1-.41,1.15,2.21,2.21,0,0,1-1.65.6,2.38,2.38,0,0,1-.56,0v2.16H55Zm.69,2.6a2.35,2.35,0,0,0,.58.06c.84,0,1.35-.41,1.35-1.16s-.51-1-1.27-1a2.47,2.47,0,0,0-.66.06Z"/><path class="cls-1" d="M63.64,77.72l-.56,1.7h-.72L64.2,74H65l1.84,5.39h-.74l-.58-1.7Zm1.77-.54-.53-1.55c-.12-.36-.2-.68-.28-1h0c-.08.32-.17.65-.28,1l-.52,1.56Z"/><path class="cls-1" d="M71.19,79.42V74H72l1.73,2.72a15.81,15.81,0,0,1,1,1.76h0a22.13,22.13,0,0,1-.08-2.22V74h.65v5.39h-.7l-1.71-2.74a15.61,15.61,0,0,1-1-1.8h0c0,.68,0,1.33,0,2.22v2.31Z"/><path class="cls-1" d="M30.32,44.2a14.72,14.72,0,0,1,10.34-4.28,12.48,12.48,0,0,1,7.92,2.63,14.22,14.22,0,0,1,5.14,11A9,9,0,0,1,50,61.41c-2.54,1.81-6.66,3-12.71,3.24-.23,0-.32-.1-.32-.19s.06-.22.25-.25a21,21,0,0,0,8.69-3.94,10,10,0,0,0,3.55-8.05,12.39,12.39,0,0,0-3.17-8.5,8,8,0,0,0-5.8-2.53c-.32,0-.64,0-1,.06a7,7,0,0,1,1.26,1.49,4.79,4.79,0,0,1,.8,2.85,17.25,17.25,0,0,1-.35,2.73,27.09,27.09,0,0,1-4.6,10.78c-1.65,2-3.55,3.17-5.23,3.17A2.66,2.66,0,0,1,28.48,60a10.77,10.77,0,0,0-1-2.31c-.92-1.5-1.81-2.6-1.81-4.35C25.69,49.9,27.66,46.73,30.32,44.2ZM29.37,57a2,2,0,0,0,1.84,1c1,0,2.18-.76,3.39-2.28A26.4,26.4,0,0,0,39.13,46a12.47,12.47,0,0,0,.35-2.26,4.51,4.51,0,0,0-.25-1.52,6.11,6.11,0,0,0-.44-.85,11.51,11.51,0,0,0-6.31,4.24,14.81,14.81,0,0,0-3.68,9.07A4,4,0,0,0,29.37,57Z"/><path class="cls-1" d="M68.31,53.71a4.81,4.81,0,0,1-1.3-3,4.55,4.55,0,0,1,1.08-2.85,32.21,32.21,0,0,1,2.28-2.57,6.5,6.5,0,0,1-2.57-1.9,5.22,5.22,0,0,1-1-2.29,9.94,9.94,0,0,1-.1-1,5.53,5.53,0,0,1,.07-.7c0-.19.12-.29.25-.29s.16.07.22.23a4.22,4.22,0,0,0,.7,1.2,3.81,3.81,0,0,0,1.43,1,9.44,9.44,0,0,0,3.39.7,3.48,3.48,0,0,1,2.31.86,2.72,2.72,0,0,1,1.18,2.19,1.34,1.34,0,0,1-.38,1,2.29,2.29,0,0,1-1.65.41,7,7,0,0,0-2.63.19A8.32,8.32,0,0,0,69,48.45a2.19,2.19,0,0,0-.82,1.36c0,.76.51,1.36,1.39,2.12.48.42,1,.77,1.49,1.15a11.81,11.81,0,0,1,5.14-1.18,11,11,0,0,1,4.35,1,11.73,11.73,0,0,1,3.93,2.86,5.82,5.82,0,0,1,1.65,3.61,1.88,1.88,0,0,1-.57,1.56,2.18,2.18,0,0,1-1.46.53A2.71,2.71,0,0,1,82.51,61a3.22,3.22,0,0,1-.89-1.2c-.31-.73-.53-1.49-.88-2.19a9.41,9.41,0,0,0-2.35-3.11,5.51,5.51,0,0,0-3.65-1.33,5.15,5.15,0,0,0-2.56.67,20.18,20.18,0,0,1,2.18,1.62c1.53,1.3,2.22,2.53,2.22,4a4,4,0,0,1-1.52,3.05,4.47,4.47,0,0,1-2.79.92,18.52,18.52,0,0,1-3.87-.92c-1.2-.32-2.6-.67-4.15-1.15-.13.2-.29.35-.41.51a14.48,14.48,0,0,1-1.72,2,2.61,2.61,0,0,1-1.74.57,5.57,5.57,0,0,1-2.31-.38,1.93,1.93,0,0,1-1.3-1.81c0-.85.47-1.55,1.71-1.74.76-.13,1.46-.16,1.74-.19a6.73,6.73,0,0,0,2.86-1.52c1.07-.86,1.93-1.68,3-2.51.89-.66,1.81-1.39,2.76-2C68.66,54.12,68.5,53.93,68.31,53.71Zm-1,4c-1,1-1.8,2.18-2.53,3.07a26.82,26.82,0,0,0,3.52.16,9.47,9.47,0,0,0,3-.35,1.73,1.73,0,0,0,1.27-1.52,3.93,3.93,0,0,0-1.18-2.38,11.61,11.61,0,0,0-1.49-1.39A19,19,0,0,0,67.29,57.71ZM81.88,45.4a2.15,2.15,0,0,1,1.2,1.78,1.35,1.35,0,0,1-1.23,1.43c-.45,0-.83-.2-1.21-.86a6.75,6.75,0,0,0-2.5-2.7c-.16-.06-.23-.15-.23-.25s.1-.19.32-.19A7,7,0,0,1,81.88,45.4Zm0-3a6.17,6.17,0,0,1,2.7.51,2.11,2.11,0,0,1,1.33,1.8A1.22,1.22,0,0,1,84.83,46c-.42,0-.73-.13-1.24-.86A6.36,6.36,0,0,0,81,42.83c-.16-.06-.22-.15-.22-.25s.09-.16.28-.19S81.62,42.36,81.91,42.36Z"/><path class="cls-1" d="M160.37,38.25a3.47,3.47,0,0,0-.88-1.68.34.34,0,0,1-.11-.28,2.91,2.91,0,0,1,.15-.68l.2-.53c.06-.15.11-.28.16-.39l.16-.3a2.23,2.23,0,0,1,.19-.32c.16-.25.21-.4.14-.44a.35.35,0,0,0-.32,0c-.29.1-.57.18-.81.25l-.73.19c0,.41,0,1,0,1.69v2.4c0,.88,0,1.81,0,2.79s0,1.95,0,2.88c0,.66,0,1.21,0,1.63s0,.78-.07,1a6.23,6.23,0,0,1-.11.67c0,.17-.1.35-.15.53q-.37,1.09-.9,1c-.34,0-.67-.43-1-1.13a5.33,5.33,0,0,1-.24-.7,1.89,1.89,0,0,1,0-.58,2.1,2.1,0,0,1,.13-.58c.07-.2.17-.43.29-.7a4.78,4.78,0,0,0,.25-1.24c.06-.61.12-1.33.15-2.18s.06-1.77.07-2.8,0-2.07,0-3.13a4.14,4.14,0,0,0-.62-2.2,1.57,1.57,0,0,1-.27-.6.25.25,0,0,1,.2-.3,1.72,1.72,0,0,1,.75,0,12.33,12.33,0,0,1,1.41.39,3.76,3.76,0,0,0,1.1-.43,4.05,4.05,0,0,0,.82-.6,2.89,2.89,0,0,1,.35-.31.71.71,0,0,1,.35-.13,1.19,1.19,0,0,1,.47.06,4.84,4.84,0,0,1,.67.29,6.58,6.58,0,0,1,1,.57,1,1,0,0,1,.38.44.39.39,0,0,1-.15.39,2.66,2.66,0,0,1-.57.38,4.85,4.85,0,0,0-1,.71,11.15,11.15,0,0,0-1.24,1.38,1.22,1.22,0,0,0-.26.49q0,.15.3.33a3.4,3.4,0,0,1,1.74,1.71,2.36,2.36,0,0,1-.22,1.87c-.31.59-.63.91-1,1s-.6-.13-.79-.57a2.33,2.33,0,0,0-.48-.6,6.31,6.31,0,0,0-.88-.66c-.25-.16-.36-.27-.33-.35s.2-.09.52-.06a1.89,1.89,0,0,0,1-.11A.52.52,0,0,0,160.37,38.25Zm1.43,9.17c-.33.35-.61.5-.87.45a1,1,0,0,1-.67-.6,1.85,1.85,0,0,1-.23-.86,1,1,0,0,1,.32-.71,2.73,2.73,0,0,0,.51-.74,4,4,0,0,0,.3-.86c.12-.49.25-.72.4-.71s.36.25.63.69a2.42,2.42,0,0,1,.36,1.73A3.29,3.29,0,0,1,161.8,47.42Zm9.74-10.85a8.2,8.2,0,0,1,.94.61,1.36,1.36,0,0,1,.41.46.41.41,0,0,1,0,.39,1.42,1.42,0,0,1-.37.37,2.66,2.66,0,0,0-.4.34,4.1,4.1,0,0,0-.35.47,6.22,6.22,0,0,0-.36.69q-.19.39-.45,1a1.4,1.4,0,0,1,.56.38.42.42,0,0,1,.11.39.56.56,0,0,1-.32.3,1.79,1.79,0,0,1-.68.16c-.34,0-.73,0-1.19.09l-1.38.14c-.46,0-.91.11-1.34.18s-.79.12-1.06.18a7.63,7.63,0,0,1-.76.15,2.93,2.93,0,0,1-.49,0,1,1,0,0,1-.32-.07,1.82,1.82,0,0,1-.28-.14c-.6-.4-.88-.66-.84-.8s.54-.21,1.5-.19l.7,0c.34,0,.72-.06,1.15-.12l1.33-.18,1.28-.22a.53.53,0,0,0,.31-.12.7.7,0,0,0,.13-.24c.11-.39.19-.77.26-1.12s.14-.77.23-1.27a1,1,0,0,0,0-.45c0-.1-.14-.14-.3-.13q-1.12.07-2.13.24a14,14,0,0,0-1.63.34,5.22,5.22,0,0,1-1.1.21,1.79,1.79,0,0,1-.88-.26c-.57-.33-.83-.57-.78-.7s.43-.2,1.13-.2a8.39,8.39,0,0,0,1.29-.13c.55-.09,1.1-.19,1.67-.31s1.07-.23,1.52-.35a5.45,5.45,0,0,0,.84-.27l.47-.2a.83.83,0,0,1,.41-.07,1.48,1.48,0,0,1,.5.13C171,36.29,171.25,36.41,171.54,36.57ZM169.19,33a22.12,22.12,0,0,1-2.57.76,13,13,0,0,1-2.29.34c-.9.06-1.35,0-1.37-.13s.37-.35,1.15-.6A13.88,13.88,0,0,0,167.29,32c.64-.42,1-.76,1-1s.25-.62.49-.67.63.11,1.21.49c.95.62,1.43,1.08,1.45,1.38s-.31.45-1,.47a2.71,2.71,0,0,0-.66.12Zm3.48,15.16a7.62,7.62,0,0,1-3,.79,10.39,10.39,0,0,1-2.78-.29,4.25,4.25,0,0,1-2.31-1.34,6.4,6.4,0,0,1-1.28-2.57,1.61,1.61,0,0,1-.08-.8c0-.17.1-.27.17-.3a.43.43,0,0,1,.34.08,2.15,2.15,0,0,1,.52.71,7,7,0,0,0,.65,1,3.13,3.13,0,0,0,.87.76,4.27,4.27,0,0,0,1.58.57,8.4,8.4,0,0,0,2.47,0,.48.48,0,0,0,.4-.2.66.66,0,0,0,0-.54,2.75,2.75,0,0,0-.33-.75c-.34-.65-.43-1-.29-1.06s.46.17,1,.68a13.91,13.91,0,0,0,1.35,1.2,5.07,5.07,0,0,0,1,.67c.35.17.52.38.5.63S173.15,47.93,172.67,48.15Zm-8.12-11.44a2.58,2.58,0,0,1-.66-.62,4.94,4.94,0,0,1-.51-.84c-.16-.42-.21-.68-.14-.77s.33-.07.78.05a2.48,2.48,0,0,1,1.21.53,1.17,1.17,0,0,1,.4.79c0,.5-.08.81-.32.92A.75.75,0,0,1,164.55,36.71Zm4.2,3.14c-.34,0-.69.1-1.06.17l-.85.14c-.44.1-.81.18-1.09.22a5.73,5.73,0,0,1-.72.07,1.25,1.25,0,0,1-.44-.06.92.92,0,0,1-.28-.14c-.47-.32-.7-.52-.68-.6s.35-.13,1-.17l1.08-.17c.47-.08.91-.18,1.32-.29s.57-.16.78-.2a3.21,3.21,0,0,1,.54-.08,1.58,1.58,0,0,1,.39,0,2.23,2.23,0,0,1,.34.14q.59.29.48.57C169.45,39.67,169.19,39.79,168.75,39.85Zm-1.47,5.41a6.67,6.67,0,0,1-.77-.69,6.54,6.54,0,0,1-.66-.82c-.25-.34-.33-.56-.23-.67s.38-.13.86,0l1,.21a2.48,2.48,0,0,1,.6.24.71.71,0,0,1,.3.37,2.46,2.46,0,0,1,.1.59,1.2,1.2,0,0,1-.09.56.71.71,0,0,1-.29.34.6.6,0,0,1-.4.1A.75.75,0,0,1,167.28,45.26Zm-.38-9.41a3.56,3.56,0,0,1-.29-.54,6.47,6.47,0,0,1-.28-.69c-.15-.41-.15-.67,0-.76s.37-.07.72.07a2.71,2.71,0,0,1,1.08.69,1.23,1.23,0,0,1,0,1.43.67.67,0,0,1-.85.17A.87.87,0,0,1,166.9,35.85Zm2.77-.09c-.47.24-.74.28-.81.13s.07-.36.44-.66a3.81,3.81,0,0,0,.79-.9,2.16,2.16,0,0,0,.33-.81,3,3,0,0,1,.11-.47.37.37,0,0,1,.22-.22.89.89,0,0,1,.41,0,5.16,5.16,0,0,1,.67.27q1,.45,1.08.78c.06.23-.16.43-.66.61a7.55,7.55,0,0,0-1.07.48C170.81,35.22,170.3,35.47,169.67,35.76Zm3.24,9.59a4.7,4.7,0,0,1-.46-.35l-.54-.46c-.19-.16-.37-.33-.55-.51s-.35-.34-.5-.5q-.53-.56-.48-.72t.75-.12a9.11,9.11,0,0,1,1.53.21,3.38,3.38,0,0,1,1,.37,1.25,1.25,0,0,1,.51.59,2.43,2.43,0,0,1,.16.81.88.88,0,0,1-.37.88C173.66,45.7,173.32,45.63,172.91,45.35Z"/><path class="cls-1" d="M184.66,36.07c.58.06.88.28.88.68a1.6,1.6,0,0,1-.47.86,4.24,4.24,0,0,0-.52.77q0,.18.24-.09c.41-.42.8-.82,1.19-1.18s.75-.68,1.12-1,.69-.54,1-.74a5.07,5.07,0,0,1,.79-.47,3.37,3.37,0,0,1,1.5-.33,3.53,3.53,0,0,1,1.23.21,2.67,2.67,0,0,1,1,.61,3.11,3.11,0,0,1,.65.93,2.92,2.92,0,0,1,.24,1.2,3.66,3.66,0,0,1-.09.86,33.51,33.51,0,0,0-.84,6.62,6.11,6.11,0,0,0,0,.82,1.1,1.1,0,0,0,.13.47.48.48,0,0,0,.3.23,2.71,2.71,0,0,0,.55.09,2.49,2.49,0,0,0,1.16-.4,4.08,4.08,0,0,0,1.39-1.56c.44-.76.81-1.14,1.12-1.14s.29.21.29.63a5.48,5.48,0,0,1-2.16,3.68,3.48,3.48,0,0,1-1.58.65,2.92,2.92,0,0,1-1.59-.19,2.61,2.61,0,0,1-1.2-1.07,3.67,3.67,0,0,1-.45-2,54.17,54.17,0,0,1,.79-7.24,3.32,3.32,0,0,0,0-.42,1.61,1.61,0,0,0-.08-.54,1,1,0,0,0-.32-.45,1,1,0,0,0-.67-.19c-1.23,0-3.26,1.46-6.07,4.38,0,.41-.05.82-.07,1.24s0,.84,0,1.26,0,.84,0,1.24,0,.77.07,1.14,0,.64.06.81,0,.28,0,.29a2.68,2.68,0,0,1-.62,1.76c-.43.53-.81.79-1.14.79s-.53-.36-.6-1.1a5.43,5.43,0,0,0-.94-2.37.93.93,0,0,1-.2-.55.32.32,0,0,1,.35-.36.92.92,0,0,1,.64.27,1.19,1.19,0,0,0,.37.24c.06,0,.1-.13.13-.4s0-.48,0-1,0-1.26,0-2.2c-.75,1.21-1.29,2.14-1.63,2.8-.16.32-.34.65-.54,1s-.42.66-.67,1c-.48.7-.87,1-1.14,1s-.49-.2-.62-.59a4.39,4.39,0,0,1-.18-1.17,2.52,2.52,0,0,1,.16-.94.87.87,0,0,1,.39-.49,4,4,0,0,0,.43-.27,3.45,3.45,0,0,0,.34-.3,3,3,0,0,0,.42-.52c.18-.24.41-.55.68-.93.55-.76,1-1.39,1.24-1.87l.68-1.37c.11-.22.2-.38.25-.49a1.28,1.28,0,0,0,.09-.24.11.11,0,0,0,0-.09h-.07a.64.64,0,0,0-.28.09l-.3.12-.54.21A3.53,3.53,0,0,1,180,39a1.3,1.3,0,0,1-1.3-.95,4.68,4.68,0,0,1-.37-1.54c0-.22.07-.33.22-.33a1.54,1.54,0,0,1,.72.42,1.58,1.58,0,0,0,1,.42,3.86,3.86,0,0,0,.55-.05,5,5,0,0,0,.68-.13,6.58,6.58,0,0,0,1.28-.37,16.3,16.3,0,0,0,.22-2.37,3.27,3.27,0,0,0-.13-1.17,2.23,2.23,0,0,0-.62-.75,1.27,1.27,0,0,1-.48-.84c0-.25.18-.37.55-.37a5.11,5.11,0,0,1,1.38.39,6.21,6.21,0,0,1,1.4.68.74.74,0,0,1,.36.56,3.1,3.1,0,0,1-.26,1,6.64,6.64,0,0,0-.35,1.21A10.84,10.84,0,0,0,184.66,36.07Z"/><path class="cls-1" d="M217.48,45.13q-1.42.46-2.28.66a3.92,3.92,0,0,1-1.44.11,2.31,2.31,0,0,1-1.11-.5c-.34-.28-.77-.69-1.29-1.21s-.88-.91-1.29-1.31-.79-.75-1.13-1.05a9.34,9.34,0,0,1,.59,1.85,8,8,0,0,1,.16,1.5c0,.61,0,1.13,0,1.54a4.05,4.05,0,0,1-.16,1,2.65,2.65,0,0,1-.32.72,6.79,6.79,0,0,1-.54.62,2.12,2.12,0,0,1-1.26.72.76.76,0,0,1-.75-.5,4,4,0,0,0-.52-.92,8.88,8.88,0,0,0-1-1.08c-.39-.35-.57-.57-.54-.67s.29-.09.74,0a8.74,8.74,0,0,0,1.13.18,1.33,1.33,0,0,0,.66-.11.72.72,0,0,0,.33-.44,3.66,3.66,0,0,0,.15-.82,8.3,8.3,0,0,0,0-1.87,9.54,9.54,0,0,1-3,2.09,17.66,17.66,0,0,1-3.66,1.15c-.56.1-.87.1-.94,0s.18-.3.74-.58a28.41,28.41,0,0,0,3.45-2.1A17.44,17.44,0,0,0,207,41.61a6.12,6.12,0,0,0-.33-.75,10.5,10.5,0,0,1-1.1,1,6.7,6.7,0,0,1-1.11.74,8.17,8.17,0,0,1-1.25.51,13.38,13.38,0,0,1-1.51.37q-.71.15-.78-.06c-.06-.14.15-.33.6-.58.85-.49,1.63-1,2.33-1.48a8.85,8.85,0,0,0,1.89-1.78l-.11-.11a.69.69,0,0,0-.13-.11c-.36.21-.69.38-1,.51a6.63,6.63,0,0,1-.78.31,4.65,4.65,0,0,1-.72.16l-.78.1q-1,.13-1-.09c0-.14.28-.36.89-.64a12.27,12.27,0,0,0,1.68-.88,16.94,16.94,0,0,0,1.8-1.29,4.83,4.83,0,0,0,.72-.75,2.92,2.92,0,0,1-.83-.07,5,5,0,0,1-.73-.26c-.53-.25-.76-.44-.71-.57s.37-.21,1-.22a5.73,5.73,0,0,0,.65,0c.25,0,.52,0,.8-.1s.55-.09.81-.15l.71-.18c.45-.14.84-.26,1.15-.34s.58-.13.78-.16a1.9,1.9,0,0,1,.52,0,1.25,1.25,0,0,1,.41.11q.82.38.78.72t-1.14.6l-1.5.29-1.16.21a4.25,4.25,0,0,1,.59.54.53.53,0,0,1,.15.35.34.34,0,0,1-.18.25,3.63,3.63,0,0,1-.43.2c-.2.09-.41.19-.61.3s-.43.25-.68.41A5,5,0,0,1,208,40.09a6.06,6.06,0,0,1,.83.36,10.91,10.91,0,0,0,1-1,5.14,5.14,0,0,0,.57-.82,2.41,2.41,0,0,0,.27-.67,1.68,1.68,0,0,0,0-.59c-.07-.41,0-.66.31-.73a2.63,2.63,0,0,1,1.52.51,4.66,4.66,0,0,1,.85.59.93.93,0,0,1,.32.46.32.32,0,0,1-.14.34,1.19,1.19,0,0,1-.53.23l-.46.18c-.16.07-.37.19-.63.34s-.57.36-.93.61l-1.39,1q1.23.7,2.16,1.17a19.32,19.32,0,0,0,1.78.8c.57.23,1.16.44,1.77.62l2.12.6c.8.22,1.19.4,1.19.52S218.23,44.88,217.48,45.13Zm-1.23-12.05c.75.54,1.09,1,1,1.28s-.45.51-1.2.59a11.37,11.37,0,0,0-1.53.29,11.21,11.21,0,0,0-1.68.61c-.39.19-.63.25-.69.17s.08-.38.43-.92c.22-.34.38-.6.49-.8a1,1,0,0,0,.16-.43c0-.09-.07-.14-.18-.16h-.47l-2,.18c-.6.06-1.14.12-1.64.19s-1,.13-1.39.21l-1.23.22c-.41.07-.76.13-1,.16a3.63,3.63,0,0,1-.79,0,3.49,3.49,0,0,1-.6-.08,2.86,2.86,0,0,1-.53-.2c0,.31-.09.58-.14.81a3.94,3.94,0,0,1-.19.66,3.28,3.28,0,0,1-.28.6l-.4.61a2.07,2.07,0,0,1-.54.59,1,1,0,0,1-.58.2.67.67,0,0,1-.51-.23,1.38,1.38,0,0,1-.31-.76,2.9,2.9,0,0,1,0-1.08,1.9,1.9,0,0,1,.48-.85,7.11,7.11,0,0,0,.65-.82,4.72,4.72,0,0,0,.54-1c.13-.32.29-.45.46-.4s.41.38.71,1l1-.09c.4,0,.91-.11,1.53-.2s1.36-.2,2.22-.35l3.15-.53a10.14,10.14,0,0,0,1.21-.29,6,6,0,0,0,.92-.37,2.14,2.14,0,0,1,.46-.18.82.82,0,0,1,.5.05,3.31,3.31,0,0,1,.75.42C215.33,32.42,215.73,32.71,216.25,33.08Zm-6.36-1.65a1.14,1.14,0,0,1-.47,1.15,1,1,0,0,1-1.16-.19,5.65,5.65,0,0,1-1.63-1.91c-.16-.29-.22-.48-.17-.56s.27-.11.68-.1a4.6,4.6,0,0,1,2.07.42A1.37,1.37,0,0,1,209.89,31.43Z"/><path class="cls-1" d="M169.76,59.8a13.56,13.56,0,0,1,.17,2.2,21.6,21.6,0,0,1-1.29,7.07A15.77,15.77,0,0,1,165.27,75a7.72,7.72,0,0,1-2.07,1.62,4.51,4.51,0,0,1-2,.53,3.13,3.13,0,0,1-1.77-.54A4.54,4.54,0,0,1,158,74.93a10.84,10.84,0,0,1-1.2-5.32,12,12,0,0,1,1.63-6A12.24,12.24,0,0,1,166,57.77a13.17,13.17,0,0,1,3.41-.43,11.24,11.24,0,0,1,8.07,3.09,9.66,9.66,0,0,1,3.23,7.24,9.18,9.18,0,0,1-1.49,5,10,10,0,0,1-4.46,3.75A15.4,15.4,0,0,1,168,77.85a4.2,4.2,0,0,1-1.15-.14c-.32-.1-.48-.25-.48-.46s.52-.59,1.55-.8,2-.43,2.77-.67a14.86,14.86,0,0,0,2.06-.76,8.35,8.35,0,0,0,1.55-.92A9.31,9.31,0,0,0,175.57,73a11.18,11.18,0,0,0,1.64-2.38,6,6,0,0,0,.59-2.71,8.36,8.36,0,0,0-2.06-5.5A8,8,0,0,0,169.76,59.8Zm-2,0a9.06,9.06,0,0,0-5.95,3.4,11,11,0,0,0-2.15,8.49,6.69,6.69,0,0,0,.4,1.46,2.64,2.64,0,0,0,.64.95,1.29,1.29,0,0,0,.88.35,2.19,2.19,0,0,0,1.48-.69,14.71,14.71,0,0,0,2-3.09,22.39,22.39,0,0,0,1.9-5A31.69,31.69,0,0,0,167.79,59.83Z"/><path class="cls-1" d="M193.39,70c0,.37-.3.74-.91,1.12a16.69,16.69,0,0,0-5.18,4.75c-.4.49-.74.74-1,.74s-.6-.29-1-.88a3.34,3.34,0,0,1-.57-1.75,3.28,3.28,0,0,1,.83-1.92c.57-.68,1-1,1.26-1s.29.15.29.45a2.35,2.35,0,0,1-.26,1c-.23.48-.31.73-.23.76s.19,0,.34-.21a16.3,16.3,0,0,1,3.61-2.72,5.81,5.81,0,0,1,2.13-.69C193.17,69.61,193.39,69.75,193.39,70Zm1.26-15c.21,0,.42.28.63.83a2,2,0,0,0,1.06,1.17,7.09,7.09,0,0,0,2.12.55,3.76,3.76,0,0,1,1.63.43,2.36,2.36,0,0,1,.74,1,2.63,2.63,0,0,1,.4,1.13.64.64,0,0,1-.43.59,4.84,4.84,0,0,1-1.43.25,6.32,6.32,0,0,0-2.86,1.55c-1.22.93-1.83,1.63-1.83,2.09,0,.3.29.74.89,1.31.85.86,1.56,1.59,2.11,2.18s1,1.07,1.29,1.46a9.49,9.49,0,0,1,1.42,2.21,5.44,5.44,0,0,1,.5,2.16A3.8,3.8,0,0,1,199.43,77a5.24,5.24,0,0,1-3.58,1.23,7.31,7.31,0,0,1-3.09-.77,6.16,6.16,0,0,1-2.34-1.6,3.36,3.36,0,0,1-.63-1.12.62.62,0,0,1,.05-.6.68.68,0,0,1,.58-.1,2.57,2.57,0,0,1,.91.42,7.18,7.18,0,0,0,3.92,1.26,3.32,3.32,0,0,0,2.06-.59,1.84,1.84,0,0,0,.77-1.56,5,5,0,0,0-1-2.49,25.27,25.27,0,0,0-3.22-3.75,5.1,5.1,0,0,1-1.29-1.91,2.39,2.39,0,0,1,.11-1.76,5.67,5.67,0,0,1,1.46-1.79,28.11,28.11,0,0,1,2.69-2c.18-.08.26-.15.26-.22s-.1-.11-.31-.13a3.88,3.88,0,0,1-2.19-.68,1.79,1.79,0,0,1-.7-1.46,5,5,0,0,1,.23-1.6Q194.37,55.05,194.65,55.05Zm7.13,13.22A11.34,11.34,0,0,1,205,69a5.7,5.7,0,0,1,3.14,2.38,5.51,5.51,0,0,1,1,2.83c0,.8-.32,1.2-.95,1.2a2.36,2.36,0,0,1-1.46-.69,1.2,1.2,0,0,0-.7-.2,5.32,5.32,0,0,0-1.47.4,5.08,5.08,0,0,1-1.59.37c-.37,0-.56-.1-.56-.31,0-.4.51-.88,1.52-1.43a13.71,13.71,0,0,0,1.49-.86c.13-.11.2-.21.2-.28,0-.27-.33-.67-1-1.21a9.76,9.76,0,0,0-2.37-1.4c-.92-.4-1.37-.76-1.37-1.09S201.2,68.27,201.78,68.27Zm.54-6.67a7.71,7.71,0,0,1,1.77.4,3.92,3.92,0,0,1,1.83,1,2.14,2.14,0,0,1,.55,1,1.64,1.64,0,0,1-.06.83,1.22,1.22,0,0,1-.47.58,1.27,1.27,0,0,1-.67.22c-.58,0-1-.38-1.32-1.15a3.1,3.1,0,0,0-1.35-1.66c-.59-.36-.88-.66-.88-.88S201.92,61.6,202.32,61.6Zm2-3.06a9.59,9.59,0,0,1,2,.34,3.65,3.65,0,0,1,1.94,1,1.83,1.83,0,0,1,.6,1,1.39,1.39,0,0,1-.1.89,1.48,1.48,0,0,1-.56.63,1.29,1.29,0,0,1-.71.24,1.36,1.36,0,0,1-1.26-.91,4.38,4.38,0,0,0-.77-1.32,3.35,3.35,0,0,0-1.12-.74c-.49-.25-.74-.51-.74-.76S203.8,58.54,204.29,58.54Z"/><path class="cls-1" d="M244,64c.8.72,1.11,1.23.92,1.53s-1,.39-2.38.3a35,35,0,0,0-3.62,0c-1.36,0-2.76.13-4.19.25.48.15.85.28,1.1.38a1.28,1.28,0,0,1,.55.39.68.68,0,0,1,.07.57,6.88,6.88,0,0,1-.32.92,4.52,4.52,0,0,0-.07.89c0,.49,0,1.08,0,1.75s.07,1.41.13,2.18.13,1.49.23,2.16c.06.5.09.92.1,1.29a3.57,3.57,0,0,1-.11,1,4.26,4.26,0,0,1-.38.88,4.93,4.93,0,0,1-.67.92,1.94,1.94,0,0,1-1.32.83.85.85,0,0,1-.83-.66,4.78,4.78,0,0,0-.6-1.16,6.13,6.13,0,0,0-1-1.16c-.84-.78-1.21-1.27-1.13-1.47s.68-.17,1.76.07a2.3,2.3,0,0,0,1,.1c.16,0,.26-.26.3-.64s.06-.84.07-1.45,0-1.4,0-2.41-.07-1.59-.1-2.12a8.64,8.64,0,0,0-.16-1.34A4.17,4.17,0,0,0,233,67a6.94,6.94,0,0,0-.42-.8c-.65.06-1.25.12-1.81.2a7.19,7.19,0,0,1,1,.4,1,1,0,0,1,.43.37.53.53,0,0,1,0,.46q-.1.26-.3.63a1.65,1.65,0,0,0-.07.21c0,.11-.07.28-.12.53s-.1.58-.17,1-.16.93-.27,1.56a9.77,9.77,0,0,1-1.79,4.32,10,10,0,0,1-4.13,3c-1,.42-1.51.55-1.6.37s.25-.59,1.05-1.25a13,13,0,0,0,2.51-2.72,10.09,10.09,0,0,0,1.33-3.21,14.13,14.13,0,0,0,.41-3.07,9.22,9.22,0,0,0-.24-2.36l-2.67.34a10.72,10.72,0,0,0-1.42.26c-.57.15-1,.26-1.36.33a3.89,3.89,0,0,1-.83.08,1.19,1.19,0,0,1-.56-.14,2.89,2.89,0,0,1-.51-.39,6.86,6.86,0,0,1-.79-.73c-.16-.18-.2-.31-.13-.4a1.11,1.11,0,0,1,.62-.17c.33,0,.81,0,1.44-.07.29,0,.73,0,1.33-.09l2.09-.2,2.56-.25c.92-.1,1.84-.2,2.78-.32l.11-2.49a12.14,12.14,0,0,1-1.31.19,8.51,8.51,0,0,1-1,0,3,3,0,0,1-.77-.12,5.4,5.4,0,0,1-.71-.24c-.6-.25-.85-.46-.78-.64s.52-.31,1.32-.39a15.35,15.35,0,0,0,1.67-.23c.62-.11,1.16-.23,1.62-.34a16.46,16.46,0,0,0-.17-2.95,4.08,4.08,0,0,0-.52-1.57,3.79,3.79,0,0,1-.61-1c-.11-.28-.09-.48.05-.6a1.2,1.2,0,0,1,.8-.16,8.07,8.07,0,0,1,1.62.32,7.15,7.15,0,0,1,1.35.53,1.87,1.87,0,0,1,.67.57,1,1,0,0,1,.16.59,1.45,1.45,0,0,1-.2.57c-.06.11-.12.24-.18.37a3,3,0,0,0-.14.53c0,.22-.08.49-.11.8s-.07.7-.09,1.16c.53-.17,1-.31,1.35-.4a4.88,4.88,0,0,1,.93-.17,2.13,2.13,0,0,1,.68,0,2.82,2.82,0,0,1,.62.24c.61.29.9.58.87.89s-.38.55-1.05.74c-.47.14-1,.26-1.54.38s-1.2.22-2,.34l0,2.66c.86-.12,1.64-.23,2.34-.36s1.28-.23,1.72-.33c1-.23,1.84-.4,2.47-.51a8,8,0,0,1,1.61-.16,2.52,2.52,0,0,1,1,.21A3.66,3.66,0,0,1,244,64Zm-17.36,6.41a5.12,5.12,0,0,1-1.92,4.92,1.31,1.31,0,0,1-1.32.4,1.41,1.41,0,0,1-.71-1.23,7.7,7.7,0,0,1-.1-1,2.17,2.17,0,0,1,.08-.7,2,2,0,0,1,.32-.56,3.41,3.41,0,0,1,.61-.54,3.4,3.4,0,0,0,.75-.73,4.28,4.28,0,0,0,.6-1c.36-.86.68-1.25,1-1.16S226.45,69.41,226.64,70.39ZM243.43,73q0,1.45-.72,1.77c-.47.21-1,0-1.63-.57s-1.22-1.2-1.88-1.89S238,71,237.48,70.53c-.67-.73-1-1.16-.93-1.32s.5-.16,1.36,0a9.43,9.43,0,0,1,4.1,1.43A3,3,0,0,1,243.43,73Z"/><path class="cls-1" d="M257,64.35c.53.19.76.43.67.73s-.47.6-1.16.93c-.38.17-.72.31-1,.43l-.94.34-.06,3.63a12,12,0,0,1,2.35-1q.76-.2.9,0c.09.14,0,.37-.31.7a6.4,6.4,0,0,1-1.28,1c-.74.48-1.39.9-1.93,1.29s-1,.73-1.42,1-.73.63-1,.91a5.61,5.61,0,0,0-.7.81,1.39,1.39,0,0,1-.42.42.67.67,0,0,1-.51,0,2.32,2.32,0,0,1-.75-.37,11.09,11.09,0,0,1-1.1-.9,7.42,7.42,0,0,1-.81-.82c-.16-.2-.23-.35-.19-.47s.18-.2.43-.27a8.12,8.12,0,0,1,1-.19,8,8,0,0,0,1.32-.31,20.5,20.5,0,0,0,2.11-.8l-.05-4a7.11,7.11,0,0,1-1.36.29,2.76,2.76,0,0,1-1.3-.23c-.67-.25-1-.47-1-.68s.3-.38,1-.49c.49-.1,1-.21,1.39-.33s.86-.27,1.3-.44c0-1.42,0-2.56,0-3.44s-.08-1.57-.15-2.1a4.88,4.88,0,0,0-.25-1.17,2.14,2.14,0,0,0-.42-.65c-.72-.8-1-1.33-.69-1.6s1-.24,2.12.09a10,10,0,0,1,1.77.61,2,2,0,0,1,.82.62.71.71,0,0,1,.11.64,2.57,2.57,0,0,1-.33.7,2.41,2.41,0,0,0-.22.57,5.41,5.41,0,0,0-.15.88c0,.37-.06.85-.08,1.44s0,1.36,0,2.29a4.42,4.42,0,0,1,1.24-.31A2.88,2.88,0,0,1,257,64.35Zm16.59,12.56c-1.2.28-2.17.48-2.9.6a6.15,6.15,0,0,1-1.77.07,2.06,2.06,0,0,1-1.09-.47,6,6,0,0,1-.87-1L266.12,75c-.25-.34-.51-.67-.78-1a6,6,0,0,1-2.11,1.66,9.33,9.33,0,0,1-3.46.77c-2,.14-2-.24,0-1.11.64-.29,1.19-.56,1.64-.82a8.8,8.8,0,0,0,1.15-.78,6.13,6.13,0,0,0,.8-.82,10.45,10.45,0,0,0,.61-.87l-.28-.47-.29-.48a9.22,9.22,0,0,0-1.43-2,3.88,3.88,0,0,0-1.2-.83,18.7,18.7,0,0,1-.79,3.1,11.77,11.77,0,0,1-1.27,2.59,10.46,10.46,0,0,1-1.86,2.13,14,14,0,0,1-2.52,1.74c-.72.38-1.12.48-1.2.31s.19-.57.8-1.2a24.47,24.47,0,0,0,1.88-2.23,12.38,12.38,0,0,0,1.38-2.48,16.89,16.89,0,0,0,.93-3,26.3,26.3,0,0,0,.5-3.88,18.59,18.59,0,0,0,.05-2.92,3.24,3.24,0,0,0-.42-1.43,2.13,2.13,0,0,1-.4-.83.45.45,0,0,1,.21-.5,1.76,1.76,0,0,1,1-.08,11.12,11.12,0,0,1,1.86.41c.52-.24,1-.5,1.48-.76a11.59,11.59,0,0,0,1.24-.77,5.91,5.91,0,0,0,.89-.74,1.38,1.38,0,0,0,.4-.67c.13-.71.4-1.1.8-1.18s1.11.24,2.12,1a6.85,6.85,0,0,1,1.13.94,1.41,1.41,0,0,1,.38.67.4.4,0,0,1-.21.42,2,2,0,0,1-.67.2c-.52.08-1,.15-1.31.23a6.64,6.64,0,0,0-1,.28l-2.26.83c-.79.29-1.63.59-2.55.89,0,.48,0,1-.07,1.56s-.09,1.33-.19,2.3a13.22,13.22,0,0,0,2.41-.64,5.75,5.75,0,0,0,1.66-1,1.9,1.9,0,0,1,1.07-.53,3.31,3.31,0,0,1,1.59.53c1,.53,1.54,1,1.64,1.29s-.07.65-.53,1a2.42,2.42,0,0,0-.63.82,5.08,5.08,0,0,0-.48,1.38c-.21,1-.42,1.81-.62,2.44a15.48,15.48,0,0,1-.58,1.57,11.4,11.4,0,0,0,2.93,2.1,19.88,19.88,0,0,0,3.59,1.39c1,.3,1.57.58,1.61.81S274.38,76.72,273.58,76.91Zm-8-10.62c0-.32,0-.53-.12-.61a.56.56,0,0,0-.51,0,15.66,15.66,0,0,1-2.34.63,6.53,6.53,0,0,1-1.63.09c0,.13,0,.26-.05.37s0,.24,0,.37c.42,0,.77,0,1.06,0a2.18,2.18,0,0,1,.76.18,1.52,1.52,0,0,1,.58.44c.18.2.38.45.61.76l.5.7.55.79a8.89,8.89,0,0,0,.38-1.54C265.41,67.87,265.5,67.15,265.57,66.29Z"/><path class="cls-1" d="M290,70c-.21,1.11-.41,2-.59,2.82a12.85,12.85,0,0,1-.6,2,5.22,5.22,0,0,1-.76,1.33,4.37,4.37,0,0,1-1.06.93,5.18,5.18,0,0,1-.91.5.75.75,0,0,1-.53.06.45.45,0,0,1-.27-.3,2.2,2.2,0,0,1-.12-.57,3.22,3.22,0,0,0-.17-.68,3.49,3.49,0,0,0-.29-.58,6.87,6.87,0,0,0-.42-.63l-.61-.8c-.36-.48-.47-.79-.32-.92s.51-.08,1.1.17a8.05,8.05,0,0,0,1.06.4,1.58,1.58,0,0,0,.63.09.52.52,0,0,0,.34-.16,1.18,1.18,0,0,0,.2-.36,20.64,20.64,0,0,0,.69-2.23c.2-.84.39-1.72.54-2.66.13-.65,0-1-.52-.94l-.93.1c-.33,0-.71.08-1.13.15a15.12,15.12,0,0,1-2.73,5.48,13.79,13.79,0,0,1-4.45,3.51q-1,.51-1.17.33c-.11-.13.14-.49.77-1.1a18.52,18.52,0,0,0,3.21-4.12,22.48,22.48,0,0,0,1.83-4.3c.23-.72.39-1.34.5-1.84a3.59,3.59,0,0,0,0-1.53c-.24.67-.54.95-.88.84s-.62-.58-.83-1.44c-.14-.59-.26-1.1-.37-1.52a8.92,8.92,0,0,0-.38-1.11,6.15,6.15,0,0,0-.44-.89c-.16-.27-.34-.54-.53-.8-.38-.48-.4-.78-.07-.92a5.91,5.91,0,0,1,2.53.26,18.53,18.53,0,0,0,3.05-.46,6.33,6.33,0,0,0,1.81-.71,4.81,4.81,0,0,1,.65-.4.94.94,0,0,1,.56-.12,2,2,0,0,1,.67.23c.26.13.6.33,1,.6a8,8,0,0,1,1.08.75,1.51,1.51,0,0,1,.43.54.4.4,0,0,1-.11.41,1.88,1.88,0,0,1-.51.39,2.27,2.27,0,0,0-.56.37c-.14.14-.28.28-.41.43a2.89,2.89,0,0,0-.39.54c-.12.21-.27.45-.44.72.61.44.88.79.81,1.06s-.53.45-1.38.54l-1.35.16-1.89.24a6,6,0,0,1,.9.46,1.22,1.22,0,0,1,.4.37.33.33,0,0,1,0,.33,1.15,1.15,0,0,1-.24.33,3.27,3.27,0,0,0-.69,1A11.33,11.33,0,0,0,287,66a4,4,0,0,0,.81-.35l.51-.27a1,1,0,0,1,.4-.1.9.9,0,0,1,.41.12,3.76,3.76,0,0,1,.57.37,10.84,10.84,0,0,1,1.08.8,1.8,1.8,0,0,1,.44.53.39.39,0,0,1,0,.38,1.17,1.17,0,0,1-.3.35,2.34,2.34,0,0,0-.54.88A8.55,8.55,0,0,0,290,70ZM286.83,62c.12-.32.22-.62.31-.9a7.23,7.23,0,0,0,.29-1.3.35.35,0,0,0-.13-.31.46.46,0,0,0-.47-.12l-1.37.19c-.65.08-1.47.21-2.46.38a15,15,0,0,1,.43,2.78l1.84-.3A9.85,9.85,0,0,0,286.83,62Zm8,5q0,1,0,1.71c0,.44,0,.83,0,1.14a4.47,4.47,0,0,1-.13.79c-.06.21-.13.41-.2.6-.31.67-.63,1-1,1s-.65-.26-1-.87c-.11-.23-.21-.43-.27-.6a3.13,3.13,0,0,1-.16-.52,1.84,1.84,0,0,1,0-.53,4.19,4.19,0,0,1,.1-.67,11.24,11.24,0,0,0,.26-2q0-.92,0-1.86t-.09-1.47a9.76,9.76,0,0,0-.09-1,3.4,3.4,0,0,0-.15-.66,2.86,2.86,0,0,0-.27-.52,4.05,4.05,0,0,1-.45-.82c-.08-.24-.07-.42,0-.53a.89.89,0,0,1,.68-.13,7,7,0,0,1,1.44.36,5.64,5.64,0,0,1,1.1.49,1.66,1.66,0,0,1,.55.47.66.66,0,0,1,.1.51,3,3,0,0,1-.23.62,3.69,3.69,0,0,0-.32,1.73Q294.78,65.41,294.84,66.92Zm4.58-2.51c0,1.52,0,2.79,0,3.8s0,1.87,0,2.56.05,1.29.08,1.78.07,1,.12,1.41a10,10,0,0,1,.09,1.65,5,5,0,0,1-.19,1.23,3.25,3.25,0,0,1-.44.94,4.34,4.34,0,0,1-.71.79c-.63.55-1.07.82-1.32.8s-.48-.29-.69-.8a5.25,5.25,0,0,0-1-1.63c-.43-.48-.94-1-1.53-1.55s-.73-.79-.65-.9.64,0,1.65.16a8.11,8.11,0,0,0,1,.13,1,1,0,0,0,.54-.1.64.64,0,0,0,.26-.38,4.27,4.27,0,0,0,.1-.65c0-.58.06-1.12.08-1.63s0-1.11.06-1.76,0-1.45,0-2.36,0-2.07,0-3.47-.05-2.41-.08-3.3-.1-1.64-.19-2.25a7.31,7.31,0,0,0-.34-1.47,4,4,0,0,0-.56-1,3.59,3.59,0,0,1-.62-1c-.1-.28-.08-.49.08-.62a1.22,1.22,0,0,1,.91-.11,10.47,10.47,0,0,1,1.95.51,9.92,9.92,0,0,1,1.38.59,2,2,0,0,1,.69.53.61.61,0,0,1,.11.53,1.79,1.79,0,0,1-.3.61,2.28,2.28,0,0,0-.32.8,7.91,7.91,0,0,0-.15,1.23q0,.78,0,2C299.41,62.27,299.42,63.24,299.42,64.41Z"/><path class="cls-1" d="M320,69a26.69,26.69,0,0,0-.27,2.76,6.62,6.62,0,0,0,.07,1.59q.23,1.14-.42,1.32a1.79,1.79,0,0,1-1.53-.58,7.76,7.76,0,0,1-.73-.64,9.85,9.85,0,0,1-.66-.74,7.38,7.38,0,0,1-.64-1c-.21-.38-.44-.83-.69-1.34l-.3-.73c-.12-.32-.26-.69-.41-1.11s-.31-.86-.47-1.34-.31-1-.45-1.49c-.4.1-.73.17-1,.22a5,5,0,0,1-.7.07,5.17,5.17,0,0,1-.57,0c-.18,0-.39-.06-.62-.11-.05.72-.11,1.44-.17,2.14s-.1,1.36-.14,1.95l1-.46c.24-.12.49-.25.75-.4a6.93,6.93,0,0,1,1.19-.6c.32-.12.53-.14.65-.07s.1.21,0,.44a5.21,5.21,0,0,1-.83.94c-.67.63-1.22,1.17-1.66,1.62s-.8.84-1.09,1.17a11.07,11.07,0,0,0-.69.89c-.17.26-.32.51-.45.76a4,4,0,0,1-.55.78.58.58,0,0,1-.54.23,1.18,1.18,0,0,1-.64-.43,6.42,6.42,0,0,1-.82-1.15c-.34-.58-.49-1-.43-1.22s.33-.48.83-.73a1.84,1.84,0,0,0,.53-.33,1.45,1.45,0,0,0,.36-.53,5.27,5.27,0,0,0,.24-.87c.07-.35.13-.81.19-1.36a37.82,37.82,0,0,0,.16-5.32,7.18,7.18,0,0,0-.53-2.75c-.46-.74-.61-1.21-.43-1.41s.7-.2,1.6,0a4.22,4.22,0,0,1,1.06.37,12.82,12.82,0,0,0,3.13-1.9c.71-.64,1.09-1.12,1.13-1.44.06-.63.29-1,.71-1.11a2.82,2.82,0,0,1,1.92.73,7.2,7.2,0,0,1,1.2,1,1.06,1.06,0,0,1,.33.66c0,.17-.13.31-.37.42a4.15,4.15,0,0,1-.93.24,5.44,5.44,0,0,0-.64.16c-.22.07-.48.15-.76.26s-.63.23-1,.4l-1.38.58q.6.21.93.36a1.89,1.89,0,0,1,.48.31.42.42,0,0,1,.13.38,2.58,2.58,0,0,1-.14.5,1.7,1.7,0,0,0-.12.83A9.65,9.65,0,0,0,315,63.4a9,9,0,0,1,1.83-.6,3.24,3.24,0,0,1,1.32.06c.53.15.82.38.87.67s-.21.56-.79.79-.84.32-1.2.44-.88.29-1.54.48c.15.53.3,1,.44,1.44s.3.83.46,1.22.33.75.51,1.1.39.73.62,1.13a3.87,3.87,0,0,0,.38.58c.11.13.21.15.32.08a1.46,1.46,0,0,0,.34-.58c.13-.3.29-.75.5-1.34s.49-1,.73-1S320.11,68.29,320,69Zm-6.9-4.8-.38-1.64c-.11-.43-.21-.8-.29-1.1a5.92,5.92,0,0,0-.26-.73q-.12-.29-.24-.51a3.26,3.26,0,0,1-.5.21l-.56.22c0,.44,0,1,0,1.81s-.08,1.62-.16,2.54l.63-.17.56-.18a5.61,5.61,0,0,0,.57-.2Zm2.78,9.41c.05.86-.09,1.42-.43,1.7s-.82.19-1.43-.27a10.43,10.43,0,0,1-1.1-1,10.76,10.76,0,0,1-1.05-1.29c-.34-.5-.48-.81-.43-.93s.39-.17,1-.13a11.5,11.5,0,0,1,1.62.2,3.27,3.27,0,0,1,1,.4,1.63,1.63,0,0,1,.58.59A1.88,1.88,0,0,1,315.9,73.62Zm13.7-1.32c-.4.78-.84,1.2-1.32,1.25a1.22,1.22,0,0,1-1.17-.65,3.65,3.65,0,0,0-1.06-1,16.59,16.59,0,0,0-2.11-1.16c-.67-.33-1-.61-.88-.86s.53-.33,1.33-.23,1.22.12,1.59.14a2.58,2.58,0,0,0,.8,0c.17,0,.24-.13.22-.26a3,3,0,0,0-.17-.53c-.21-.49-.39-.9-.55-1.21a6.72,6.72,0,0,0-.45-.82,3.36,3.36,0,0,0-.51-.6c-.18-.17-.4-.36-.67-.57a3.06,3.06,0,0,1-.47-.4A.67.67,0,0,1,324,65a.93.93,0,0,1,.08-.46,5.38,5.38,0,0,1,.32-.7c.08-.15.18-.36.31-.63s.25-.56.38-.88.27-.65.4-1,.25-.62.35-.88.06-.28,0-.33a1.3,1.3,0,0,0-.69,0,10.18,10.18,0,0,1-1.12.21c-.32.05-.67.1-1.05.13,0,1.3,0,2.61,0,3.94s0,2.57,0,3.73,0,2.19-.07,3.08-.06,1.53-.07,1.93q-.09,1.48-.15,2.52c0,.68-.08,1.25-.13,1.71s-.09.83-.14,1.1a4.94,4.94,0,0,1-.16.68,11.2,11.2,0,0,1-.47,1.17c-.14.28-.28.44-.4.46s-.24-.12-.34-.42a7.28,7.28,0,0,1-.3-1.41,7.67,7.67,0,0,1-.09-.78c0-.28,0-.61-.06-1s0-.81,0-1.32v-3.4c0-.7,0-1.49,0-2.38s0-1.85,0-2.89,0-2.09,0-3.16a14.05,14.05,0,0,0-.21-2.7,4,4,0,0,0-.56-1.51,1.18,1.18,0,0,1-.29-.55c0-.17.06-.28.25-.35a2.51,2.51,0,0,1,.93,0,10.4,10.4,0,0,1,1.77.37,6.73,6.73,0,0,0,3.49-1.43,3.29,3.29,0,0,1,.46-.33,1.13,1.13,0,0,1,.54-.13,2.36,2.36,0,0,1,.75.15,8.54,8.54,0,0,1,1,.45c1,.54,1.51,1,1.57,1.31s-.24.68-.89,1a9.15,9.15,0,0,0-.83.53,6,6,0,0,0-.78.7c-.28.29-.59.64-.93,1.06s-.77.94-1.26,1.57c-.21.25-.3.44-.27.56s.15.23.38.33a14.42,14.42,0,0,1,2.95,1.7,4.75,4.75,0,0,1,1.44,1.7,3,3,0,0,1,.23,1.78A6.8,6.8,0,0,1,329.6,72.3Z"/><path class="cls-1" d="M43.86,21.41a33.44,33.44,0,0,0,6-.82l.68.6a.15.15,0,0,1-.12,0h-.12a35.9,35.9,0,0,1-6.26.79,2.57,2.57,0,0,0-.2-.59.16.16,0,0,1-.07.07c-.32.91-.78,2.13-1.19,3.12a3.8,3.8,0,0,1,1.25,2.59c0,1.73-1.06,1.68-2,1.65a2,2,0,0,0-.21-.71l.52,0c.46,0,.93,0,.93-1a3.68,3.68,0,0,0-1.26-2.44c.39-.91.76-2,1-2.87H41.14v9.9h-.73V21.11h2.82l.13,0,.51.32Zm1,7.64a6.1,6.1,0,0,1-1.19,2.37L43.08,31a5.45,5.45,0,0,0,1.14-2.17Zm5.47-4.76V27.9H46.64a7,7,0,0,1,1.69.92l-.49.54a8.75,8.75,0,0,0-2-1.09l.36-.37h-2.1v-.63h5.45v-.88H44.41v-.62h5.15v-.85H44.11v-.63ZM45,24.19a6.51,6.51,0,0,0-.75-1.7l.62-.25a6.08,6.08,0,0,1,.82,1.66Zm1.12,6.36c0,.25.07.29.48.29h1.44c.35,0,.42-.1.45-1.05a2,2,0,0,0,.66.28c-.08,1.19-.31,1.45-1,1.45h-1.6c-.91,0-1.14-.19-1.14-1V28.81l1,.07c0,.07-.07.13-.23.16ZM47,24a7,7,0,0,0-.62-1.77l.67-.23a7.08,7.08,0,0,1,.64,1.75ZM48.55,24a13.13,13.13,0,0,0,1.18-2.1l.86.4a.29.29,0,0,1-.25.1,18.4,18.4,0,0,1-1.21,1.9Zm1.83,7.34a7.77,7.77,0,0,0-1.51-2.39l.63-.32A7.83,7.83,0,0,1,51,31Z"/><path class="cls-1" d="M52.47,23.33a12.07,12.07,0,0,0,2.25-.18c0-.72,0-1.12.09-2.21L56,21c0,.13-.13.21-.34.24,0,.52-.09,1.27-.12,1.71l.38.15a6,6,0,0,0-.48,1.71c1.32-1.23,2.78-2.11,3.77-2.11s1.7.79,1.7,2.18c0,.16,0,.31,0,.47-.08,1.06-.2,2.56-.2,3.52,0,.71.08,1.1.59,1.1a3.23,3.23,0,0,0,1.59-.81,7.22,7.22,0,0,0,.17.92,3.65,3.65,0,0,1-1.88.78c-1,0-1.35-.6-1.35-1.85,0-.62.22-3.92.22-3.93,0-1.05-.36-1.52-1-1.52-.9,0-2.41,1-3.66,2.29,0,1.74,0,3.88,0,5.51h-.84c0-.7,0-4.11,0-4.88a12.5,12.5,0,0,1-2.19,2.89L52,28.65A12,12,0,0,0,54.66,25c0-.35,0-.67,0-1.05a12.93,12.93,0,0,1-2.21.2Z"/><path class="cls-1" d="M70.33,24.67a10.4,10.4,0,0,0,1,2.23,18.44,18.44,0,0,0,2.33-1.69l.73.66a.31.31,0,0,1-.25.05,24.58,24.58,0,0,1-2.41,1.58,6.78,6.78,0,0,0,3.42,2.56,3.05,3.05,0,0,0-.54.68c-2.46-.9-4-3.11-4.89-5.84a11.06,11.06,0,0,1-1.32.83,5.09,5.09,0,0,1,2.36,3.93,1.94,1.94,0,0,1-2.06,2.09c-.3,0-.69,0-1.08,0a2,2,0,0,0-.22-.75c.45,0,.86,0,1.13,0a1.34,1.34,0,0,0,.89-.22,1.41,1.41,0,0,0,.52-1.22,3.16,3.16,0,0,0-.22-1.1,16.71,16.71,0,0,1-5.13,2.86,2.65,2.65,0,0,0-.43-.69,13.64,13.64,0,0,0,5.24-2.82,4.65,4.65,0,0,0-.56-.74,17.11,17.11,0,0,1-3.91,2.05,3.34,3.34,0,0,0-.43-.63,14.39,14.39,0,0,0,3.9-1.88c-.21-.18-.44-.37-.69-.55a19.11,19.11,0,0,1-2.78,1c-.1-.15-.29-.46-.41-.61a14.31,14.31,0,0,0,4.33-1.81H66V24h6.87v.71Zm-5.08-1.94v1.62h-.78V22H69V20.57l1.06.07c0,.09-.08.15-.24.16V22H74.5v2.37h-.81V22.73Z"/></g></g></svg>