<svg xmlns="http://www.w3.org/2000/svg" viewBox="0 0 249.37 47.39"><defs><style>.cls-1{fill:#231815;}.cls-2{fill:none;}</style></defs><g id="レイヤー_2" data-name="レイヤー 2"><g id="レイヤー_1-2" data-name="レイヤー 1"><path class="cls-1" d="M11.8,9.5a5.36,5.36,0,0,1,1.84,1.25A1.16,1.16,0,0,1,13.52,12,11.75,11.75,0,0,0,13,13.22c-.19.49-.34.89-.45,1.22a19.26,19.26,0,0,1-.88,2.69c-.35.85-.82,1.86-1.43,3A6.08,6.08,0,0,1,12,21.78a2.52,2.52,0,0,1,.37,1.78c-.15,1.09-.5,1.65-1,1.69s-1.14-.47-1.77-1.56c-.15-.23-.3-.47-.46-.69l-.45-.67a10.15,10.15,0,0,1-2.23,2.05,11.47,11.47,0,0,1-3.32,1.56c-1.15.34-1.76.4-1.82.17s.39-.65,1.36-1.28a16.83,16.83,0,0,0,4.52-4.22c-.33-.35-.67-.69-1-1s-.69-.65-1-.93a1.24,1.24,0,0,1-.42-.76,3.75,3.75,0,0,1,.1-1.22,8,8,0,0,1,.18-1c.07-.32.13-.65.17-1a6.32,6.32,0,0,0-.63.26,3.92,3.92,0,0,0-.53.29l-.78.39a1.45,1.45,0,0,1-.65.16,1.39,1.39,0,0,1-.65-.16A2.89,2.89,0,0,1,1.15,15C.26,14.08-.11,13.52,0,13.3s.82-.32,2-.32a9,9,0,0,0,1.38-.12c.51-.07,1.22-.19,2.13-.34q.67-4,.81-6.2A5.5,5.5,0,0,0,6,3.3c-.56-.89-.7-1.46-.41-1.71s.94-.14,1.94.31A18.93,18.93,0,0,1,9.56,3a3.22,3.22,0,0,1,1,.78.61.61,0,0,1,.11.63,2.78,2.78,0,0,1-.48.68,3.63,3.63,0,0,0-.49.72A7.63,7.63,0,0,0,9.17,7q-.26.78-.6,2c-.23.82-.5,1.87-.83,3.15l2.6-.55c0-.24-.05-.45-.08-.63a1.41,1.41,0,0,0-.18-.51c-.32-.6-.35-1-.06-1.26S10.89,9.05,11.8,9.5ZM8.23,19c.22-.44.43-.91.63-1.43s.4-1,.57-1.58.33-1.06.47-1.59a11.91,11.91,0,0,0,.31-1.48L7.29,14c-.13.46-.27.94-.41,1.46s-.29,1.09-.44,1.69a1.05,1.05,0,0,0,0,.78,1.19,1.19,0,0,0,.73.59,3.36,3.36,0,0,1,.55.26ZM29.05,7c.89.7,1.26,1.23,1.12,1.61s-.64.57-1.51.57c-.63,0-1.54,0-2.75.15s-2.48.23-3.84.4v3.05c.6-.17,1.11-.32,1.51-.45A2.49,2.49,0,0,0,24.4,12a1.52,1.52,0,0,1,1-.33,4.84,4.84,0,0,1,1.75.62,9.58,9.58,0,0,1,1,.6,1.34,1.34,0,0,1,.46.51.77.77,0,0,1,0,.56,4.36,4.36,0,0,1-.38.74,4.15,4.15,0,0,0-.34,1.39,23.55,23.55,0,0,0,0,2.73,5.19,5.19,0,0,1-.3,2.22,5.81,5.81,0,0,1-1.2,1.78,1.75,1.75,0,0,1-1.12.64c-.31,0-.55-.22-.73-.68A9,9,0,0,0,24,21.52,5.45,5.45,0,0,0,23,20.35c-.46-.46-.67-.78-.64-1s.37-.21,1,0a2,2,0,0,0,1.06.12c.21-.08.33-.36.37-.83s.07-1.15.09-1.76,0-1.23-.05-1.88a1.24,1.24,0,0,0-.23-.7c-.11-.1-.31-.12-.62-.08l-.94.13-1,.13c0,1.91.05,3.44,0,4.6S22,21.13,22,21.78s-.08,1.3-.11,2-.08,1.28-.13,1.85-.12,1.09-.2,1.53a5.32,5.32,0,0,1-.24,1c-.5,1.5-.86,2.24-1.07,2.23s-.46-.82-.72-2.42c0-.15,0-.42-.06-.8s0-.83,0-1.36,0-1.13,0-1.79V21.91c0-1.17,0-2.36,0-3.57s0-2.35,0-3.41l-1,.17-1,.15a29.81,29.81,0,0,1-.05,3.88,16.1,16.1,0,0,1-.5,2.78c-.28.95-.67,1.41-1.16,1.38s-.89-.46-1.21-1.28a7,7,0,0,1-.38-1.66,1.92,1.92,0,0,1,.34-1.07,2.63,2.63,0,0,0,.39-1A5.82,5.82,0,0,0,15,17a9.25,9.25,0,0,0-.09-1.3,4.89,4.89,0,0,0-.3-1.09,4.16,4.16,0,0,1-.24-.81.34.34,0,0,1,.18-.4,1.19,1.19,0,0,1,.75,0c.34.06.83.18,1.46.36L18,13.61c.47,0,.93-.12,1.36-.21V10.22L18,10.48a8.9,8.9,0,0,0-1.32.29,6.2,6.2,0,0,1-.7.23,1.59,1.59,0,0,1-.53,0,1.84,1.84,0,0,1-.6-.2c-.23-.11-.52-.26-.86-.45s-.7-.47-.67-.68.34-.35.93-.39q.51,0,1.17-.12L16.72,9c.47-.06.93-.14,1.38-.22l1.3-.26a21.37,21.37,0,0,0-.29-3.64,4.39,4.39,0,0,0-.65-1.79q-1-1.37-.6-1.77c.29-.27,1.09-.2,2.39.21a12.42,12.42,0,0,1,1.54.62,2.31,2.31,0,0,1,.81.62,1,1,0,0,1,.23.65,1.61,1.61,0,0,1-.21.68,3.53,3.53,0,0,0-.34,1.15,19.83,19.83,0,0,0-.21,2.58l1.6-.43L25,7a9.41,9.41,0,0,1,2.4-.52A2.55,2.55,0,0,1,29.05,7Z" transform="translate(41.12)"/><path class="cls-1" d="M60.59,21.49c.58.21.88.43.89.65s-.32.41-1,.58c-1.21.3-2.18.53-2.89.67a5,5,0,0,1-1.77.08,2.38,2.38,0,0,1-1.22-.62,10.52,10.52,0,0,1-1.23-1.43l-1.47-1.9c-.49-.64-1-1.3-1.52-2,0,.7,0,1.39,0,2.08s0,1.36.07,2,0,1.23.06,1.77,0,1,.06,1.4a7.09,7.09,0,0,1-.06,1.75A9.23,9.23,0,0,1,50,28.4c-.29.7-.63,1-1,1s-.86-.39-1.34-1.12a7.11,7.11,0,0,1-.5-.9,2.38,2.38,0,0,1-.21-.79,2.52,2.52,0,0,1,.07-.81,6.69,6.69,0,0,1,.32-1,7.46,7.46,0,0,0,.45-2.4c.07-1,.1-2.42.1-4.13a10.44,10.44,0,0,1-2.27,3A16.18,16.18,0,0,1,42,23.53a3.49,3.49,0,0,1-.41,1.3,1,1,0,0,1-.6.52.8.8,0,0,1-.66-.21,2,2,0,0,1-.57-.86,11.25,11.25,0,0,0-1.14-2.14,12.37,12.37,0,0,1-2.57,2.22,11,11,0,0,1-3,1.38q-1.78.56-1.95.24c-.11-.2.37-.61,1.43-1.21a11.31,11.31,0,0,0,2.72-2.1,13.85,13.85,0,0,0,1.86-2.48c-.26-.31-.52-.59-.78-.85a6.92,6.92,0,0,0-.75-.65,2.21,2.21,0,0,1-.41-.39,1,1,0,0,1-.16-.52,4.39,4.39,0,0,1,.08-.86c.07-.35.16-.81.29-1.38a16.53,16.53,0,0,0-1.75.72,10.23,10.23,0,0,1-1,.42,1.8,1.8,0,0,1-.73.1,1.28,1.28,0,0,1-.62-.25,4.58,4.58,0,0,1-.68-.63c-.76-.82-1.1-1.36-1-1.62s.59-.34,1.49-.23A9.1,9.1,0,0,0,32.9,14c.74-.08,1.7-.25,2.87-.48.15-1.17.25-2.28.29-3.32a26.27,26.27,0,0,0,0-2.82,13.23,13.23,0,0,0-.31-2.19,3.58,3.58,0,0,0-.59-1.38c-.49-.61-.6-1.06-.3-1.35s.88-.27,1.77.08L37.88,3a10,10,0,0,1,1,.52c.72.37,1.11.7,1.17,1a1.35,1.35,0,0,1-.45,1.11,1.47,1.47,0,0,0-.39.68c-.09.28-.21.77-.36,1.46q-.36,1.67-.57,2.88c-.14.81-.29,1.57-.44,2.29l.93-.21,1-.25a4.06,4.06,0,0,0-.23-1.85c-.34-.76-.37-1.22-.08-1.4s1,0,2,.49a7,7,0,0,1,1.33.78,1.73,1.73,0,0,1,.59.7.91.91,0,0,1,0,.65,2.05,2.05,0,0,1-.46.63,2.13,2.13,0,0,0-.42.72,6.32,6.32,0,0,0-.32,1,25.38,25.38,0,0,1-.83,2.81,23.48,23.48,0,0,1-1.12,2.61A6,6,0,0,1,41.59,21a3,3,0,0,1,.48,1.33c.54-.62,1-1.24,1.45-1.83s.81-1.19,1.17-1.77.68-1.18,1-1.77.58-1.22.84-1.87l-1.31.31a3.8,3.8,0,0,1-.86.11,2.11,2.11,0,0,1-.64-.09,4.18,4.18,0,0,1-.6-.3c-.5-.28-.72-.53-.68-.74s.33-.36.84-.43,1.22-.16,2-.29,1.68-.29,2.59-.49c0-.56,0-1,0-1.43s0-.8,0-1.23a9,9,0,0,1-2.24.18,4,4,0,0,1-1.43-.41c-.48-.21-.71-.42-.7-.61s.32-.34.93-.43c.45-.06,1-.16,1.6-.29s1.23-.28,1.84-.45c0-1.15,0-2.12-.07-2.91a17.53,17.53,0,0,0-.19-2,5.57,5.57,0,0,0-.34-1.27,2.57,2.57,0,0,0-.5-.76,2.36,2.36,0,0,1-.64-.85.47.47,0,0,1,.1-.58A1.42,1.42,0,0,1,47.17,0a7,7,0,0,1,1.72.34A11.51,11.51,0,0,1,50.6,1a2.4,2.4,0,0,1,.84.63.82.82,0,0,1,.18.67,2.36,2.36,0,0,1-.29.73,4.82,4.82,0,0,0-.57,1.82Q50.61,6,50.55,7.62a7.16,7.16,0,0,1,.84-.26,4.31,4.31,0,0,1,.8-.13,4.74,4.74,0,0,1,.84,0l1,.15c.54.11.84.31.9.62s-.11.56-.55.78l-.87.39c-.26.11-.54.2-.82.29a8.54,8.54,0,0,1-.94.24L50.49,10c0,.41,0,.82-.05,1.23s0,.88,0,1.4l1-.26c.31-.09.62-.18.92-.29a8.1,8.1,0,0,1,2.28-.54A2.42,2.42,0,0,1,56,12c.76.57,1.09,1,1,1.29s-.67.47-1.71.53c-.69,0-1.46.13-2.32.24s-1.74.27-2.64.44V15c1,1,2,1.83,2.79,2.51a18.94,18.94,0,0,0,2.4,1.74,19.18,19.18,0,0,0,2.37,1.24C58.72,20.79,59.61,21.14,60.59,21.49ZM39.51,14.34c-.37.11-.73.2-1.07.28a6.65,6.65,0,0,0-1,.27q-.14.46-.24.93c-.08.31-.17.65-.28,1a1.84,1.84,0,0,0-.1.49.61.61,0,0,0,.13.36,1.24,1.24,0,0,0,.41.3c.18.1.44.23.76.38a15.74,15.74,0,0,0,.8-2C39.17,15.69,39.36,15,39.51,14.34Z" transform="translate(41.12)"/><path class="cls-1" d="M84.43,4.18c.71.3,1,.66.86,1.08s-.8.78-2,1.06c-.32.09-.84.19-1.54.31s-1.46.23-2.26.34l-2.35.31-1.87.21c-1,.11-1.78.18-2.42.23a15.76,15.76,0,0,1-1.64,0l-.13.09c-.33,2-.7,3.83-1.12,5.58a24.23,24.23,0,0,1-1.35,4.2c-.52,1.15-1,2.18-1.49,3.1a22.32,22.32,0,0,1-1.5,2.5,14,14,0,0,1-1.69,2,11.24,11.24,0,0,1-2.08,1.6c-1.23.78-1.94,1.12-2.14,1s.2-.78,1.17-2a25.36,25.36,0,0,0,1.77-2.52,28.9,28.9,0,0,0,1.59-2.91,29.3,29.3,0,0,0,1.3-3.15A28.17,28.17,0,0,0,66.5,14a35,35,0,0,0,.83-4.68,4.22,4.22,0,0,0-.25-2.21,3.41,3.41,0,0,1-.47-1.07.46.46,0,0,1,.28-.57,2.58,2.58,0,0,1,1.28,0,17.18,17.18,0,0,1,2.58.74c.67-.06,1.42-.16,2.24-.29s1.64-.28,2.46-.44S77,5.18,77.78,5a17.23,17.23,0,0,0,1.94-.62,8.33,8.33,0,0,1,2.56-.6A4.74,4.74,0,0,1,84.43,4.18Zm.81,17.53A6.36,6.36,0,0,0,84,22.77a6.23,6.23,0,0,0-1,1.64c.86.65,1.25,1.22,1.15,1.7s-.77.72-2,.7l-1.41,0-2.07.05L76.22,27l-2.48.11a2.11,2.11,0,0,1-.94,1.37.53.53,0,0,1-.46,0,1.73,1.73,0,0,1-.58-.41,2.47,2.47,0,0,1-.52-.78A3.46,3.46,0,0,1,71,26.07c-.07-.59-.14-1.16-.23-1.71s-.19-1.06-.31-1.53A11.24,11.24,0,0,0,70,21.6a3.49,3.49,0,0,0-.44-.83c-.65-.82-.84-1.36-.58-1.61s1.15-.17,2.66.22c.5,0,1,0,1.43-.05s.91-.07,1.36-.12c.07-1.69.11-3.08.13-4.19s0-2,0-2.68a11.43,11.43,0,0,0-.16-1.57,2,2,0,0,0-.35-.85c-.69-1-.88-1.57-.58-1.8s1.17-.15,2.6.24a7.36,7.36,0,0,1,1.44.54,1.93,1.93,0,0,1,.7.57.76.76,0,0,1,.12.62,3.19,3.19,0,0,1-.31.71,2.6,2.6,0,0,0-.25.8c0,.33-.1.75-.14,1.25a15.08,15.08,0,0,0,2.56-.78,9.27,9.27,0,0,1,1.74-.52,3.25,3.25,0,0,1,1.87.26c.67.28,1,.6.92,1s-.45.68-1.18.94a14.67,14.67,0,0,1-2.94.7,14,14,0,0,1-3.1.08l-.26,4.36c.78-.13,1.47-.27,2.08-.41A6,6,0,0,0,80.72,18a5.61,5.61,0,0,1,.65-.25,1.57,1.57,0,0,1,.65,0,3.18,3.18,0,0,1,.83.29c.31.15.72.38,1.22.68s1.11.72,1.46,1a1.77,1.77,0,0,1,.63.73.66.66,0,0,1-.11.64A2.8,2.8,0,0,1,85.24,21.71ZM78.68,2.39a3.15,3.15,0,0,1,0,1.35,1.52,1.52,0,0,1-.5.84,1.3,1.3,0,0,1-.83.28,1.75,1.75,0,0,1-1-.36,10.44,10.44,0,0,1-1.19-1q-.7-.66-1.44-1.5C73.07,1.34,72.84.89,73,.7s.68-.27,1.64-.23A14.75,14.75,0,0,1,76.5.62,3.93,3.93,0,0,1,77.7,1a1.53,1.53,0,0,1,.67.57A2.62,2.62,0,0,1,78.68,2.39Zm2,18.87a.8.8,0,0,0-.09-.65,1.62,1.62,0,0,0-.88-.2l-1,0c-.44,0-1,.06-1.57.13l-1.94.21c-.68.07-1.35.16-2,.24.13.63.23,1.27.3,1.93s.15,1.41.21,2.23c1-.05,2.08-.14,3.12-.28s2-.29,3-.47a9.64,9.64,0,0,0,.52-1.54A16,16,0,0,0,80.72,21.26Z" transform="translate(41.12)"/><path class="cls-1" d="M95.5,10.77A3.68,3.68,0,0,1,95.73,12a9.09,9.09,0,0,1-.07,1.54,10.31,10.31,0,0,1-.32,1.62,8.55,8.55,0,0,1-.55,1.46,2.46,2.46,0,0,1-.69.88,1.27,1.27,0,0,1-.79.29,1.22,1.22,0,0,1-.78-.29,1.8,1.8,0,0,1-.57-.84,4.43,4.43,0,0,1-.29-1.51,2.14,2.14,0,0,1,.68-1.45,3.46,3.46,0,0,0,.83-1.46,8.69,8.69,0,0,0,.34-1.53c.11-1.14.32-1.74.65-1.78S94.94,9.49,95.5,10.77Zm7.8-1a2.43,2.43,0,0,1,.09,1.16,1,1,0,0,1-.34.63.83.83,0,0,1-.61.16,1.67,1.67,0,0,1-.77-.29,10.07,10.07,0,0,1-1-.78A8.59,8.59,0,0,1,99.56,9.5c0,1.41,0,2.82,0,4.24V23c0,.59,0,1.07,0,1.45a9.82,9.82,0,0,1-.07,1,6.23,6.23,0,0,1-.14.83c-.07.25-.15.53-.26.86-.3.8-.72,1.21-1.24,1.23s-1-.3-1.46-1a5.87,5.87,0,0,1-.63-1.2,2.77,2.77,0,0,1-.16-1,2.56,2.56,0,0,1,.21-.93c.13-.3.29-.64.49-1a5.87,5.87,0,0,0,.43-1.7,31.17,31.17,0,0,0,.26-3.28c.06-1.38.09-3.07.09-5.08s0-4.39,0-7.12a8.69,8.69,0,0,0-.24-2.07,4.71,4.71,0,0,0-.8-1.53c-.6-.78-.77-1.3-.48-1.54s1.17-.15,2.66.3A8,8,0,0,1,99.82,2a2.19,2.19,0,0,1,.78.7.83.83,0,0,1,.1.66,2.35,2.35,0,0,1-.33.65,3.34,3.34,0,0,0-.55,1.4,19.7,19.7,0,0,0-.23,2.53c.63.07,1.16.13,1.6.2a3.83,3.83,0,0,1,1.07.29,1.65,1.65,0,0,1,.66.52A2.33,2.33,0,0,1,103.3,9.79Zm16.59.69a3.5,3.5,0,0,1,.78.89.7.7,0,0,1,.07.7,1,1,0,0,1-.73.4,5.19,5.19,0,0,1-1.58,0,16.3,16.3,0,0,0-2-.1c-.76,0-1.55,0-2.39.07s-1.68.11-2.53.22-1.66.23-2.42.36c-.5.06-1,.15-1.62.24l-1.74.31-1.66.33a11,11,0,0,0-1.31.32,3,3,0,0,1-1.12.15,3.14,3.14,0,0,1-1.29-.64c-.56-.41-.79-.71-.68-.89s.54-.29,1.3-.31a11.86,11.86,0,0,0,1.25-.09l1.8-.23c.67-.09,1.4-.2,2.18-.33l2.34-.39V10.22a7.27,7.27,0,0,1-2.34-.1c-.54-.15-.79-.35-.73-.59s.4-.4,1.05-.48l1-.15c.34-.05.69-.12,1.06-.21l0-1.3a15.86,15.86,0,0,1-2,.16,5.32,5.32,0,0,1-1.3-.13c-.67-.15-1-.33-1.1-.55s.34-.4,1.23-.55L106.88,6c.54-.09,1.08-.22,1.65-.37a11.69,11.69,0,0,0-.25-2.36,4.47,4.47,0,0,0-.66-1.47c-.55-.74-.64-1.24-.3-1.51s1.15-.16,2.41.34a11.32,11.32,0,0,1,1.52.68,2.29,2.29,0,0,1,.72.54.53.53,0,0,1,.13.48,2.9,2.9,0,0,1-.23.54,4.92,4.92,0,0,0-.39.86,4.71,4.71,0,0,0-.19,1,6.38,6.38,0,0,1,1.77-.5,5.45,5.45,0,0,1,1.83.08c.63.13.92.39.86.78s-.55.71-1.48,1c-.56.17-1.1.32-1.62.44l-1.43.34v.91a5.06,5.06,0,0,1,1.45-.41,3.9,3.9,0,0,1,1.25.12,1.61,1.61,0,0,1,.71.31.66.66,0,0,1,.28.45.61.61,0,0,1-.28.49,2.35,2.35,0,0,1-1,.4c-.91.24-1.72.44-2.44.59V11c1-.18,1.82-.34,2.6-.51s1.38-.29,1.82-.4a8.89,8.89,0,0,1,2.52-.34A2.72,2.72,0,0,1,119.89,10.48ZM116,15.9a3.4,3.4,0,0,0-.44,1.17,9,9,0,0,0-.12,1.66q0,1.29.12,2.85c.07,1,.19,2.06.34,3.06a5,5,0,0,1,.06,1.07,4.14,4.14,0,0,1-.18,1,4.2,4.2,0,0,1-.42,1,10.31,10.31,0,0,1-.7,1.12,1.47,1.47,0,0,1-1.2.77,1,1,0,0,1-.91-.64,5.63,5.63,0,0,0-.68-1.18,8,8,0,0,0-1.46-1.38c-.69-.56-1-1-1-1.25s.49-.29,1.46-.05a5.94,5.94,0,0,0,1.06.18,1,1,0,0,0,.57-.1.49.49,0,0,0,.24-.36,3.28,3.28,0,0,0,0-.6q0-1,0-1.8t0-1.59c0-.53-.06-1.09-.1-1.67s-.11-1.28-.19-2.08c0-.39-.09-.7-.13-.91a.75.75,0,0,0-.25-.46.83.83,0,0,0-.5-.11c-.22,0-.52,0-.91.11l-1.53.23a9.1,9.1,0,0,1-1.39.1,5.47,5.47,0,0,1,0,.71c0,.26,0,.64-.08,1.14a4,4,0,0,0,1.37-.23,5.52,5.52,0,0,1,1.42-.45,1.38,1.38,0,0,1,.82.09c.58.33.87.65.87,1s-.27.54-.81.65a15.07,15.07,0,0,1-2,.27,7.18,7.18,0,0,1-1.68-.08c0,.31,0,.6-.05.88s0,.55,0,.81a6.39,6.39,0,0,0,2-.29,3,3,0,0,1,1.12-.24,5.37,5.37,0,0,1,1,.17,1,1,0,0,1,.56.31.64.64,0,0,1,.14.42.6.6,0,0,1-.19.4,1,1,0,0,1-.44.24,15.14,15.14,0,0,1-2.1.37,7.11,7.11,0,0,1-2.19-.11c-.13,1.3-.26,2.31-.41,3a12.67,12.67,0,0,1-.47,1.83c-.23.82-.6,1.23-1.1,1.23s-1-.46-1.43-1.39a2.71,2.71,0,0,1-.31-1.37,3,3,0,0,1,.57-1.39,3,3,0,0,0,.37-.91,11.91,11.91,0,0,0,.31-1.5c.09-.56.16-1.15.23-1.77s.1-1.2.1-1.77a13,13,0,0,0-.08-1.49,2.33,2.33,0,0,0-.28-.94,2.41,2.41,0,0,1-.39-.81.41.41,0,0,1,.21-.48,1.93,1.93,0,0,1,.94-.08,15.53,15.53,0,0,1,1.84.36,14.48,14.48,0,0,0,2.5-.34,9.94,9.94,0,0,0,2-.63,2.24,2.24,0,0,1,1-.3,3.46,3.46,0,0,1,1.56.49,3.41,3.41,0,0,1,1.58,1.12A1,1,0,0,1,116,15.9Z" transform="translate(41.12)"/><path class="cls-1" d="M131.33,10.61l1.91-.56c.48-.13.85-.21,1.12-.26a2,2,0,0,1,.64,0,3.59,3.59,0,0,1,.48.14c.28.18.38.39.28.64s-.43.45-1,.6l-1,.26c-.34.08-.69.18-1.06.29.91.59,1.4,1,1.48,1.23s-.11.49-.57.75a2.65,2.65,0,0,0-.73.65c-.25.3-.64.84-1.18,1.59a5.35,5.35,0,0,1,1.15-.26,2.36,2.36,0,0,1,1,.07,1.62,1.62,0,0,1,.71.34.37.37,0,0,1,.12.45,1.5,1.5,0,0,1-.59.54,6.25,6.25,0,0,1-1.41.58,6,6,0,0,1-.65.21l-.68.22c0,.21,0,.43-.05.65s0,.43-.05.65a12.37,12.37,0,0,1,1.64-.44,2.52,2.52,0,0,1,.86,0,3.18,3.18,0,0,1,1.11.31c.23.14.35.29.34.45s-.14.32-.39.47a3,3,0,0,1-1.09.36,24.19,24.19,0,0,0-2.57.65c0,.59,0,1.17,0,1.76s0,1.19,0,1.81a9.38,9.38,0,0,1-.08,1.5,4.82,4.82,0,0,1-.31,1c-.28.69-.64,1-1.07,1s-.86-.37-1.3-1a2.84,2.84,0,0,1-.45-1,2.55,2.55,0,0,1,.16-1.27,6.73,6.73,0,0,0,.29-1.33,15.62,15.62,0,0,0,.13-1.63l-2.08.73c-.67.25-1.26.5-1.78.73a5.36,5.36,0,0,1-.85.33,2.28,2.28,0,0,1-.66.08,1.57,1.57,0,0,1-.67-.21,6.92,6.92,0,0,1-.84-.55c-.87-.63-1.28-1-1.22-1.19s.63-.3,1.74-.4C123,21.4,124,21.25,125,21s2.27-.5,3.52-.84V18.63c-.43.06-.8.11-1.12.14a5.19,5.19,0,0,1-.86,0,5.43,5.43,0,0,1-.73-.08,4.31,4.31,0,0,1-.73-.23c-.69-.26-1-.45-1-.55s.44-.24,1.22-.39,1.34-.25,2.13-.43,1.65-.4,2.58-.68q1.4-3,1.23-3.9c0-.08,0-.16,0-.22a1.34,1.34,0,0,1,0-.2l-2,.64c-.65.2-1.25.41-1.81.63a10,10,0,0,1,1,.58,2.17,2.17,0,0,1,.55.54,1.22,1.22,0,0,1,.2.57,4.94,4.94,0,0,1,0,.65c-.09.6-.27,1-.55,1.1s-.59,0-.91-.36a4.86,4.86,0,0,1-.72-.87,5,5,0,0,1-.48-1.24,1.61,1.61,0,0,1-.07-.61,10.87,10.87,0,0,0-1.23.55,9.15,9.15,0,0,1-1,.44,1.56,1.56,0,0,1-.77.09,2.6,2.6,0,0,1-.85-.27,9.31,9.31,0,0,1-1.1-.68c-.7-.48-1-.82-1-1s.55-.34,1.53-.4,2-.2,3.2-.39,2.34-.45,3.55-.75l0-2.53a7.34,7.34,0,0,1-1.78.09,3.42,3.42,0,0,1-1.11-.29c-.65-.3-1-.53-.94-.68s.39-.28,1.1-.39c.44-.06.89-.15,1.37-.26l1.36-.32c0-.89,0-1.62,0-2.2a12.74,12.74,0,0,0-.13-1.39,3,3,0,0,0-.21-.83,1.76,1.76,0,0,0-.29-.49,3.34,3.34,0,0,1-.6-.91.48.48,0,0,1,.08-.58,1.23,1.23,0,0,1,.86-.15,8,8,0,0,1,1.74.41,8.29,8.29,0,0,1,1.3.55,1.75,1.75,0,0,1,.63.55.78.78,0,0,1,.08.65,4.09,4.09,0,0,1-.32.81,3.46,3.46,0,0,0-.33,1.07c-.06.44-.12,1-.16,1.69a7.52,7.52,0,0,1,1.69-.32,2.13,2.13,0,0,1,1,.23q.78.39.75.78c0,.26-.25.47-.68.65-.65.28-1.16.48-1.53.61s-.78.25-1.23.36Zm6.39-5.2a9.12,9.12,0,0,0,1.45-.18c.49-.1.94-.21,1.36-.34a7.07,7.07,0,0,0,1.12-.44,2.7,2.7,0,0,0,.72-.47,3.14,3.14,0,0,1,.53-.44,1.13,1.13,0,0,1,.52-.16,1.76,1.76,0,0,1,.64.11c.24.09.54.22.91.39a8.52,8.52,0,0,1,1.28.75,2,2,0,0,1,.58.6.53.53,0,0,1,0,.5,1.43,1.43,0,0,1-.38.46,1.93,1.93,0,0,0-.42.44,4.67,4.67,0,0,0-.36.66c-.13.28-.28.66-.45,1.12s-.39,1.09-.65,1.87a3.32,3.32,0,0,1-.59,1.11,5.42,5.42,0,0,1-1.2,1c-.56.37-1,.5-1.2.41s-.43-.43-.58-1a2.4,2.4,0,0,0-.3-.69,10.06,10.06,0,0,0-.77-1c-.48-.57-.67-.92-.56-1.06s.53-.12,1.27.05a2.92,2.92,0,0,0,1.33.11.82.82,0,0,0,.49-.57,5.92,5.92,0,0,0,.26-1,7.57,7.57,0,0,0,.06-1c0-.43-.24-.6-.71-.52s-.89.19-1.56.31-1.39.27-2.14.44c0,.78,0,1.48,0,2.11s0,1.23,0,1.82,0,1.17,0,1.77-.05,1.25-.07,2a11.64,11.64,0,0,0,1.24-.13,10.42,10.42,0,0,0,1.26-.26,5.44,5.44,0,0,0,1.12-.4,3.14,3.14,0,0,0,.83-.54,1.28,1.28,0,0,1,.81-.34,3.79,3.79,0,0,1,1.56.57,7.05,7.05,0,0,1,1.17.75,1.87,1.87,0,0,1,.52.58.51.51,0,0,1,0,.46,1.08,1.08,0,0,1-.33.35l-.5.41a1.89,1.89,0,0,0-.38.45,6.68,6.68,0,0,0-.31.65c-.09.25-.21.58-.34,1s-.35,1.05-.53,1.51a10.09,10.09,0,0,1-.64,1.32,16.73,16.73,0,0,0,2.75,1.8,27.85,27.85,0,0,0,3.56,1.54c.78.31,1.15.57,1.13.8s-.45.42-1.3.57q-1.71.33-2.76.45a5.26,5.26,0,0,1-1.69,0,2.17,2.17,0,0,1-1.1-.55,9.32,9.32,0,0,1-1-1.2c-.37-.52-.73-1-1.07-1.46a9.63,9.63,0,0,1-4.32,2.11c0,.3-.08.58-.1.84a3.68,3.68,0,0,1-.13.75c-.3,1.45-.71,2.19-1.22,2.21s-1.07-.57-1.7-1.79a4,4,0,0,1-.28-.63,2,2,0,0,1-.06-.62,4.17,4.17,0,0,1,.14-.81c.09-.31.22-.72.39-1.22a9.58,9.58,0,0,0,.23-1.3c.09-.65.17-1.41.24-2.3s.14-1.87.2-2.94.1-2.16.14-3.27c0-1.32.07-2.43.07-3.33s0-1.64-.08-2.22a6.29,6.29,0,0,0-.26-1.38,2.94,2.94,0,0,0-.44-.83.87.87,0,0,1-.26-.55.43.43,0,0,1,.29-.39,2.06,2.06,0,0,1,.9-.1A6.5,6.5,0,0,1,137.72,5.41Zm.52,12.47c0,.95-.07,1.86-.08,2.73s0,1.62,0,2.27v.42a3.34,3.34,0,0,1,0,.43,7,7,0,0,0,1.61-1.16A9.69,9.69,0,0,0,141,21c-.54-.69-1-1.3-1.49-1.82S138.63,18.25,138.24,17.88Zm.07-2.14v.31a1.6,1.6,0,0,1,0,.3q.71.27,1.2.51a9.46,9.46,0,0,1,.86.48,3.42,3.42,0,0,1,.63.54l.55.62.49.58a13.65,13.65,0,0,0,.78-2.95,1.06,1.06,0,0,0-.11-.77c-.12-.14-.44-.15-1,0a20.43,20.43,0,0,1-2.13.45A3.59,3.59,0,0,1,138.31,15.74Z" transform="translate(41.12)"/><path class="cls-1" d="M128.55,41.09c.16,0,.1-.38.12-.45C128.42,40.73,128.56,41.2,128.55,41.09Z" transform="translate(41.12)"/><polygon class="cls-1" points="167.17 42.05 167.22 41.88 166.85 42.29 167.17 42.05"/><path class="cls-1" d="M123.72,42c.22.71.85-.12,1.26.14l.07.16.19-.58C124.73,41.86,124.07,42.24,123.72,42Z" transform="translate(41.12)"/><path class="cls-1" d="M122.47,40.49c.08.28-.27.24.29.09,0,0,0,0-.05-.07Z" transform="translate(41.12)"/><path class="cls-1" d="M122.71,40.51c.25,0-.16-.23,0,0Z" transform="translate(41.12)"/><path class="cls-1" d="M121.57,40.67l.33-.25c-.07-.16-.36-.2-.25-.32C121.32,40.24,121.38,40.4,121.57,40.67Z" transform="translate(41.12)"/><path class="cls-1" d="M121.27,41.19l.16-.1C121.4,41,121.36,41,121.27,41.19Z" transform="translate(41.12)"/><path class="cls-1" d="M121.79,40.86l-.36.23c0,.11.06.34.17-.08C121.57,41.22,121.64,41,121.79,40.86Z" transform="translate(41.12)"/><path class="cls-1" d="M122,41c.18.16.42.26.09.5C122.7,41.37,122.61,40.87,122,41Z" transform="translate(41.12)"/><path class="cls-1" d="M123.6,42.78l.24.21.21-.24C124,42.86,123.58,42.55,123.6,42.78Z" transform="translate(41.12)"/><path class="cls-1" d="M119.55,40.3a3.38,3.38,0,0,0,.14.6l.24-.18C119.8,40.62,119.57,40.53,119.55,40.3Z" transform="translate(41.12)"/><path class="cls-1" d="M119.69,40.9l-.36.26C119.65,41.19,119.71,41.07,119.69,40.9Z" transform="translate(41.12)"/><polygon class="cls-1" points="162.32 41.98 162.91 41.44 162.21 41.99 162.32 41.98"/><polygon class="cls-1" points="159.3 40.28 159.5 39.93 159.14 40.46 159.3 40.28"/><path class="cls-1" d="M117.28,40.34c.15-.29-.21-.49,0-.67a1.35,1.35,0,0,0-.65.53C116.79,40.07,117,40.1,117.28,40.34Z" transform="translate(41.12)"/><path class="cls-1" d="M116.27,40.53a2,2,0,0,0,.31-.33A.91.91,0,0,0,116.27,40.53Z" transform="translate(41.12)"/><path class="cls-1" d="M118.72,41.08a.65.65,0,0,0-.28-.43l.14.43Z" transform="translate(41.12)"/><path class="cls-1" d="M118.58,41.09h0l-.31,0Z" transform="translate(41.12)"/><path class="cls-1" d="M118.75,41.09h0C118.73,41.13,118.74,41.14,118.75,41.09Z" transform="translate(41.12)"/><path class="cls-1" d="M120.27,41.6c-.21.24-.65.49-.23.86C120.2,42.16,120,42,120.27,41.6Z" transform="translate(41.12)"/><path class="cls-1" d="M118.93,41.62l.38.1c0-.11-.08-.28,0-.4Z" transform="translate(41.12)"/><polygon class="cls-1" points="159.86 41.76 160.04 41.62 159.9 41.59 159.86 41.76"/><path class="cls-1" d="M116.92,40.93a.82.82,0,0,1-.55.23,1.94,1.94,0,0,0,.66.13C117.06,41.15,117.15,40.91,116.92,40.93Z" transform="translate(41.12)"/><path class="cls-1" d="M117.73,41l0,0S117.73,41.12,117.73,41Z" transform="translate(41.12)"/><path class="cls-1" d="M114.37,41.15l0,.08a.17.17,0,0,0,0-.07Z" transform="translate(41.12)"/><path class="cls-1" d="M117.06,41.36c.17.09.26,0,.36-.15a1.59,1.59,0,0,1-.39.08C117,41.35,117,41.39,117.06,41.36Z" transform="translate(41.12)"/><path class="cls-1" d="M115.71,40.72A1.61,1.61,0,0,0,116,41C115.91,40.82,115.74,40.61,115.71,40.72Z" transform="translate(41.12)"/><path class="cls-1" d="M117.64,41s0,0,0,0S117.61,40.88,117.64,41Z" transform="translate(41.12)"/><path class="cls-1" d="M117.64,41a.92.92,0,0,0-.22.26.87.87,0,0,0,.27-.14A.43.43,0,0,1,117.64,41Z" transform="translate(41.12)"/><path class="cls-1" d="M113.76,43.9c0-.4.46-.77.84-.34.36-.3.12-1.6-.2-2.33,0,.17,0,.33-.38.57.13.21.83.5.51.86-.5.21-.41-.14-.65-.35.21.5-.63.72-.52,1.45l.43-.26C113.8,43.61,113.64,43.79,113.76,43.9Z" transform="translate(41.12)"/><path class="cls-1" d="M115.12,41.27l.15-.05c-.17-.07-.3-.22-.53-.53a.67.67,0,0,0-.33.47l.76.05Z" transform="translate(41.12)"/><path class="cls-1" d="M116,41.22c-.12.43-.49.62-.27,1.08.46,0,.32-.36.59-.55-.73.11.21-.24-.32-.48a1.15,1.15,0,0,1,.4-.11A2.75,2.75,0,0,1,116,41l0,0h0c0,.06,0,.09,0,.06h0a.76.76,0,0,1,0,.16c-.21-.09,0-.11,0-.16s0-.05,0-.07h0l-.74.23A1.45,1.45,0,0,0,116,41.22Z" transform="translate(41.12)"/><path class="cls-1" d="M119.65,43.38a.2.2,0,0,1,0-.1C119.58,43.34,119.56,43.37,119.65,43.38Z" transform="translate(41.12)"/><path class="cls-1" d="M119.35,43.12c.05-.06.1-.23.27-.19s0,.21,0,.35c.1-.11.37-.31,0-.52l0,.06c-.3-.15-.68-.68-.63-.74A3.78,3.78,0,0,0,119.35,43.12Z" transform="translate(41.12)"/><path class="cls-1" d="M117.64,42.28l-.61.21.31.38,0-.23C117.67,42.73,117.6,42.45,117.64,42.28Z" transform="translate(41.12)"/><polygon class="cls-1" points="155.42 40.94 155.5 40.48 155.15 41.13 155.42 40.94"/><polygon class="cls-1" points="154.62 40.99 154.65 40.6 154.44 40.84 154.62 40.99"/><path class="cls-1" d="M68.68,45.9,68.5,46A.7.7,0,0,0,68.68,45.9Z" transform="translate(41.12)"/><path class="cls-1" d="M70,45.93l0-.19C70,45.84,69.92,45.92,70,45.93Z" transform="translate(41.12)"/><path class="cls-1" d="M94,41c-.27-.37-.56-.94-.53-.5l.08.43A.44.44,0,0,1,94,41Z" transform="translate(41.12)"/><path class="cls-1" d="M80.63,43.63l.08.13c.06-.15.12-.29.18-.41Z" transform="translate(41.12)"/><path class="cls-1" d="M80.45,45.42l-.35-.28A1,1,0,0,0,80.45,45.42Z" transform="translate(41.12)"/><path class="cls-1" d="M61.57,46.36l-.21.45C61.69,46.8,61.55,46.58,61.57,46.36Z" transform="translate(41.12)"/><path class="cls-1" d="M105.37,41.15a1.23,1.23,0,0,0-.56-.26C105.08,41.14,105.3,41.51,105.37,41.15Z" transform="translate(41.12)"/><path class="cls-1" d="M69.19,41.3a.33.33,0,0,0-.16.26C69.15,41.49,69.21,41.41,69.19,41.3Z" transform="translate(41.12)"/><path class="cls-1" d="M104.15,40.89a1.2,1.2,0,0,0,.12.11.9.9,0,0,1,.54-.11C104.61,40.71,104.38,40.59,104.15,40.89Z" transform="translate(41.12)"/><path class="cls-1" d="M35.81,46a.08.08,0,0,1-.05,0C35.75,46,35.78,46,35.81,46Z" transform="translate(41.12)"/><path class="cls-1" d="M28.31,41.63a1.23,1.23,0,0,1,.31,0C28.56,41.56,28.47,41.57,28.31,41.63Z" transform="translate(41.12)"/><path class="cls-1" d="M110.31,40.8c.17,0,0,0,0,0Z" transform="translate(41.12)"/><path class="cls-1" d="M111.13,42.52a.37.37,0,0,0-.07.21A.56.56,0,0,1,111.13,42.52Z" transform="translate(41.12)"/><path class="cls-1" d="M102.48,43.59h0C102.51,43.68,102.5,43.66,102.48,43.59Z" transform="translate(41.12)"/><path class="cls-1" d="M110.56,41a.74.74,0,0,0-.21-.13A.58.58,0,0,0,110.56,41Z" transform="translate(41.12)"/><path class="cls-1" d="M110.53,40.8l.15,0C110.7,40.77,110.68,40.72,110.53,40.8Z" transform="translate(41.12)"/><path class="cls-1" d="M110.08,40.83a.63.63,0,0,1,.27,0s0,0,0-.07Z" transform="translate(41.12)"/><path class="cls-1" d="M49.62,44.84l0,0C49.41,45,49.48,45,49.62,44.84Z" transform="translate(41.12)"/><path class="cls-1" d="M89.61,45.54s0,0,0,0h0Z" transform="translate(41.12)"/><path class="cls-1" d="M89,45.87c.26-.54.41-.48.6-.36l-.2-1.25Z" transform="translate(41.12)"/><path class="cls-1" d="M65.56,46l.43.39c-.52.64-.89.42-.49,1,.06-1.36,1.65-.14,1.71-1.5l.28.29c-.08,0-.09.06-.17,0,.55.65.4-1,1.11-.79.24.11.41.3.25.46l.54-.33a.12.12,0,1,1,0,.23l.83-.1v0a4.43,4.43,0,0,1,.52-.69c.21.2-.11.15-.06.32l.47-.33c.18.35-.2.69-.52.64.43,1.36.39-.34,1.31.45l-.43.17c.28.77.62.49,1.11,1-.12-.26-1-1.22-.49-1.55.15.1.33.15.6-.13,0,.49.27.37.6.34l0,.64c.36-.18.33-.51.54-.8.4.07.48.56.57,1,.64.1-.44-.8.32-.92.53.25.9,0,1.53-.4.37.22-.07.4.07.58l.32-.51c.08,0,.06.17,0,.25.27-.2,0-.64.45-.82.12-.7.89,1,1.43.23.14.18-.06.39,0,.64a4,4,0,0,0,1.24-1.09l.51.42c-.38-.48.11-1,.53-1.51a5.89,5.89,0,0,0-.32-.53l.67-.35c.08.11,0,.33-.09.6,0-.06.09-.11.12-.16.24.24.12.61-.06,1l-.24-.4A2.67,2.67,0,0,0,80.42,45a.48.48,0,0,1,.22-.17.47.47,0,0,0,0,.26c0,.07.09-.07.21-.23l.15.71,0-.28.88.44c.64-.71,1.19-1.77,2.19-2.07-.25.53,0,.86-.06,1.48-.28-.66-.78.28-1.3.14.27.07.21.37.14.47l.93-.6c0,.51.2.38.44.59-.18-1,.69-.66,1.07-1,0,.34-.07.68-.53.6.51.75.66-1.18,1.16-.54-.11,0-.17,0-.22.13.26-.3.91-.06.76.23h-.12c.75.12,2.28,0,2.39-.85a9.24,9.24,0,0,1-.14,1.2l1.34-2.86c-.12.73.33,2.47-.29,2.88a.6.6,0,0,0,.77,0c-.12-.1-.3-1.06-.13-1.12.45.81.31.43.87,1.13-.18-.16,0-1.31.31-1.27a7.17,7.17,0,0,1-.08,1.25l.72-1.12c-.18.2,0,1,.13,1.27-.08-.22.62,0,.81-.09l-.31-.26c.81.17.8-1.59,1.61-1.53-.1.24-.24,1.43.16,1.57.19-.57.83-2.77,1.54-3.21l.14.33.54-.38a21.17,21.17,0,0,1-1.81,3.4c.3.26.09.39.54.36.16.31-.25.47-.38.49l1,.2c0-.67.81-.68.77-1.24l-1.14.7c0-.67.66-1.91,1.41-1.79.19.27-.15,1.2-.13,1.42.1-.23.71-.44.78-.28l-.32.36c.42.26.68-.89,1.18-.25.17,0,.52.87.55.47a9.82,9.82,0,0,1-.15-3.71,6,6,0,0,1,1.1,1.11c.29.6-.43,1.43-.18,2a1,1,0,0,1,.23-.49c.18.16-.08.57.32.49.06-.68.8.06.18-.58.39-.19.41.14.87.12a2.08,2.08,0,0,1,.79-1.7,1.06,1.06,0,0,0,.11.5c.79.07,1.21.37,2,.38.07.17.42.37.27.66.11-.12.2-.35.43-.37.44.59-.51.09-.17.8,0-.4.59-.55.91-.79-.1-.62-.75-.12-1.07.13a2.5,2.5,0,0,1,1.33-2.12c.61-.21.27.54.37.42,1.15.15,1-1.47,1.94-.86.38.54,0,1.07.1,1.46-.5.2-.77-.34-1.11-.32l.42.25c-.16.18-.49.32-.67.16.32.48,1.94.09,2.83.54.15-.18.43-.37.3-.58l-.28.07c-.26-.43.53-.6.17-.8.38-.31.8-.79,1.33-.54l.1.61c0-.18-.35-.36-.5-.18.22-.27.82.83,1.06,0l-.37-.42c.37-.31.84-1,1.31-.77-.21-.6-.11.07-.44-.64.29.88-1.2,0-.74.89-.34-.82-.59-.35-1-1.05,0,.2.16.39-.23.29a1,1,0,0,1-.09.18l0,0,0,0h0a.66.66,0,0,1,.2.31c-.19.47-.82.45-1,.69-.23-.09.1-.23,0-.45l-.32.36c0-.45-.62-.74-.07-1l-.49,0a.8.8,0,0,0-.95-.16c-.23-.1-.59.5-.38.15l-.78.27v-.11c-.77-.05-1.58.75-2.46-.06a1.21,1.21,0,0,1-1,.12l-.09-.39c-.33.14-1-.39-1.14,0-.36-1-1.61-.23-2.19-.42l0,.51a2.94,2.94,0,0,0-1.29.32l0,.45c-.43.37-1.1-.32-1.78-.27,0-.18.21-.13.34,0-.82-1-1.72.74-2.45,0a.3.3,0,0,1-.45,0s0,0,0,0h-.08A2.83,2.83,0,0,0,94,41a.87.87,0,0,0,.21.24,1.41,1.41,0,0,0-.57.18L93.55,41l0,0c-.2-.18-.16.23,0,.59a1.11,1.11,0,0,0-.28.29c-.17-.78-.55.26-.78-.57-.14.41-1.06.31-1.17,1.16,0-.11-.07-.17,0-.17-.23-.1-.47-.2-.68,0l-.1-.61-.51.82c-.31-.37-.44-.59-.13-1.06-.75.73-.61.27-1.24,1l0-.39c-.23,0-.59.54-.73.22-.5-.76-2.51-.11-3.81-.81.25,1.17-.61-.52-.66.38-.07-.27-.26-.43,0-.67-.67.27-1-.44-1.46.33-.08-.28.14-.41.07-.57,0,.06-.21.24-.28.07s.1-.23.2-.35c-.68,0-.74.9-.79,1.7-.35-.38-.52-.33-.77.19-.12-.26-.32-.53.1-.62-.23,0-1.45-.39-1.47.25-.07-.16-.33,0-.39,0a3.77,3.77,0,0,0-1.11,0l.15.1c-.21.77-.44.17-.86.26v-.07c-1-.56-.41.26-1.37-.37l0,.48c-.09,1-.84-.61-1.4-.22l.2.28c-.3.35-.84-1.41-1.15-1.54-.06-.08.11-.14.2-.21-.79-.6-.1.63-.69.78-.11-.34.14-.86-.26-.93-.2-.27-1.16,1.1-1.7.45.12.27.24.53,0,.72s-1.14-1-1.52-.16a.46.46,0,0,1-.08-.21c-.32.22-1,.36-1.24.8-.3-1.65-2,.81-2-.72l-1,.08,0-.15c-.64-.1-.86.26-1.08.63-.15-.11,0-.25,0-.33-.93-.31-1-.24-1.8.52l-.08-.5c-.21.29-1.34-.77-2.24-.19a.31.31,0,0,1,.1-.23c-1,.58-2.45-1.37-2.83.43l-.67.45c.87.14-.13.78.23,1.08-.35.11-.89-.54-.47-.64l.07.09c.15-.94-1.09-.33-1.06-1-1.72.05-3.39-.47-5-.51l.18.73-.56-.05c-.15-.17-.2-.57.2-.54-.21-.41-.67.35-.68.51-.78-.3.31-.85.07-.87l-.33,0,.07.09c-.26.3-.28.61-.76.58-.31-.15-.16-.45-.28-.48s0-.08-.18,0L47,41.34l.28.57c-.31.29-.66,0-.34.63-.48-1-2.63-.37-2.93-.68a1.53,1.53,0,0,1-1.41.36c.14.12.22.77-.25.69.17-1.34-.84-.58-1.22-1.54.34.64-1.31.16-.79,1.06-.39-.1,0-.5-.32-.81-.92.52-2-.34-3.16-.16,0,.17.17.44-.07.7l-.6-.88c-.22.09-.21,1-.62.41.06.15.15.37,0,.42-2.23-.85-4.55.71-6.81-.9.31.34.1.37-.13.38.15.09,0,.44,0,.68l-.94-.67c-.18.67-1,0-1.12.68l.3-.11c-.39.74.56,1.66.5,2.62.45-.85,1.18,1.25,1.91,0,.16.19-.14.31-.05.53.19-.41.41-.5.83-.31l-.05.1c1.17-.1,1.67.3,3,.57l-.1-.47c.28.06.34.21.47.33.33-.72-.79,0-.49-.83.37,1,2,0,2.23,1.11.44,0-.12-.55.31-.55l.12.3.11-.38c.28.06.42.43.43.68-.07,0-.19.07-.27.09.37.35,1-.11,1.17,0l-.42-.18c1.19-.28,2.63.11,3.77-.49l-.08-.23c.87-.41.69.25,1.65.06l0,.05a.81.81,0,0,1,.71-.31c-.24.26.45.51.13.8.95-.45.47-.35,1.1-1.18l.14.37c.21-.34.23-.51.71-.61-.39.32.31.57-.13,1,1,.81,1.49-.82,1.95.36.46-1-.87-.57-.61-.78-.22-.34.38-.77.69-.67s.55,1.31,1.36,1.29c-.08,0-.09.08-.17.07.3.26.59-.35,1,.07.21-.62.48,0,.54-.75l-.74.18c.42-.21.82-1.13,1.51-.68a1.41,1.41,0,0,1-.4.48c.2.24.38-.15.59.09-.06.79-.9.17-1.34.77.21.34.85-.57.62.29.32-1.09.79.14,1.34-.7l0,.48c.08-.08.26-.3.42-.29l-.29.62c.44-.53.85.46,1.28.17-.89,0-.2-.57-.58-.92,1.1-.63.63,1.24,1.86,1-.17.06-.62-.29-.36-.51a1.46,1.46,0,0,1,.68.53c.81-.1-.12-.49.22-.78.28.58.4-.24.76-.42v.48c.93.31.25-1,1.08-.63l-.35.67.43-.17-.09.55c.48-.41.62-.31,1.09-.15-.11-.34.06-.88.47-.89.28.28-.16.46.42.39-.13.3-.27.68-.53.23,0,.16-.13.31-.15.46.3.33.75.08,1,.07a.36.36,0,0,1-.23-.11l.84-.67c.13.18,0,.33-.08.47.17,0,.29-.27.54-.32-.06.4-.05.8-.4,1l.8-.44c.06.17.41.47.31.61.45.23,1.09-.76,1.68-.45a.38.38,0,0,1,.22-.21c.55.09,1,.57,1.7,0l.38.71c.51-.16-.51-.89.35-1.15.61-.23.23.6.44.79.3-.35.83-1.07,1.38-.5C65.88,46.08,65.73,46,65.56,46Zm6.35-.31c-.12.1-.37.41-.46.13C71.59,45.29,71.7,45.56,71.91,45.72Zm9.66-1.16c-.09.16-.24.08-.4-.11A.39.39,0,0,1,81.57,44.56Zm26.89-3.36v0C108.18,41,108.27,41.11,108.46,41.2Zm.57.21a.18.18,0,0,0,0-.21c0,.13-.17.14-.31.1C108.79,41.43,108.86,41.51,109,41.41Zm-61.21.19.11.12C47.68,41.86,47.75,41.74,47.82,41.6Z" transform="translate(41.12)"/><path class="cls-1" d="M80.47,45.22a1.28,1.28,0,0,1,0-.27A.2.2,0,0,0,80.47,45.22Z" transform="translate(41.12)"/><path class="cls-1" d="M61.61,46.28h0s0,.06,0,.08Z" transform="translate(41.12)"/><path class="cls-1" d="M100.2,45.5a.57.57,0,0,1-.22-.25C100,45.37,100,45.47,100.2,45.5Z" transform="translate(41.12)"/><path class="cls-1" d="M112.05,40.59l-.36.12c.18,0,.24.08.33.16C112,40.76,111.94,40.59,112.05,40.59Z" transform="translate(41.12)"/><path class="cls-1" d="M115.22,43.57c.06-.06.12,0,.17-.06l0-.23C115.15,43.3,115,43.48,115.22,43.57Z" transform="translate(41.12)"/><path class="cls-1" d="M112.39,42.19c0,.41.26.27.52.19h0C112.94,41.81,112.66,42,112.39,42.19Z" transform="translate(41.12)"/><path class="cls-1" d="M113,42.37a.49.49,0,0,1,.24,0C113.23,42.13,113.11,42.31,113,42.37Z" transform="translate(41.12)"/><path class="cls-1" d="M109.76,41.14c.12.1.07-.52.14-.36C110,40.27,109.09,41.41,109.76,41.14Z" transform="translate(41.12)"/><polygon class="cls-1" points="153.72 43.53 153.62 43.03 153.48 43.43 153.72 43.53"/><path class="cls-1" d="M110.58,43.16l.41.14a.16.16,0,0,1,.11-.17C110.85,43.11,110.57,43,110.58,43.16Z" transform="translate(41.12)"/><path class="cls-1" d="M111.1,43.13a.38.38,0,0,0,.33-.09A1,1,0,0,0,111.1,43.13Z" transform="translate(41.12)"/><polygon class="cls-1" points="153.16 43.68 153.03 43.57 152.75 43.54 153.16 43.68"/><path class="cls-1" d="M106.19,43.06l-.45.15c0,.17.08.27.24.2S106.25,43.23,106.19,43.06Z" transform="translate(41.12)"/><path class="cls-1" d="M107.53,44.43c-.12-.1-.12-.21-.19-.38l0,.62Z" transform="translate(41.12)"/><path class="cls-1" d="M106.23,44.58c0,.17-.64.49-.08.46C106.2,44.86,106.64,44.72,106.23,44.58Z" transform="translate(41.12)"/><polygon class="cls-1" points="140.63 43.79 140.74 43.79 140.73 42.77 140.63 43.79"/><path class="cls-1" d="M93.59,46.23c.53.24.12-.63.6-.32.13-.24-.39-.25-.26-.46C93.61,45.7,93.44,45.56,93.59,46.23Z" transform="translate(41.12)"/><path class="cls-1" d="M93.93,45.45l.16-.15A.59.59,0,0,0,93.93,45.45Z" transform="translate(41.12)"/><polygon class="cls-1" points="68.18 41.08 67.84 40.87 68.06 41.21 68.18 41.08"/><path class="cls-1" d="M26.41,41.84l-.08-.65-.2.58C26.2,41.74,26.35,41.69,26.41,41.84Z" transform="translate(41.12)"/><path class="cls-1" d="M72.86,47l0-.16c0-.17-.13-.18-.29-.21Z" transform="translate(41.12)"/><polygon class="cls-1" points="109.36 46.54 109.44 46.55 109.29 45.97 109.36 46.54"/><path class="cls-1" d="M64.38,47.29c.16,0,.34-.11.5-.08C64.54,47.31,64.34,46.56,64.38,47.29Z" transform="translate(41.12)"/><line class="cls-2" y1="33.64" x2="249.37" y2="33.64"/></g></g></svg>