<svg xmlns="http://www.w3.org/2000/svg" viewBox="0 0 176.67 189.38"><defs><style>.cls-1{fill:#fff;}</style></defs><g id="レイヤー_2" data-name="レイヤー 2"><g id="レイヤー_1-2" data-name="レイヤー 1"><rect class="cls-1" x="21.97" y="130.97" width="10.34" height="20.68" rx="1.42"/><polygon class="cls-1" points="164.16 135.28 12.51 138.73 12.51 140.45 164.16 140.45 164.16 135.28"/><polygon class="cls-1" points="164.16 147.34 12.51 143.9 12.51 142.18 164.16 142.18 164.16 147.34"/><path class="cls-1" d="M22,71.52a66.35,66.35,0,1,1,102,55.94h8.92A71.51,71.51,0,1,0,16.82,71.52a71,71,0,0,0,27,55.94h8.92A66,66,0,0,1,22,71.52Z"/><path class="cls-1" d="M66.91,97.74h.92v4.77c0,1.89-.93,2.47-2.15,2.47a3.19,3.19,0,0,1-1-.17l.14-.75a2.28,2.28,0,0,0,.77.13c.82,0,1.31-.36,1.31-1.76Z"/><path class="cls-1" d="M75.16,102.62l-.74,2.24h-1l2.42-7.12H77l2.42,7.12h-1l-.76-2.24Zm2.33-.72-.69-2c-.16-.47-.27-.89-.37-1.3h0q-.16.63-.36,1.29l-.7,2.05Z"/><path class="cls-1" d="M85.12,97.83a11.2,11.2,0,0,1,1.77-.14,2.92,2.92,0,0,1,2,.59,1.92,1.92,0,0,1,.62,1.49,2.08,2.08,0,0,1-.55,1.52,2.91,2.91,0,0,1-2.17.78A3.36,3.36,0,0,1,86,102v2.85h-.92Zm.92,3.43a3.28,3.28,0,0,0,.76.07c1.11,0,1.79-.53,1.79-1.52s-.67-1.39-1.68-1.39a4.13,4.13,0,0,0-.87.07Z"/><path class="cls-1" d="M96.54,102.62l-.74,2.24h-1l2.42-7.12h1.11l2.42,7.12h-1l-.76-2.24Zm2.33-.72-.69-2c-.16-.47-.27-.89-.37-1.3h0q-.17.63-.36,1.29l-.7,2.05Z"/><path class="cls-1" d="M106.5,104.86V97.74h1l2.28,3.6a20.45,20.45,0,0,1,1.27,2.32h0c-.09-1-.11-1.82-.11-2.93v-3h.86v7.12h-.92l-2.26-3.61a20.46,20.46,0,0,1-1.33-2.38h0c.06.9.08,1.76.08,2.94v3Z"/><path class="cls-1" d="M68.65,33.38a26.45,26.45,0,0,1-.2,3.68c.54.58,2,2.26,2.29,2.69l-.73.78a27,27,0,0,0-1.78-2.36,9.42,9.42,0,0,1-2.33,4.45,3.12,3.12,0,0,0-.73-.72c2.26-2.4,2.52-5.51,2.52-8.52V27.87c.74.07,1,.07,1.26.08,0,.11-.09.19-.3.21ZM65.18,35a7.16,7.16,0,0,0,1-3.88l.78.11a7.63,7.63,0,0,1-1,4.15Zm6-4a.36.36,0,0,1-.32.13,29.17,29.17,0,0,1-1.31,3.07l-.67-.35a22.92,22.92,0,0,0,1.22-3.32Zm5.64,10c0,.37.06.43.49.43h1.36c.38,0,.46-.22.51-1.8a3.19,3.19,0,0,0,.88.39c-.09,1.86-.36,2.31-1.28,2.31h-1.6c-1.12,0-1.38-.28-1.38-1.34V37.42H74.13c0,.1-.12.16-.3.18-.22,2.48-.79,4.13-3.56,5a2.34,2.34,0,0,0-.59-.78c2.44-.75,3-2.09,3.15-4.42H70.44v-.93h2V34.4h-2v-.95h2v-2l1.28.09c0,.1-.09.18-.3.21v1.68H77v-2l1.3.09c0,.1-.1.18-.3.21v1.68h2v.95H78v2.09h2v.93H77.11c0,.1-.11.16-.3.18Zm-2.17-8.66V30.5H71.06v-.92h3.58V27.87L76,28c0,.11-.1.19-.32.22v1.41h3.68v.92H75.65v1.93Zm-1.27,2v2.09H77V34.4Z"/><path class="cls-1" d="M94.7,33.54a23.91,23.91,0,0,1-4.79,1A5.82,5.82,0,0,0,92.53,37l-.64.9c-.22-.11-.63-.3-.92-.47a6.39,6.39,0,0,0-1.86-.24c-.23,0-.45,0-.65,0l-.23-.87a11.42,11.42,0,0,1,1.78.06,7.7,7.7,0,0,1-1.25-1.79,40.27,40.27,0,0,1-4.25.16H82.15v-1l2.42,0c1.3,0,2.58,0,3.86-.11-.17-.49-.42-1.39-.61-2.11a19,19,0,0,1-2,.1c-.85,0-2,0-2.69,0v-1c.95,0,2,0,2.68,0s1.22,0,1.82-.08c-.15-.73-.3-1.6-.43-2.48h1.63c0,.19-.14.3-.43.35.1.68.21,1.41.34,2A16.53,16.53,0,0,0,93,29.63l.27,1a19,19,0,0,1-4.31.9,19.81,19.81,0,0,0,.6,2.08,22.87,22.87,0,0,0,4.94-1.05Zm-2.79,8.38C91,42,90,42,88.42,42c-2.56,0-4.56-.84-4.52-2.63a3.31,3.31,0,0,1,1.86-2.5l.72.73c-.92.49-1.46,1.16-1.46,1.76,0,1.12,1.39,1.61,3.4,1.63,1.19,0,2.44-.06,3.52-.14Z"/><path class="cls-1" d="M99.63,39.07a7.48,7.48,0,0,1-1.77,3.42L97,42a6.68,6.68,0,0,0,1.73-3.2Zm11.86-3H100.22v1.18h10.26l.58.09a2,2,0,0,1-.06.32c-.22,3-.44,4.09-.86,4.5s-.69.41-1.5.41c-.4,0-.9,0-1.43-.05a2.13,2.13,0,0,0-.27-.9c.78.08,1.54.08,1.81.08s.43,0,.55-.14c.27-.27.48-1.19.65-3.46H99.17v-9h3.91a14.6,14.6,0,0,0,.59-1.38l1.38.3a.32.32,0,0,1-.32.16c-.14.27-.33.6-.54.92h5v5h-9v1.14h11.27ZM108.18,30h-8v1.24h8Zm-8,3.33h8V32h-8Zm1.06,8.73a10.47,10.47,0,0,0-.37-2.87l.89-.14a10.5,10.5,0,0,1,.43,2.85Zm3-.39a10.4,10.4,0,0,0-.79-2.56l.83-.21a10.17,10.17,0,0,1,.86,2.52Zm2.51-3.08a9.76,9.76,0,0,1,1.26,2l-.81.36a9,9,0,0,0-1.21-2.09Z"/><path class="cls-1" d="M52.54,58.36a19.39,19.39,0,0,1,13.65-5.65,16.47,16.47,0,0,1,10.46,3.47,18.75,18.75,0,0,1,6.79,14.57c0,4.31-1.43,7.83-4.9,10.34S69.75,85,61.75,85.36c-.29,0-.42-.12-.42-.25s.09-.29.34-.33a27.71,27.71,0,0,0,11.47-5.2A13.22,13.22,0,0,0,77.83,69a16.37,16.37,0,0,0-4.19-11.22A10.51,10.51,0,0,0,66,54.38c-.42,0-.84,0-1.26.08a9.63,9.63,0,0,1,1.68,2,6.43,6.43,0,0,1,1,3.77A23,23,0,0,1,67,63.8C65.81,69.7,63.22,75.19,60.91,78c-2.17,2.68-4.69,4.19-6.9,4.19-1.8,0-3.14-.46-3.9-3a14.06,14.06,0,0,0-1.3-3.06c-1.21-2-2.38-3.43-2.38-5.73C46.43,65.89,49,61.71,52.54,58.36Zm-1.26,17a2.62,2.62,0,0,0,2.43,1.26c1.38,0,2.89-1,4.48-3a34.94,34.94,0,0,0,6-12.82,16.45,16.45,0,0,0,.46-3,5.77,5.77,0,0,0-.34-2,6.65,6.65,0,0,0-.58-1.13,15.23,15.23,0,0,0-8.33,5.61c-2.89,3.56-4.86,7.75-4.86,12A5.41,5.41,0,0,0,51.28,75.31Z"/><path class="cls-1" d="M102.7,70.92A6.41,6.41,0,0,1,101,67a6.06,6.06,0,0,1,1.43-3.76c.71-1,1.59-1.85,3-3.4A8.51,8.51,0,0,1,102,57.35a6.67,6.67,0,0,1-1.26-3,13.66,13.66,0,0,1-.12-1.38,7,7,0,0,1,.08-.92c0-.26.17-.38.34-.38s.21.08.29.29a5.47,5.47,0,0,0,.92,1.59,4.9,4.9,0,0,0,1.88,1.3,12.59,12.59,0,0,0,4.48.92,4.63,4.63,0,0,1,3.06,1.13,3.62,3.62,0,0,1,1.55,2.89,1.79,1.79,0,0,1-.5,1.38,3,3,0,0,1-2.18.55,9.1,9.1,0,0,0-3.48.25,10.72,10.72,0,0,0-3.51,2,2.92,2.92,0,0,0-1.09,1.8c0,1,.67,1.8,1.84,2.8.63.55,1.3,1,2,1.51a15.58,15.58,0,0,1,6.78-1.55,14.35,14.35,0,0,1,5.74,1.26A15.42,15.42,0,0,1,124,73.56a7.73,7.73,0,0,1,2.18,4.77,2.47,2.47,0,0,1-.76,2,2.79,2.79,0,0,1-1.92.71,3.71,3.71,0,0,1-2.06-.5A4.36,4.36,0,0,1,120.28,79c-.42-1-.71-2-1.17-2.89A12.05,12.05,0,0,0,116,72a7.25,7.25,0,0,0-4.81-1.76,6.72,6.72,0,0,0-3.39.88,31.13,31.13,0,0,1,2.89,2.13c2,1.72,2.93,3.35,2.93,5.32a5.25,5.25,0,0,1-2,4,5.94,5.94,0,0,1-3.69,1.21c-1.5,0-3.52-.79-5.1-1.21s-3.44-.88-5.49-1.51c-.17.25-.38.46-.54.67a19.2,19.2,0,0,1-2.26,2.64,3.52,3.52,0,0,1-2.31.75,7.39,7.39,0,0,1-3-.5,2.54,2.54,0,0,1-1.72-2.39c0-1.13.63-2.05,2.26-2.3,1-.17,1.93-.21,2.3-.25,1.22-.08,2.85-1.3,3.77-2,1.42-1.13,2.55-2.22,4-3.31,1.17-.88,2.38-1.84,3.64-2.68C103.16,71.46,103,71.21,102.7,70.92Zm-1.34,5.27C100.1,77.57,99,79.08,98,80.25a35.74,35.74,0,0,0,4.65.21,12.29,12.29,0,0,0,4-.46,2.28,2.28,0,0,0,1.67-2,5.18,5.18,0,0,0-1.55-3.14,15.75,15.75,0,0,0-2-1.84A25.09,25.09,0,0,0,101.36,76.19ZM120.62,60a2.83,2.83,0,0,1,1.59,2.34,1.79,1.79,0,0,1-1.63,1.89c-.59,0-1.09-.25-1.59-1.13a8.94,8.94,0,0,0-3.31-3.56c-.21-.09-.3-.21-.3-.34s.13-.25.42-.25A9.17,9.17,0,0,1,120.62,60Zm0-4a8.14,8.14,0,0,1,3.56.67A2.79,2.79,0,0,1,126,59a1.59,1.59,0,0,1-1.47,1.75c-.54,0-1-.16-1.63-1.13a8.35,8.35,0,0,0-3.48-3c-.21-.09-.29-.21-.29-.34s.13-.21.38-.25C119.91,55.93,120.28,55.93,120.66,55.93Z"/><path class="cls-1" d="M3.65,185a1.83,1.83,0,1,1-1.83-1.82A1.82,1.82,0,0,1,3.65,185ZM.17,185a1.66,1.66,0,1,0,1.65-1.65A1.65,1.65,0,0,0,.17,185Zm2.25-.45a.54.54,0,0,0-.57-.45c-.44,0-.7.34-.7.9s.27.9.7.9a.53.53,0,0,0,.58-.51l.48.08a.93.93,0,0,1-.22.48,1,1,0,0,1-.84.35,1.3,1.3,0,0,1,0-2.59,1,1,0,0,1,1,.74Z"/><path class="cls-1" d="M7.71,187.83a8.07,8.07,0,0,0-.86,0,3.21,3.21,0,0,1,.2-1,3.44,3.44,0,0,1,1-1.34,10.66,10.66,0,0,1,1.16-.84c.71-.47,1-.79,1-1.24s-.45-.89-1.16-.89a1.2,1.2,0,0,0-1,.47,1.68,1.68,0,0,0-.25.74l-.75-.11a2.08,2.08,0,0,1,.48-1.11A2,2,0,0,1,9,182c1.16,0,1.92.59,1.92,1.5a1.56,1.56,0,0,1-.35,1,5.14,5.14,0,0,1-1.28,1c-1,.65-1.36,1.08-1.55,1.74H10a6.54,6.54,0,0,0,1,0v.72a9.62,9.62,0,0,0-1,0Z"/><path class="cls-1" d="M12.51,187.39a1.9,1.9,0,0,1-.45-.7,4.8,4.8,0,0,1-.29-1.71,4.42,4.42,0,0,1,.43-2,1.93,1.93,0,0,1,1.74-.95,1.94,1.94,0,0,1,1.42.55,2,2,0,0,1,.46.7,5,5,0,0,1,.29,1.73,4,4,0,0,1-.53,2.16,1.92,1.92,0,0,1-1.66.81A2,2,0,0,1,12.51,187.39ZM13,183a1.55,1.55,0,0,0-.32.55,4.41,4.41,0,0,0-.22,1.45,3.9,3.9,0,0,0,.34,1.72,1.31,1.31,0,0,0,2,.29,1.68,1.68,0,0,0,.35-.59,4.48,4.48,0,0,0,.21-1.44,4.1,4.1,0,0,0-.32-1.69,1.18,1.18,0,0,0-1.14-.67A1.12,1.12,0,0,0,13,183Z"/><path class="cls-1" d="M17.73,187.83a8.43,8.43,0,0,0-.87,0,3.2,3.2,0,0,1,1.19-2.3,12.59,12.59,0,0,1,1.17-.84c.7-.47,1-.79,1-1.24s-.46-.89-1.16-.89a1.18,1.18,0,0,0-1.05.47,1.56,1.56,0,0,0-.26.74l-.75-.11a2.08,2.08,0,0,1,.49-1.11A2,2,0,0,1,19,182c1.16,0,1.91.59,1.91,1.5a1.5,1.5,0,0,1-.35,1,4.81,4.81,0,0,1-1.27,1c-1,.65-1.36,1.08-1.56,1.74H20a6.69,6.69,0,0,0,1,0v.72a9.62,9.62,0,0,0-1,0Z"/><path class="cls-1" d="M22.63,182.06a4.24,4.24,0,0,0,.66,0h.53a4.72,4.72,0,0,0,.66,0,10.5,10.5,0,0,0-.07,1.23V187a5.75,5.75,0,0,0,.06.87h-.83a4.57,4.57,0,0,0,.06-.87v-4.25h-.38a5.12,5.12,0,0,0-.69,0Z"/><path class="cls-1" d="M30.39,182.09a3.59,3.59,0,0,0,.39.71L33,186.13c.13.19.35.55.51.85,0-.6,0-1,0-1.29V183a5.84,5.84,0,0,0-.06-.91h.8a5.75,5.75,0,0,0-.06.91v4a5.06,5.06,0,0,0,.06.87H33.3a4.57,4.57,0,0,0-.42-.7l-2.25-3.4c-.08-.12-.31-.52-.44-.76,0,.45,0,1,0,1.28v2.63a4.85,4.85,0,0,0,.06,1h-.81a4.73,4.73,0,0,0,.06-1V183a4.68,4.68,0,0,0-.06-.88Z"/><path class="cls-1" d="M35.1,185.79a2.05,2.05,0,1,1,2.07,2.15A2,2,0,0,1,35.1,185.79Zm.69,0c0,1,.52,1.59,1.36,1.59s1.36-.59,1.36-1.58-.51-1.6-1.34-1.6S35.79,184.8,35.79,185.78Z"/><path class="cls-1" d="M40,187.83a5.84,5.84,0,0,0,.05-.9v-4a6.55,6.55,0,0,0-.05-.89h.77a5.75,5.75,0,0,0-.06.89v.92a4.27,4.27,0,0,1,0,.52,1.73,1.73,0,0,1,1.53-.77c1.17,0,1.87.79,1.87,2.11s-.72,2.15-1.91,2.15a1.74,1.74,0,0,1-1.49-.72v.06a1.59,1.59,0,0,1,0,.22v.36Zm2.14-3.61a1.57,1.57,0,0,0,0,3.12c.81,0,1.29-.6,1.29-1.58S43,184.22,42.18,184.22Z"/><path class="cls-1" d="M48.66,183.74a5.81,5.81,0,0,0,0,.88V187a5.75,5.75,0,0,0,0,.87h-.72v-.43c0-.1,0-.14,0-.33a1.66,1.66,0,0,1-1.5.83,1.4,1.4,0,0,1-1.22-.55,1.57,1.57,0,0,1-.22-.91v-1.83a5.21,5.21,0,0,0,0-.87h.78a6.14,6.14,0,0,0-.05.88v1.72c0,.65.29,1,.85,1a1.3,1.3,0,0,0,1-.53,1.79,1.79,0,0,0,.38-.72v-1.46a6.19,6.19,0,0,0-.06-.88Z"/><path class="cls-1" d="M56.22,183.78a1.93,1.93,0,0,0-.34-.66,1.59,1.59,0,0,0-1.23-.51c-1.17,0-1.89.9-1.89,2.34s.73,2.36,1.89,2.36a1.58,1.58,0,0,0,1.33-.6,1.62,1.62,0,0,0,.29-.73l.75.16a2.55,2.55,0,0,1-.44,1,2.68,2.68,0,0,1-3.74.17,3.61,3.61,0,0,1,.07-4.64,2.39,2.39,0,0,1,1.72-.64,2.36,2.36,0,0,1,1.71.61,2.45,2.45,0,0,1,.6,1Z"/><path class="cls-1" d="M57.68,185.79a2.05,2.05,0,1,1,2.07,2.15A2,2,0,0,1,57.68,185.79Zm.69,0c0,1,.52,1.59,1.36,1.59s1.36-.59,1.36-1.58-.51-1.6-1.34-1.6S58.37,184.8,58.37,185.78Z"/><path class="cls-1" d="M65.15,184.42a1.75,1.75,0,0,0-.61-.11,1.09,1.09,0,0,0-.91.42,1.22,1.22,0,0,0-.28.75V187a5.91,5.91,0,0,0,0,.87h-.78a6.63,6.63,0,0,0,.05-.87v-2.34a7,7,0,0,0-.05-.88h.73v.51l0,.12a1.52,1.52,0,0,1,.34-.39,1.6,1.6,0,0,1,1-.31,3.64,3.64,0,0,1,.68.07Z"/><path class="cls-1" d="M65.94,189.36a6.09,6.09,0,0,0,.06-.88v-3.85a5.66,5.66,0,0,0-.06-.89h.71v.38c0,.09,0,.13,0,.29a1.7,1.7,0,0,1,1.51-.75,1.85,1.85,0,0,1,1.9,2.11,1.88,1.88,0,0,1-1.89,2.12,1.81,1.81,0,0,1-1.52-.72c0,.2,0,.31,0,.52v.78a5.71,5.71,0,0,0,0,.89Zm3.41-3.59c0-1-.46-1.53-1.27-1.53a1.41,1.41,0,0,0-1.41,1.54,1.66,1.66,0,0,0,.41,1.15,1.44,1.44,0,0,0,1,.39C68.87,187.32,69.35,186.74,69.35,185.77Z"/><path class="cls-1" d="M70.7,185.79a2,2,0,1,1,2.06,2.15A2,2,0,0,1,70.7,185.79Zm.68,0c0,1,.53,1.59,1.37,1.59s1.36-.59,1.36-1.58-.51-1.6-1.35-1.6S71.38,184.8,71.38,185.78Z"/><path class="cls-1" d="M78.16,184.42a1.68,1.68,0,0,0-.61-.11,1.08,1.08,0,0,0-.9.42,1.3,1.3,0,0,0-.29.75V187a5.85,5.85,0,0,0,.06.87h-.79a5.31,5.31,0,0,0,.06-.87v-2.34a5.35,5.35,0,0,0-.06-.88h.73v.51a.53.53,0,0,1,0,.12,1.35,1.35,0,0,1,.34-.39,1.57,1.57,0,0,1,1-.31,3.82,3.82,0,0,1,.69.07Z"/><path class="cls-1" d="M81.66,187.34a1.85,1.85,0,0,1-.66.42,2.21,2.21,0,0,1-.82.14c-.83,0-1.35-.44-1.35-1.16a1.3,1.3,0,0,1,1-1.23,6,6,0,0,1,1.82-.21v-.39c0-.51-.29-.75-.92-.75a1.19,1.19,0,0,0-.9.32.93.93,0,0,0-.22.4l-.69-.14a1.37,1.37,0,0,1,.46-.71,2,2,0,0,1,1.36-.41A1.72,1.72,0,0,1,82,184a1.15,1.15,0,0,1,.32.9V187a5.57,5.57,0,0,0,.06.85h-.71Zm0-1.54a4.61,4.61,0,0,0-1.59.21.76.76,0,0,0-.56.73c0,.39.29.63.76.63a1.66,1.66,0,0,0,1.15-.48.83.83,0,0,0,.24-.64Z"/><path class="cls-1" d="M84.62,182.62a7,7,0,0,0-.05.85v.27h.34a5.35,5.35,0,0,0,.76,0v.65a4.07,4.07,0,0,0-.75,0h-.35v2.5c0,.21,0,.32.11.39a.51.51,0,0,0,.35.11,1,1,0,0,0,.58-.18l.17.61a2.21,2.21,0,0,1-.87.17,1.14,1.14,0,0,1-.78-.23,1,1,0,0,1-.24-.76v-2.61H83.6a4.83,4.83,0,0,0-.67,0v-.65a4.14,4.14,0,0,0,.67,0h.29v-.27a7.48,7.48,0,0,0,0-.85Z"/><path class="cls-1" d="M87.21,182.09v.75h-.83v-.75Zm0,1.65a6.92,6.92,0,0,0-.05.89V187a7.85,7.85,0,0,0,.05.87h-.79a6.15,6.15,0,0,0,.06-.87v-2.34a5.44,5.44,0,0,0-.06-.88Z"/><path class="cls-1" d="M88,185.79a2,2,0,1,1,2.06,2.15A2,2,0,0,1,88,185.79Zm.68,0c0,1,.53,1.59,1.37,1.59s1.36-.59,1.36-1.58-.51-1.6-1.35-1.6S88.72,184.8,88.72,185.78Z"/><path class="cls-1" d="M93,187.83A4.51,4.51,0,0,0,93,187v-2.34a4.74,4.74,0,0,0-.06-.88h.73v.44c0,.1,0,.13,0,.32a1.65,1.65,0,0,1,1.5-.83,1.4,1.4,0,0,1,1.22.55,1.7,1.7,0,0,1,.22.91V187a5.21,5.21,0,0,0,.05.87H95.9a6,6,0,0,0,0-.87v-1.72c0-.66-.29-1-.85-1a1.29,1.29,0,0,0-1,.52,1.76,1.76,0,0,0-.38.73V187a6,6,0,0,0,.06.87Z"/><path class="cls-1" d="M98.53,187v.84h-.84V187Z"/><path class="cls-1" d="M106.23,187.83a5.62,5.62,0,0,0-.22-.76l-.37-.93H103.1l-.35.93a4.68,4.68,0,0,0-.24.76h-.9a5.16,5.16,0,0,0,.4-.86l1.66-4.17a4.85,4.85,0,0,0,.24-.71h.9a5.4,5.4,0,0,0,.26.71l1.67,4.17a6.52,6.52,0,0,0,.39.86Zm-1.71-4.68-.15-.46a1.38,1.38,0,0,0-.08.25c0,.1-.06.17-.08.21l-.9,2.38h2.12Z"/><path class="cls-1" d="M108.52,182.09a5.65,5.65,0,0,0,0,.88v4a5.91,5.91,0,0,0,0,.87h-.79a5.59,5.59,0,0,0,0-.87v-4a5.49,5.49,0,0,0,0-.88Z"/><path class="cls-1" d="M110.33,182.09a5.65,5.65,0,0,0,0,.88v4a5.91,5.91,0,0,0,0,.87h-.79a5.59,5.59,0,0,0,0-.87v-4a5.49,5.49,0,0,0,0-.88Z"/><path class="cls-1" d="M117.65,187.83a5.55,5.55,0,0,0-.44-1.25c-.42-1-.71-1.31-1.3-1.31h-1.29V187a5.14,5.14,0,0,0,.06.87h-.81a4.39,4.39,0,0,0,.06-.87v-4a5.19,5.19,0,0,0-.06-.89c.26,0,.49,0,.86,0h1.67c1.1,0,1.71.53,1.71,1.48a1.39,1.39,0,0,1-.42,1.09,1.58,1.58,0,0,1-.8.39c.29.1.48.3.75.82.16.32.34.71.58,1.26a5.75,5.75,0,0,0,.34.7Zm-1.34-3.17a1.17,1.17,0,0,0,.81-.3,1,1,0,0,0,.26-.72c0-.61-.35-.93-1-.93h-1.73v1.95Z"/><path class="cls-1" d="M120.15,182.09v.75h-.83v-.75Zm0,1.65a6.92,6.92,0,0,0-.05.89V187a7.85,7.85,0,0,0,.05.87h-.79a6.15,6.15,0,0,0,.06-.87v-2.34a5.44,5.44,0,0,0-.06-.88Z"/><path class="cls-1" d="M121.69,188.24a1.4,1.4,0,0,0,1.21.58,1.26,1.26,0,0,0,1.27-.73,3.12,3.12,0,0,0,.15-1,1.26,1.26,0,0,1-.32.38,1.81,1.81,0,0,1-1.13.35,1.83,1.83,0,0,1-1.88-2.05,1.87,1.87,0,0,1,1.92-2.08,1.6,1.6,0,0,1,1.41.7,2.45,2.45,0,0,1,0-.25v-.38h.7a5.71,5.71,0,0,0-.06.86v2.62a2.17,2.17,0,0,1-.47,1.61,2.22,2.22,0,0,1-1.6.55,2.11,2.11,0,0,1-1.75-.76Zm1.23-1a1.39,1.39,0,0,0,1.37-1.54,1.33,1.33,0,0,0-1.32-1.48c-.8,0-1.29.59-1.29,1.53S122.15,187.25,122.92,187.25Z"/><path class="cls-1" d="M126,187.83a4.51,4.51,0,0,0,.06-.87v-4a4.62,4.62,0,0,0-.06-.88h.78a4.75,4.75,0,0,0,0,.89v1.17a3.58,3.58,0,0,1,0,.36,1.69,1.69,0,0,1,1.53-.84,1.3,1.3,0,0,1,1.42,1.42V187a7.17,7.17,0,0,0,.05.87h-.79A4.33,4.33,0,0,0,129,187v-1.73a1,1,0,0,0-.21-.72.82.82,0,0,0-.64-.26,1.27,1.27,0,0,0-1,.51,1.82,1.82,0,0,0-.39.74V187a6.08,6.08,0,0,0,0,.87Z"/><path class="cls-1" d="M132,182.62a7,7,0,0,0-.05.85v.27h.34a5.35,5.35,0,0,0,.76,0v.65a4.12,4.12,0,0,0-.75,0h-.35v2.5a.52.52,0,0,0,.1.39.55.55,0,0,0,.36.11,1,1,0,0,0,.58-.18l.17.61a2.25,2.25,0,0,1-.87.17,1.18,1.18,0,0,1-.79-.23,1,1,0,0,1-.23-.76v-2.61H131a4.73,4.73,0,0,0-.67,0v-.65a4.14,4.14,0,0,0,.67,0h.29v-.27a7.48,7.48,0,0,0,0-.85Z"/><path class="cls-1" d="M134.27,186.59a.8.8,0,0,0,.25.53,1.25,1.25,0,0,0,.83.25c.61,0,1-.26,1-.67a.48.48,0,0,0-.22-.44,2.58,2.58,0,0,0-.85-.26,3.09,3.09,0,0,1-1.09-.36,1,1,0,0,1-.47-.85,1,1,0,0,1,.33-.74,1.68,1.68,0,0,1,1.23-.41,1.78,1.78,0,0,1,1.22.38,1.33,1.33,0,0,1,.41.69l-.7.1a.9.9,0,0,0-.18-.38,1,1,0,0,0-.75-.27c-.52,0-.88.25-.88.62a.46.46,0,0,0,.24.4,2.74,2.74,0,0,0,.8.24,3.06,3.06,0,0,1,1.18.41,1,1,0,0,1,.42.83c0,.78-.66,1.26-1.73,1.26a1.79,1.79,0,0,1-1.52-.61,1.35,1.35,0,0,1-.25-.61Z"/><path class="cls-1" d="M144.16,187.83a5.85,5.85,0,0,0-.43-1.25c-.42-1-.71-1.31-1.3-1.31h-1.29V187a4.27,4.27,0,0,0,.06.87h-.81a5.3,5.3,0,0,0,.06-.87v-4a6.44,6.44,0,0,0-.06-.89c.26,0,.49,0,.85,0h1.68c1.1,0,1.7.53,1.7,1.48a1.39,1.39,0,0,1-.41,1.09,1.62,1.62,0,0,1-.81.39c.3.1.49.3.75.82.17.32.35.71.58,1.26a5.69,5.69,0,0,0,.35.7Zm-1.33-3.17a1.16,1.16,0,0,0,.8-.3,1,1,0,0,0,.27-.72c0-.61-.36-.93-1-.93h-1.73v1.95Z"/><path class="cls-1" d="M146.32,185.91a1.58,1.58,0,0,0,.3,1,1.18,1.18,0,0,0,1,.48,1.2,1.2,0,0,0,1-.41,1,1,0,0,0,.24-.43l.63.23a1.86,1.86,0,0,1-.42.63,2.1,2.1,0,1,1-1.46-3.76,1.8,1.8,0,0,1,1.86,1.67,4.37,4.37,0,0,1,0,.6Zm2.46-.54a1.29,1.29,0,0,0-.37-.86,1.2,1.2,0,0,0-.86-.32,1.15,1.15,0,0,0-1,.61,1.42,1.42,0,0,0-.19.57Z"/><path class="cls-1" d="M150.84,186.59a.8.8,0,0,0,.25.53,1.25,1.25,0,0,0,.83.25c.61,0,1-.26,1-.67a.48.48,0,0,0-.22-.44,2.78,2.78,0,0,0-.85-.26,3.16,3.16,0,0,1-1.1-.36,1,1,0,0,1-.46-.85,1,1,0,0,1,.32-.74,1.69,1.69,0,0,1,1.23-.41,1.81,1.81,0,0,1,1.23.38,1.26,1.26,0,0,1,.4.69l-.7.1a.71.71,0,0,0-.18-.38,1,1,0,0,0-.74-.27c-.52,0-.89.25-.89.62a.45.45,0,0,0,.25.4,2.74,2.74,0,0,0,.8.24,3.06,3.06,0,0,1,1.18.41,1,1,0,0,1,.42.83c0,.78-.66,1.26-1.73,1.26a1.79,1.79,0,0,1-1.52-.61,1.35,1.35,0,0,1-.25-.61Z"/><path class="cls-1" d="M154.91,185.91a1.64,1.64,0,0,0,.3,1,1.18,1.18,0,0,0,1,.48,1.21,1.21,0,0,0,1-.41,1.08,1.08,0,0,0,.24-.43l.62.23a1.73,1.73,0,0,1-.42.63,1.89,1.89,0,0,1-1.4.55,2.17,2.17,0,0,1-.05-4.31,1.8,1.8,0,0,1,1.86,1.67c0,.08,0,.23.05.6Zm2.47-.54a1.4,1.4,0,0,0-.37-.86,1.22,1.22,0,0,0-.86-.32,1.16,1.16,0,0,0-1,.61,1.42,1.42,0,0,0-.18.57Z"/><path class="cls-1" d="M161.44,184.42a1.71,1.71,0,0,0-.61-.11,1.1,1.1,0,0,0-.91.42,1.29,1.29,0,0,0-.28.75V187a7.71,7.71,0,0,0,.05.87h-.78A5.26,5.26,0,0,0,159,187v-2.34a5.49,5.49,0,0,0-.05-.88h.73v.51a.45.45,0,0,0,0,.12A1.22,1.22,0,0,1,160,184a1.55,1.55,0,0,1,1-.31,3.82,3.82,0,0,1,.69.07Z"/><path class="cls-1" d="M162.61,183.74a3.13,3.13,0,0,0,.22.72l.81,2.18c.05.11.12.34.18.49.05-.17.1-.32.16-.49l.82-2.18a3.23,3.23,0,0,0,.21-.72h.83a6.35,6.35,0,0,0-.36.81l-1.07,2.6a4.05,4.05,0,0,0-.23.68h-.73a3.78,3.78,0,0,0-.24-.68l-1.06-2.6c-.12-.29-.2-.45-.37-.81Z"/><path class="cls-1" d="M166.9,185.91a1.64,1.64,0,0,0,.29,1,1.19,1.19,0,0,0,1,.48,1.2,1.2,0,0,0,.95-.41,1.08,1.08,0,0,0,.24-.43l.62.23a1.86,1.86,0,0,1-.41.63,2.1,2.1,0,1,1-1.46-3.76,1.8,1.8,0,0,1,1.86,1.67c0,.08,0,.23.05.6Zm2.46-.54a1.34,1.34,0,0,0-.37-.86,1.22,1.22,0,0,0-.86-.32,1.16,1.16,0,0,0-1,.61,1.42,1.42,0,0,0-.18.57Z"/><path class="cls-1" d="M174.09,187.5c0-.09,0-.22,0-.32a1.71,1.71,0,0,1-1.51.73,1.8,1.8,0,0,1-1.3-.47,2.29,2.29,0,0,1-.59-1.66,1.88,1.88,0,0,1,1.88-2.13,1.76,1.76,0,0,1,1.52.73c0-.08,0-.08,0-.21V183a5.93,5.93,0,0,0-.06-.89h.77a6.46,6.46,0,0,0-.05.89v4a5.92,5.92,0,0,0,.05.9h-.71Zm-2.68-1.74a1.66,1.66,0,0,0,.45,1.29,1.24,1.24,0,0,0,.82.29,1.41,1.41,0,0,0,1.4-1.58,1.56,1.56,0,0,0-.4-1.13,1.4,1.4,0,0,0-1-.4C171.88,184.23,171.41,184.81,171.41,185.76Z"/><path class="cls-1" d="M176.67,187v.84h-.84V187Z"/></g></g></svg>