<svg xmlns="http://www.w3.org/2000/svg" viewBox="0 0 249.37 47.81"><defs><style>.cls-1{fill:#fff;}.cls-2{fill:none;}</style></defs><g id="レイヤー_2" data-name="レイヤー 2"><g id="レイヤー_1-2" data-name="レイヤー 1"><path class="cls-1" d="M11,15.18a17.7,17.7,0,0,1,7.44-2.08,6.59,6.59,0,0,1,7,7q0,3.87-2.44,5.75a8.77,8.77,0,0,1-5.71,1.95,5,5,0,0,1-3.45-1.26c-1-.85-1.43-1.45-1.43-1.82a.52.52,0,0,1,.59-.59,4.83,4.83,0,0,1,1.69.55,6.53,6.53,0,0,0,2.86.52A4.56,4.56,0,0,0,20.66,24a5,5,0,0,0,1.39-4,4.32,4.32,0,0,0-1-3.06,3.8,3.8,0,0,0-2.89-1.07A14.75,14.75,0,0,0,11,18.24Q11,24.41,11,25a5.68,5.68,0,0,1,.1,1,4,4,0,0,1-.68,2.3c-.46.68-.93,1-1.43,1S8.2,29,8,28.4a8.09,8.09,0,0,0-2.56-3.67.86.86,0,0,1-.3-.63.77.77,0,0,1,.22-.57.79.79,0,0,1,.53-.26.87.87,0,0,1,.65.26q.81.72,1.14.72c.13,0,.2-.15.22-.43a8.47,8.47,0,0,0,0-1c0-.54,0-1.27,0-2.2-1.3,1.06-2.4,2-3.3,2.9A18.26,18.26,0,0,0,2.6,25.84c-.39.49-.73.74-1,.74A1.14,1.14,0,0,1,.71,26a1.93,1.93,0,0,1-.39-1.12,5.67,5.67,0,0,1,.23-1.41,3.5,3.5,0,0,1,.67-1.3,2.2,2.2,0,0,1,1.15-.65,6.84,6.84,0,0,0,1.92-1.11c.39-.3.9-.72,1.52-1.26s1.38-1.21,2.24-2c0-.54.08-1.21.1-2s0-1.73.07-2.79a43.85,43.85,0,0,1-5.72.71,1.44,1.44,0,0,1-1.07-.36,5,5,0,0,1-.88-1.36A3.82,3.82,0,0,1,0,9.89a.54.54,0,0,1,.6-.62A2.64,2.64,0,0,1,2,9.79a2.77,2.77,0,0,0,.91.38,6.56,6.56,0,0,0,1.28.11A11.36,11.36,0,0,0,6,10.12c.68-.11,1.48-.28,2.39-.52,0-.91.06-1.73.06-2.47a9.15,9.15,0,0,0-.16-1.88,2.78,2.78,0,0,0-.94-1.5,2,2,0,0,1-.75-1.27c0-.39.27-.58.81-.58a10.3,10.3,0,0,1,3,.78c1.41.5,2.11,1,2.11,1.46A2.49,2.49,0,0,1,12,5.25a3.45,3.45,0,0,0-.52,1.26,14.41,14.41,0,0,0-.1,2.24,4.81,4.81,0,0,0,2.76-1.62,4.53,4.53,0,0,1,.49-.54,1.09,1.09,0,0,1,.57-.27,2.55,2.55,0,0,1,.87,0c.36.06.82.16,1.38.31.78.24,1.17.55,1.17.94s-.6,1-1.8,1.72a27.29,27.29,0,0,1-5.63,2.34C11.1,12.81,11,14,11,15.18ZM20.66,6A7.19,7.19,0,0,1,24,6.71a5.24,5.24,0,0,1,2.24,1.85A3.65,3.65,0,0,1,27,10.21a2.21,2.21,0,0,1-.48,1.21,1.4,1.4,0,0,1-1.12.68,1.6,1.6,0,0,1-1.19-.62.67.67,0,0,0-.42-.1,5.85,5.85,0,0,0-1.4.36,5.22,5.22,0,0,1-1.59.33.84.84,0,0,1-.42-.1.27.27,0,0,1-.12-.31,1.42,1.42,0,0,1,.36-.54,7.41,7.41,0,0,1,1-.78c.46-.32.79-.58,1-.76A1,1,0,0,0,23,9.11c0-.13-.06-.25-.25-.36A8.46,8.46,0,0,0,22,8.36a9.62,9.62,0,0,0-2.15-.74c-.73-.16-1.1-.47-1.1-1S19.38,6,20.66,6Z" transform="translate(59.03)"/><path class="cls-1" d="M35.08,5.28a5.92,5.92,0,0,0,1.36-.39,2.77,2.77,0,0,0,.85-.55,3.38,3.38,0,0,1,.53-.46,1,1,0,0,1,.55-.16,1.89,1.89,0,0,1,.73.18,11.43,11.43,0,0,1,1.08.53c.91.54,1.42,1,1.54,1.32s0,.71-.47,1.12a1.34,1.34,0,0,0-.26.34,2.6,2.6,0,0,0-.2.67q-.09.48-.21,1.38c-.07.59-.18,1.41-.31,2.45a2.4,2.4,0,0,1-.27,1,2.81,2.81,0,0,1-.73.75,3.36,3.36,0,0,1-.72.42c-.24.11-.41.11-.52,0a.82.82,0,0,0-1-.26,5.22,5.22,0,0,1-.83.18l-.93.12c0,1.27-.07,2.71-.08,4.3s0,3.26,0,5a21.12,21.12,0,0,1-.09,2.19,14.25,14.25,0,0,1-.33,1.71c-.19.8-.53,1.21-1,1.25s-.94-.38-1.35-1.22a4.9,4.9,0,0,1-.29-.68,2.12,2.12,0,0,1-.11-.62,3.12,3.12,0,0,1,0-.73c0-.27.12-.6.23-1a11.15,11.15,0,0,0,.29-1.81c.09-.81.17-1.76.23-2.87s.11-2.33.13-3.69,0-2.77,0-4.27c0-.93-.06-1.71-.13-2.35S32.64,8,32.56,7.57a4.18,4.18,0,0,0-.28-1A2.18,2.18,0,0,0,32,6c-.41-.49-.51-.83-.29-1s.81-.22,1.78-.11c.35,0,.67.1,1,.16A2.05,2.05,0,0,1,35.08,5.28Zm.26,7.24a8.79,8.79,0,0,1,1.25-.21l.89-.08a.39.39,0,0,0,.39-.2A3.48,3.48,0,0,0,38,11c0-.69.09-1.39.13-2.11A18.15,18.15,0,0,0,38.2,7c0-.57-.11-.89-.26-1a1.14,1.14,0,0,0-.78,0l-.8.21a9.23,9.23,0,0,1-1.06.18c0,.28,0,.61,0,1s0,.85,0,1.37a4.35,4.35,0,0,0,.47-.15,3.63,3.63,0,0,0,.47-.21,1.21,1.21,0,0,1,1.17.1c.37.21.54.43.5.65s-.23.41-.6.58a5.87,5.87,0,0,1-1,.31,3.71,3.71,0,0,1-1.06.08c0,.33,0,.68,0,1.06S35.34,12,35.34,12.52Zm4.93,3.22a14.46,14.46,0,0,0,2.54-.44,3.73,3.73,0,0,0,1.33-.57,2.17,2.17,0,0,1,.52-.42.85.85,0,0,1,.53-.1,2.25,2.25,0,0,1,.8.28c.32.16.76.4,1.3.73a11.49,11.49,0,0,1,1.1.76,1.61,1.61,0,0,1,.51.57.49.49,0,0,1,0,.47,1.39,1.39,0,0,1-.45.4,3.12,3.12,0,0,0-.8.74,12.43,12.43,0,0,0-.86,1.34c.63.44.88.86.76,1.29s-.55.65-1.31.69l-2.06.15c-.8.05-1.84.17-3.14.34-.43,1.11-.87,1.59-1.31,1.45s-.77-.91-1-2.29c-.11-.72-.2-1.32-.28-1.81a12.29,12.29,0,0,0-.24-1.21,6.38,6.38,0,0,0-.26-.78,4.25,4.25,0,0,0-.26-.49,3.37,3.37,0,0,1-.51-.8.34.34,0,0,1,.15-.45,1.85,1.85,0,0,1,1-.11A14.36,14.36,0,0,1,40.27,15.74Zm.91,4.44c.57-.1,1.13-.22,1.71-.34s1.08-.23,1.51-.34c.06-.34.11-.67.14-1s.07-.57.12-.81c.06-.5.05-.8,0-.91s-.33-.13-.7-.07l-1.17.2c-.41.06-1,.18-1.78.35,0,.44.08.89.11,1.35S41.14,19.62,41.18,20.18Zm6.14-8c-.19.54-.49.81-.89.81a1.3,1.3,0,0,1-1.06-.71,1.84,1.84,0,0,1-.24-.77,12.47,12.47,0,0,1,0-1.47A17.91,17.91,0,0,0,45,6.77a4.22,4.22,0,0,0-.54-1.69A2.76,2.76,0,0,1,44,4.21a.48.48,0,0,1,.16-.54,1.42,1.42,0,0,1,.89-.13,11.35,11.35,0,0,1,1.79.34A16.2,16.2,0,0,0,49,3.46a3.21,3.21,0,0,0,1.26-.59,3.55,3.55,0,0,1,.54-.39,1,1,0,0,1,.53-.09,2.34,2.34,0,0,1,.7.21c.27.12.61.28,1,.5a10.2,10.2,0,0,1,1.28.78,1.78,1.78,0,0,1,.57.63.75.75,0,0,1,0,.65,5.19,5.19,0,0,1-.57.83,1.71,1.71,0,0,0-.28.59A7.18,7.18,0,0,0,53.8,8c0,.66,0,1.58,0,2.77s0,2.76.1,4.71c0,.5,0,1.08.07,1.74s0,1.34.06,2.05L54,21.32c0,.69.05,1.32.07,1.89,0,.78,0,1.43,0,2a6.91,6.91,0,0,1-.18,1.4,3.32,3.32,0,0,1-.44,1.05,7,7,0,0,1-.71.94c-.74.78-1.31,1.17-1.71,1.16s-.75-.4-1-1.16a6.84,6.84,0,0,0-.75-1.29,10.8,10.8,0,0,0-1.36-1.56c-.7-.67-1-1.09-.83-1.24s.78-.07,1.93.23a10.34,10.34,0,0,0,1.14.26,1.74,1.74,0,0,0,.65,0,.38.38,0,0,0,.29-.24,1.53,1.53,0,0,0,.06-.47c0-1.45,0-2.77.05-3.94s0-2.24,0-3.23,0-1.9,0-2.74,0-1.67-.07-2.47c-.65,0-1.28.05-1.9.1S48,12.07,47.32,12.13Zm.2-5A4.17,4.17,0,0,1,50.25,7a.47.47,0,0,1,.27.5.66.66,0,0,1-.47.57,6.14,6.14,0,0,1-2.57.42V9.6c0,.36,0,.73,0,1.1.65-.08,1.27-.15,1.87-.18l1.74-.08C51,9.75,51,9.05,51,8.35s-.06-1.45-.13-2.23A2.54,2.54,0,0,0,50.62,5a.53.53,0,0,0-.54-.16L48.93,5q-.63.1-1.41.3Z" transform="translate(59.03)"/><path class="cls-1" d="M87.76,14.83c1.69.67,1.65,1.17-.1,1.49-1.49.26-2.7.45-3.6.57a8.47,8.47,0,0,1-2.21.06,2.62,2.62,0,0,1-1.38-.55,6.18,6.18,0,0,1-1.12-1.28q-1.25-1.78-3-4.14c-1.2-1.57-2.55-3.26-4-5.05a33.47,33.47,0,0,1-5.54,7.56A18.4,18.4,0,0,1,60,17.85c-1.6.58-2.48.77-2.62.57s.44-.77,1.74-1.68a26.33,26.33,0,0,0,5.25-4.84A40.54,40.54,0,0,0,68.89,5a7.85,7.85,0,0,0,.76-1.86,2.45,2.45,0,0,0,0-1.33c-.28-.95-.24-1.53.13-1.74s1.26.09,2.66.86a9.43,9.43,0,0,1,1.53,1,1.54,1.54,0,0,1,.6.82.93.93,0,0,1-.23.78,4.9,4.9,0,0,1-.92.85q1.82,1.78,3.25,3.12c1,.88,1.81,1.66,2.59,2.33s1.5,1.25,2.16,1.73,1.32.9,2,1.28,1.32.72,2,1S86.91,14.5,87.76,14.83ZM79.9,21.19c-.24.18-.46.36-.67.55a7.08,7.08,0,0,0-.6.69c-.19.26-.39.55-.58.87s-.4.71-.62,1.14c.84.63,1.22,1.16,1.14,1.61s-.59.66-1.5.66q-1.68,0-3.9.15c-1.47.1-3,.23-4.54.41a3.6,3.6,0,0,1-.77,1.26.74.74,0,0,1-.82.23,1.65,1.65,0,0,1-.78-.88,7.44,7.44,0,0,1-.59-2.08,34.81,34.81,0,0,0-.78-3.54,5.53,5.53,0,0,0-.74-1.81,4,4,0,0,1-.7-.93.4.4,0,0,1,.11-.57,2.07,2.07,0,0,1,1.09-.18,21.57,21.57,0,0,1,2.26.21c1.38-.13,2.53-.26,3.46-.39s1.68-.26,2.29-.39a9.69,9.69,0,0,0,1.47-.42,5.84,5.84,0,0,0,1-.52,2.28,2.28,0,0,1,.61-.27,1.49,1.49,0,0,1,.67,0,3.23,3.23,0,0,1,.89.32l1.33.72a13.93,13.93,0,0,1,1.61,1,1.76,1.76,0,0,1,.65.76.62.62,0,0,1-.16.65A5.5,5.5,0,0,1,79.9,21.19Zm-3.35-7-1.09.41c-.33.11-.65.22-.95.3l-1,.25-1.09.21c-.93.15-1.69.26-2.29.32a9,9,0,0,1-1.48.07,3.62,3.62,0,0,1-.94-.15,3,3,0,0,1-.68-.31c-.63-.36-.92-.63-.88-.79s.48-.3,1.3-.41a26,26,0,0,0,2.66-.49,12.75,12.75,0,0,0,2.44-.78c.41-.17.77-.3,1.09-.4a2.91,2.91,0,0,1,.89-.15,3.17,3.17,0,0,1,.85.12,6.46,6.46,0,0,1,.94.34c.5.21.77.47.81.76S77,14,76.55,14.21Zm-1.33,6.88a1.59,1.59,0,0,0,0-.84c-.08-.15-.27-.22-.57-.2-.89.07-1.85.16-2.89.28l-3.64.44c.11.69.2,1.43.29,2.22s.18,1.55.29,2.26l3.53-.45q1.57-.19,2.22-.33a6.46,6.46,0,0,0,.39-1.25A21.18,21.18,0,0,0,75.22,21.09Z" transform="translate(59.03)"/><path class="cls-1" d="M109.29,10.9l2.16-.3a8.24,8.24,0,0,0,1.35-.26,4.37,4.37,0,0,1,1.3-.22,3.15,3.15,0,0,1,2,1.13q1.14,1.14,1.14,1.56c0,.37-.46.55-1.37.55q-.64,0-1.56-.09a16.79,16.79,0,0,0-1.88-.1c-.32,0-.76,0-1.32.05l-1.83.11q0,5-1.1,7.18a11.51,11.51,0,0,1-1.08,1.8,1.37,1.37,0,0,1-1,.7.83.83,0,0,1-.65-.42,3.71,3.71,0,0,1-.45-.94,6.16,6.16,0,0,0-.36-.91c-.13-.26-.25-.48-.35-.65a5,5,0,0,0-1-1.11c-.46-.39-.69-.73-.69-1s.2-.52.59-.52a3.3,3.3,0,0,1,1.46.56,4.62,4.62,0,0,0,1.3.55c.24,0,.37-.08.39-.23a8.52,8.52,0,0,0,.18-1.56c0-.89.09-2,.11-3.28l-1.83.2-2,.18-2,.17-1.87.2c0,.82-.07,1.62-.1,2.39s0,1.52,0,2.25q0,.55,0,1.17c0,.41,0,.82.09,1.2a9.6,9.6,0,0,0,.13,1.06,5.56,5.56,0,0,0,.17.76,2.29,2.29,0,0,0,1.37,1.47,3.61,3.61,0,0,0,.68.16c.3,0,.64.08,1,.11s.78.06,1.2.07h1.22A13.36,13.36,0,0,0,110,24a3.45,3.45,0,0,1,1.33-.36,4.41,4.41,0,0,1,1.88.85c.87.54,1.3,1,1.3,1.33s-.25.58-.75.78a20.72,20.72,0,0,1-3.11.58c-.81.11-1.68.19-2.63.24s-2,.09-3,.09l-1.58,0c-.53,0-1,0-1.51-.07s-.91-.07-1.3-.13-.71-.11-1-.17A5.11,5.11,0,0,1,97.4,25.9,6,6,0,0,1,96.3,23q-.09-.52-.15-1.38c0-.58-.06-1.23-.08-1.95s0-1.51,0-2.36v-2.6c-.93.16-1.7.27-2.32.36s-1,.15-1.25.2a8.19,8.19,0,0,1-1.07.09,1.85,1.85,0,0,1-1.86-1.13,5.46,5.46,0,0,1-.48-2c0-.55.17-.83.52-.83a1.84,1.84,0,0,1,1.17.65,1.87,1.87,0,0,0,1.3.65c.45,0,1,0,1.73-.11s1.45-.15,2.23-.21l.06-3.22A2.73,2.73,0,0,0,95.23,7a2.1,2.1,0,0,1-.81-1.3c0-.35.28-.52.84-.52a9,9,0,0,1,2.44.62c1.23.39,1.85.85,1.85,1.39a2.53,2.53,0,0,1-.33,1.11,4.88,4.88,0,0,0-.35,1.57,12.54,12.54,0,0,0,0,2l4.84-.45c1.41-.13,2.37-.24,2.89-.33V8.38c0-.79,0-1.33,0-1.61l0-1.49a1.36,1.36,0,0,0-.18-.78,1.12,1.12,0,0,0-.73-.39c-.8-.2-1.2-.54-1.2-1a.71.71,0,0,1,.4-.63,2.74,2.74,0,0,1,1.38-.25,7.34,7.34,0,0,1,2.5.59c1,.36,1.53.8,1.53,1.3a2.51,2.51,0,0,1-.42,1.07,5.9,5.9,0,0,0-.31.74,4.42,4.42,0,0,0-.21,1c0,.32-.08.86-.1,1.62S109.27,10,109.29,10.9Z" transform="translate(59.03)"/><path class="cls-1" d="M110.65,41.51c.15,0,.09-.38.12-.45C110.51,41.15,110.65,41.62,110.65,41.51Z" transform="translate(59.03)"/><polygon class="cls-1" points="167.17 42.47 167.22 42.3 166.85 42.71 167.17 42.47"/><path class="cls-1" d="M105.81,42.46c.22.71.85-.12,1.26.14l.07.16.19-.58C106.82,42.28,106.17,42.66,105.81,42.46Z" transform="translate(59.03)"/><path class="cls-1" d="M104.56,40.91c.08.28-.27.24.29.09l0-.07Z" transform="translate(59.03)"/><path class="cls-1" d="M104.8,40.93c.25,0-.16-.23,0,0Z" transform="translate(59.03)"/><path class="cls-1" d="M103.66,41.09l.33-.25c-.07-.16-.36-.2-.25-.32C103.41,40.66,103.48,40.82,103.66,41.09Z" transform="translate(59.03)"/><path class="cls-1" d="M103.36,41.61l.16-.1C103.5,41.44,103.45,41.41,103.36,41.61Z" transform="translate(59.03)"/><path class="cls-1" d="M103.88,41.28l-.36.23c0,.11.06.34.17-.08C103.66,41.64,103.73,41.43,103.88,41.28Z" transform="translate(59.03)"/><path class="cls-1" d="M104.08,41.39c.18.16.42.26.09.5C104.79,41.79,104.7,41.29,104.08,41.39Z" transform="translate(59.03)"/><path class="cls-1" d="M105.69,43.2l.24.21.21-.24C106,43.28,105.67,43,105.69,43.2Z" transform="translate(59.03)"/><path class="cls-1" d="M101.64,40.72a3.38,3.38,0,0,0,.14.6l.24-.18C101.89,41,101.66,41,101.64,40.72Z" transform="translate(59.03)"/><path class="cls-1" d="M101.78,41.32l-.36.26C101.74,41.61,101.8,41.49,101.78,41.32Z" transform="translate(59.03)"/><polygon class="cls-1" points="162.32 42.4 162.91 41.85 162.21 42.41 162.32 42.4"/><polygon class="cls-1" points="159.3 40.7 159.5 40.35 159.14 40.88 159.3 40.7"/><path class="cls-1" d="M99.37,40.76c.15-.29-.21-.49-.05-.67a1.35,1.35,0,0,0-.65.53C98.88,40.49,99.09,40.52,99.37,40.76Z" transform="translate(59.03)"/><path class="cls-1" d="M98.36,41a2,2,0,0,0,.31-.33A.91.91,0,0,0,98.36,41Z" transform="translate(59.03)"/><path class="cls-1" d="M100.81,41.5a.65.65,0,0,0-.28-.43l.14.43Z" transform="translate(59.03)"/><path class="cls-1" d="M100.67,41.51h0l-.31,0Z" transform="translate(59.03)"/><path class="cls-1" d="M100.84,41.51h0S100.83,41.56,100.84,41.51Z" transform="translate(59.03)"/><path class="cls-1" d="M102.36,42c-.21.24-.65.49-.22.86C102.29,42.58,102,42.38,102.36,42Z" transform="translate(59.03)"/><path class="cls-1" d="M101,42l.38.1c0-.11-.08-.28,0-.4Z" transform="translate(59.03)"/><polygon class="cls-1" points="159.86 42.18 160.04 42.04 159.9 42.01 159.86 42.18"/><path class="cls-1" d="M99,41.35a.82.82,0,0,1-.55.23,1.94,1.94,0,0,0,.66.13C99.15,41.57,99.24,41.33,99,41.35Z" transform="translate(59.03)"/><path class="cls-1" d="M99.82,41.46l0,0S99.82,41.54,99.82,41.46Z" transform="translate(59.03)"/><path class="cls-1" d="M96.46,41.57l0,.08a.17.17,0,0,0,0-.07Z" transform="translate(59.03)"/><path class="cls-1" d="M99.15,41.78c.17.09.27,0,.36-.15a1.59,1.59,0,0,1-.39.08C99.1,41.77,99.1,41.81,99.15,41.78Z" transform="translate(59.03)"/><path class="cls-1" d="M97.8,41.14a1.61,1.61,0,0,0,.28.24C98,41.24,97.83,41,97.8,41.14Z" transform="translate(59.03)"/><path class="cls-1" d="M99.73,41.37l0,0C99.7,41.26,99.7,41.3,99.73,41.37Z" transform="translate(59.03)"/><path class="cls-1" d="M99.73,41.37a1.12,1.12,0,0,0-.22.26.87.87,0,0,0,.27-.14A.43.43,0,0,1,99.73,41.37Z" transform="translate(59.03)"/><path class="cls-1" d="M95.86,44.32c0-.4.45-.77.83-.34.36-.3.12-1.6-.2-2.33,0,.17,0,.33-.38.57.13.21.83.5.51.86-.5.21-.41-.14-.65-.35.21.5-.63.72-.52,1.45l.43-.26C95.89,44,95.73,44.21,95.86,44.32Z" transform="translate(59.03)"/><path class="cls-1" d="M97.21,41.69l.15,0c-.17-.07-.3-.22-.53-.53a.67.67,0,0,0-.33.47l.76.05Z" transform="translate(59.03)"/><path class="cls-1" d="M98.06,41.64c-.12.43-.49.62-.27,1.08.46,0,.32-.36.59-.55-.73.11.21-.24-.31-.48a1.05,1.05,0,0,1,.39-.11,2.75,2.75,0,0,1-.38-.2l0,0h0c0,.06,0,.09,0,.06h0a.76.76,0,0,1,0,.16c-.21-.09,0-.11,0-.16a.17.17,0,0,0,0-.07h0l-.74.23A1.45,1.45,0,0,0,98.06,41.64Z" transform="translate(59.03)"/><path class="cls-1" d="M101.74,43.8a.2.2,0,0,1,0-.1C101.67,43.76,101.65,43.79,101.74,43.8Z" transform="translate(59.03)"/><path class="cls-1" d="M101.44,43.54c0-.06.1-.23.27-.19s0,.21,0,.35c.1-.11.37-.31,0-.52l-.05.06c-.3-.15-.68-.68-.63-.74A3.78,3.78,0,0,0,101.44,43.54Z" transform="translate(59.03)"/><path class="cls-1" d="M99.73,42.7l-.61.21.31.38,0-.23C99.76,43.15,99.69,42.87,99.73,42.7Z" transform="translate(59.03)"/><polygon class="cls-1" points="155.42 41.36 155.5 40.9 155.15 41.55 155.42 41.36"/><polygon class="cls-1" points="154.62 41.41 154.65 41.02 154.44 41.26 154.62 41.41"/><path class="cls-1" d="M50.77,46.32l-.18.12A.7.7,0,0,0,50.77,46.32Z" transform="translate(59.03)"/><path class="cls-1" d="M52.07,46.35l0-.19C52,46.26,52,46.34,52.07,46.35Z" transform="translate(59.03)"/><path class="cls-1" d="M76.09,41.46c-.27-.37-.56-.94-.53-.5l.08.43A.44.44,0,0,1,76.09,41.46Z" transform="translate(59.03)"/><path class="cls-1" d="M62.72,44.05l.08.13c.06-.15.12-.29.18-.41Z" transform="translate(59.03)"/><path class="cls-1" d="M62.54,45.84l-.35-.28A1,1,0,0,0,62.54,45.84Z" transform="translate(59.03)"/><path class="cls-1" d="M43.66,46.78l-.21.45C43.78,47.22,43.64,47,43.66,46.78Z" transform="translate(59.03)"/><path class="cls-1" d="M87.46,41.57a1.23,1.23,0,0,0-.56-.26C87.17,41.56,87.39,41.93,87.46,41.57Z" transform="translate(59.03)"/><path class="cls-1" d="M51.28,41.72a.33.33,0,0,0-.16.26C51.24,41.91,51.3,41.83,51.28,41.72Z" transform="translate(59.03)"/><path class="cls-1" d="M86.24,41.31a1.2,1.2,0,0,0,.12.11.91.91,0,0,1,.54-.11C86.7,41.13,86.47,41,86.24,41.31Z" transform="translate(59.03)"/><path class="cls-1" d="M17.9,46.42s0,0,0-.05S17.87,46.43,17.9,46.42Z" transform="translate(59.03)"/><path class="cls-1" d="M10.4,42.05a1.23,1.23,0,0,1,.31,0C10.65,42,10.56,42,10.4,42.05Z" transform="translate(59.03)"/><path class="cls-1" d="M92.4,41.22c.17,0,0,0,0,0Z" transform="translate(59.03)"/><path class="cls-1" d="M93.22,42.94a.37.37,0,0,0-.07.21A.56.56,0,0,1,93.22,42.94Z" transform="translate(59.03)"/><path class="cls-1" d="M84.57,44h0C84.6,44.1,84.59,44.08,84.57,44Z" transform="translate(59.03)"/><path class="cls-1" d="M92.65,41.42a.74.74,0,0,0-.21-.13A.58.58,0,0,0,92.65,41.42Z" transform="translate(59.03)"/><path class="cls-1" d="M92.62,41.22l.15,0C92.79,41.19,92.77,41.14,92.62,41.22Z" transform="translate(59.03)"/><path class="cls-1" d="M92.17,41.25a.63.63,0,0,1,.27,0s0,0,0-.07Z" transform="translate(59.03)"/><path class="cls-1" d="M31.71,45.26s0,0,0,0C31.5,45.4,31.57,45.37,31.71,45.26Z" transform="translate(59.03)"/><path class="cls-1" d="M71.7,46l0,0h0Z" transform="translate(59.03)"/><path class="cls-1" d="M71.1,46.29c.25-.54.4-.48.59-.36l-.2-1.25Z" transform="translate(59.03)"/><path class="cls-1" d="M47.65,46.45l.43.39c-.52.64-.89.42-.49,1,.06-1.36,1.65-.14,1.71-1.5l.28.29c-.08,0-.09.06-.17,0,.55.65.41-1,1.11-.79.24.11.41.3.25.46l.54-.33a.12.12,0,1,1,0,.23l.83-.1v0a4.43,4.43,0,0,1,.52-.69c.21.2-.11.15,0,.32l.46-.33c.18.35-.2.69-.52.64.43,1.36.39-.34,1.31.45l-.43.17c.28.77.62.49,1.11,1-.12-.26-1-1.22-.48-1.55.14.1.32.15.59-.13,0,.49.27.37.6.34l0,.64c.36-.18.33-.51.54-.8.4.07.48.56.57,1,.64.1-.43-.8.32-.92.53.25.9,0,1.53-.4.37.22-.07.4.07.58l.33-.51c.08,0,.05.17,0,.25.27-.2,0-.64.45-.82.12-.7.9,1,1.43.23.14.18-.06.39,0,.64a4,4,0,0,0,1.24-1.09l.51.42c-.38-.48.11-1,.53-1.51a5.89,5.89,0,0,0-.32-.53l.67-.35c.09.11,0,.33-.09.6l.12-.16c.24.24.12.61-.06,1l-.24-.4a2.67,2.67,0,0,0-.29,1.19.48.48,0,0,1,.22-.17.47.47,0,0,0,0,.26c0,.07.1-.07.21-.23l.15.71,0-.28.88.44c.64-.71,1.19-1.77,2.19-2.07-.25.53-.05.86-.06,1.48-.28-.66-.78.28-1.3.14.27.07.21.37.14.47l.93-.6c0,.51.2.38.44.59-.18-1,.69-.66,1.07-1,0,.34-.07.68-.53.6.51.75.66-1.18,1.16-.54-.11,0-.17,0-.22.13.27-.3.91-.06.76.23h-.11c.74.12,2.27,0,2.38-.85a9.24,9.24,0,0,1-.14,1.2L72,43.06c-.12.73.33,2.47-.29,2.88a.6.6,0,0,0,.77,0c-.12-.1-.3-1.06-.13-1.12.45.81.31.43.88,1.13-.19-.16,0-1.31.3-1.27a7.17,7.17,0,0,1-.08,1.25l.72-1.12c-.18.2,0,.95.13,1.27-.08-.22.62,0,.81-.09l-.31-.26c.81.17.8-1.59,1.61-1.53-.1.24-.24,1.43.16,1.57.19-.57.83-2.77,1.54-3.21l.14.33.54-.38A21.17,21.17,0,0,1,77,45.88c.31.26.09.39.54.36.16.31-.25.47-.38.49l1.06.2c0-.67.8-.68.76-1.24l-1.14.7c0-.67.66-1.91,1.41-1.79.19.27-.15,1.2-.13,1.42.1-.23.71-.44.78-.28l-.32.36c.42.26.68-.89,1.18-.25.17,0,.52.87.55.47a10,10,0,0,1-.15-3.71,6,6,0,0,1,1.1,1.11c.29.6-.43,1.43-.18,2a1,1,0,0,1,.23-.49c.18.16-.08.57.32.49.06-.68.8.06.19-.58.38-.19.41.14.86.12a2.08,2.08,0,0,1,.79-1.7,1.06,1.06,0,0,0,.11.5c.79.07,1.21.37,2,.38.07.17.42.37.27.66.11-.12.2-.35.43-.37.44.59-.51.09-.17.8,0-.4.59-.55.91-.79-.1-.62-.75-.12-1.07.13a2.5,2.5,0,0,1,1.33-2.12c.61-.21.27.54.37.42,1.15.15,1-1.47,1.94-.86.38.54,0,1.07.1,1.46-.5.2-.77-.34-1.1-.32l.41.25c-.16.18-.49.32-.67.16.32.48,1.94.09,2.83.54.16-.18.43-.37.3-.58l-.28.07c-.26-.43.53-.6.17-.8.38-.31.8-.79,1.33-.54l.1.61c0-.18-.35-.36-.5-.18.22-.27.82.83,1.06,0l-.37-.42c.38-.31.84-1,1.31-.77-.21-.6-.11.07-.44-.64.29.88-1.2,0-.74.89-.34-.82-.59-.35-1-1.05,0,.2.16.39-.23.29a1,1,0,0,1-.09.18l0,0,0,0h0a.66.66,0,0,1,.2.31c-.19.47-.82.45-1,.69-.23-.09.1-.23,0-.45l-.32.36c0-.45-.62-.74-.07-1l-.49,0a.8.8,0,0,0-1-.16c-.23-.1-.59.5-.38.15l-.78.27v-.11c-.77,0-1.58.75-2.46-.06a1.21,1.21,0,0,1-1,.12l-.09-.39c-.33.14-1-.39-1.14,0-.36-1.05-1.61-.23-2.19-.42l0,.51a2.94,2.94,0,0,0-1.29.32l0,.45c-.43.37-1.1-.32-1.78-.27,0-.18.21-.13.34,0-.82-1-1.72.74-2.45,0a.3.3,0,0,1-.45,0s0,0,0,0h-.08a2.83,2.83,0,0,0-.25-.24.87.87,0,0,0,.21.24,1.41,1.41,0,0,0-.57.18l-.09-.49,0,0c-.2-.18-.16.23,0,.59a1.11,1.11,0,0,0-.28.29c-.17-.78-.55.26-.78-.57-.14.41-1.06.31-1.17,1.16,0-.11-.07-.17,0-.17-.23-.1-.47-.2-.68,0l-.1-.61-.51.82c-.31-.37-.44-.59-.13-1.06-.75.73-.61.27-1.24,1l0-.39c-.23,0-.59.54-.73.22-.5-.76-2.51-.11-3.81-.81.25,1.17-.61-.52-.66.38-.07-.27-.26-.43,0-.67-.67.27-1-.44-1.46.33-.08-.28.14-.41.07-.57,0,.06-.21.24-.28.07s.1-.23.2-.35c-.67,0-.74.9-.79,1.7-.35-.38-.52-.33-.77.19-.12-.26-.32-.53.1-.62-.23,0-1.45-.39-1.47.25-.07-.16-.33,0-.39,0a3.77,3.77,0,0,0-1.11,0l.15.1c-.21.77-.44.17-.86.26v-.07c-1-.56-.41.26-1.37-.37l.05.48c-.09,1-.84-.61-1.4-.22l.2.28c-.3.35-.84-1.41-1.14-1.54-.07-.08.1-.14.19-.21-.79-.6-.1.63-.69.78-.11-.34.14-.86-.26-.93-.2-.27-1.16,1.1-1.7.45.12.27.24.53,0,.72s-1.14-1-1.52-.16a.46.46,0,0,1-.08-.21c-.32.22-1,.36-1.24.8-.3-1.65-2,.81-2-.72l-1,.08,0-.15c-.64-.1-.86.26-1.08.63-.15-.11,0-.25,0-.33-.93-.31-1-.24-1.8.52l-.08-.5c-.21.29-1.34-.77-2.24-.19a.36.36,0,0,1,.1-.23c-1,.58-2.45-1.37-2.83.43l-.67.45c.87.14-.13.78.23,1.08-.34.11-.89-.54-.47-.64l.07.09c.15-.94-1.09-.33-1.06-1-1.72.05-3.39-.47-5-.51l.18.73-.56,0c-.15-.17-.2-.57.2-.54-.21-.41-.67.35-.68.51-.78-.3.31-.85.07-.87l-.33,0,.08.09c-.27.3-.29.61-.77.58-.31-.15-.16-.45-.28-.48s0-.08-.18,0l-.71-.06.28.57c-.31.29-.66,0-.34.63-.48-1-2.63-.37-2.93-.68a1.53,1.53,0,0,1-1.41.36c.14.12.22.77-.25.69.17-1.34-.84-.58-1.22-1.54.34.64-1.31.16-.79,1.06-.39-.1,0-.5-.32-.81-.91.52-2-.34-3.16-.16,0,.17.17.44-.07.7l-.6-.88c-.22.09-.21,1-.62.41.06.15.15.37,0,.42-2.23-.85-4.55.71-6.81-.9.31.34.1.37-.13.38.15.09,0,.44,0,.68L9.79,42c-.17.67-1,0-1.12.68l.3-.11c-.39.74.56,1.66.5,2.62.45-.85,1.18,1.25,1.91,0,.16.19-.14.31-.05.53.19-.41.41-.5.83-.31l-.05.1c1.17-.1,1.67.3,3,.57l-.1-.47c.28.06.34.21.47.33.33-.72-.79,0-.49-.83.37,1,2,0,2.24,1.11.43,0-.13-.55.3-.55l.12.3.11-.38c.28.06.42.43.43.68-.06,0-.19.07-.27.09.37.35,1-.11,1.17,0l-.42-.18c1.19-.28,2.63.11,3.77-.49l-.08-.23c.87-.41.69.25,1.65.06l0,.05a.83.83,0,0,1,.71-.31c-.24.26.45.51.14.8.94-.45.46-.35,1.09-1.18l.14.37c.22-.34.23-.51.71-.61-.39.32.31.57-.13,1,1,.81,1.49-.82,1.95.36.46-1-.87-.57-.61-.78-.22-.34.38-.77.69-.67s.55,1.31,1.36,1.29c-.08,0-.09.08-.17.07.3.26.59-.35,1,.07.21-.62.48,0,.54-.75l-.74.18c.42-.21.82-1.13,1.51-.68a1.41,1.41,0,0,1-.4.48c.2.24.39-.15.59.09,0,.79-.89.17-1.34.77.21.34.85-.57.62.29.33-1.09.8.14,1.34-.7l0,.48c.08-.08.26-.3.42-.29l-.29.62c.44-.53.85.46,1.28.17-.89,0-.2-.57-.58-.92,1.1-.63.63,1.24,1.86,1-.17.06-.62-.29-.36-.51a1.46,1.46,0,0,1,.68.53c.82-.1-.12-.49.22-.78.28.58.4-.24.76-.42v.48c.93.31.25-1,1.08-.63l-.35.67L38,46l-.09.55c.48-.41.62-.31,1.09-.15-.11-.34.06-.88.47-.89.28.28-.16.46.42.39-.13.3-.27.68-.53.23,0,.16-.13.31-.15.46.3.33.76.08,1,.07a.36.36,0,0,1-.23-.11l.84-.67c.13.18,0,.33-.08.47.18-.05.29-.27.54-.32-.06.4,0,.8-.4,1l.8-.44c.06.17.41.47.31.61.45.23,1.09-.76,1.68-.45a.41.41,0,0,1,.22-.21c.56.09,1.05.57,1.7,0l.38.71c.51-.16-.51-.89.35-1.15.61-.23.23.6.44.79.3-.35.83-1.07,1.38-.5C48,46.5,47.82,46.4,47.65,46.45ZM54,46.14c-.12.1-.36.41-.45.13C53.69,45.71,53.79,46,54,46.14ZM63.66,45c-.09.16-.23.08-.39-.11A.38.38,0,0,1,63.66,45Zm26.89-3.36v0C90.27,41.45,90.36,41.53,90.55,41.62Zm.57.21a.18.18,0,0,0,0-.21c0,.13-.17.14-.31.1C90.88,41.85,91,41.93,91.12,41.83ZM29.91,42l.11.12C29.77,42.28,29.84,42.16,29.91,42Z" transform="translate(59.03)"/><path class="cls-1" d="M62.56,45.64a1.28,1.28,0,0,1-.05-.27A.2.2,0,0,0,62.56,45.64Z" transform="translate(59.03)"/><path class="cls-1" d="M43.7,46.7h0s0,.06,0,.08Z" transform="translate(59.03)"/><path class="cls-1" d="M82.29,45.92a.57.57,0,0,1-.22-.25C82.06,45.79,82.11,45.89,82.29,45.92Z" transform="translate(59.03)"/><path class="cls-1" d="M94.14,41l-.36.12c.18,0,.24.08.33.16C94.1,41.18,94,41,94.14,41Z" transform="translate(59.03)"/><path class="cls-1" d="M97.31,44c.06-.06.12,0,.17-.06l0-.23C97.24,43.72,97.08,43.9,97.31,44Z" transform="translate(59.03)"/><path class="cls-1" d="M94.48,42.61c0,.41.26.27.52.19,0,0,0,0,0,0C95,42.23,94.75,42.42,94.48,42.61Z" transform="translate(59.03)"/><path class="cls-1" d="M95.06,42.79a.44.44,0,0,1,.23,0C95.32,42.55,95.2,42.73,95.06,42.79Z" transform="translate(59.03)"/><path class="cls-1" d="M91.85,41.56c.12.1.07-.52.14-.36C92.13,40.69,91.18,41.83,91.85,41.56Z" transform="translate(59.03)"/><polygon class="cls-1" points="153.72 43.95 153.62 43.45 153.48 43.85 153.72 43.95"/><path class="cls-1" d="M92.67,43.58l.41.14a.16.16,0,0,1,.11-.17C92.94,43.53,92.66,43.43,92.67,43.58Z" transform="translate(59.03)"/><path class="cls-1" d="M93.19,43.55a.38.38,0,0,0,.33-.09A1,1,0,0,0,93.19,43.55Z" transform="translate(59.03)"/><polygon class="cls-1" points="153.16 44.1 153.03 43.99 152.75 43.96 153.16 44.1"/><path class="cls-1" d="M88.28,43.48l-.45.15c0,.17.08.27.24.2S88.34,43.65,88.28,43.48Z" transform="translate(59.03)"/><path class="cls-1" d="M89.63,44.85c-.13-.1-.13-.21-.2-.38v.62Z" transform="translate(59.03)"/><path class="cls-1" d="M88.32,45c0,.17-.64.49-.08.46C88.29,45.28,88.73,45.14,88.32,45Z" transform="translate(59.03)"/><polygon class="cls-1" points="140.63 44.21 140.74 44.21 140.73 43.19 140.63 44.21"/><path class="cls-1" d="M75.68,46.65c.53.24.13-.63.6-.32.13-.24-.39-.25-.26-.46C75.7,46.12,75.53,46,75.68,46.65Z" transform="translate(59.03)"/><path class="cls-1" d="M76,45.87a1.1,1.1,0,0,0,.16-.15A.59.59,0,0,0,76,45.87Z" transform="translate(59.03)"/><polygon class="cls-1" points="68.18 41.5 67.84 41.29 68.06 41.63 68.18 41.5"/><path class="cls-1" d="M8.5,42.26l-.08-.65-.2.58C8.29,42.16,8.44,42.11,8.5,42.26Z" transform="translate(59.03)"/><path class="cls-1" d="M55,47.45l0-.16c0-.17-.13-.18-.29-.21Z" transform="translate(59.03)"/><polygon class="cls-1" points="109.36 46.96 109.44 46.97 109.29 46.39 109.36 46.96"/><path class="cls-1" d="M46.47,47.71c.16,0,.34-.11.5-.08C46.63,47.73,46.43,47,46.47,47.71Z" transform="translate(59.03)"/><line class="cls-2" y1="31.52" x2="249.37" y2="31.52"/></g></g></svg>