<svg xmlns="http://www.w3.org/2000/svg" viewBox="0 0 327.62 114.86"><defs><style>.cls-1{fill:#fff;}</style></defs><g id="レイヤー_2" data-name="レイヤー 2"><g id="レイヤー_1-2" data-name="レイヤー 1"><rect class="cls-1" x="7.17" y="99.19" width="7.83" height="15.66" rx="1.42"/><polygon class="cls-1" points="114.86 102.46 0 105.07 0 106.37 114.86 106.37 114.86 102.46"/><polygon class="cls-1" points="114.86 111.59 0 108.98 0 107.68 114.86 107.68 114.86 111.59"/><path class="cls-1" d="M7.18,54.17A50.25,50.25,0,1,1,84.41,96.53h6.75A54.16,54.16,0,1,0,3.26,54.17,53.8,53.8,0,0,0,23.69,96.53h6.76A50,50,0,0,1,7.18,54.17Z"/><path class="cls-1" d="M41.2,74h.7v3.6c0,1.44-.7,1.87-1.63,1.87a2.36,2.36,0,0,1-.75-.12l.11-.57a1.78,1.78,0,0,0,.58.1c.62,0,1-.28,1-1.33Z"/><path class="cls-1" d="M47.45,77.72l-.56,1.7h-.72L48,74h.84l1.84,5.39h-.74l-.58-1.7Zm1.77-.54-.53-1.55c-.12-.35-.2-.68-.28-1h0c-.08.32-.16.65-.27,1l-.53,1.56Z"/><path class="cls-1" d="M55,74.09a8.71,8.71,0,0,1,1.33-.1,2.2,2.2,0,0,1,1.51.45,1.41,1.41,0,0,1,.47,1.12,1.58,1.58,0,0,1-.41,1.15,2.21,2.21,0,0,1-1.65.6,2.38,2.38,0,0,1-.56,0v2.16H55Zm.69,2.6a2.35,2.35,0,0,0,.58.06c.84,0,1.35-.41,1.35-1.16s-.51-1-1.27-1a2.47,2.47,0,0,0-.66.06Z"/><path class="cls-1" d="M63.64,77.72l-.56,1.7h-.72L64.2,74H65l1.84,5.39h-.74l-.58-1.7Zm1.77-.54-.53-1.55c-.12-.35-.2-.68-.28-1h0c-.08.32-.17.65-.28,1l-.52,1.56Z"/><path class="cls-1" d="M71.19,79.42V74H72l1.73,2.72a15.81,15.81,0,0,1,1,1.76h0a22.13,22.13,0,0,1-.08-2.22V74h.65v5.39h-.7l-1.71-2.74a15.61,15.61,0,0,1-1-1.8h0c0,.68,0,1.33,0,2.22v2.31Z"/><path class="cls-1" d="M42.52,25.28a19.91,19.91,0,0,1-.15,2.79c.4.44,1.48,1.71,1.74,2l-.56.59A20.46,20.46,0,0,0,42.2,28.9a7,7,0,0,1-1.76,3.38,2.21,2.21,0,0,0-.56-.54c1.72-1.83,1.91-4.18,1.91-6.46V21.11c.56.05.77.05,1,.06,0,.08-.07.14-.23.15ZM39.9,26.53a5.51,5.51,0,0,0,.73-2.94l.59.09a5.85,5.85,0,0,1-.78,3.14Zm4.53-3a.27.27,0,0,1-.24.1,20.53,20.53,0,0,1-1,2.32l-.5-.26a17.45,17.45,0,0,0,.92-2.52Zm4.27,7.59c0,.28,0,.33.37.33h1c.29,0,.35-.17.39-1.37a2.28,2.28,0,0,0,.67.3c-.07,1.4-.28,1.75-1,1.75H49c-.85,0-1-.21-1-1V28.34H46.67c0,.07-.09.12-.23.13-.16,1.89-.6,3.13-2.69,3.81a1.72,1.72,0,0,0-.45-.59c1.85-.57,2.27-1.59,2.39-3.35H43.88v-.71h1.47V26.05H43.88v-.72h1.47v-1.5l1,.07c0,.08-.07.14-.22.16v1.27h2.71v-1.5l1,.07c0,.08-.07.14-.23.16v1.27h1.49v.72H49.56v1.58h1.51v.71H48.93c0,.07-.09.12-.23.13Zm-1.64-6.56V23.1H44.35v-.7h2.71V21.11l1,.06c0,.08-.07.14-.24.17V22.4h2.79v.7H47.82v1.46Zm-1,1.49v1.58h2.71V26.05Z"/><path class="cls-1" d="M62.25,25.4a18.52,18.52,0,0,1-3.63.75,4.57,4.57,0,0,0,2,1.88l-.48.68a5.8,5.8,0,0,1-.69-.36A5.28,5.28,0,0,0,58,28.17c-.17,0-.33,0-.49,0l-.17-.66a7.41,7.41,0,0,1,1.35.05,6,6,0,0,1-1-1.36,31.4,31.4,0,0,1-3.22.12H52.75v-.76l1.83,0c1,0,2,0,2.93-.09-.13-.37-.33-1.05-.47-1.59-.48.05-1,.07-1.51.07-.65,0-1.48,0-2,0v-.75c.72,0,1.51,0,2,0s.92,0,1.38-.06c-.11-.55-.23-1.21-.33-1.89l1.24,0c0,.14-.11.23-.33.26.07.52.16,1.07.25,1.54a12.61,12.61,0,0,0,3.22-.7l.2.74a14,14,0,0,1-3.26.69,13.87,13.87,0,0,0,.46,1.57,17.33,17.33,0,0,0,3.74-.79Zm-2.11,6.35c-.66.05-1.46.07-2.64.07-2,0-3.46-.64-3.43-2a2.53,2.53,0,0,1,1.41-1.9l.54.56c-.69.37-1.1.87-1.1,1.33,0,.85,1,1.22,2.58,1.23.9,0,1.84-.05,2.66-.11Z"/><path class="cls-1" d="M66,29.59a5.7,5.7,0,0,1-1.34,2.59L64,31.77a5.07,5.07,0,0,0,1.31-2.42Zm9-2.24H66.43v.9H74l.18,0,.44.08a1.29,1.29,0,0,1,0,.24c-.16,2.24-.33,3.09-.64,3.4s-.53.31-1.14.31l-1.08,0a1.78,1.78,0,0,0-.21-.69c.59.06,1.17.06,1.37.06s.32,0,.42-.1.36-.9.49-2.62H65.63V22.09h3a8.43,8.43,0,0,0,.44-1l1,.23c0,.07-.1.12-.24.12-.1.2-.25.45-.4.69h3.81v3.77H66.43v.86H75Zm-2.51-4.63h-6v.93h6Zm-6,2.52h6v-1h-6Zm.8,6.6A7.93,7.93,0,0,0,67,29.67l.68-.11A8,8,0,0,1,68,31.72Zm2.3-.28a7.52,7.52,0,0,0-.6-1.95l.64-.15a7.93,7.93,0,0,1,.65,1.9Zm1.91-2.34a7.41,7.41,0,0,1,1,1.54l-.61.28a6.76,6.76,0,0,0-.92-1.58Z"/><path class="cls-1" d="M30.32,44.2a14.72,14.72,0,0,1,10.34-4.28,12.48,12.48,0,0,1,7.92,2.63,14.22,14.22,0,0,1,5.14,11A9,9,0,0,1,50,61.41c-2.54,1.81-6.66,3-12.71,3.24-.23,0-.32-.1-.32-.19s.06-.22.25-.25a21,21,0,0,0,8.69-3.94,10,10,0,0,0,3.55-8.05,12.39,12.39,0,0,0-3.17-8.5,8,8,0,0,0-5.8-2.53c-.32,0-.64,0-1,.06a7,7,0,0,1,1.26,1.49,4.79,4.79,0,0,1,.8,2.85,17.25,17.25,0,0,1-.35,2.73,27.09,27.09,0,0,1-4.6,10.78c-1.65,2-3.55,3.17-5.23,3.17A2.66,2.66,0,0,1,28.48,60a10.77,10.77,0,0,0-1-2.31c-.92-1.5-1.81-2.6-1.81-4.35C25.69,49.9,27.66,46.73,30.32,44.2ZM29.37,57a2,2,0,0,0,1.84,1c1,0,2.18-.76,3.39-2.28A26.4,26.4,0,0,0,39.13,46a12.47,12.47,0,0,0,.35-2.26,4.51,4.51,0,0,0-.25-1.52,6.11,6.11,0,0,0-.44-.85,11.51,11.51,0,0,0-6.31,4.24,14.81,14.81,0,0,0-3.68,9.07A4,4,0,0,0,29.37,57Z"/><path class="cls-1" d="M68.31,53.71a4.81,4.81,0,0,1-1.3-3,4.55,4.55,0,0,1,1.08-2.85,32.21,32.21,0,0,1,2.28-2.57,6.5,6.5,0,0,1-2.57-1.9,5.22,5.22,0,0,1-1-2.29,9.94,9.94,0,0,1-.1-1,5.53,5.53,0,0,1,.07-.7c0-.19.12-.29.25-.29s.16.07.22.23a4.22,4.22,0,0,0,.7,1.2,3.81,3.81,0,0,0,1.43,1,9.44,9.44,0,0,0,3.39.7,3.48,3.48,0,0,1,2.31.86,2.72,2.72,0,0,1,1.18,2.19,1.34,1.34,0,0,1-.38,1,2.29,2.29,0,0,1-1.65.41,7,7,0,0,0-2.63.19A8.32,8.32,0,0,0,69,48.45a2.19,2.19,0,0,0-.82,1.36c0,.76.51,1.36,1.39,2.12.48.42,1,.77,1.49,1.15a11.81,11.81,0,0,1,5.14-1.18,11,11,0,0,1,4.35,1,11.73,11.73,0,0,1,3.93,2.86,5.82,5.82,0,0,1,1.65,3.61,1.88,1.88,0,0,1-.57,1.56,2.18,2.18,0,0,1-1.46.53A2.71,2.71,0,0,1,82.51,61a3.22,3.22,0,0,1-.89-1.2c-.31-.73-.53-1.49-.88-2.19a9.41,9.41,0,0,0-2.35-3.11,5.51,5.51,0,0,0-3.65-1.33,5.15,5.15,0,0,0-2.56.67,20.18,20.18,0,0,1,2.18,1.62c1.53,1.3,2.22,2.53,2.22,4a4,4,0,0,1-1.52,3.05,4.47,4.47,0,0,1-2.79.92,18.52,18.52,0,0,1-3.87-.92c-1.2-.32-2.6-.67-4.15-1.15-.13.2-.29.35-.41.51a14.48,14.48,0,0,1-1.72,2,2.61,2.61,0,0,1-1.74.57,5.57,5.57,0,0,1-2.31-.38,1.93,1.93,0,0,1-1.3-1.81c0-.85.47-1.55,1.71-1.74.76-.13,1.46-.16,1.74-.19a6.73,6.73,0,0,0,2.86-1.52c1.07-.86,1.93-1.68,3-2.51.89-.66,1.81-1.39,2.76-2C68.66,54.12,68.5,53.93,68.31,53.71Zm-1,4c-1,1-1.8,2.18-2.53,3.07a26.82,26.82,0,0,0,3.52.16,9.47,9.47,0,0,0,3-.35,1.73,1.73,0,0,0,1.27-1.52,3.93,3.93,0,0,0-1.18-2.38,11.61,11.61,0,0,0-1.49-1.39A19,19,0,0,0,67.29,57.71ZM81.88,45.4a2.15,2.15,0,0,1,1.2,1.78,1.35,1.35,0,0,1-1.23,1.43c-.45,0-.83-.2-1.21-.86a6.75,6.75,0,0,0-2.5-2.7c-.16-.06-.23-.15-.23-.25s.1-.19.32-.19A7,7,0,0,1,81.88,45.4Zm0-3a6.17,6.17,0,0,1,2.7.51,2.11,2.11,0,0,1,1.33,1.8A1.22,1.22,0,0,1,84.83,46c-.42,0-.73-.13-1.24-.86A6.36,6.36,0,0,0,81,42.83c-.16-.06-.22-.15-.22-.25s.09-.16.28-.19S81.62,42.36,81.91,42.36Z"/><path class="cls-1" d="M161.2,45.38c-.28-.34-.52-.67-.73-1s-.46-.72-.74-1.2a10.49,10.49,0,0,1-.55,1.45,9.58,9.58,0,0,1-.68,1.18,6.52,6.52,0,0,1-.83,1,10.38,10.38,0,0,1-1,.86c-.88.71-1.39,1-1.52.88s.14-.62.84-1.52a12.4,12.4,0,0,0,1.86-3.32,13.61,13.61,0,0,0,.8-4.24c.06-1.19.1-2.2.1-3s0-1.54,0-2.1a8.35,8.35,0,0,0-.19-1.38,3.28,3.28,0,0,0-.33-.85c-.31-.52-.37-.84-.17-1s.72-.05,1.6.26a8.84,8.84,0,0,1,1,.4,1.32,1.32,0,0,1,.48.36.47.47,0,0,1,.09.39,1.76,1.76,0,0,1-.2.48,1.44,1.44,0,0,0-.15.39,4.44,4.44,0,0,0-.11.66c0,.28-.06.65-.09,1.08s-.06,1-.09,1.66a4.13,4.13,0,0,0,.56-.79,1.83,1.83,0,0,0,.24-.62c0-.55.18-.85.36-.93s.49.1.91.51a2.82,2.82,0,0,1,.84,1.07c0,.19-.14.37-.51.53s-.64.31-1,.52-.87.49-1.41.83c0,.92-.11,1.75-.2,2.49a15.86,15.86,0,0,1-.37,2,10,10,0,0,1,1.34.41,2.11,2.11,0,0,1,.8.5,1.36,1.36,0,0,1,.35.71,2.54,2.54,0,0,1,0,1,1,1,0,0,1-.16.41.61.61,0,0,1-.3.23.47.47,0,0,1-.37,0A.87.87,0,0,1,161.2,45.38Zm-4.46-5.15a6.63,6.63,0,0,1-.52-1,8,8,0,0,1-.43-1.28c-.12-.47-.13-.75,0-.85s.35-.06.79.15a3.43,3.43,0,0,1,1.59,1.16,1.53,1.53,0,0,1,.15,1.3c-.21.65-.44,1-.71,1S157,40.65,156.74,40.23Zm16.61,8.2a8.94,8.94,0,0,1-2.19.21,13.25,13.25,0,0,1-1.95-.18,2,2,0,0,1-1.6-1.07,5.11,5.11,0,0,1-.22-2.39c0-.29,0-.56.05-.81s0-.48,0-.68a6.57,6.57,0,0,0-.06-1.39l-.61.1c-.2,0-.42.07-.67.1.47.36.73.65.77.85s-.07.42-.35.62a3.92,3.92,0,0,0-.7.71,11.31,11.31,0,0,1-1.16,1.26,11.66,11.66,0,0,1-1.39,1.11,9.07,9.07,0,0,1-1.51.85,6.86,6.86,0,0,1-1.51.47c-.72.12-1.09.11-1.1,0s.33-.37,1-.73a9.74,9.74,0,0,0,1.67-1,11.52,11.52,0,0,0,1.39-1.29,9.31,9.31,0,0,0,1-1.35,5.66,5.66,0,0,0,.56-1.24l-.11,0h-.14a7.23,7.23,0,0,1-.77,0,2.1,2.1,0,0,1-.66-.14c-.42-.16-.62-.29-.6-.38s.28-.19.78-.28l1.53-.3,1.31-.28,1.16-.3,1.13-.33c.1-.34.18-.65.25-.94s.13-.57.19-.82l-.6.08-.66.07-.76.12-.84.15c0,.22,0,.46.06.73a1.16,1.16,0,0,1-.19.95.67.67,0,0,1-.45.26.72.72,0,0,1-.19,0,.4.4,0,0,1-.21-.16,1.63,1.63,0,0,1-.2-.4,4.21,4.21,0,0,1-.19-.75l-.06-.33-.41.09-.32.09a2.32,2.32,0,0,1-.78.12,1.21,1.21,0,0,1-.67-.25c-.54-.38-.79-.64-.73-.78s.44-.24,1.15-.28l.7,0,.77-.07a5.93,5.93,0,0,0-.59-1.19c-.31-.38-.41-.64-.29-.79s.54-.14,1.25,0a2.89,2.89,0,0,1,1.18.43.79.79,0,0,1,.17.74,1.64,1.64,0,0,0,0,.25c0,.1,0,.2,0,.32l1.42-.25q.78-.15,1.77-.39a5,5,0,0,0,.09-1.06,2,2,0,0,0-.15-.7c-.21-.45-.21-.74,0-.86s.66,0,1.38.31a2.41,2.41,0,0,1,1.06.7c.1.19,0,.44-.22.73a2.21,2.21,0,0,0-.27.44l.23,0,.23-.07a4.08,4.08,0,0,1,1.22-.13,2.67,2.67,0,0,1,1,.31,2.23,2.23,0,0,1,.73.54.46.46,0,0,1,.15.47.73.73,0,0,1-.52.31,4.51,4.51,0,0,1-1.24.06H172c-.36,0-.84,0-1.46.12-.09.27-.18.54-.29.82s-.2.55-.3.81a2,2,0,0,1,.92.18c.45.22.63.44.53.67s-.55.44-1.34.63l-.4.09-.53.1c.3.21.45.4.45.58a1,1,0,0,1-.21.59,1.57,1.57,0,0,0-.15.44c0,.21-.08.43-.11.68s-.05.49-.06.73,0,.42,0,.55a2.85,2.85,0,0,0,.16.94.5.5,0,0,0,.44.29,9,9,0,0,0,1.32.11,4.11,4.11,0,0,0,1.32-.24c.63-.21,1.11-1,1.45-2.25q.38-1.38.6-1.38c.16,0,.24.46.26,1.38a7,7,0,0,0,.13,1.23,3,3,0,0,0,.42,1,2.31,2.31,0,0,1,.22.52.65.65,0,0,1-.1.52,1.6,1.6,0,0,1-.61.49A4.88,4.88,0,0,1,173.35,48.43Zm-3.19-14.12-1.14.33-1,.26c0,.22-.06.46-.09.73s-.06.54-.09.83a2.15,2.15,0,0,1-.26.91.6.6,0,0,1-.43.32.55.55,0,0,1-.43-.3,2.11,2.11,0,0,1-.24-1,2,2,0,0,1,0-.44c0-.22,0-.47,0-.77a6.82,6.82,0,0,1-1.13.11,2.3,2.3,0,0,1-.67-.08c-.52-.18-.77-.33-.77-.46s.3-.23.9-.32a9.43,9.43,0,0,0,1.65-.41v-.33a2.48,2.48,0,0,1,0-.29,3,3,0,0,0-.12-1.11,1.71,1.71,0,0,0-.34-.71c-.56-.56-.73-.94-.51-1.15s.81-.14,1.76.2a7.82,7.82,0,0,1,.91.36,1.58,1.58,0,0,1,.47.33.48.48,0,0,1,.12.35,1.39,1.39,0,0,1-.15.45,3.77,3.77,0,0,0-.31,1.1,2.93,2.93,0,0,1,1.19-.28,1.89,1.89,0,0,1,.94.35C171,33.74,171,34.06,170.16,34.31Z"/><path class="cls-1" d="M189.56,37.63a4.3,4.3,0,0,0,1.24-.41,7.94,7.94,0,0,0,1.23-.73,1.91,1.91,0,0,1,1-.44h.49a1.75,1.75,0,0,1,.75.22c.58.28.88.55.88.81s-.25.48-.73.71c-.25.11-.7.28-1.35.5l-2.59.84c.24.61.5,1.2.78,1.75a6.88,6.88,0,0,0,.94,1.39c.23.31.41.53.53.67a1.07,1.07,0,0,1,.22.4,1.34,1.34,0,0,1,0,.48c0,.2-.09.51-.18.92s-.34.79-.61.79-.62-.24-1-.71a4.1,4.1,0,0,0-1.88-1,9.25,9.25,0,0,0-2.61-.35q-3.48,0-3.48,2a3.38,3.38,0,0,0,.07.57,1,1,0,0,0,.2.48,1.66,1.66,0,0,0,.47.35,4,4,0,0,0,.89.36,10.07,10.07,0,0,0,1.17.24,7.31,7.31,0,0,0,2.36-.07,3.68,3.68,0,0,0,1-.35,2.26,2.26,0,0,1,1-.33,2.15,2.15,0,0,1,1.16.62l.6.46a.47.47,0,0,1,.2.37c0,.36-.44.62-1.32.79a14.28,14.28,0,0,1-3.24.29,16.06,16.06,0,0,1-1.86-.1,10.07,10.07,0,0,1-1.65-.31,6.56,6.56,0,0,1-1.34-.52,2.9,2.9,0,0,1-.91-.76,3.12,3.12,0,0,1-.66-1.91,3,3,0,0,1,.66-1.88,3.5,3.5,0,0,1,1.37-1,7.1,7.1,0,0,1,2-.6,9.37,9.37,0,0,1,2.25-.05,5.93,5.93,0,0,1,2.1.57c.08.06.13.07.18,0s0-.12,0-.27a10.63,10.63,0,0,1-.7-1.39c-.21-.48-.39-.92-.55-1.32-.62.15-1.22.28-1.83.39l-1.89.32a23.9,23.9,0,0,1-2.75.26,2.44,2.44,0,0,1-1.23-.22,1.6,1.6,0,0,1-.62-.88,3.09,3.09,0,0,1-.22-1.06c0-.33.12-.47.37-.4a2.33,2.33,0,0,1,.89.6,1.58,1.58,0,0,0,1.1.29l1,0c.39,0,.84-.07,1.35-.13a19.45,19.45,0,0,0,3.08-.59c-.07-.25-.17-.55-.29-.91s-.27-.72-.43-1.09c-.25.06-.55.12-.88.17l-1.19.2c-.44.08-.8.13-1.09.17a4.6,4.6,0,0,1-.61.05,1.59,1.59,0,0,1-1.54-.79,2.88,2.88,0,0,1-.44-1.24c0-.3.14-.45.4-.45a.49.49,0,0,1,.31.16,3.09,3.09,0,0,0,.42.34,2,2,0,0,0,1.16.33,16.05,16.05,0,0,0,2.77-.41,4,4,0,0,0-.18-.51c-.08-.19-.18-.4-.3-.64a2.23,2.23,0,0,0-.76-1l-.65-.41c-.37-.14-.55-.34-.55-.59a.39.39,0,0,1,.24-.35,2.83,2.83,0,0,1,1.15-.14,8.13,8.13,0,0,1,1.45.09,1.16,1.16,0,0,1,.73.31,2.35,2.35,0,0,1,.22,1.06,3.12,3.12,0,0,0,.13.81,7.09,7.09,0,0,0,.28.81,3.79,3.79,0,0,0,1.59-.92,1.57,1.57,0,0,1,.83-.44,2,2,0,0,1,1.24.31c.49.23.74.49.74.77a.49.49,0,0,1-.27.38,3.63,3.63,0,0,1-.77.39l-1.19.45-1.53.58c.12.34.24.69.38,1A7.5,7.5,0,0,0,189.56,37.63Z"/><path class="cls-1" d="M202.23,43.13a5.11,5.11,0,0,1,.29,2.53,5.23,5.23,0,0,1-.27,1.07,2.13,2.13,0,0,1-.46.73,1,1,0,0,1-.82.37c-.29,0-.54-.31-.76-.81a1.86,1.86,0,0,1-.25-1,1.64,1.64,0,0,1,.38-.79,3.81,3.81,0,0,0,.55-.94,4.4,4.4,0,0,0,.31-1.15c.1-.68.23-1,.37-1S201.94,42.4,202.23,43.13Zm2.75-9.5c.4-.49.73-.89,1-1.21a8.94,8.94,0,0,0,.6-.83,3,3,0,0,0,.29-.56,1.38,1.38,0,0,0,.11-.42,1.92,1.92,0,0,1,.11-.58.4.4,0,0,1,.26-.25.78.78,0,0,1,.45.06,5.22,5.22,0,0,1,.72.38c.69.41,1,.74,1,1s-.22.5-.66.7a7.42,7.42,0,0,0-1,.59c-.39.25-.78.52-1.16.8a11.74,11.74,0,0,0,4.09-1,1.08,1.08,0,0,1,.78-.23,3.23,3.23,0,0,1,1.07.47,5.12,5.12,0,0,1,.88.62,1.08,1.08,0,0,1,.34.47.37.37,0,0,1-.11.38,1.62,1.62,0,0,1-.47.33,1.54,1.54,0,0,0-.29.21,2,2,0,0,0-.28.33,4.28,4.28,0,0,0-.29.54c-.1.22-.22.5-.35.84a7.12,7.12,0,0,1-.39.83l-.38.66c-.22.33-.43.49-.61.49s-.4-.17-.65-.51c-.53,0-1.18.09-2,.19s-1.7.24-2.79.45c0,.12,0,.24,0,.36s0,.26,0,.41c.66,0,1.21-.1,1.66-.18s.88-.17,1.31-.28.66-.18.88-.23a2.15,2.15,0,0,1,.57-.08,1.44,1.44,0,0,1,.43.06,3.84,3.84,0,0,1,.43.2c.32.18.45.37.38.59s-.37.33-.93.36c-.24,0-.54,0-.92.08l-1.21.12-1.34.14-1.31.14c0,.3,0,.56-.06.79.35,0,.77-.06,1.25-.12l1.52-.16,1.61-.2c.54-.07,1-.15,1.54-.23s.92-.17,1.31-.26a6,6,0,0,0,.91-.3,2.77,2.77,0,0,1,.54-.2,1.14,1.14,0,0,1,.52,0,2.79,2.79,0,0,1,.64.25c.24.13.54.31.89.54a9,9,0,0,1,.86.66,1.15,1.15,0,0,1,.35.49.51.51,0,0,1-.05.43,2.21,2.21,0,0,1-.36.45,1.13,1.13,0,0,0-.26.54c-.06.25-.15.68-.25,1.28a19.72,19.72,0,0,1-.41,2,6.9,6.9,0,0,1-.47,1.3,3.79,3.79,0,0,1-.63.9,6.36,6.36,0,0,1-.89.75c-.5.36-.86.53-1.09.49s-.45-.31-.67-.82a10,10,0,0,0-.68-1.29,6.14,6.14,0,0,0-.77-1c-.72-.78-.49-1,.68-.55.44.16.79.27,1,.34a1.8,1.8,0,0,0,.59.09.46.46,0,0,0,.33-.13,2,2,0,0,0,.22-.34,7.24,7.24,0,0,0,.52-1.59,8.58,8.58,0,0,0,.18-1.67,1.47,1.47,0,0,0-.27-1.05,1.55,1.55,0,0,0-.91-.29,4.82,4.82,0,0,0-.82,0l-1.52.14c-.63.07-1.39.16-2.29.29l-3.16.45c-.12,0-.24.16-.35.44a1.7,1.7,0,0,1-.18.31.3.3,0,0,1-.23.11.67.67,0,0,1-.34-.12,2.75,2.75,0,0,1-.49-.43,1.08,1.08,0,0,1-.28-.54,2.86,2.86,0,0,1,.09-.92,9.62,9.62,0,0,0,.14-1.06c0-.46.07-1.13.1-2,0-.35,0-.72,0-1.1s0-.74-.08-1.07a8,8,0,0,0-.14-.87,2.08,2.08,0,0,0-.2-.55,1.83,1.83,0,0,1-.3-.56.26.26,0,0,1,.13-.32,1.23,1.23,0,0,1,.66,0A9.29,9.29,0,0,1,205,33.63Zm.66,11.75a1.16,1.16,0,0,1-.24.54.78.78,0,0,1-.39.28.6.6,0,0,1-.46-.08,1,1,0,0,1-.4-.5,4.73,4.73,0,0,1-.31-.72c-.09-.25-.21-.61-.35-1.06-.22-.74,0-.88.77-.42a3.68,3.68,0,0,1,1.17,1A1.2,1.2,0,0,1,205.64,45.38Zm4.23-8.61a2.22,2.22,0,0,0,.17-.24.89.89,0,0,0,.11-.26q.22-.69.33-1.11c.08-.29.15-.62.22-1,0-.17,0-.28,0-.33s-.14,0-.31,0c-.49.09-1.17.19-2,.31s-1.82.24-2.9.37a4.36,4.36,0,0,0-.06.49c0,.16,0,.34,0,.55.35-.05.7-.1,1-.17a5.45,5.45,0,0,0,1-.27,5.35,5.35,0,0,1,.65-.19,3.24,3.24,0,0,1,.5,0,1.39,1.39,0,0,1,.44.07c.14.05.31.13.48.21a.41.41,0,0,1,.27.43c0,.19-.25.31-.64.39s-1,.16-1.71.23-1.37.12-2.08.16c0,.16,0,.34,0,.53v.6l1.17-.2,1-.22a8.15,8.15,0,0,1,1.31-.28A3.45,3.45,0,0,1,209.87,36.77Zm-1.15,7.86a1.15,1.15,0,0,1-.22.57.63.63,0,0,1-.8.2,1.52,1.52,0,0,1-.45-.38,2.59,2.59,0,0,1-.42-.62l-.46-.94c-.16-.34-.21-.54-.13-.6s.3,0,.68.07a6.09,6.09,0,0,1,1,.39,2,2,0,0,1,.58.38.8.8,0,0,1,.21.42A2.31,2.31,0,0,1,208.72,44.63Zm3.15-.69a1.3,1.3,0,0,1-.12.66.93.93,0,0,1-.37.39.77.77,0,0,1-.49.08.84.84,0,0,1-.47-.27,4.54,4.54,0,0,1-.58-.72,7.05,7.05,0,0,1-.61-1.15c-.18-.42-.23-.69-.17-.8s.31-.08.72.08.75.3,1,.43a2.64,2.64,0,0,1,.64.37,1.05,1.05,0,0,1,.33.41A1.18,1.18,0,0,1,211.87,43.94Z"/><path class="cls-1" d="M169.76,59.8a12.52,12.52,0,0,1,.17,2.2,21.6,21.6,0,0,1-1.29,7.07A15.77,15.77,0,0,1,165.27,75a7.6,7.6,0,0,1-2.08,1.62,4.43,4.43,0,0,1-2,.53,3.13,3.13,0,0,1-1.77-.54A4.64,4.64,0,0,1,158,74.93a10.84,10.84,0,0,1-1.2-5.32,12,12,0,0,1,1.63-6,12.18,12.18,0,0,1,2-2.61A12.53,12.53,0,0,1,163,59a12.07,12.07,0,0,1,3-1.24,13.17,13.17,0,0,1,3.41-.43,11.24,11.24,0,0,1,8.07,3.09,9.66,9.66,0,0,1,3.23,7.24,9.18,9.18,0,0,1-1.49,5,10,10,0,0,1-4.46,3.75A15.4,15.4,0,0,1,168,77.85a4.2,4.2,0,0,1-1.15-.14c-.32-.1-.48-.25-.48-.46s.52-.59,1.55-.8,2-.43,2.77-.67a14.86,14.86,0,0,0,2.06-.76,8.35,8.35,0,0,0,1.55-.92A9.31,9.31,0,0,0,175.57,73a11.43,11.43,0,0,0,1.64-2.38,6,6,0,0,0,.59-2.72,8.36,8.36,0,0,0-2.06-5.49A8,8,0,0,0,169.76,59.8Zm-2,0a9.06,9.06,0,0,0-5.95,3.4,11,11,0,0,0-2.15,8.49,7,7,0,0,0,.4,1.45,2.6,2.6,0,0,0,.64,1,1.29,1.29,0,0,0,.88.35,2.19,2.19,0,0,0,1.48-.69,14.71,14.71,0,0,0,2-3.09,22.39,22.39,0,0,0,1.9-5A31.69,31.69,0,0,0,167.79,59.83Z"/><path class="cls-1" d="M193.39,70c0,.37-.3.74-.91,1.12a16.69,16.69,0,0,0-5.18,4.75c-.4.49-.74.74-1,.74s-.59-.29-1-.88a3.34,3.34,0,0,1-.57-1.75,3.28,3.28,0,0,1,.83-1.92c.57-.68,1-1,1.26-1s.29.15.29.45a2.35,2.35,0,0,1-.26,1c-.23.48-.31.73-.23.76s.19,0,.34-.21a16.3,16.3,0,0,1,3.61-2.72,5.81,5.81,0,0,1,2.13-.69C193.17,69.61,193.39,69.75,193.39,70Zm1.26-15c.21,0,.42.28.63.83a2,2,0,0,0,1.06,1.17,7.09,7.09,0,0,0,2.12.55,3.76,3.76,0,0,1,1.63.43,2.36,2.36,0,0,1,.74,1,2.67,2.67,0,0,1,.4,1.13.64.64,0,0,1-.43.59,4.84,4.84,0,0,1-1.43.25,6.28,6.28,0,0,0-2.86,1.55c-1.22.93-1.83,1.63-1.83,2.09,0,.3.29.74.89,1.31.85.86,1.56,1.59,2.11,2.18s1,1.07,1.29,1.46a9.49,9.49,0,0,1,1.42,2.21,5.44,5.44,0,0,1,.5,2.16A3.8,3.8,0,0,1,199.43,77a5.24,5.24,0,0,1-3.58,1.23,7.31,7.31,0,0,1-3.09-.77,6.16,6.16,0,0,1-2.34-1.6,3.36,3.36,0,0,1-.63-1.12.62.62,0,0,1,.05-.6.68.68,0,0,1,.58-.1,2.57,2.57,0,0,1,.91.42,7.18,7.18,0,0,0,3.92,1.26,3.32,3.32,0,0,0,2.06-.59,1.84,1.84,0,0,0,.77-1.56,4.91,4.91,0,0,0-1-2.49,25.27,25.27,0,0,0-3.22-3.75,5.1,5.1,0,0,1-1.29-1.91,2.34,2.34,0,0,1,.12-1.76,5.49,5.49,0,0,1,1.45-1.79,28.11,28.11,0,0,1,2.69-2c.18-.08.26-.15.26-.22s-.1-.11-.31-.13a3.88,3.88,0,0,1-2.19-.68,1.79,1.79,0,0,1-.7-1.46,5,5,0,0,1,.23-1.6Q194.37,55.05,194.65,55.05Zm7.12,13.22A11.31,11.31,0,0,1,205,69a5.7,5.7,0,0,1,3.14,2.38,5.51,5.51,0,0,1,1,2.83c0,.8-.32,1.2-.95,1.2a2.36,2.36,0,0,1-1.46-.69,1.2,1.2,0,0,0-.7-.2,5.32,5.32,0,0,0-1.47.4,5.16,5.16,0,0,1-1.59.38c-.37,0-.56-.11-.56-.32,0-.4.51-.88,1.52-1.43a14.88,14.88,0,0,0,1.49-.86c.13-.11.2-.21.2-.28,0-.27-.33-.67-1-1.21a9.76,9.76,0,0,0-2.37-1.4c-.92-.4-1.37-.76-1.37-1.08S201.2,68.27,201.77,68.27Zm.55-6.67a7.71,7.71,0,0,1,1.77.4,3.92,3.92,0,0,1,1.83,1,2.14,2.14,0,0,1,.55,1,1.53,1.53,0,0,1-.06.83,1.22,1.22,0,0,1-.47.58,1.27,1.27,0,0,1-.68.22c-.57,0-1-.38-1.31-1.15a3.1,3.1,0,0,0-1.35-1.66c-.59-.36-.88-.66-.88-.88S201.92,61.6,202.32,61.6Zm2-3.06a9.59,9.59,0,0,1,2,.34,3.65,3.65,0,0,1,1.94,1,1.83,1.83,0,0,1,.6,1,1.39,1.39,0,0,1-.1.89,1.48,1.48,0,0,1-.56.63,1.29,1.29,0,0,1-.71.24,1.36,1.36,0,0,1-1.26-.91,4.38,4.38,0,0,0-.77-1.32,3.35,3.35,0,0,0-1.12-.74c-.49-.25-.74-.51-.74-.76S203.8,58.54,204.29,58.54Z"/><path class="cls-1" d="M244.89,61.63c.49.29.74.61.74,1s-.27.76-.83,1.22a3.21,3.21,0,0,0-.74,1.08,7.64,7.64,0,0,0-.54,1.78c-.06.26-.14.56-.25.9s-.21.67-.33,1-.23.68-.35,1-.25.58-.36.79a2.7,2.7,0,0,1-.69.88,1.2,1.2,0,0,1-.69.38.92.92,0,0,1-.94-.81.55.55,0,0,0-.39-.4,3.29,3.29,0,0,0-1.07,0c0,.73,0,1.48,0,2.25s0,1.59-.07,2.44-.11,1.83-.2,2.55a6.53,6.53,0,0,1-.35,1.57c-.38,1-.68,1.52-.91,1.51s-.45-.55-.66-1.62a14.51,14.51,0,0,1-.23-1.83,24.33,24.33,0,0,1-.06-2.46q0-.94,0-2V70.76l-.81.1-.88.1a1.71,1.71,0,0,1-.31.61,1,1,0,0,1-.57.25.72.72,0,0,1-.65-.18,2.52,2.52,0,0,1-.35-1.17c-.2-1.39-.35-2.49-.48-3.3a18.28,18.28,0,0,0-.38-2,5.8,5.8,0,0,0-.42-1.13,8.3,8.3,0,0,0-.56-.89.51.51,0,0,1-.22.49,8.18,8.18,0,0,1-.69.46,3.19,3.19,0,0,0-.42.3,4,4,0,0,0-.4.41c-.14.18-.31.39-.5.65s-.41.58-.66,1A1.23,1.23,0,0,1,228,67c.57,0,1,.09,1.42.14a4.48,4.48,0,0,1,.9.23,1.17,1.17,0,0,1,.5.37,1.58,1.58,0,0,1,.21.55,2.33,2.33,0,0,1,0,1.23.91.91,0,0,1-1.32.58,2.6,2.6,0,0,1-1-.73l-.4-.42-.31-.38c0,1.36,0,2.43,0,3.22s0,1.34.08,1.65a12.56,12.56,0,0,1,0,1.84,8,8,0,0,1-.36,1.82,2.09,2.09,0,0,1-.44.8.84.84,0,0,1-.62.29,1.14,1.14,0,0,1-.7-.29,2.46,2.46,0,0,1-.64-.89,9.58,9.58,0,0,1-.39-.93,2.45,2.45,0,0,1-.13-.73,2,2,0,0,1,.13-.68,5.64,5.64,0,0,1,.39-.78,2.73,2.73,0,0,0,.24-.54,5,5,0,0,0,.17-.86q.08-.54.12-1.38c0-.57.05-1.29.07-2.16a17.79,17.79,0,0,1-1.22,1.45,13,13,0,0,1-1.21,1.15,10.87,10.87,0,0,1-1.36.93c-.49.27-1,.55-1.62.81-1.26.56-1.93.74-2,.55s.37-.65,1.36-1.38a14.36,14.36,0,0,0,2.11-2c.67-.78,1.23-1.47,1.67-2.08s.71-1,1-1.37.52-.77.73-1.1.39-.66.55-1,.33-.63.5-1c-.53.11-1.1.25-1.7.41a15,15,0,0,0-1.84.64,5.13,5.13,0,0,1-.88.32,1.27,1.27,0,0,1-.67,0,2.08,2.08,0,0,1-.66-.34,11,11,0,0,1-.83-.75c-.38-.38-.52-.63-.42-.76s.53-.16,1.31-.13a8.68,8.68,0,0,0,1.89-.11,19.9,19.9,0,0,0,2.32-.51l.54-.18a2.48,2.48,0,0,0,.44-.2,2.2,2.2,0,0,0,.43-.27c.15-.1.31-.23.5-.38a3.38,3.38,0,0,1,.55-.39.9.9,0,0,1,.47-.13,1.13,1.13,0,0,1,.54.16,6.71,6.71,0,0,1,.73.44,5.32,5.32,0,0,1,1.18,1,.84.84,0,0,1-.1-.42c0-.12.08-.2.22-.25a1.56,1.56,0,0,1,.66,0,11.86,11.86,0,0,1,1.19.23c.7-.1,1.34-.2,1.9-.3l1.65-.33c0-1.22-.08-2.21-.13-2.95s-.1-1.33-.14-1.75a4.21,4.21,0,0,0-.18-.9,1.32,1.32,0,0,0-.24-.44c-.63-.72-.83-1.2-.61-1.43s1-.15,2.47.23a9.72,9.72,0,0,1,1.34.43,1.48,1.48,0,0,1,.68.47.74.74,0,0,1,.08.64,4.19,4.19,0,0,1-.38.92,3.2,3.2,0,0,0-.16.47,4.52,4.52,0,0,0-.12.75c0,.31-.05.71-.07,1.18s0,1.06,0,1.75a10.28,10.28,0,0,0,1-.32l.9-.34a6.43,6.43,0,0,1,.69-.26,1.75,1.75,0,0,1,.53-.08,1.77,1.77,0,0,1,.5.07,4.14,4.14,0,0,1,.6.24c.25.11.46.22.64.32l.53.28.5.29Zm-14.71-3.52a1.39,1.39,0,0,1-.11.79,1.32,1.32,0,0,1-.5.57,1.42,1.42,0,0,1-.77.22,1.71,1.71,0,0,1-.93-.32,5.71,5.71,0,0,1-1-.83c-.39-.38-.9-.93-1.53-1.66a5.27,5.27,0,0,1-.5-.64c-.11-.16-.12-.29,0-.37a.77.77,0,0,1,.5-.18,9.36,9.36,0,0,1,1.1,0,10.89,10.89,0,0,1,1.74.16,3,3,0,0,1,1.12.41,1.79,1.79,0,0,1,.64.73A3.31,3.31,0,0,1,230.18,58.11Zm5.73,5a10.83,10.83,0,0,1-1.13.2c-.36,0-.7.07-1,.08.06.37.11.74.16,1.12s.09.77.13,1.17l.73-.14c.25,0,.65-.08,1.18-.11Zm.05,3.75a7.72,7.72,0,0,1-1.13-.07,2.51,2.51,0,0,1-.67-.22c.06.53.1,1,.14,1.56s.08,1,.12,1.36c.26,0,.53-.07.78-.09s.52,0,.79-.08ZM241.11,63a.56.56,0,0,0-.17-.46.91.91,0,0,0-.6-.14c-.27,0-.56,0-.89,0s-.67.1-1.06.18v2.23a3.57,3.57,0,0,1,1-.19,1.42,1.42,0,0,1,.72.3c.32.25.48.46.46.63s-.25.36-.69.57a6.31,6.31,0,0,1-1.49.4l0,2.46,1.06-.1a2,2,0,0,1,.46,0s.09-.05.16-.14a1.37,1.37,0,0,0,.15-.38c.12-.44.22-.9.32-1.4s.18-1,.25-1.47.14-1,.18-1.39S241.09,63.29,241.11,63Z"/><path class="cls-1" d="M264.43,64.23a17.87,17.87,0,0,1-.07,1.88,2.37,2.37,0,0,1-.39,1.1,1.55,1.55,0,0,1-.51.51.78.78,0,0,1-.55.13.72.72,0,0,1-.45-.27,1.13,1.13,0,0,1-.23-.71c0-.31-.11-.45-.22-.43l-.56.11a2.81,2.81,0,0,1-.65,0c-.23,0-.62,0-1.15,0a1.07,1.07,0,0,0,.34.14l1.49.63a2.56,2.56,0,0,1,.72.42.38.38,0,0,1,.13.4,3.16,3.16,0,0,1-.28.55.85.85,0,0,0-.11.26l3.55-.39a15.55,15.55,0,0,0,1.8-.24c.61-.13,1.13-.23,1.57-.28a4.29,4.29,0,0,1,1.18,0,3.79,3.79,0,0,1,1,.27,5.11,5.11,0,0,1,.92.58,2.36,2.36,0,0,1,.81.85.83.83,0,0,1,0,.73,1,1,0,0,1-.66.42,2.75,2.75,0,0,1-1.27-.09,14.66,14.66,0,0,0-1.69-.27c-.65-.07-1.35-.11-2.1-.13s-1.54,0-2.36,0-1.64,0-2.46.09c1.22.78,2.28,1.42,3.2,1.91s1.77.91,2.56,1.25a18.71,18.71,0,0,0,2.35.81c.77.21,1.63.43,2.59.66,1.12.27,1.72.51,1.78.72s-.43.46-1.5.74-2.15.56-2.86.7a6.52,6.52,0,0,1-1.74.17,2.34,2.34,0,0,1-1.18-.35,9.76,9.76,0,0,1-1.14-.92L264.92,75c-.41-.37-.79-.73-1.15-1.08s-.71-.68-1-1l-1.08-1.11v0a9.44,9.44,0,0,0,0,1.07q0,.65.09,1.29c0,.43.08.83.11,1.2l.09.82a6,6,0,0,1,0,1.71,9.85,9.85,0,0,1-.39,1.37A1.65,1.65,0,0,1,261,80a1,1,0,0,1-.65.22,1.22,1.22,0,0,1-.68-.32,2.22,2.22,0,0,1-.55-.8,5.89,5.89,0,0,1-.28-.69,2.38,2.38,0,0,1-.1-.65,4,4,0,0,1,.1-.78c.07-.28.17-.64.31-1.06a6.42,6.42,0,0,0,.15-.71c.05-.31.09-.64.13-1s.07-.75.09-1.15,0-.78,0-1.12v-.09a14.71,14.71,0,0,1-3.8,3.58,16.52,16.52,0,0,1-5.19,2.2,8.24,8.24,0,0,1-1.28.25c-.33,0-.52,0-.56-.09s0-.23.3-.43a8,8,0,0,1,1.28-.76,22.85,22.85,0,0,0,4.1-2.61,17.15,17.15,0,0,0,3-3.08c-.78.09-1.46.19-2,.27s-1,.17-1.28.24l-1.54.42a4,4,0,0,1-1,.16,1.55,1.55,0,0,1-.73-.18,4.13,4.13,0,0,1-.83-.57c-.8-.61-1.14-1-1-1.13s.67-.19,1.66-.15l1.12-.06,2.07-.16,2.67-.23,2.95-.27c0-.53-.08-1-.13-1.3a4.27,4.27,0,0,0-.21-.87c-.21.38-.45.52-.7.42a1.41,1.41,0,0,1-.7-.68,1.82,1.82,0,0,1-.23-1c0-.41,0-1,0-1.76a11.06,11.06,0,0,0-.15-2.4,7.1,7.1,0,0,0-.43-1.66,3.81,3.81,0,0,1-.23-.62.32.32,0,0,1,.1-.35.92.92,0,0,1,.58-.08c.27,0,.67.11,1.18.22a9.49,9.49,0,0,0,1-2.3,2.78,2.78,0,0,0,0-1.36c-.15-.46-.12-.75.09-.88s.7,0,1.49.28a12.79,12.79,0,0,1,1.29.58A1.17,1.17,0,0,1,263,56a.38.38,0,0,1-.13.43,4.63,4.63,0,0,1-.64.5,6.91,6.91,0,0,0-1,.86A15.33,15.33,0,0,0,260,59.06a6.4,6.4,0,0,0,1.66-.66c.25-.14.46-.24.63-.32a1.59,1.59,0,0,1,.47-.13.9.9,0,0,1,.46.12c.16.09.38.21.65.39.45.3.8.54,1,.71a1.79,1.79,0,0,1,.44.44.32.32,0,0,1,0,.36,3.34,3.34,0,0,1-.37.46l-.2.33a2.76,2.76,0,0,0-.2.63,7.74,7.74,0,0,0-.13,1.1C264.42,63,264.41,63.53,264.43,64.23Zm-11.3,3.84a4.3,4.3,0,0,1-.43.37.79.79,0,0,1-.44.16,1.22,1.22,0,0,1-.59-.15,4.77,4.77,0,0,1-.83-.5,11.4,11.4,0,0,1-1.06-.83q-.34-.32-.36-.48c0-.12.09-.2.3-.26a5.76,5.76,0,0,1,.89-.14,4.2,4.2,0,0,0,.79-.13c.26-.07.57-.18,1-.33s.86-.36,1.45-.63l2.32-1.06a4.85,4.85,0,0,1,.8-.28c.23-.06.38-.07.45,0s0,.16-.1.33a5.43,5.43,0,0,1-.78.72c-.4.32-.75.62-1.05.88s-.59.53-.85.79l-.74.76C253.62,67.51,253.38,67.78,253.13,68.07Zm1.06-5.95a4.69,4.69,0,0,1-1.12-1c-.32-.41-.65-.8-1-1.19s-.43-.64-.32-.8.54-.22,1.26-.2a7.94,7.94,0,0,1,1.59.18,2.35,2.35,0,0,1,1,.42,1.55,1.55,0,0,1,.5.7,3.59,3.59,0,0,1,.18,1c0,.71-.14,1.14-.52,1.29A1.84,1.84,0,0,1,254.19,62.12Zm7.21-.2a.9.9,0,0,1,.44.2.57.57,0,0,1,.19.31.37.37,0,0,1-.12.33.84.84,0,0,1-.46.24,6.52,6.52,0,0,1-1.05.19l-.92.07a19.17,19.17,0,0,1,0,2.15,7.25,7.25,0,0,1,.86-.25,5.62,5.62,0,0,1,.58-.08,1.12,1.12,0,0,1,.39,0,1.23,1.23,0,0,1,.29.13q.48.32.51.21a2.65,2.65,0,0,0,.06-.41c.06-.77.09-1.51.11-2.24s0-1.48,0-2.29c0-.32-.07-.51-.21-.58a1.8,1.8,0,0,0-.94.07,5.35,5.35,0,0,1-.7.07,7.81,7.81,0,0,0-1,.13c0,.27,0,.57.05.92s0,.7,0,1.08a9,9,0,0,1,1.19-.28A2.23,2.23,0,0,1,261.4,61.92Zm7.23-.46c-.24.15-.63.35-1.15.6a14.12,14.12,0,0,1-1.45.6c-.93.33-1.43.44-1.49.34s.28-.47,1-1.14a9.05,9.05,0,0,0,1.7-1.82,2.68,2.68,0,0,0,.44-1.36c0-.53.1-.83.29-.9s.66.12,1.43.56a5.18,5.18,0,0,1,1.84,1.45q.24.49-.84.81a5.63,5.63,0,0,0-.93.36A8.53,8.53,0,0,0,268.63,61.46Zm.38,5.81a8.18,8.18,0,0,1-1.85-1.12,21.86,21.86,0,0,1-1.64-1.54c-.48-.5-.7-.81-.65-1s.53-.16,1.45-.08a13.32,13.32,0,0,1,2.07.3,3.38,3.38,0,0,1,1.23.5,1.9,1.9,0,0,1,.66.78,5.19,5.19,0,0,1,.33,1.16,1,1,0,0,1-.27,1.05C270.06,67.57,269.62,67.53,269,67.27Z"/><path class="cls-1" d="M285.6,64.35c.53.19.76.43.67.73s-.47.6-1.16.93c-.38.17-.72.31-1,.43l-.94.34-.06,3.63a12,12,0,0,1,2.35-1q.76-.2.9,0c.09.14,0,.37-.32.7a6,6,0,0,1-1.27,1c-.74.47-1.39.9-1.93,1.29s-1,.73-1.42,1-.73.63-1,.91a5.61,5.61,0,0,0-.7.81,1.52,1.52,0,0,1-.42.42.67.67,0,0,1-.51,0,2.32,2.32,0,0,1-.75-.37,11.09,11.09,0,0,1-1.1-.9,7.42,7.42,0,0,1-.81-.82c-.17-.2-.23-.35-.19-.47s.18-.2.43-.27a8.12,8.12,0,0,1,1-.19,8,8,0,0,0,1.32-.31,20.5,20.5,0,0,0,2.11-.8l-.05-4a7.11,7.11,0,0,1-1.36.29,2.76,2.76,0,0,1-1.3-.23c-.67-.25-1-.47-1-.68s.3-.38,1-.49c.49-.1,1-.21,1.39-.33s.86-.27,1.3-.44c0-1.42,0-2.56,0-3.44s-.08-1.57-.15-2.1a4.37,4.37,0,0,0-.26-1.17,2,2,0,0,0-.41-.65c-.73-.8-1-1.33-.69-1.6s1-.24,2.12.09a10,10,0,0,1,1.77.61,2.12,2.12,0,0,1,.82.62.71.71,0,0,1,.11.64,2.57,2.57,0,0,1-.33.7,2.59,2.59,0,0,0-.22.57,5.61,5.61,0,0,0-.15.88c0,.37-.06.85-.08,1.44s0,1.36,0,2.29a4.42,4.42,0,0,1,1.24-.31A2.88,2.88,0,0,1,285.6,64.35Zm16.59,12.56c-1.2.28-2.17.48-2.9.6a6.15,6.15,0,0,1-1.77.07,2.06,2.06,0,0,1-1.09-.47,6,6,0,0,1-.87-1c-.31-.42-.59-.8-.83-1.15s-.51-.67-.78-1a6,6,0,0,1-2.11,1.66,9.33,9.33,0,0,1-3.46.77c-2,.14-2-.24,0-1.11.64-.29,1.19-.56,1.64-.82a7.91,7.91,0,0,0,1.15-.78,6.13,6.13,0,0,0,.8-.82,10.45,10.45,0,0,0,.61-.87l-.28-.47L292,71a9.22,9.22,0,0,0-1.43-2,3.88,3.88,0,0,0-1.2-.83,18.7,18.7,0,0,1-.79,3.1,11.77,11.77,0,0,1-1.27,2.59,10.74,10.74,0,0,1-1.86,2.13,14,14,0,0,1-2.52,1.74c-.72.38-1.12.48-1.2.31s.19-.57.8-1.2a21.68,21.68,0,0,0,1.87-2.23,11.93,11.93,0,0,0,1.39-2.48,16.89,16.89,0,0,0,.93-3,26.3,26.3,0,0,0,.5-3.88,18.47,18.47,0,0,0,.05-2.91,3.24,3.24,0,0,0-.42-1.44,2.13,2.13,0,0,1-.4-.83.45.45,0,0,1,.21-.5,1.76,1.76,0,0,1,1-.08,11.12,11.12,0,0,1,1.86.41c.52-.24,1-.5,1.48-.76a11.59,11.59,0,0,0,1.24-.77,5.91,5.91,0,0,0,.89-.74,1.38,1.38,0,0,0,.4-.67c.13-.71.4-1.1.8-1.18s1.11.24,2.12,1a6.85,6.85,0,0,1,1.13.94,1.41,1.41,0,0,1,.38.67.4.4,0,0,1-.21.42,2,2,0,0,1-.68.2c-.51.08-.94.15-1.3.23a6.64,6.64,0,0,0-1,.28l-2.26.83c-.79.29-1.63.59-2.55.89,0,.48,0,1-.07,1.56s-.09,1.33-.19,2.3a13.22,13.22,0,0,0,2.41-.64,5.56,5.56,0,0,0,1.65-1A1.92,1.92,0,0,1,294.8,63a3.31,3.31,0,0,1,1.59.53c1,.53,1.54,1,1.64,1.29s-.07.65-.53,1a2.42,2.42,0,0,0-.63.82,5.08,5.08,0,0,0-.48,1.38c-.21,1-.42,1.81-.62,2.44a13.25,13.25,0,0,1-.59,1.57,11.62,11.62,0,0,0,2.94,2.1,19.88,19.88,0,0,0,3.59,1.39c1,.31,1.57.58,1.61.81S303,76.72,302.19,76.91Zm-8-10.62c0-.32,0-.53-.13-.61a.51.51,0,0,0-.5,0,16.69,16.69,0,0,1-2.34.62,6.55,6.55,0,0,1-1.63.09c0,.13,0,.26-.05.37s0,.24,0,.37c.42,0,.77,0,1.06,0a2.18,2.18,0,0,1,.76.18,1.52,1.52,0,0,1,.58.44c.18.2.38.45.61.76l.5.7.55.79a8.1,8.1,0,0,0,.37-1.54C294,67.87,294.11,67.15,294.18,66.29Z"/><path class="cls-1" d="M326.05,57.65c.63.27.89.59.76,1s-.7.69-1.73.93a13.31,13.31,0,0,1-1.36.27c-.62.11-1.28.21-2,.3l-2.07.28-1.65.18c-.85.1-1.56.16-2.13.2a12.13,12.13,0,0,1-1.44,0l-.12.09c-.28,1.73-.61,3.37-1,4.9a22.64,22.64,0,0,1-1.19,3.71q-.69,1.52-1.32,2.73a20.3,20.3,0,0,1-1.31,2.2A13.12,13.12,0,0,1,308,76.21a10.45,10.45,0,0,1-1.83,1.41c-1.09.69-1.72,1-1.89.89s.17-.69,1-1.77a25.33,25.33,0,0,0,1.56-2.22A27.15,27.15,0,0,0,308.3,72a28.45,28.45,0,0,0,1.15-2.78,24.94,24.94,0,0,0,.81-2.86A29.48,29.48,0,0,0,311,62.2a3.65,3.65,0,0,0-.21-1.94,3.17,3.17,0,0,1-.42-.95.4.4,0,0,1,.24-.5,2.36,2.36,0,0,1,1.13,0,13.83,13.83,0,0,1,2.28.66c.59-.06,1.25-.15,2-.26s1.45-.25,2.16-.39,1.41-.3,2.06-.47a14.57,14.57,0,0,0,1.71-.54,7.28,7.28,0,0,1,2.26-.53A4.25,4.25,0,0,1,326.05,57.65Zm.72,15.45a5.23,5.23,0,0,0-2,2.38c.76.57,1.1,1.07,1,1.5s-.68.63-1.79.61l-1.24,0-1.82,0-2.13.07-2.19.1a1.84,1.84,0,0,1-.83,1.21.47.47,0,0,1-.4,0,1.45,1.45,0,0,1-.51-.36,2.19,2.19,0,0,1-.46-.68,3,3,0,0,1-.26-1c-.06-.52-.12-1-.2-1.51s-.17-.93-.27-1.34-.22-.77-.34-1.09a3.7,3.7,0,0,0-.39-.73c-.57-.72-.74-1.19-.52-1.41s1-.16,2.35.18c.44,0,.86,0,1.26,0l1.2-.1c.06-1.49.1-2.72.11-3.69s0-1.76,0-2.36a11.21,11.21,0,0,0-.14-1.39,1.9,1.9,0,0,0-.3-.74c-.61-.86-.79-1.39-.52-1.59s1-.13,2.29.21a6.58,6.58,0,0,1,1.27.48,1.75,1.75,0,0,1,.62.5.65.65,0,0,1,.1.54,2.71,2.71,0,0,1-.27.63,2.14,2.14,0,0,0-.22.7c0,.3-.09.66-.13,1.1a12.76,12.76,0,0,0,2.26-.68,7.7,7.7,0,0,1,1.54-.46,2.79,2.79,0,0,1,1.64.23c.59.25.86.53.82.86s-.4.6-1.05.83a13.41,13.41,0,0,1-2.59.61,12.44,12.44,0,0,1-2.73.07l-.23,3.84q1-.18,1.83-.36a4.94,4.94,0,0,0,1.23-.42,5.17,5.17,0,0,1,.57-.21,1.4,1.4,0,0,1,.58,0,3.25,3.25,0,0,1,.73.26c.27.14.63.34,1.07.6s1,.64,1.29.88a1.51,1.51,0,0,1,.55.64.56.56,0,0,1-.1.56A2.52,2.52,0,0,1,326.77,73.1Zm-5.78-17a2.6,2.6,0,0,1,0,1.19,1.39,1.39,0,0,1-.44.74,1.15,1.15,0,0,1-.73.25,1.59,1.59,0,0,1-.89-.32,9.42,9.42,0,0,1-1-.86c-.41-.38-.84-.82-1.28-1.31s-.74-1-.61-1.18.6-.24,1.44-.2a15.82,15.82,0,0,1,1.66.13,3.87,3.87,0,0,1,1.06.3,1.48,1.48,0,0,1,.59.5A2.41,2.41,0,0,1,321,56.08Zm1.8,16.62a.72.72,0,0,0-.08-.57,1.46,1.46,0,0,0-.78-.17l-.84,0c-.39,0-.85.06-1.39.11l-1.7.19-1.76.21a15.63,15.63,0,0,1,.27,1.71c.07.58.13,1.23.19,2,.91,0,1.83-.12,2.74-.25s1.8-.26,2.64-.41a8,8,0,0,0,.45-1.36A12.86,12.86,0,0,0,322.79,72.7Z"/></g></g></svg>