<svg xmlns="http://www.w3.org/2000/svg" viewBox="0 0 114.86 114.86"><defs><style>.cls-1{fill:#fff;}</style></defs><g id="レイヤー_2" data-name="レイヤー 2"><g id="レイヤー_1-2" data-name="レイヤー 1"><rect class="cls-1" x="7.17" y="99.19" width="7.83" height="15.66" rx="1.42"/><polygon class="cls-1" points="114.86 102.46 0 105.07 0 106.37 114.86 106.37 114.86 102.46"/><polygon class="cls-1" points="114.86 111.59 0 108.98 0 107.68 114.86 107.68 114.86 111.59"/><path class="cls-1" d="M7.18,54.17A50.25,50.25,0,1,1,84.41,96.53h6.75A54.16,54.16,0,1,0,3.26,54.17,53.8,53.8,0,0,0,23.69,96.53h6.76A50,50,0,0,1,7.18,54.17Z"/><path class="cls-1" d="M41.2,74h.7v3.6c0,1.44-.7,1.87-1.63,1.87a2.36,2.36,0,0,1-.75-.12l.11-.57a1.78,1.78,0,0,0,.58.1c.62,0,1-.28,1-1.33Z"/><path class="cls-1" d="M47.45,77.72l-.56,1.7h-.72L48,74h.84l1.84,5.39h-.74l-.58-1.7Zm1.77-.54-.53-1.55c-.12-.35-.2-.68-.28-1h0c-.08.32-.16.65-.27,1l-.53,1.56Z"/><path class="cls-1" d="M55,74.09a8.71,8.71,0,0,1,1.33-.1,2.2,2.2,0,0,1,1.51.45,1.41,1.41,0,0,1,.47,1.12,1.58,1.58,0,0,1-.41,1.15,2.21,2.21,0,0,1-1.65.6,2.38,2.38,0,0,1-.56,0v2.16H55Zm.69,2.6a2.35,2.35,0,0,0,.58.06c.84,0,1.35-.41,1.35-1.16s-.51-1-1.27-1a2.47,2.47,0,0,0-.66.06Z"/><path class="cls-1" d="M63.64,77.72l-.56,1.7h-.72L64.2,74H65l1.84,5.39h-.74l-.58-1.7Zm1.77-.54-.53-1.55c-.12-.35-.2-.68-.28-1h0c-.08.32-.17.65-.28,1l-.52,1.56Z"/><path class="cls-1" d="M71.19,79.42V74H72l1.73,2.72a15.81,15.81,0,0,1,1,1.76h0a22.13,22.13,0,0,1-.08-2.22V74h.65v5.39h-.7l-1.71-2.74a15.61,15.61,0,0,1-1-1.8h0c0,.68,0,1.33,0,2.22v2.31Z"/><path class="cls-1" d="M42.52,25.28a19.91,19.91,0,0,1-.15,2.79c.4.44,1.48,1.71,1.74,2l-.56.59A20.46,20.46,0,0,0,42.2,28.9a7,7,0,0,1-1.76,3.38,2.21,2.21,0,0,0-.56-.54c1.72-1.83,1.91-4.18,1.91-6.46V21.11c.56.05.77.05,1,.06,0,.08-.07.14-.23.15ZM39.9,26.53a5.51,5.51,0,0,0,.73-2.94l.59.09a5.85,5.85,0,0,1-.78,3.14Zm4.53-3a.27.27,0,0,1-.24.1,20.53,20.53,0,0,1-1,2.32l-.5-.26a17.45,17.45,0,0,0,.92-2.52Zm4.27,7.59c0,.28,0,.33.37.33h1c.29,0,.35-.17.39-1.37a2.28,2.28,0,0,0,.67.3c-.07,1.4-.28,1.75-1,1.75H49c-.85,0-1-.21-1-1V28.34H46.67c0,.07-.09.12-.23.13-.16,1.89-.6,3.13-2.69,3.81a1.72,1.72,0,0,0-.45-.59c1.85-.57,2.27-1.59,2.39-3.35H43.88v-.71h1.47V26.05H43.88v-.72h1.47v-1.5l1,.07c0,.08-.07.14-.22.16v1.27h2.71v-1.5l1,.07c0,.08-.07.14-.23.16v1.27h1.49v.72H49.56v1.58h1.51v.71H48.93c0,.07-.09.12-.23.13Zm-1.64-6.56V23.1H44.35v-.7h2.71V21.11l1,.06c0,.08-.07.14-.24.17V22.4h2.79v.7H47.82v1.46Zm-1,1.49v1.58h2.71V26.05Z"/><path class="cls-1" d="M62.25,25.4a18.52,18.52,0,0,1-3.63.75,4.57,4.57,0,0,0,2,1.88l-.48.68a5.8,5.8,0,0,1-.69-.36A5.28,5.28,0,0,0,58,28.17c-.17,0-.33,0-.49,0l-.17-.66a7.41,7.41,0,0,1,1.35.05,6,6,0,0,1-1-1.36,31.4,31.4,0,0,1-3.22.12H52.75v-.76l1.83,0c1,0,2,0,2.93-.09-.13-.37-.33-1.05-.47-1.59-.48.05-1,.07-1.51.07-.65,0-1.48,0-2,0v-.75c.72,0,1.51,0,2,0s.92,0,1.38-.06c-.11-.55-.23-1.21-.33-1.89l1.24,0c0,.14-.11.23-.33.26.07.52.16,1.07.25,1.54a12.61,12.61,0,0,0,3.22-.7l.2.74a14,14,0,0,1-3.26.69,13.87,13.87,0,0,0,.46,1.57,17.33,17.33,0,0,0,3.74-.79Zm-2.11,6.35c-.66.05-1.46.07-2.64.07-2,0-3.46-.64-3.43-2a2.53,2.53,0,0,1,1.41-1.9l.54.56c-.69.37-1.1.87-1.1,1.33,0,.85,1,1.22,2.58,1.23.9,0,1.84-.05,2.66-.11Z"/><path class="cls-1" d="M66,29.59a5.7,5.7,0,0,1-1.34,2.59L64,31.77a5.07,5.07,0,0,0,1.31-2.42Zm9-2.24H66.43v.9H74l.18,0,.44.08a1.29,1.29,0,0,1,0,.24c-.16,2.24-.33,3.09-.64,3.4s-.53.31-1.14.31l-1.08,0a1.78,1.78,0,0,0-.21-.69c.59.06,1.17.06,1.37.06s.32,0,.42-.1.36-.9.49-2.62H65.63V22.09h3a8.43,8.43,0,0,0,.44-1l1,.23c0,.07-.1.12-.24.12-.1.2-.25.45-.4.69h3.81v3.77H66.43v.86H75Zm-2.51-4.63h-6v.93h6Zm-6,2.52h6v-1h-6Zm.8,6.6A7.93,7.93,0,0,0,67,29.67l.68-.11A8,8,0,0,1,68,31.72Zm2.3-.28a7.52,7.52,0,0,0-.6-1.95l.64-.15a7.93,7.93,0,0,1,.65,1.9Zm1.91-2.34a7.41,7.41,0,0,1,1,1.54l-.61.28a6.76,6.76,0,0,0-.92-1.58Z"/><path class="cls-1" d="M30.32,44.2a14.72,14.72,0,0,1,10.34-4.28,12.48,12.48,0,0,1,7.92,2.63,14.22,14.22,0,0,1,5.14,11A9,9,0,0,1,50,61.41c-2.54,1.81-6.66,3-12.71,3.24-.23,0-.32-.1-.32-.19s.06-.22.25-.25a21,21,0,0,0,8.69-3.94,10,10,0,0,0,3.55-8.05,12.39,12.39,0,0,0-3.17-8.5,8,8,0,0,0-5.8-2.53c-.32,0-.64,0-1,.06a7,7,0,0,1,1.26,1.49,4.79,4.79,0,0,1,.8,2.85,17.25,17.25,0,0,1-.35,2.73,27.09,27.09,0,0,1-4.6,10.78c-1.65,2-3.55,3.17-5.23,3.17A2.66,2.66,0,0,1,28.48,60a10.77,10.77,0,0,0-1-2.31c-.92-1.5-1.81-2.6-1.81-4.35C25.69,49.9,27.66,46.73,30.32,44.2ZM29.37,57a2,2,0,0,0,1.84,1c1,0,2.18-.76,3.39-2.28A26.4,26.4,0,0,0,39.13,46a12.47,12.47,0,0,0,.35-2.26,4.51,4.51,0,0,0-.25-1.52,6.11,6.11,0,0,0-.44-.85,11.51,11.51,0,0,0-6.31,4.24,14.81,14.81,0,0,0-3.68,9.07A4,4,0,0,0,29.37,57Z"/><path class="cls-1" d="M68.31,53.71a4.81,4.81,0,0,1-1.3-3,4.55,4.55,0,0,1,1.08-2.85,32.21,32.21,0,0,1,2.28-2.57,6.5,6.5,0,0,1-2.57-1.9,5.22,5.22,0,0,1-1-2.29,9.94,9.94,0,0,1-.1-1,5.53,5.53,0,0,1,.07-.7c0-.19.12-.29.25-.29s.16.07.22.23a4.22,4.22,0,0,0,.7,1.2,3.81,3.81,0,0,0,1.43,1,9.44,9.44,0,0,0,3.39.7,3.48,3.48,0,0,1,2.31.86,2.72,2.72,0,0,1,1.18,2.19,1.34,1.34,0,0,1-.38,1,2.29,2.29,0,0,1-1.65.41,7,7,0,0,0-2.63.19A8.32,8.32,0,0,0,69,48.45a2.19,2.19,0,0,0-.82,1.36c0,.76.51,1.36,1.39,2.12.48.42,1,.77,1.49,1.15a11.81,11.81,0,0,1,5.14-1.18,11,11,0,0,1,4.35,1,11.73,11.73,0,0,1,3.93,2.86,5.82,5.82,0,0,1,1.65,3.61,1.88,1.88,0,0,1-.57,1.56,2.18,2.18,0,0,1-1.46.53A2.71,2.71,0,0,1,82.51,61a3.22,3.22,0,0,1-.89-1.2c-.31-.73-.53-1.49-.88-2.19a9.41,9.41,0,0,0-2.35-3.11,5.51,5.51,0,0,0-3.65-1.33,5.15,5.15,0,0,0-2.56.67,20.18,20.18,0,0,1,2.18,1.62c1.53,1.3,2.22,2.53,2.22,4a4,4,0,0,1-1.52,3.05,4.47,4.47,0,0,1-2.79.92,18.52,18.52,0,0,1-3.87-.92c-1.2-.32-2.6-.67-4.15-1.15-.13.2-.29.35-.41.51a14.48,14.48,0,0,1-1.72,2,2.61,2.61,0,0,1-1.74.57,5.57,5.57,0,0,1-2.31-.38,1.93,1.93,0,0,1-1.3-1.81c0-.85.47-1.55,1.71-1.74.76-.13,1.46-.16,1.74-.19a6.73,6.73,0,0,0,2.86-1.52c1.07-.86,1.93-1.68,3-2.51.89-.66,1.81-1.39,2.76-2C68.66,54.12,68.5,53.93,68.31,53.71Zm-1,4c-1,1-1.8,2.18-2.53,3.07a26.82,26.82,0,0,0,3.52.16,9.47,9.47,0,0,0,3-.35,1.73,1.73,0,0,0,1.27-1.52,3.93,3.93,0,0,0-1.18-2.38,11.61,11.61,0,0,0-1.49-1.39A19,19,0,0,0,67.29,57.71ZM81.88,45.4a2.15,2.15,0,0,1,1.2,1.78,1.35,1.35,0,0,1-1.23,1.43c-.45,0-.83-.2-1.21-.86a6.75,6.75,0,0,0-2.5-2.7c-.16-.06-.23-.15-.23-.25s.1-.19.32-.19A7,7,0,0,1,81.88,45.4Zm0-3a6.17,6.17,0,0,1,2.7.51,2.11,2.11,0,0,1,1.33,1.8A1.22,1.22,0,0,1,84.83,46c-.42,0-.73-.13-1.24-.86A6.36,6.36,0,0,0,81,42.83c-.16-.06-.22-.15-.22-.25s.09-.16.28-.19S81.62,42.36,81.91,42.36Z"/></g></g></svg>