<svg xmlns="http://www.w3.org/2000/svg" viewBox="0 0 394.36 114.86"><defs><style>.cls-1{fill:#231815;}.cls-2{fill:none;}</style></defs><g id="レイヤー_2" data-name="レイヤー 2"><g id="レイヤー_1-2" data-name="レイヤー 1"><rect class="cls-1" x="7.17" y="99.19" width="7.83" height="15.66" rx="1.42"/><polygon class="cls-1" points="114.86 102.46 0 105.07 0 106.37 114.86 106.37 114.86 102.46"/><polygon class="cls-1" points="114.86 111.59 0 108.98 0 107.68 114.86 107.68 114.86 111.59"/><path d="M7.18,54.17A50.25,50.25,0,1,1,84.41,96.53h6.75A54.16,54.16,0,1,0,3.26,54.17,53.8,53.8,0,0,0,23.69,96.53h6.76A50,50,0,0,1,7.18,54.17Z"/><path class="cls-1" d="M41.2,74h.7v3.6c0,1.44-.7,1.87-1.63,1.87a2.36,2.36,0,0,1-.75-.12l.11-.57a1.78,1.78,0,0,0,.58.1c.62,0,1-.28,1-1.33Z"/><path class="cls-1" d="M47.45,77.72l-.56,1.7h-.72L48,74h.84l1.84,5.39h-.74l-.58-1.7Zm1.77-.54-.53-1.55c-.12-.35-.2-.68-.28-1h0c-.08.32-.16.65-.27,1l-.53,1.56Z"/><path class="cls-1" d="M55,74.09a8.71,8.71,0,0,1,1.33-.1,2.2,2.2,0,0,1,1.51.45,1.41,1.41,0,0,1,.47,1.12,1.58,1.58,0,0,1-.41,1.15,2.21,2.21,0,0,1-1.65.6,2.38,2.38,0,0,1-.56,0v2.16H55Zm.69,2.6a2.35,2.35,0,0,0,.58.06c.84,0,1.35-.41,1.35-1.16s-.51-1-1.27-1a2.47,2.47,0,0,0-.66.06Z"/><path class="cls-1" d="M63.64,77.72l-.56,1.7h-.72L64.2,74H65l1.84,5.39h-.74l-.58-1.7Zm1.77-.54-.53-1.55c-.12-.35-.2-.68-.28-1h0c-.08.32-.17.65-.28,1l-.52,1.56Z"/><path class="cls-1" d="M71.19,79.42V74H72l1.73,2.72a15.81,15.81,0,0,1,1,1.76h0a22.13,22.13,0,0,1-.08-2.22V74h.65v5.39h-.7l-1.71-2.74a15.61,15.61,0,0,1-1-1.8h0c0,.68,0,1.33,0,2.22v2.31Z"/><path class="cls-1" d="M42.52,25.28a19.91,19.91,0,0,1-.15,2.79c.4.44,1.48,1.71,1.74,2l-.56.59A20.46,20.46,0,0,0,42.2,28.9a7,7,0,0,1-1.76,3.38,2.21,2.21,0,0,0-.56-.54c1.72-1.83,1.91-4.18,1.91-6.46V21.11c.56.05.77.05,1,.06,0,.08-.07.14-.23.15ZM39.9,26.53a5.51,5.51,0,0,0,.73-2.94l.59.09a5.85,5.85,0,0,1-.78,3.14Zm4.53-3a.27.27,0,0,1-.24.1,20.53,20.53,0,0,1-1,2.32l-.5-.26a17.45,17.45,0,0,0,.92-2.52Zm4.27,7.59c0,.28,0,.33.37.33h1c.29,0,.35-.17.39-1.37a2.28,2.28,0,0,0,.67.3c-.07,1.4-.28,1.75-1,1.75H49c-.85,0-1-.21-1-1V28.34H46.67c0,.07-.09.12-.23.13-.16,1.89-.6,3.13-2.69,3.81a1.72,1.72,0,0,0-.45-.59c1.85-.57,2.27-1.59,2.39-3.35H43.88v-.71h1.47V26.05H43.88v-.72h1.47v-1.5l1,.07c0,.08-.07.14-.22.16v1.27h2.71v-1.5l1,.07c0,.08-.07.14-.23.16v1.27h1.49v.72H49.56v1.58h1.51v.71H48.93c0,.07-.09.12-.23.13Zm-1.64-6.56V23.1H44.35v-.7h2.71V21.11l1,.06c0,.08-.07.14-.24.17V22.4h2.79v.7H47.82v1.46Zm-1,1.49v1.58h2.71V26.05Z"/><path class="cls-1" d="M62.25,25.4a18.52,18.52,0,0,1-3.63.75,4.57,4.57,0,0,0,2,1.88l-.48.68a5.8,5.8,0,0,1-.69-.36A5.28,5.28,0,0,0,58,28.17c-.17,0-.33,0-.49,0l-.17-.66a7.41,7.41,0,0,1,1.35.05,6,6,0,0,1-1-1.36,31.4,31.4,0,0,1-3.22.12H52.75v-.76l1.83,0c1,0,2,0,2.93-.09-.13-.37-.33-1.05-.47-1.59-.48.05-1,.07-1.51.07-.65,0-1.48,0-2,0v-.75c.72,0,1.51,0,2,0s.92,0,1.38-.06c-.11-.55-.23-1.21-.33-1.89l1.24,0c0,.14-.11.23-.33.26.07.52.16,1.07.25,1.54a12.61,12.61,0,0,0,3.22-.7l.2.74a14,14,0,0,1-3.26.69,13.87,13.87,0,0,0,.46,1.57,17.33,17.33,0,0,0,3.74-.79Zm-2.11,6.35c-.66.05-1.46.07-2.64.07-2,0-3.46-.64-3.43-2a2.53,2.53,0,0,1,1.41-1.9l.54.56c-.69.37-1.1.87-1.1,1.33,0,.85,1,1.22,2.58,1.23.9,0,1.84-.05,2.66-.11Z"/><path class="cls-1" d="M66,29.59a5.7,5.7,0,0,1-1.34,2.59L64,31.77a5.07,5.07,0,0,0,1.31-2.42Zm9-2.24H66.43v.9H74l.18,0,.44.08a1.29,1.29,0,0,1,0,.24c-.16,2.24-.33,3.09-.64,3.4s-.53.31-1.14.31l-1.08,0a1.78,1.78,0,0,0-.21-.69c.59.06,1.17.06,1.37.06s.32,0,.42-.1.36-.9.49-2.62H65.63V22.09h3a8.43,8.43,0,0,0,.44-1l1,.23c0,.07-.1.12-.24.12-.1.2-.25.45-.4.69h3.81v3.77H66.43v.86H75Zm-2.51-4.63h-6v.93h6Zm-6,2.52h6v-1h-6Zm.8,6.6A7.93,7.93,0,0,0,67,29.67l.68-.11A8,8,0,0,1,68,31.72Zm2.3-.28a7.52,7.52,0,0,0-.6-1.95l.64-.15a7.93,7.93,0,0,1,.65,1.9Zm1.91-2.34a7.41,7.41,0,0,1,1,1.54l-.61.28a6.76,6.76,0,0,0-.92-1.58Z"/><path class="cls-1" d="M30.32,44.2a14.72,14.72,0,0,1,10.34-4.28,12.48,12.48,0,0,1,7.92,2.63,14.22,14.22,0,0,1,5.14,11A9,9,0,0,1,50,61.41c-2.54,1.81-6.66,3-12.71,3.24-.23,0-.32-.1-.32-.19s.06-.22.25-.25a21,21,0,0,0,8.69-3.94,10,10,0,0,0,3.55-8.05,12.39,12.39,0,0,0-3.17-8.5,8,8,0,0,0-5.8-2.53c-.32,0-.64,0-1,.06a7,7,0,0,1,1.26,1.49,4.79,4.79,0,0,1,.8,2.85,17.25,17.25,0,0,1-.35,2.73,27.09,27.09,0,0,1-4.6,10.78c-1.65,2-3.55,3.17-5.23,3.17A2.66,2.66,0,0,1,28.48,60a10.77,10.77,0,0,0-1-2.31c-.92-1.5-1.81-2.6-1.81-4.35C25.69,49.9,27.66,46.73,30.32,44.2ZM29.37,57a2,2,0,0,0,1.84,1c1,0,2.18-.76,3.39-2.28A26.4,26.4,0,0,0,39.13,46a12.47,12.47,0,0,0,.35-2.26,4.51,4.51,0,0,0-.25-1.52,6.11,6.11,0,0,0-.44-.85,11.51,11.51,0,0,0-6.31,4.24,14.81,14.81,0,0,0-3.68,9.07A4,4,0,0,0,29.37,57Z"/><path class="cls-1" d="M68.31,53.71a4.81,4.81,0,0,1-1.3-3,4.55,4.55,0,0,1,1.08-2.85,32.21,32.21,0,0,1,2.28-2.57,6.5,6.5,0,0,1-2.57-1.9,5.22,5.22,0,0,1-1-2.29,9.94,9.94,0,0,1-.1-1,5.53,5.53,0,0,1,.07-.7c0-.19.12-.29.25-.29s.16.07.22.23a4.22,4.22,0,0,0,.7,1.2,3.81,3.81,0,0,0,1.43,1,9.44,9.44,0,0,0,3.39.7,3.48,3.48,0,0,1,2.31.86,2.72,2.72,0,0,1,1.18,2.19,1.34,1.34,0,0,1-.38,1,2.29,2.29,0,0,1-1.65.41,7,7,0,0,0-2.63.19A8.32,8.32,0,0,0,69,48.45a2.19,2.19,0,0,0-.82,1.36c0,.76.51,1.36,1.39,2.12.48.42,1,.77,1.49,1.15a11.81,11.81,0,0,1,5.14-1.18,11,11,0,0,1,4.35,1,11.73,11.73,0,0,1,3.93,2.86,5.82,5.82,0,0,1,1.65,3.61,1.88,1.88,0,0,1-.57,1.56,2.18,2.18,0,0,1-1.46.53A2.71,2.71,0,0,1,82.51,61a3.22,3.22,0,0,1-.89-1.2c-.31-.73-.53-1.49-.88-2.19a9.41,9.41,0,0,0-2.35-3.11,5.51,5.51,0,0,0-3.65-1.33,5.15,5.15,0,0,0-2.56.67,20.18,20.18,0,0,1,2.18,1.62c1.53,1.3,2.22,2.53,2.22,4a4,4,0,0,1-1.52,3.05,4.47,4.47,0,0,1-2.79.92,18.52,18.52,0,0,1-3.87-.92c-1.2-.32-2.6-.67-4.15-1.15-.13.2-.29.35-.41.51a14.48,14.48,0,0,1-1.72,2,2.61,2.61,0,0,1-1.74.57,5.57,5.57,0,0,1-2.31-.38,1.93,1.93,0,0,1-1.3-1.81c0-.85.47-1.55,1.71-1.74.76-.13,1.46-.16,1.74-.19a6.73,6.73,0,0,0,2.86-1.52c1.07-.86,1.93-1.68,3-2.51.89-.66,1.81-1.39,2.76-2C68.66,54.12,68.5,53.93,68.31,53.71Zm-1,4c-1,1-1.8,2.18-2.53,3.07a26.82,26.82,0,0,0,3.52.16,9.47,9.47,0,0,0,3-.35,1.73,1.73,0,0,0,1.27-1.52,3.93,3.93,0,0,0-1.18-2.38,11.61,11.61,0,0,0-1.49-1.39A19,19,0,0,0,67.29,57.71ZM81.88,45.4a2.15,2.15,0,0,1,1.2,1.78,1.35,1.35,0,0,1-1.23,1.43c-.45,0-.83-.2-1.21-.86a6.75,6.75,0,0,0-2.5-2.7c-.16-.06-.23-.15-.23-.25s.1-.19.32-.19A7,7,0,0,1,81.88,45.4Zm0-3a6.17,6.17,0,0,1,2.7.51,2.11,2.11,0,0,1,1.33,1.8A1.22,1.22,0,0,1,84.83,46c-.42,0-.73-.13-1.24-.86A6.36,6.36,0,0,0,81,42.83c-.16-.06-.22-.15-.22-.25s.09-.16.28-.19S81.62,42.36,81.91,42.36Z"/><path class="cls-1" d="M159.4,45.37a11.18,11.18,0,0,1-.73-1c-.22-.32-.46-.72-.74-1.2a10.49,10.49,0,0,1-.55,1.45,9.58,9.58,0,0,1-.68,1.18,7.16,7.16,0,0,1-.83,1c-.3.29-.63.57-1,.85-.88.71-1.39,1-1.53.88s.15-.62.85-1.52a12.4,12.4,0,0,0,1.86-3.32,13.61,13.61,0,0,0,.8-4.24c.06-1.19.09-2.2.1-3s0-1.54,0-2.1a8.35,8.35,0,0,0-.19-1.38,3.28,3.28,0,0,0-.33-.85c-.31-.52-.37-.84-.18-1s.73-.05,1.61.26a9.76,9.76,0,0,1,1,.4,1.42,1.42,0,0,1,.48.36.47.47,0,0,1,.09.39,2.15,2.15,0,0,1-.2.48,1.44,1.44,0,0,0-.15.39,3.42,3.42,0,0,0-.11.66c0,.28-.06.65-.09,1.08s-.06,1-.09,1.65a3.79,3.79,0,0,0,.56-.78,1.59,1.59,0,0,0,.23-.62c.06-.55.18-.85.37-.93s.48.1.91.51a2.82,2.82,0,0,1,.84,1.07c0,.19-.14.37-.51.53s-.64.31-1,.52-.87.49-1.41.83c0,.92-.11,1.75-.2,2.49a15.86,15.86,0,0,1-.37,2,10,10,0,0,1,1.34.41,2.11,2.11,0,0,1,.8.5,1.4,1.4,0,0,1,.35.71,2.77,2.77,0,0,1,0,1,1,1,0,0,1-.16.41.61.61,0,0,1-.3.23.47.47,0,0,1-.37,0A.78.78,0,0,1,159.4,45.37Zm-4.46-5.14a6.63,6.63,0,0,1-.52-1A8,8,0,0,1,154,38c-.12-.47-.13-.75,0-.86s.35,0,.79.16a3.43,3.43,0,0,1,1.59,1.16,1.53,1.53,0,0,1,.15,1.3c-.21.65-.44,1-.71,1S155.23,40.65,154.94,40.23Zm16.61,8.2a8.94,8.94,0,0,1-2.19.21,13.25,13.25,0,0,1-2-.18,2,2,0,0,1-1.61-1.07,5.39,5.39,0,0,1-.22-2.39q0-.44.06-.81t0-.69a7.27,7.27,0,0,0-.06-1.38l-.61.1-.67.1c.47.36.73.65.77.85s-.07.42-.35.62a3,3,0,0,0-.38.33,4.38,4.38,0,0,0-.33.38,10.32,10.32,0,0,1-1.15,1.26,12.52,12.52,0,0,1-1.39,1.11,9.07,9.07,0,0,1-1.51.85,7,7,0,0,1-1.51.47c-.72.12-1.09.11-1.1,0s.33-.38,1-.73a9.29,9.29,0,0,0,1.66-1,11.64,11.64,0,0,0,1.4-1.29,8.55,8.55,0,0,0,1-1.35,5.35,5.35,0,0,0,.56-1.23h-.24a7.23,7.23,0,0,1-.77,0,2,2,0,0,1-.66-.14c-.42-.16-.62-.29-.6-.38s.28-.19.78-.28l1.53-.3,1.31-.28,1.16-.3,1.12-.33c.11-.34.19-.65.26-1s.13-.56.18-.81l-.59.08-.66.07-.76.12-.85.15c0,.22,0,.46.07.72a1.22,1.22,0,0,1-.19,1,.69.69,0,0,1-.45.25l-.2,0a.37.37,0,0,1-.2-.16,1.34,1.34,0,0,1-.2-.4,4.21,4.21,0,0,1-.19-.75l-.07-.33-.4.09-.32.09a2.36,2.36,0,0,1-.78.12,1.21,1.21,0,0,1-.67-.25c-.55-.38-.79-.64-.73-.78s.44-.24,1.14-.28l.71,0,.77-.07a5.88,5.88,0,0,0-.6-1.19c-.3-.38-.4-.64-.28-.79s.53-.14,1.25,0a2.89,2.89,0,0,1,1.18.43.77.77,0,0,1,.16.74c0,.07,0,.16,0,.25s0,.2,0,.32l1.42-.25q.78-.15,1.77-.39a5.7,5.7,0,0,0,.09-1.06,2,2,0,0,0-.16-.7c-.2-.45-.2-.74,0-.86s.66,0,1.38.31a2.29,2.29,0,0,1,1,.7c.11.19,0,.44-.22.73a3.09,3.09,0,0,0-.26.44l.23,0,.23-.07a4.08,4.08,0,0,1,1.22-.13,2.57,2.57,0,0,1,1,.31,2.18,2.18,0,0,1,.74.54c.16.18.2.34.14.47s-.23.24-.51.31a4.56,4.56,0,0,1-1.25.06h-.91c-.36,0-.85,0-1.46.13-.09.26-.18.53-.29.81s-.2.55-.31.81a2,2,0,0,1,.93.18c.45.22.63.44.53.67s-.55.44-1.35.63l-.39.09-.53.1c.29.21.44.4.45.58a1,1,0,0,1-.21.59,1.3,1.3,0,0,0-.15.44,6,6,0,0,0-.11.68c0,.25-.05.49-.06.73s0,.42,0,.55a2.85,2.85,0,0,0,.16.94.5.5,0,0,0,.44.29,9,9,0,0,0,1.32.11,4.11,4.11,0,0,0,1.32-.24c.63-.21,1.11-1,1.45-2.25q.38-1.38.6-1.38c.16,0,.24.46.26,1.38a7,7,0,0,0,.13,1.23,3,3,0,0,0,.42,1,2.31,2.31,0,0,1,.22.52.65.65,0,0,1-.1.52,1.6,1.6,0,0,1-.61.49A5,5,0,0,1,171.55,48.43Zm-3.19-14.12-1.14.33-.95.26c0,.22-.06.46-.09.73s-.06.54-.09.83a2.15,2.15,0,0,1-.26.91.62.62,0,0,1-.43.32.53.53,0,0,1-.43-.3,2.11,2.11,0,0,1-.24-1,2.59,2.59,0,0,1,0-.44c0-.22,0-.47,0-.77a6.91,6.91,0,0,1-1.13.11,2,2,0,0,1-.67-.09c-.52-.17-.77-.32-.77-.45s.3-.23.9-.32a9.43,9.43,0,0,0,1.65-.41v-.33a2.48,2.48,0,0,1,0-.29,3,3,0,0,0-.12-1.11,1.84,1.84,0,0,0-.34-.72q-.84-.82-.51-1.14c.22-.2.81-.14,1.76.2a7.56,7.56,0,0,1,.9.36,1.65,1.65,0,0,1,.48.33.48.48,0,0,1,.12.35,1.44,1.44,0,0,1-.16.45,4.23,4.23,0,0,0-.3,1.1,2.92,2.92,0,0,1,1.18-.28,1.89,1.89,0,0,1,1,.35C169.24,33.74,169.15,34.06,168.36,34.31Z"/><path class="cls-1" d="M187.76,37.63a4.3,4.3,0,0,0,1.24-.41,7.86,7.86,0,0,0,1.22-.73,2,2,0,0,1,1-.44h.49a1.68,1.68,0,0,1,.74.22c.59.28.88.55.88.81s-.24.48-.72.71c-.25.11-.7.28-1.35.5l-2.59.84a17.47,17.47,0,0,0,.78,1.75,6.88,6.88,0,0,0,.94,1.39c.23.31.41.53.52.67a1,1,0,0,1,.22.4,1.12,1.12,0,0,1,0,.48c0,.2-.1.51-.18.92s-.34.79-.61.79-.62-.24-1-.71a4.1,4.1,0,0,0-1.88-1,9.25,9.25,0,0,0-2.61-.35q-3.48,0-3.48,2a2.59,2.59,0,0,0,.07.57,1,1,0,0,0,.2.48,1.69,1.69,0,0,0,.47.36,4.34,4.34,0,0,0,.89.35,10.07,10.07,0,0,0,1.17.24,7.31,7.31,0,0,0,2.36-.07,3.51,3.51,0,0,0,1-.35,2.29,2.29,0,0,1,1-.33,2.21,2.21,0,0,1,1.16.62l.6.46a.46.46,0,0,1,.19.37c0,.36-.44.62-1.32.79a14.18,14.18,0,0,1-3.23.29,15.94,15.94,0,0,1-1.86-.1,10.07,10.07,0,0,1-1.65-.31,6.56,6.56,0,0,1-1.34-.52,2.9,2.9,0,0,1-.91-.76,3.12,3.12,0,0,1-.66-1.91,3,3,0,0,1,.66-1.88,3.43,3.43,0,0,1,1.37-1,7.13,7.13,0,0,1,2-.6,9.46,9.46,0,0,1,2.26-.05,5.93,5.93,0,0,1,2.1.57q.1.09.18,0s0-.12-.05-.27a10.63,10.63,0,0,1-.7-1.39c-.21-.48-.39-.92-.55-1.32q-.93.23-1.83.39l-1.89.32a24.09,24.09,0,0,1-2.75.26,2.41,2.41,0,0,1-1.23-.22,1.55,1.55,0,0,1-.62-.88,3.09,3.09,0,0,1-.22-1.06c0-.33.12-.47.37-.4a2.41,2.41,0,0,1,.89.6,1.56,1.56,0,0,0,1.1.29l1,0c.39,0,.84-.07,1.35-.13a19.66,19.66,0,0,0,3.08-.59c-.07-.25-.17-.55-.3-.91a10.69,10.69,0,0,0-.43-1.09c-.24.06-.54.12-.88.17l-1.18.2c-.44.08-.81.13-1.09.17l-.61.05A1.58,1.58,0,0,1,180,36a2.88,2.88,0,0,1-.44-1.24c0-.3.13-.45.4-.45a.49.49,0,0,1,.31.16,3,3,0,0,0,.41.34,2.06,2.06,0,0,0,1.17.33,16.05,16.05,0,0,0,2.77-.41,4,4,0,0,0-.18-.51c-.09-.19-.18-.4-.3-.64a2.23,2.23,0,0,0-.76-1l-.65-.41c-.37-.14-.55-.34-.55-.59a.38.38,0,0,1,.24-.35,2.83,2.83,0,0,1,1.15-.14,8.21,8.21,0,0,1,1.45.09,1.1,1.1,0,0,1,.72.31,2.22,2.22,0,0,1,.22,1.06,3.61,3.61,0,0,0,.14.81,7.09,7.09,0,0,0,.28.81,3.85,3.85,0,0,0,1.59-.92,1.57,1.57,0,0,1,.83-.44,1.94,1.94,0,0,1,1.23.31c.5.23.75.49.75.77a.49.49,0,0,1-.27.38,3.89,3.89,0,0,1-.77.39l-1.19.45-1.53.58.37,1A9.33,9.33,0,0,0,187.76,37.63Z"/><path class="cls-1" d="M200.43,43.13a5,5,0,0,1,.31,1.29,5.11,5.11,0,0,1,0,1.24,4.64,4.64,0,0,1-.28,1.07,2,2,0,0,1-.45.73,1,1,0,0,1-.82.37c-.29,0-.54-.31-.76-.81a1.87,1.87,0,0,1-.25-1,1.64,1.64,0,0,1,.38-.79,4.15,4.15,0,0,0,.55-.94,4.4,4.4,0,0,0,.31-1.15c.1-.68.23-1,.37-1S200.14,42.4,200.43,43.13Zm2.75-9.5,1-1.21a8.94,8.94,0,0,0,.6-.83,5.15,5.15,0,0,0,.29-.56,1.38,1.38,0,0,0,.11-.42,1.92,1.92,0,0,1,.11-.58.4.4,0,0,1,.26-.25.78.78,0,0,1,.45.06,5.22,5.22,0,0,1,.72.38c.69.41,1,.74,1,1s-.22.5-.66.7a7.42,7.42,0,0,0-1,.59c-.39.25-.78.52-1.16.8a11.51,11.51,0,0,0,4.09-1,1.08,1.08,0,0,1,.78-.23,3.23,3.23,0,0,1,1.07.47,5.81,5.81,0,0,1,.88.61,1.15,1.15,0,0,1,.34.48.39.39,0,0,1-.11.38,1.55,1.55,0,0,1-.48.33,1.86,1.86,0,0,0-.28.21,2,2,0,0,0-.28.33,4.28,4.28,0,0,0-.29.54c-.11.22-.22.5-.36.84a5.78,5.78,0,0,1-.38.83q-.21.38-.39.66c-.22.33-.42.49-.6.49s-.4-.17-.65-.51c-.53,0-1.18.09-2,.19s-1.71.24-2.79.45c0,.12,0,.24,0,.36s0,.26,0,.41c.66,0,1.21-.1,1.66-.18s.88-.17,1.31-.28.66-.18.88-.23a2.15,2.15,0,0,1,.57-.08,1.44,1.44,0,0,1,.43.06l.43.2c.32.18.45.37.38.59s-.38.33-.93.36c-.24,0-.54,0-.92.08l-1.21.12-1.34.14-1.31.14c0,.3-.05.56-.06.79.35,0,.77-.06,1.25-.12l1.52-.16,1.6-.2c.55-.07,1.06-.15,1.54-.23s.92-.17,1.31-.26a5.84,5.84,0,0,0,.92-.3,2.77,2.77,0,0,1,.54-.2,1.14,1.14,0,0,1,.52,0,2.79,2.79,0,0,1,.64.25c.24.13.54.31.89.54a10.55,10.55,0,0,1,.86.66,1.15,1.15,0,0,1,.35.49.51.51,0,0,1-.05.43,2,2,0,0,1-.37.45,1.23,1.23,0,0,0-.25.54c-.06.25-.15.68-.25,1.28a19.72,19.72,0,0,1-.41,2,7.68,7.68,0,0,1-.47,1.3,3.79,3.79,0,0,1-.63.9,6.36,6.36,0,0,1-.89.75c-.5.37-.86.53-1.09.49s-.45-.31-.67-.82a10,10,0,0,0-.68-1.29,6.74,6.74,0,0,0-.77-1c-.72-.78-.49-1,.68-.55.44.16.79.27,1,.34a1.89,1.89,0,0,0,.6.09.48.48,0,0,0,.33-.13,2.24,2.24,0,0,0,.22-.34,7.24,7.24,0,0,0,.52-1.59,8.58,8.58,0,0,0,.18-1.67A1.47,1.47,0,0,0,212,41.4a1.59,1.59,0,0,0-.92-.29,4.71,4.71,0,0,0-.81,0l-1.52.14c-.63.07-1.39.16-2.3.29l-3.15.45c-.12,0-.24.16-.36.44a1.27,1.27,0,0,1-.17.31.3.3,0,0,1-.23.11.67.67,0,0,1-.34-.12,2.44,2.44,0,0,1-.49-.43,1.08,1.08,0,0,1-.28-.54,3.09,3.09,0,0,1,.08-.92,7.38,7.38,0,0,0,.15-1.06c0-.46.07-1.13.1-2,0-.35,0-.72,0-1.1s0-.74-.08-1.07-.09-.62-.14-.87a2.08,2.08,0,0,0-.2-.55,1.83,1.83,0,0,1-.3-.56.25.25,0,0,1,.13-.32,1.23,1.23,0,0,1,.66,0A9.63,9.63,0,0,1,203.18,33.63Zm.66,11.74a1.16,1.16,0,0,1-.24.55.76.76,0,0,1-.4.28.58.58,0,0,1-.45-.08,1,1,0,0,1-.4-.5,4.73,4.73,0,0,1-.31-.72c-.09-.25-.21-.61-.35-1.07-.22-.73,0-.87.77-.41a3.68,3.68,0,0,1,1.17,1A1.19,1.19,0,0,1,203.84,45.37Zm4.23-8.6a2.22,2.22,0,0,0,.17-.24.89.89,0,0,0,.11-.26q.22-.69.33-1.11c.08-.29.15-.62.22-1a.46.46,0,0,0,0-.33s-.15,0-.31,0c-.5.09-1.17.19-2,.31s-1.82.24-2.91.37a4.28,4.28,0,0,0,0,.49c0,.16,0,.34,0,.55.35,0,.7-.1,1-.17a5.45,5.45,0,0,0,1-.27,5.35,5.35,0,0,1,.65-.19,3.13,3.13,0,0,1,.5,0,1.39,1.39,0,0,1,.44.07l.48.21a.39.39,0,0,1,.26.43c0,.19-.24.31-.63.39s-1,.16-1.71.23-1.37.12-2.08.16c0,.16,0,.34,0,.53v.6l1.17-.2,1-.22a8.15,8.15,0,0,1,1.31-.28A3.45,3.45,0,0,1,208.07,36.77Zm-1.15,7.86a1.26,1.26,0,0,1-.22.57.63.63,0,0,1-.8.2,1.4,1.4,0,0,1-.45-.38,2.59,2.59,0,0,1-.42-.62l-.46-.94c-.16-.34-.21-.54-.13-.6s.3,0,.68.07a6.09,6.09,0,0,1,1,.39,2,2,0,0,1,.58.38.69.69,0,0,1,.2.42A1.8,1.8,0,0,1,206.92,44.63Zm3.15-.69a1.3,1.3,0,0,1-.12.66.9.9,0,0,1-.38.39.73.73,0,0,1-.48.08.84.84,0,0,1-.47-.27,5.18,5.18,0,0,1-.59-.72,8,8,0,0,1-.6-1.15c-.18-.42-.23-.69-.17-.8s.31-.08.72.08.75.3,1,.43a3,3,0,0,1,.64.37,1.15,1.15,0,0,1,.33.41A1.18,1.18,0,0,1,210.07,43.94Z"/><path class="cls-1" d="M168,59.8a13.56,13.56,0,0,1,.17,2.2,21.6,21.6,0,0,1-1.29,7.07A15.77,15.77,0,0,1,163.47,75a7.6,7.6,0,0,1-2.08,1.62,4.43,4.43,0,0,1-2,.53,3.13,3.13,0,0,1-1.77-.54,4.54,4.54,0,0,1-1.42-1.64,10.84,10.84,0,0,1-1.2-5.32,12,12,0,0,1,1.63-6,12.24,12.24,0,0,1,7.58-5.83,13.17,13.17,0,0,1,3.41-.43,11.2,11.2,0,0,1,8.06,3.09,9.63,9.63,0,0,1,3.24,7.24,9.18,9.18,0,0,1-1.49,5A10,10,0,0,1,173,76.42a15.4,15.4,0,0,1-6.73,1.43,3.92,3.92,0,0,1-1.16-.14c-.31-.1-.47-.25-.47-.46s.52-.59,1.55-.8,2-.43,2.77-.67A14.86,14.86,0,0,0,171,75a8.69,8.69,0,0,0,1.55-.92A10.79,10.79,0,0,0,173.77,73a11.18,11.18,0,0,0,1.64-2.38,6,6,0,0,0,.59-2.71,8.36,8.36,0,0,0-2.06-5.5A8.05,8.05,0,0,0,168,59.8Zm-2,0a9.11,9.11,0,0,0-6,3.4,11.08,11.08,0,0,0-2.14,8.49,6.54,6.54,0,0,0,.4,1.46,2.64,2.64,0,0,0,.64.95,1.29,1.29,0,0,0,.88.35,2.19,2.19,0,0,0,1.48-.69,14.71,14.71,0,0,0,2-3.09,22.39,22.39,0,0,0,1.9-5A31.69,31.69,0,0,0,166,59.83Z"/><path class="cls-1" d="M191.59,70c0,.37-.3.74-.92,1.12a16.77,16.77,0,0,0-5.17,4.75c-.4.49-.74.74-1,.74s-.6-.29-1-.88A3.34,3.34,0,0,1,183,74a3.28,3.28,0,0,1,.83-1.92c.57-.68,1-1,1.26-1s.28.15.28.45a2.33,2.33,0,0,1-.25,1c-.23.48-.31.73-.23.76s.19,0,.34-.21a16.3,16.3,0,0,1,3.61-2.72,5.81,5.81,0,0,1,2.13-.69C191.37,69.61,191.59,69.75,191.59,70Zm1.26-15c.21,0,.42.28.63.83a2,2,0,0,0,1.06,1.17,7.1,7.1,0,0,0,2.11.55,3.82,3.82,0,0,1,1.64.43,2.45,2.45,0,0,1,.74,1,2.67,2.67,0,0,1,.4,1.13.64.64,0,0,1-.43.59,4.84,4.84,0,0,1-1.43.25,6.28,6.28,0,0,0-2.86,1.55c-1.22.93-1.83,1.63-1.83,2.09,0,.3.29.74.88,1.31.86.86,1.57,1.59,2.12,2.18s1,1.07,1.29,1.46a9.49,9.49,0,0,1,1.42,2.21,5.44,5.44,0,0,1,.5,2.16A3.8,3.8,0,0,1,197.63,77a5.24,5.24,0,0,1-3.58,1.23,7.31,7.31,0,0,1-3.09-.77,6.09,6.09,0,0,1-2.35-1.6,3.49,3.49,0,0,1-.62-1.12.62.62,0,0,1,0-.6.67.67,0,0,1,.57-.1,2.53,2.53,0,0,1,.92.42,7.15,7.15,0,0,0,3.92,1.26,3.32,3.32,0,0,0,2.06-.59,1.84,1.84,0,0,0,.77-1.56,5,5,0,0,0-1-2.49,25.89,25.89,0,0,0-3.22-3.75,5.1,5.1,0,0,1-1.29-1.91,2.39,2.39,0,0,1,.11-1.76,5.67,5.67,0,0,1,1.46-1.79,28.11,28.11,0,0,1,2.69-2c.17-.08.26-.15.26-.22s-.11-.11-.31-.13a3.86,3.86,0,0,1-2.19-.68,1.79,1.79,0,0,1-.7-1.46,5.29,5.29,0,0,1,.22-1.6C192.49,55.29,192.66,55.05,192.85,55.05ZM200,68.27a11.31,11.31,0,0,1,3.24.77,5.7,5.7,0,0,1,3.14,2.38,5.48,5.48,0,0,1,1,2.83c0,.8-.31,1.2-.94,1.2a2.36,2.36,0,0,1-1.46-.69,1.2,1.2,0,0,0-.7-.2,5.23,5.23,0,0,0-1.47.4,5.08,5.08,0,0,1-1.59.37c-.37,0-.56-.1-.56-.31,0-.4.51-.88,1.52-1.43a13.13,13.13,0,0,0,1.48-.86c.14-.11.21-.21.21-.28,0-.27-.33-.67-1-1.21a10,10,0,0,0-2.37-1.4c-.92-.4-1.38-.76-1.38-1.09S199.4,68.27,200,68.27Zm.55-6.67a7.71,7.71,0,0,1,1.77.4,3.92,3.92,0,0,1,1.83,1,2.14,2.14,0,0,1,.55,1,1.64,1.64,0,0,1-.06.83,1.28,1.28,0,0,1-1.15.8c-.57,0-1-.38-1.31-1.15a3.1,3.1,0,0,0-1.35-1.66c-.59-.36-.88-.66-.88-.88S200.12,61.6,200.52,61.6Zm2-3.06a9.59,9.59,0,0,1,2,.34,3.65,3.65,0,0,1,1.94,1,1.89,1.89,0,0,1,.6,1,1.46,1.46,0,0,1-.1.89,1.48,1.48,0,0,1-.56.63,1.29,1.29,0,0,1-.71.24,1.35,1.35,0,0,1-1.26-.91,4.6,4.6,0,0,0-.77-1.32,3.35,3.35,0,0,0-1.12-.74c-.5-.25-.74-.51-.74-.76S202,58.54,202.49,58.54Z"/><path class="cls-1" d="M243.72,75.33a3.1,3.1,0,0,1,.48.94.86.86,0,0,1-.11.75,2.07,2.07,0,0,1-.89.65,9.55,9.55,0,0,1-1.8.55,10.28,10.28,0,0,1-2.63.28,13.48,13.48,0,0,1-2.81-.42,6.13,6.13,0,0,1-3.67-2.17,5.38,5.38,0,0,1-.85-3.78c.06-.57.12-1.12.19-1.66s.15-1.1.26-1.69.24-1.25.41-2,.38-1.57.63-2.55c.1-.4-.06-.55-.46-.45s-.77.16-1.17.25l-1.23.29c-.15.8-.34,1.62-.57,2.45s-.51,1.66-.83,2.5a4.61,4.61,0,0,1,1,.87,3,3,0,0,1,.58,1.07,1.37,1.37,0,0,1,0,1,1,1,0,0,1-.57.55,1.55,1.55,0,0,1-1,0,3.45,3.45,0,0,1-1.29-.77,13,13,0,0,1-7.78,5.81c-.86.24-1.34.26-1.43,0s.29-.59,1.17-1.14a18.5,18.5,0,0,0,3.52-2.79,15,15,0,0,0,2.52-3.56q-.34-.31-.69-.66T224,69c-.34-.38-.48-.63-.41-.77s.34-.2.81-.2a7.79,7.79,0,0,1,1.84.23,23.87,23.87,0,0,0,.91-3c-.67.21-1.31.42-1.92.64s-1.18.45-1.71.7a2.67,2.67,0,0,1-.58.2,1.27,1.27,0,0,1-.55,0,2.54,2.54,0,0,1-.7-.26,5.94,5.94,0,0,1-.95-.6c-.72-.51-1-.87-.93-1.07s.72-.31,1.85-.33a19.1,19.1,0,0,0,2.7-.3c1-.18,2.08-.4,3.13-.67a19.87,19.87,0,0,0,.3-2.07q.1-1,.12-1.86a10.48,10.48,0,0,0-.07-1.46,1.8,1.8,0,0,0-.29-.85c-.74-.89-.92-1.5-.53-1.81s1.23-.21,2.51.32a9.5,9.5,0,0,1,1.51.76,1.9,1.9,0,0,1,.7.69.7.7,0,0,1,0,.66,2.53,2.53,0,0,1-.53.7c-.23.21-.53,1.58-.91,4.12.68-.23,1.27-.45,1.74-.65a2.88,2.88,0,0,0,.92-.52,5.89,5.89,0,0,1,.64-.66.91.91,0,0,1,.57-.25,1.6,1.6,0,0,1,.69.15,7.64,7.64,0,0,1,1,.5A10.61,10.61,0,0,1,237,62a1.09,1.09,0,0,1,.47.56.52.52,0,0,1-.15.51,6.81,6.81,0,0,1-.69.63,2.61,2.61,0,0,0-.47.47,4.15,4.15,0,0,0-.43.69,8.25,8.25,0,0,0-.43,1c-.14.41-.31.9-.5,1.47-.12.36-.23.79-.34,1.27s-.22,1-.3,1.48-.16,1-.22,1.43a9,9,0,0,0-.08,1.17,2.4,2.4,0,0,0,.68,1.8,3.88,3.88,0,0,0,2.46.83,9.81,9.81,0,0,0,2.09,0,2.47,2.47,0,0,0,1.32-.55,3,3,0,0,0,.83-1.33,19.58,19.58,0,0,0,.63-2.34c.19-.86.37-1.29.55-1.3s.29.38.33,1.18a19.92,19.92,0,0,0,.33,2.81A3.84,3.84,0,0,0,243.72,75.33Z"/><path class="cls-1" d="M260.94,59.8a13.56,13.56,0,0,1,.17,2.2,21.6,21.6,0,0,1-1.29,7.07A15.77,15.77,0,0,1,256.45,75a7.6,7.6,0,0,1-2.08,1.62,4.43,4.43,0,0,1-2,.53,3.13,3.13,0,0,1-1.77-.54,4.54,4.54,0,0,1-1.42-1.64,10.84,10.84,0,0,1-1.2-5.32,12,12,0,0,1,1.63-6,12.24,12.24,0,0,1,7.58-5.83,13.17,13.17,0,0,1,3.41-.43,11.2,11.2,0,0,1,8.06,3.09,9.63,9.63,0,0,1,3.24,7.24,9.18,9.18,0,0,1-1.49,5A10,10,0,0,1,266,76.42a15.4,15.4,0,0,1-6.73,1.43,4,4,0,0,1-1.16-.14c-.31-.1-.47-.25-.47-.46s.52-.59,1.55-.8,2-.43,2.77-.67A14.86,14.86,0,0,0,264,75a8.69,8.69,0,0,0,1.55-.92A10.79,10.79,0,0,0,266.75,73a11.18,11.18,0,0,0,1.64-2.38,6,6,0,0,0,.59-2.71,8.36,8.36,0,0,0-2.06-5.5A8.05,8.05,0,0,0,260.94,59.8Zm-2,0a9.11,9.11,0,0,0-6,3.4,11.08,11.08,0,0,0-2.14,8.49,6.54,6.54,0,0,0,.4,1.46,2.64,2.64,0,0,0,.64.95,1.29,1.29,0,0,0,.88.35,2.19,2.19,0,0,0,1.48-.69,14.71,14.71,0,0,0,2-3.09,22.39,22.39,0,0,0,1.9-5A31.69,31.69,0,0,0,259,59.83Z"/><path class="cls-1" d="M296.76,62a2.34,2.34,0,0,0-.29.75,9.31,9.31,0,0,0-.13,1.67c0,.79,0,1.9.08,3.31s.15,3.29.28,5.63a8.81,8.81,0,0,1-.18,2.62,5.64,5.64,0,0,1-1,2.07,2.1,2.1,0,0,1-1.42,1c-.44,0-.8-.28-1.07-.89a6,6,0,0,0-.67-1.09,8.55,8.55,0,0,0-1.24-1.29c-.88-.76-1.28-1.24-1.21-1.43s.58-.19,1.49,0a9.8,9.8,0,0,0,1.25.22,1.34,1.34,0,0,0,.73-.09.67.67,0,0,0,.35-.43,2.67,2.67,0,0,0,.1-.84c0-1.85,0-3.64,0-5.36s-.18-3.33-.33-4.8a6.12,6.12,0,0,0-.16-1,1,1,0,0,0-.31-.56,1,1,0,0,0-.59-.19,7.35,7.35,0,0,0-1,0l-1.53.17c-.53.06-1.07.1-1.65.14-.07.44-.18.94-.31,1.5a13.7,13.7,0,0,1-.54,1.73c1.16.42,2.09.79,2.8,1.11a7.93,7.93,0,0,1,1.62.9,2.1,2.1,0,0,1,.74.9,3.8,3.8,0,0,1,.24,1.1,3.4,3.4,0,0,1-.11,1.3,1,1,0,0,1-.5.64.82.82,0,0,1-.77-.1,3.15,3.15,0,0,1-1-.93c-.33-.43-.8-1-1.42-1.73s-1.3-1.48-2-2.3a11.5,11.5,0,0,1-2.14,3.08A12,12,0,0,1,281.57,71c0,.48-.05,1-.09,1.43s-.08.93-.13,1.35-.1.79-.16,1.11a4.28,4.28,0,0,1-.17.75q-.45,1.42-1.14,1.56c-.46.08-1-.44-1.57-1.56a2.42,2.42,0,0,1-.32-1.25,4.68,4.68,0,0,1,.46-1.56,5.19,5.19,0,0,0,.34-1.34c.1-.61.18-1.29.24-2s.12-1.53.15-2.34,0-1.57,0-2.28,0-1.32-.1-1.84a3.52,3.52,0,0,0-.23-1.05,4.28,4.28,0,0,1-.55-1c-.07-.27,0-.45.18-.55a1.92,1.92,0,0,1,1,0c.47.08,1.13.23,2,.46l2.42-.18c.71-.07,1.38-.15,2-.25.07-.55.13-1.08.15-1.59s0-1,0-1.37a6.39,6.39,0,0,0-.1-1.07,1.37,1.37,0,0,0-.25-.66c-.67-.88-.86-1.42-.58-1.63s1.05-.11,2.29.31a11.11,11.11,0,0,1,1.4.58,1.83,1.83,0,0,1,.7.51.67.67,0,0,1,.13.56,1.5,1.5,0,0,1-.31.64,3.45,3.45,0,0,0-.43,1.1c-.13.53-.29,1.28-.46,2.25.65-.09,1.2-.18,1.66-.26s.85-.14,1.16-.21l.77-.17a3,3,0,0,0,.5-.16,3.58,3.58,0,0,1,.69-.24,1.81,1.81,0,0,1,.56-.06,1.91,1.91,0,0,1,.58.13,5.17,5.17,0,0,1,.78.37c.59.32,1,.59,1.36.79a1.79,1.79,0,0,1,.61.57.58.58,0,0,1,0,.54A3.75,3.75,0,0,1,296.76,62Zm-11.13-.11L283.8,62l-1.95.17c0,.83,0,1.59,0,2.29s0,1.38,0,2,0,1.27-.07,1.89-.07,1.24-.1,1.87a16.91,16.91,0,0,0,4-8.38Z"/><path class="cls-1" d="M328.43,73.93q-2.12.25-3.36.36a6.87,6.87,0,0,1-2-.06,2.37,2.37,0,0,1-1.19-.57,7.46,7.46,0,0,1-1-1.16c-.68-1-1.41-2-2.17-3l-2.66-3.74c0,.84,0,1.81,0,2.91s0,2.27.05,3.53A7.82,7.82,0,0,1,318,72a3.25,3.25,0,0,1,1.45.4,1.65,1.65,0,0,1,.7.59c.1.2,0,.39-.19.57a3.27,3.27,0,0,1-1.26.47,13.85,13.85,0,0,1-2.51.23c0,.91,0,1.74,0,2.49s0,1.37-.1,1.89a2.81,2.81,0,0,1-.39,1.11,1.08,1.08,0,0,1-.66.49,1.14,1.14,0,0,1-.85-.2,3.76,3.76,0,0,1-1-1,2.38,2.38,0,0,1-.52-1.27,5,5,0,0,1,.46-2,6.18,6.18,0,0,0,.23-1.4,11.34,11.34,0,0,1-1.69,0,3.33,3.33,0,0,1-.94-.18c-.8-.35-1.19-.62-1.17-.82s.33-.31.94-.33c.34,0,.78-.06,1.32-.14l1.66-.26c0-.69.07-1.49.1-2.4s.06-2,.1-3.18A22.92,22.92,0,0,1,312,69.87,14.1,14.1,0,0,1,310.1,72a14.24,14.24,0,0,1-2.2,1.63,20.31,20.31,0,0,1-2.64,1.34c-1.05.48-1.65.65-1.81.5s.24-.58,1.18-1.33a30.15,30.15,0,0,0,4.82-4.83,24.38,24.38,0,0,0,3.3-5.52l-1.49.26a7.69,7.69,0,0,1-1,.08,3,3,0,0,1-.71-.08,5.53,5.53,0,0,1-.69-.26c-.74-.33-1.12-.57-1.13-.75s.43-.3,1.33-.4c.57-.05,1.28-.16,2.13-.31s1.7-.33,2.56-.52a22.48,22.48,0,0,0-.27-3.73,3.79,3.79,0,0,0-.64-1.67c-.73-.8-.95-1.32-.68-1.56s1.18-.15,2.71.27a5.89,5.89,0,0,1,1.34.49,1.93,1.93,0,0,1,.69.54.85.85,0,0,1,.14.64,2.69,2.69,0,0,1-.28.79,2.52,2.52,0,0,0-.16.44q-.08.26-.15.66c0,.28-.09.62-.12,1s-.08.92-.12,1.53q1.26-.42,2.13-.66a11.52,11.52,0,0,1,1.52-.3,5.37,5.37,0,0,1,1.13,0,4.79,4.79,0,0,1,1,.23,3.19,3.19,0,0,1,1,.5c.2.18.28.36.22.54s-.25.36-.6.55a5.57,5.57,0,0,1-1.54.44l-.95.16-1.24.2-1.39.21-1.34.2c1.2,1.32,2.3,2.46,3.32,3.42a38.23,38.23,0,0,0,2.91,2.52,26.94,26.94,0,0,0,2.78,1.86A25.8,25.8,0,0,0,328,72.47c1.14.48,1.73.82,1.77,1S329.38,73.82,328.43,73.93Z"/><path class="cls-1" d="M352.86,57.65c.63.27.88.59.76,1s-.7.68-1.73.93c-.29.08-.74.17-1.36.27s-1.28.21-2,.3l-2.07.28-1.65.18c-.85.1-1.57.16-2.13.2a12.13,12.13,0,0,1-1.44,0l-.12.09c-.28,1.73-.61,3.37-1,4.9A22.64,22.64,0,0,1,339,69.5q-.69,1.52-1.32,2.73a18.81,18.81,0,0,1-1.32,2.2,12.37,12.37,0,0,1-1.48,1.78A10.83,10.83,0,0,1,333,77.62c-1.09.69-1.72,1-1.89.89s.17-.69,1-1.77a25.33,25.33,0,0,0,1.56-2.22,27.15,27.15,0,0,0,1.4-2.56,26.12,26.12,0,0,0,1.14-2.78,23.13,23.13,0,0,0,.82-2.86,29.48,29.48,0,0,0,.73-4.12,3.62,3.62,0,0,0-.22-1.94,3.37,3.37,0,0,1-.41-.95.4.4,0,0,1,.24-.5,2.36,2.36,0,0,1,1.13,0,14.11,14.11,0,0,1,2.28.66c.59-.06,1.25-.15,2-.26s1.45-.25,2.16-.39,1.4-.3,2.06-.47a13.79,13.79,0,0,0,1.7-.54A7.41,7.41,0,0,1,351,57.3,4.27,4.27,0,0,1,352.86,57.65Zm.72,15.45a5.8,5.8,0,0,0-1.08.93,6,6,0,0,0-.9,1.45q1.15.85,1,1.5c-.09.43-.68.63-1.79.62h-1.24l-1.82,0-2.13.07-2.19.1a1.84,1.84,0,0,1-.83,1.21.47.47,0,0,1-.4,0,1.58,1.58,0,0,1-.52-.36,2.36,2.36,0,0,1-.45-.68,3,3,0,0,1-.26-1c-.06-.52-.13-1-.2-1.51s-.17-.93-.27-1.34a9.37,9.37,0,0,0-.35-1.09,3.26,3.26,0,0,0-.38-.73c-.57-.72-.75-1.19-.52-1.41s1-.16,2.35.18c.44,0,.86,0,1.26,0l1.2-.1c.06-1.49.09-2.72.11-3.69s0-1.76,0-2.36a11.21,11.21,0,0,0-.14-1.39,1.9,1.9,0,0,0-.3-.74c-.61-.86-.79-1.39-.52-1.59s1-.13,2.29.22a6,6,0,0,1,1.27.47,1.75,1.75,0,0,1,.62.5.65.65,0,0,1,.1.54,2.71,2.71,0,0,1-.27.63,2.14,2.14,0,0,0-.22.7c-.05.3-.09.66-.13,1.1a12.76,12.76,0,0,0,2.26-.68,7.81,7.81,0,0,1,1.53-.46,2.81,2.81,0,0,1,1.65.23c.59.25.86.53.81.86s-.39.6-1,.83a13.41,13.41,0,0,1-2.59.61,11.88,11.88,0,0,1-2.73.07l-.23,3.84q1-.18,1.83-.36a5.25,5.25,0,0,0,1.23-.42,5.17,5.17,0,0,1,.57-.21,1.39,1.39,0,0,1,.58,0,3.19,3.19,0,0,1,.72.26q.42.21,1.08.6c.55.35,1,.64,1.29.88a1.51,1.51,0,0,1,.55.64.56.56,0,0,1-.1.56A2.52,2.52,0,0,1,353.58,73.1Zm-5.78-17a2.91,2.91,0,0,1,0,1.19,1.45,1.45,0,0,1-.44.74,1.15,1.15,0,0,1-.73.25,1.57,1.57,0,0,1-.89-.32,8.57,8.57,0,0,1-1-.86c-.41-.38-.84-.82-1.28-1.31s-.74-1-.61-1.18.6-.24,1.44-.2a15.82,15.82,0,0,1,1.66.13,3.87,3.87,0,0,1,1.06.3,1.48,1.48,0,0,1,.59.5A2.41,2.41,0,0,1,347.8,56.08Zm1.8,16.62a.67.67,0,0,0-.09-.57,1.39,1.39,0,0,0-.77-.17l-.84,0c-.39,0-.86.05-1.39.11l-1.7.19-1.76.21c.11.56.2,1.12.27,1.71s.13,1.23.19,2a25.33,25.33,0,0,0,2.74-.24c.92-.12,1.8-.26,2.63-.41a8.08,8.08,0,0,0,.46-1.36C349.44,73.74,349.52,73.26,349.6,72.7Z"/><line class="cls-2" x1="113.39" y1="80.22" x2="394.36" y2="80.22"/></g></g></svg>