<svg xmlns="http://www.w3.org/2000/svg" viewBox="0 0 249.37 44.11"><defs><style>.cls-1{fill:#fff;}.cls-2{fill:none;}</style></defs><g id="レイヤー_2" data-name="レイヤー 2"><g id="レイヤー_1-2" data-name="レイヤー 1"><path class="cls-1" d="M14.16,14.23A24.55,24.55,0,0,1,12,16.89a31.9,31.9,0,0,1-2.45,2.34,27.87,27.87,0,0,1-5.43,3.64A11.24,11.24,0,0,1,.39,24.33c-.26,0-.39-.08-.39-.23,0-.33.41-.77,1.23-1.33A37.24,37.24,0,0,0,11.79,12.05c-1-.8-1.93-1.54-2.86-2.21S7.08,8.56,6.17,8c-.67-.39-1-.72-1-1s.23-.42.69-.42A12.89,12.89,0,0,1,9.09,7.67a31.74,31.74,0,0,1,4.1,1.94c.21-.39.42-.81.61-1.26l.62-1.43c.43-1,.75-1.86.94-2.47a5.22,5.22,0,0,0,.33-1.59,2.26,2.26,0,0,0-.36-1.2A2.41,2.41,0,0,1,15,.52c0-.35.24-.52.74-.52a6.16,6.16,0,0,1,2.7,1.33c1.3.89,1.95,1.59,1.95,2.11a2.12,2.12,0,0,1-.78,1.27A6.12,6.12,0,0,0,18.55,6.5c-.44.93-.86,1.8-1.29,2.63s-.85,1.59-1.28,2.3a16.89,16.89,0,0,1,3,2.83,4.62,4.62,0,0,1,1.33,2.37,6.06,6.06,0,0,1-.42,2c-.28.8-.64,1.2-1.07,1.2s-.93-.57-1.56-1.72A16.56,16.56,0,0,0,14.16,14.23Z" transform="translate(61.04)"/><path class="cls-1" d="M51.38,16.43a3.23,3.23,0,0,1,2.24,1.27,3.53,3.53,0,0,1,1.17,1.95c0,.45-.4.68-1.2.68a5.16,5.16,0,0,1-1-.1,42.65,42.65,0,0,0-7.19-.61c-2.39,0-4.87.12-7.42.35-1.28.11-2.35.23-3.22.36s-1.54.25-2,.36a11.56,11.56,0,0,1-1.89.36,2.74,2.74,0,0,1-2-1.3,4.29,4.29,0,0,1-1-1.82c0-.35.21-.52.62-.52a4.73,4.73,0,0,1,1.39.23,5.56,5.56,0,0,0,1.66.22c.58,0,2.46-.13,5.62-.39,1.58-.13,3.07-.23,4.48-.3s2.73-.13,4-.15a20.34,20.34,0,0,0,5.17-.49A3.27,3.27,0,0,1,51.38,16.43ZM47.87,4.06a3,3,0,0,1,2.15,1c.67.67,1,1.18,1,1.52q0,.75-1.62.75l-.63,0L48,7.23c-.32,0-.7-.06-1.14-.09s-1,0-1.64,0-1.31,0-2,0-1.54.09-2.4.18a30.84,30.84,0,0,0-3.8.52,10,10,0,0,1-1.72.29,2.73,2.73,0,0,1-2-1.17c-.69-.82-1-1.34-1-1.56s.22-.39.66-.39a7.47,7.47,0,0,1,1.48.17,13.4,13.4,0,0,0,2,.13c.41,0,1,0,1.87-.08L41.44,5c1.28-.11,2.32-.21,3.12-.32a12.55,12.55,0,0,0,1.75-.33A7.1,7.1,0,0,1,47.87,4.06Z" transform="translate(61.04)"/><path class="cls-1" d="M75.87,16.4c1,0,1.82-.1,2.49-.16l1.54-.16.91-.12a5,5,0,0,1,.58-.05,3.33,3.33,0,0,1,2.34,1.14c.74.74,1.1,1.32,1.1,1.75s-.47.85-1.42.85a6.65,6.65,0,0,1-1.63-.23,25.67,25.67,0,0,0-5.62-.49,48.15,48.15,0,0,0-12.7,1.5,6,6,0,0,1-1.17.19,3.45,3.45,0,0,1-2-1.13c-.8-.76-1.2-1.31-1.2-1.64s.32-.51.94-.51a6.09,6.09,0,0,1,1.21.15,5.75,5.75,0,0,0,1.13.15c.28,0,1.35-.12,3.2-.35s4.35-.49,7.49-.79q1.36-7.41,1.36-7.89T74,8.25l-.78.05-1.49.11a13.81,13.81,0,0,0-2,.31c-.69.16-1.44.36-2.24.6a4.15,4.15,0,0,1-1,.2,2.72,2.72,0,0,1-1.81-1.08c-.65-.73-1-1.24-1-1.52s.31-.42.94-.42a6.72,6.72,0,0,1,1.06.08A10.43,10.43,0,0,0,67,6.66c.26,0,.66,0,1.21-.07s1.25-.11,2.1-.19C72,6.2,73.19,6,73.79,5.91a7.09,7.09,0,0,0,1.46-.52,2,2,0,0,1,1-.32A3.94,3.94,0,0,1,78,6c.87.61,1.3,1.08,1.3,1.43s-.26.63-.78,1a2.34,2.34,0,0,0-1,1.47Z" transform="translate(61.04)"/><path class="cls-1" d="M114,9.45c.89.56,1.33,1.11,1.33,1.63a.91.91,0,0,1-.6.81,4.1,4.1,0,0,1-1.9.22c-1-.06-2.06-.09-3.25-.09s-2.53,0-3.89.09-2.73.16-4.1.28-2.68.27-4,.44-2.43.37-3.47.58c-.63.13-1.15.23-1.56.28a4.64,4.64,0,0,1-1.11,0,3,3,0,0,1-.94-.3,6,6,0,0,1-1-.65c-1.1-.78-1.61-1.32-1.52-1.64s.88-.49,2.37-.53c1.13,0,2.46-.09,4-.2s3.16-.24,4.82-.4,3.33-.34,5-.54,3.15-.39,4.5-.58l1.54-.21a8.26,8.26,0,0,1,1.15-.09,3.8,3.8,0,0,1,1.27.2A7.3,7.3,0,0,1,114,9.45Z" transform="translate(61.04)"/><path class="cls-1" d="M111.36,37.81c.15,0,.09-.38.12-.45C111.22,37.45,111.36,37.92,111.36,37.81Z" transform="translate(61.04)"/><polygon class="cls-1" points="169.9 38.77 169.94 38.59 169.57 39.01 169.9 38.77"/><path class="cls-1" d="M106.52,38.76c.22.71.85-.12,1.26.14l.07.16.19-.58C107.53,38.57,106.88,39,106.52,38.76Z" transform="translate(61.04)"/><path class="cls-1" d="M105.27,37.21c.08.28-.26.24.3.09l-.06-.07Z" transform="translate(61.04)"/><path class="cls-1" d="M105.51,37.23c.25,0-.16-.23,0,0Z" transform="translate(61.04)"/><path class="cls-1" d="M104.38,37.39l.32-.25c-.07-.16-.36-.2-.25-.32C104.12,37,104.19,37.12,104.38,37.39Z" transform="translate(61.04)"/><path class="cls-1" d="M104.07,37.91l.17-.11C104.21,37.74,104.16,37.71,104.07,37.91Z" transform="translate(61.04)"/><path class="cls-1" d="M104.59,37.58l-.35.22c0,.12.05.35.16-.08C104.37,37.94,104.44,37.73,104.59,37.58Z" transform="translate(61.04)"/><path class="cls-1" d="M104.79,37.69c.19.16.42.26.1.5C105.51,38.09,105.41,37.59,104.79,37.69Z" transform="translate(61.04)"/><path class="cls-1" d="M106.4,39.5l.24.2.21-.23C106.75,39.58,106.39,39.27,106.4,39.5Z" transform="translate(61.04)"/><path class="cls-1" d="M102.36,37a4.39,4.39,0,0,0,.13.6l.24-.18C102.61,37.34,102.37,37.24,102.36,37Z" transform="translate(61.04)"/><path class="cls-1" d="M102.49,37.62l-.36.26C102.45,37.91,102.51,37.79,102.49,37.62Z" transform="translate(61.04)"/><polygon class="cls-1" points="165.05 38.7 165.64 38.16 164.94 38.71 165.05 38.7"/><polygon class="cls-1" points="162.03 37 162.23 36.65 161.87 37.18 162.03 37"/><path class="cls-1" d="M100.08,37.06c.15-.29-.21-.49,0-.67a1.38,1.38,0,0,0-.64.53C99.59,36.79,99.8,36.82,100.08,37.06Z" transform="translate(61.04)"/><path class="cls-1" d="M99.07,37.24a2.4,2.4,0,0,0,.32-.32A.88.88,0,0,0,99.07,37.24Z" transform="translate(61.04)"/><path class="cls-1" d="M101.52,37.8a.65.65,0,0,0-.28-.43l.14.43Z" transform="translate(61.04)"/><path class="cls-1" d="M101.38,37.81h0l-.3,0Z" transform="translate(61.04)"/><path class="cls-1" d="M101.56,37.81h0C101.53,37.85,101.54,37.86,101.56,37.81Z" transform="translate(61.04)"/><path class="cls-1" d="M103.07,38.32c-.21.23-.65.49-.22.86C103,38.88,102.75,38.68,103.07,38.32Z" transform="translate(61.04)"/><path class="cls-1" d="M101.73,38.34l.38.1c0-.12-.07-.28,0-.4Z" transform="translate(61.04)"/><polygon class="cls-1" points="162.59 38.48 162.77 38.34 162.63 38.3 162.59 38.48"/><path class="cls-1" d="M99.72,37.64a.75.75,0,0,1-.55.24,1.74,1.74,0,0,0,.66.12C99.86,37.87,100,37.63,99.72,37.64Z" transform="translate(61.04)"/><path class="cls-1" d="M100.53,37.76l0,0S100.53,37.84,100.53,37.76Z" transform="translate(61.04)"/><path class="cls-1" d="M97.17,37.87a.2.2,0,0,0,0,.08v-.07Z" transform="translate(61.04)"/><path class="cls-1" d="M99.87,38.08c.16.09.26,0,.35-.15a1.23,1.23,0,0,1-.39.07C99.82,38.06,99.81,38.1,99.87,38.08Z" transform="translate(61.04)"/><path class="cls-1" d="M98.51,37.44a2.09,2.09,0,0,0,.28.24C98.71,37.54,98.54,37.33,98.51,37.44Z" transform="translate(61.04)"/><path class="cls-1" d="M100.44,37.67l0,0C100.41,37.56,100.41,37.6,100.44,37.67Z" transform="translate(61.04)"/><path class="cls-1" d="M100.44,37.67a1.12,1.12,0,0,0-.22.26.87.87,0,0,0,.27-.14A.43.43,0,0,1,100.44,37.67Z" transform="translate(61.04)"/><path class="cls-1" d="M96.57,40.62c0-.4.46-.77.83-.34.36-.3.12-1.6-.19-2.33,0,.17,0,.33-.39.57.13.21.83.5.51.86-.49.21-.4-.14-.65-.35.21.5-.63.72-.52,1.45l.44-.26C96.6,40.33,96.45,40.51,96.57,40.62Z" transform="translate(61.04)"/><path class="cls-1" d="M97.92,38l.16-.05c-.18-.07-.31-.23-.54-.54a.69.69,0,0,0-.33.48l.76,0Z" transform="translate(61.04)"/><path class="cls-1" d="M98.77,37.94c-.12.43-.49.61-.26,1.08.45,0,.31-.36.59-.55-.74.11.21-.24-.32-.48a1.05,1.05,0,0,1,.39-.11,2.75,2.75,0,0,1-.38-.2l0,0h0s0,.09,0,.06h0a.41.41,0,0,1,0,.16c-.21-.09,0-.11,0-.16a.2.2,0,0,0,0-.07h0l-.73.23A1.4,1.4,0,0,0,98.77,37.94Z" transform="translate(61.04)"/><path class="cls-1" d="M102.46,40.1a.14.14,0,0,1,0-.1C102.38,40.05,102.37,40.09,102.46,40.1Z" transform="translate(61.04)"/><path class="cls-1" d="M102.15,39.84c.06-.06.1-.23.27-.19s0,.21,0,.35c.11-.11.37-.31,0-.52l0,.06c-.3-.15-.68-.68-.63-.74A4.29,4.29,0,0,0,102.15,39.84Z" transform="translate(61.04)"/><path class="cls-1" d="M100.44,39l-.61.21.31.38v-.23C100.47,39.45,100.4,39.17,100.44,39Z" transform="translate(61.04)"/><polygon class="cls-1" points="158.14 37.66 158.22 37.2 157.87 37.85 158.14 37.66"/><polygon class="cls-1" points="157.35 37.71 157.38 37.32 157.17 37.56 157.35 37.71"/><path class="cls-1" d="M51.48,42.62l-.18.12A.7.7,0,0,0,51.48,42.62Z" transform="translate(61.04)"/><path class="cls-1" d="M52.78,42.65l0-.19C52.75,42.56,52.73,42.64,52.78,42.65Z" transform="translate(61.04)"/><path class="cls-1" d="M76.8,37.76c-.26-.37-.56-.95-.53-.5l.09.43A.41.41,0,0,1,76.8,37.76Z" transform="translate(61.04)"/><path class="cls-1" d="M63.43,40.35l.08.13.18-.42C63.61,40.15,63.53,40.25,63.43,40.35Z" transform="translate(61.04)"/><path class="cls-1" d="M63.25,42.14l-.34-.28A1,1,0,0,0,63.25,42.14Z" transform="translate(61.04)"/><path class="cls-1" d="M44.38,43.08l-.21.45C44.49,43.52,44.35,43.3,44.38,43.08Z" transform="translate(61.04)"/><path class="cls-1" d="M88.17,37.87a1.15,1.15,0,0,0-.56-.26C87.88,37.86,88.1,38.23,88.17,37.87Z" transform="translate(61.04)"/><path class="cls-1" d="M52,38a.29.29,0,0,0-.15.26C52,38.21,52,38.13,52,38Z" transform="translate(61.04)"/><path class="cls-1" d="M87,37.61a.53.53,0,0,0,.12.1.94.94,0,0,1,.53-.1C87.41,37.43,87.18,37.31,87,37.61Z" transform="translate(61.04)"/><path class="cls-1" d="M18.62,42.72s-.05,0-.06,0S18.58,42.73,18.62,42.72Z" transform="translate(61.04)"/><path class="cls-1" d="M11.11,38.35a1.37,1.37,0,0,1,.31,0C11.36,38.28,11.27,38.29,11.11,38.35Z" transform="translate(61.04)"/><path class="cls-1" d="M93.11,37.52c.17,0,0,0,0,0Z" transform="translate(61.04)"/><path class="cls-1" d="M93.93,39.24a.47.47,0,0,0-.07.21A.56.56,0,0,1,93.93,39.24Z" transform="translate(61.04)"/><path class="cls-1" d="M85.28,40.31h0C85.31,40.4,85.31,40.38,85.28,40.31Z" transform="translate(61.04)"/><path class="cls-1" d="M93.37,37.72a1,1,0,0,0-.22-.13A.56.56,0,0,0,93.37,37.72Z" transform="translate(61.04)"/><path class="cls-1" d="M93.33,37.52l.15,0C93.5,37.49,93.48,37.44,93.33,37.52Z" transform="translate(61.04)"/><path class="cls-1" d="M92.88,37.55a.63.63,0,0,1,.27,0s-.05-.05,0-.07Z" transform="translate(61.04)"/><path class="cls-1" d="M32.42,41.56l0,0C32.21,41.7,32.29,41.67,32.42,41.56Z" transform="translate(61.04)"/><path class="cls-1" d="M72.41,42.26l0,0h0Z" transform="translate(61.04)"/><path class="cls-1" d="M71.81,42.59c.25-.54.4-.48.6-.36L72.21,41Z" transform="translate(61.04)"/><path class="cls-1" d="M48.36,42.75l.43.39c-.51.64-.89.42-.49,1C48.36,42.75,50,44,50,42.61l.28.29c-.08,0-.09.06-.17.05.55.65.41-1,1.11-.79.24.1.41.3.25.46l.54-.33a.12.12,0,1,1,0,.23l.84-.1v0a4.43,4.43,0,0,1,.52-.69c.21.2-.11.15,0,.32l.46-.33c.18.35-.2.69-.51.64.43,1.36.38-.34,1.31.45L54.1,43c.28.77.62.49,1.11,1-.12-.25-1-1.21-.48-1.54.14.1.32.15.59-.13,0,.49.27.37.6.34l0,.64c.35-.18.32-.51.53-.8.4.06.48.56.58,1,.63.1-.44-.8.31-.92.53.25.9,0,1.53-.4.37.22-.06.39.07.58l.33-.51c.08,0,0,.17,0,.25.27-.2,0-.64.46-.82.11-.7.89,1,1.42.23.14.18-.06.39,0,.64a4,4,0,0,0,1.24-1.09l.52.42c-.38-.48.1-1,.52-1.51a4.19,4.19,0,0,0-.32-.53l.68-.35c.08.11,0,.33-.1.59a1.58,1.58,0,0,0,.12-.15c.24.24.12.61-.05,1-.09-.12-.17-.26-.25-.39a2.67,2.67,0,0,0-.29,1.19.54.54,0,0,1,.22-.17.47.47,0,0,0,0,.26c0,.07.1-.07.21-.23l.15.71,0-.28.88.44c.64-.72,1.19-1.77,2.2-2.07-.25.53-.06.86-.07,1.48-.28-.66-.78.28-1.3.14.27.07.21.37.14.47l.93-.6c0,.51.2.38.44.59-.18-1,.69-.66,1.07-1,0,.34-.06.68-.53.6.51.75.66-1.18,1.16-.54-.11,0-.17,0-.22.13.27-.3.91-.06.76.23h-.11c.74.12,2.27,0,2.39-.85a11.55,11.55,0,0,1-.15,1.2l1.34-2.86c-.12.73.33,2.47-.29,2.88a.61.61,0,0,0,.78,0c-.13-.1-.31-1.06-.14-1.12.45.81.32.43.88,1.13-.19-.16,0-1.31.31-1.27a8.26,8.26,0,0,1-.09,1.25l.72-1.13c-.18.21,0,1,.13,1.28-.08-.22.62,0,.81-.09l-.3-.27c.81.17.8-1.58,1.6-1.52-.1.23-.24,1.43.17,1.57.18-.57.82-2.77,1.53-3.21l.14.33.55-.38a21.21,21.21,0,0,1-1.82,3.4c.31.26.09.39.54.36.16.31-.25.47-.38.49l1.06.2c0-.68.8-.68.76-1.24l-1.14.7c-.05-.67.66-1.91,1.41-1.79.19.27-.14,1.2-.13,1.42.1-.23.71-.44.78-.28l-.32.36c.42.26.68-.89,1.18-.25.18.05.52.87.55.47a10.07,10.07,0,0,1-.15-3.72A6.13,6.13,0,0,1,83,40c.29.6-.42,1.43-.18,1.95a1.07,1.07,0,0,1,.23-.49c.18.16-.07.57.32.49.07-.68.8.06.19-.58.38-.19.41.14.86.11a2.13,2.13,0,0,1,.79-1.69,1.19,1.19,0,0,0,.11.5c.79.06,1.21.37,2,.38.07.16.42.36.27.66.11-.12.2-.35.43-.37.44.59-.5.09-.17.8,0-.4.59-.55.91-.79-.1-.62-.75-.12-1.07.13A2.5,2.5,0,0,1,88.93,39c.62-.21.27.54.37.42,1.15.15,1-1.47,1.94-.86.38.54,0,1.07.1,1.46-.5.2-.77-.35-1.1-.32l.41.25c-.16.18-.49.31-.67.16.32.48,1.94.09,2.83.54.16-.18.43-.37.3-.59l-.28.08c-.26-.43.53-.6.17-.8.38-.31.8-.79,1.33-.54l.1.61c0-.18-.35-.36-.49-.18.22-.27.81.83,1,0l-.37-.42c.38-.31.84-1,1.31-.77-.21-.6-.1.07-.44-.64.29.88-1.2,0-.73.89-.35-.82-.6-.35-1.05-1,0,.2.16.39-.23.29a1,1,0,0,1-.09.18l0,0a0,0,0,0,0,0,0s0,0,0,0a.75.75,0,0,1,.2.31c-.2.47-.83.45-1,.69-.23-.1.1-.23,0-.45l-.32.36c0-.45-.62-.74-.07-1l-.49,0a.79.79,0,0,0-.94-.16c-.24-.1-.59.5-.39.15l-.78.27v-.11c-.76-.06-1.58.75-2.45-.07a1.2,1.2,0,0,1-1,.13L86,37.45c-.33.14-1-.39-1.14,0-.35-1-1.61-.23-2.19-.42l0,.51a3,3,0,0,0-1.29.32l0,.45c-.43.37-1.1-.32-1.78-.28,0-.17.22-.12.34,0-.81-1-1.72.74-2.45,0a.3.3,0,0,1-.45,0l0,0h-.08a2.83,2.83,0,0,0-.25-.24A.87.87,0,0,0,77,38a1.38,1.38,0,0,0-.56.18l-.09-.49,0,0c-.21-.18-.17.23-.06.59a1.11,1.11,0,0,0-.28.29c-.17-.78-.55.26-.78-.57-.14.41-1.06.3-1.17,1.16,0-.12-.07-.17,0-.17-.23-.1-.46-.2-.67,0l-.1-.61-.52.82c-.31-.37-.44-.59-.13-1.06-.74.73-.6.27-1.24,1l0-.39c-.22,0-.59.54-.72.21-.51-.75-2.52-.1-3.82-.8.25,1.17-.6-.52-.66.38-.07-.27-.25-.43,0-.67-.67.27-1-.44-1.46.33-.08-.28.14-.41.07-.57,0,.06-.21.24-.28.07s.1-.23.21-.35c-.68.05-.75.9-.8,1.69-.35-.37-.52-.32-.77.2-.12-.26-.32-.53.11-.62-.24,0-1.45-.39-1.48.25-.07-.16-.33,0-.39,0a4.15,4.15,0,0,0-1.11,0l.15.11c-.21.77-.44.17-.86.26l0-.08c-1-.55-.42.27-1.38-.36l.06.48c-.09,1-.85-.61-1.4-.22l.2.28c-.31.35-.85-1.41-1.15-1.54-.07-.09.1-.14.19-.21-.79-.6-.1.63-.69.78-.11-.34.14-.86-.26-.93-.2-.27-1.16,1.1-1.7.45.12.26.24.53,0,.72s-1.14-1-1.52-.16a.35.35,0,0,1-.07-.21c-.33.22-1.05.36-1.25.8-.29-1.65-2,.81-2-.72l-1,.08,0-.15c-.63-.11-.86.26-1.08.63-.15-.11,0-.25,0-.33-.92-.31-1-.24-1.79.52l-.08-.5c-.21.29-1.34-.77-2.25-.2a.42.42,0,0,1,.1-.22c-1,.58-2.45-1.37-2.82.43l-.68.45c.87.14-.13.78.23,1.08-.34.11-.89-.54-.47-.64l.07.09c.16-.94-1.08-.33-1.06-1-1.72,0-3.39-.48-5-.52l.19.74-.57-.05c-.14-.17-.19-.57.21-.54-.21-.41-.67.35-.69.51-.78-.3.31-.85.07-.87l-.33.05.08.09c-.27.3-.29.61-.77.58-.31-.15-.16-.45-.28-.48s0-.08-.18,0l-.71-.07.28.58c-.31.29-.66,0-.34.63-.47-1-2.63-.37-2.93-.68a1.55,1.55,0,0,1-1.4.36c.13.12.21.77-.25.69.16-1.34-.85-.58-1.23-1.54.34.64-1.31.16-.79,1.06-.38-.1,0-.5-.31-.81-.92.52-2-.34-3.17-.17,0,.18.18.45-.07.71L19,38c-.22.09-.2,1-.61.41.05.14.14.37,0,.42-2.23-.85-4.55.71-6.81-.9.31.34.1.37-.13.38.15.08,0,.44,0,.68l-.95-.67c-.17.67-1,0-1.11.68l.3-.11c-.4.74.55,1.66.5,2.61.44-.84,1.17,1.26,1.9,0,.17.19-.13.3-.05.53.19-.41.41-.5.83-.32l0,.11c1.17-.1,1.67.3,3,.57L15.7,42c.28.06.34.21.47.33.33-.72-.79,0-.49-.83.37,1,2,0,2.24,1.1.43,0-.13-.54.3-.54l.12.3.11-.38c.28.06.43.43.44.68-.07,0-.2.07-.27.09.36.35,1-.12,1.16,0l-.42-.18c1.19-.28,2.63.11,3.77-.49l-.08-.23c.87-.41.7.25,1.65.06l0,0a.83.83,0,0,1,.71-.31c-.24.26.45.51.14.8.94-.45.47-.35,1.09-1.18l.14.37c.22-.34.24-.51.71-.61-.39.32.31.57-.13,1,1,.81,1.49-.82,2,.36.46-1-.87-.57-.61-.79-.22-.33.38-.76.7-.66s.54,1.31,1.35,1.29c-.08,0-.09.08-.17.07.3.26.59-.35,1,.07.21-.62.48,0,.54-.75l-.74.18c.42-.21.82-1.13,1.51-.68a1.41,1.41,0,0,1-.4.48c.2.24.39-.15.6.09-.06.79-.9.17-1.35.77.21.34.85-.57.62.29.33-1.09.8.14,1.34-.7l0,.48c.08-.08.26-.3.42-.29l-.29.62c.45-.53.86.46,1.28.17-.89,0-.2-.57-.57-.92,1.09-.63.63,1.24,1.85,1-.16.06-.62-.29-.36-.51a1.46,1.46,0,0,1,.68.53c.82-.1-.12-.49.23-.78.27.58.39-.24.75-.42v.48c.93.31.25-1,1.08-.63l-.35.67.43-.17-.08.54c.47-.4.62-.3,1.08-.14-.11-.34.06-.88.47-.89.28.28-.16.45.42.39-.13.3-.27.68-.52.23,0,.16-.13.31-.16.46.3.33.76.08,1,.07a.38.38,0,0,1-.23-.11l.84-.67c.14.18,0,.33-.07.47.17,0,.28-.27.54-.32-.07.4,0,.8-.41,1l.8-.44c.06.17.42.47.31.61.45.23,1.09-.76,1.68-.45a.45.45,0,0,1,.22-.21c.56.09,1,.57,1.71,0l.37.71c.51-.16-.51-.89.35-1.15.61-.23.23.6.44.79.3-.35.83-1.07,1.39-.5C48.68,42.8,48.54,42.7,48.36,42.75Zm6.36-.31c-.13.1-.37.41-.46.13C54.4,42,54.51,42.28,54.72,42.44Zm9.65-1.16c-.09.15-.23.08-.39-.11A.38.38,0,0,1,64.37,41.28Zm26.9-3.36,0,0C91,37.75,91.07,37.83,91.27,37.92Zm.57.21a.2.2,0,0,0,0-.21c0,.13-.16.13-.31.1C91.59,38.15,91.67,38.23,91.84,38.13Zm-61.22.19.11.12C30.48,38.58,30.55,38.46,30.62,38.32Z" transform="translate(61.04)"/><path class="cls-1" d="M63.28,41.94a.88.88,0,0,1-.06-.27A.19.19,0,0,0,63.28,41.94Z" transform="translate(61.04)"/><path class="cls-1" d="M44.41,43h0a.22.22,0,0,0,0,.08Z" transform="translate(61.04)"/><path class="cls-1" d="M83,42.22a.54.54,0,0,1-.23-.25C82.77,42.09,82.83,42.18,83,42.22Z" transform="translate(61.04)"/><path class="cls-1" d="M94.86,37.31l-.37.12c.18,0,.24.08.33.16C94.81,37.48,94.74,37.31,94.86,37.31Z" transform="translate(61.04)"/><path class="cls-1" d="M98,40.29c0-.06.11,0,.16-.07V40C98,40,97.79,40.2,98,40.29Z" transform="translate(61.04)"/><path class="cls-1" d="M95.19,38.91c0,.4.26.27.52.19h0C95.74,38.53,95.47,38.72,95.19,38.91Z" transform="translate(61.04)"/><path class="cls-1" d="M95.77,39.09a.45.45,0,0,1,.23,0C96,38.85,95.91,39,95.77,39.09Z" transform="translate(61.04)"/><path class="cls-1" d="M92.56,37.86c.12.1.07-.52.14-.36C92.84,37,91.89,38.13,92.56,37.86Z" transform="translate(61.04)"/><polygon class="cls-1" points="156.44 40.25 156.35 39.74 156.21 40.15 156.44 40.25"/><path class="cls-1" d="M93.38,39.88l.41.14a.17.17,0,0,1,.11-.17C93.65,39.83,93.37,39.73,93.38,39.88Z" transform="translate(61.04)"/><path class="cls-1" d="M93.9,39.85a.4.4,0,0,0,.33-.09A.82.82,0,0,0,93.9,39.85Z" transform="translate(61.04)"/><polygon class="cls-1" points="155.88 40.4 155.76 40.29 155.47 40.26 155.88 40.4"/><path class="cls-1" d="M89,39.78l-.45.15c0,.17.08.27.24.2S89.06,40,89,39.78Z" transform="translate(61.04)"/><path class="cls-1" d="M90.34,41.15c-.12-.1-.13-.21-.2-.38v.62Z" transform="translate(61.04)"/><path class="cls-1" d="M89,41.3c-.05.17-.65.49-.09.45C89,41.58,89.45,41.44,89,41.3Z" transform="translate(61.04)"/><polygon class="cls-1" points="143.35 40.51 143.47 40.51 143.45 39.49 143.35 40.51"/><path class="cls-1" d="M76.39,43c.53.24.13-.63.6-.32.13-.25-.39-.25-.26-.46C76.41,42.42,76.25,42.28,76.39,43Z" transform="translate(61.04)"/><path class="cls-1" d="M76.73,42.17a.8.8,0,0,0,.16-.16A.77.77,0,0,0,76.73,42.17Z" transform="translate(61.04)"/><polygon class="cls-1" points="70.91 37.8 70.57 37.59 70.78 37.93 70.91 37.8"/><path class="cls-1" d="M9.21,38.55l-.08-.64-.2.58C9,38.46,9.16,38.41,9.21,38.55Z" transform="translate(61.04)"/><path class="cls-1" d="M55.66,43.74l0-.15c-.06-.17-.14-.18-.3-.21Z" transform="translate(61.04)"/><polygon class="cls-1" points="112.09 43.26 112.17 43.27 112.02 42.69 112.09 43.26"/><path class="cls-1" d="M47.18,44c.16,0,.34-.11.5-.08C47.34,44,47.14,43.28,47.18,44Z" transform="translate(61.04)"/><line class="cls-2" y1="31.32" x2="249.37" y2="31.32"/></g></g></svg>