<svg xmlns="http://www.w3.org/2000/svg" viewBox="0 0 249.37 45.19"><defs><style>.cls-1{fill:#fff;}.cls-2{fill:none;}</style></defs><g id="レイヤー_2" data-name="レイヤー 2"><g id="レイヤー_1-2" data-name="レイヤー 1"><path class="cls-1" d="M11,13.28a17.67,17.67,0,0,1,7.44-2.07,6.58,6.58,0,0,1,7,7A6.78,6.78,0,0,1,23,23.9a8.77,8.77,0,0,1-5.71,2,5,5,0,0,1-3.45-1.26c-1-.85-1.43-1.45-1.43-1.82a.52.52,0,0,1,.59-.59,4.7,4.7,0,0,1,1.69.56,6.69,6.69,0,0,0,2.86.51,4.56,4.56,0,0,0,3.15-1.2,5,5,0,0,0,1.39-4,4.28,4.28,0,0,0-1-3,3.76,3.76,0,0,0-2.89-1.08A14.75,14.75,0,0,0,11,16.34q0,6.16.09,6.78a5.77,5.77,0,0,1,.1,1,4.07,4.07,0,0,1-.68,2.31,1.85,1.85,0,0,1-1.43,1c-.5,0-.83-.3-1-.91a8.09,8.09,0,0,0-2.56-3.67.86.86,0,0,1-.3-.63.77.77,0,0,1,.22-.57.79.79,0,0,1,.53-.26.87.87,0,0,1,.65.26q.81.72,1.14.72c.13,0,.2-.14.22-.43a8.47,8.47,0,0,0,0-1c0-.54,0-1.27,0-2.2Q6,20.27,4.69,21.58A18.26,18.26,0,0,0,2.6,23.94c-.39.5-.73.74-1,.74a1.14,1.14,0,0,1-.87-.58A1.93,1.93,0,0,1,.32,23a5.67,5.67,0,0,1,.23-1.41,3.5,3.5,0,0,1,.67-1.3,2.2,2.2,0,0,1,1.15-.65,6.84,6.84,0,0,0,1.92-1.11c.39-.3.9-.72,1.52-1.26s1.38-1.21,2.24-2c0-.55.08-1.22.1-2s0-1.73.07-2.79a42.09,42.09,0,0,1-5.72.71,1.48,1.48,0,0,1-1.07-.35A5.09,5.09,0,0,1,.55,9.45,3.82,3.82,0,0,1,0,8a.54.54,0,0,1,.6-.62A2.64,2.64,0,0,1,2,7.89a2.57,2.57,0,0,0,.91.38,6.56,6.56,0,0,0,1.28.11A11.36,11.36,0,0,0,6,8.22c.68-.11,1.48-.28,2.39-.52,0-.91.06-1.73.06-2.47a9.21,9.21,0,0,0-.16-1.88,2.78,2.78,0,0,0-.94-1.5A2,2,0,0,1,6.56.58c0-.38.27-.58.81-.58a10.3,10.3,0,0,1,3,.78c1.41.5,2.11,1,2.11,1.46A2.49,2.49,0,0,1,12,3.35a3.45,3.45,0,0,0-.52,1.26,14.41,14.41,0,0,0-.1,2.24,4.76,4.76,0,0,0,2.76-1.62,4.53,4.53,0,0,1,.49-.54,1.09,1.09,0,0,1,.57-.27,2.55,2.55,0,0,1,.87,0c.36.06.82.16,1.38.31.78.24,1.17.55,1.17.94s-.6,1-1.8,1.73a28,28,0,0,1-5.63,2.33C11.1,10.91,11,12.09,11,13.28Zm9.65-9.19A7.19,7.19,0,0,1,24,4.81a5.24,5.24,0,0,1,2.24,1.85A3.65,3.65,0,0,1,27,8.31a2.21,2.21,0,0,1-.48,1.21,1.4,1.4,0,0,1-1.12.68,1.6,1.6,0,0,1-1.19-.62.67.67,0,0,0-.42-.1,5.85,5.85,0,0,0-1.4.36,5.22,5.22,0,0,1-1.59.33.84.84,0,0,1-.42-.1.27.27,0,0,1-.12-.31,1.42,1.42,0,0,1,.36-.54,7.41,7.41,0,0,1,1-.78c.46-.32.79-.57,1-.76A1,1,0,0,0,23,7.21c0-.13-.06-.25-.25-.36L22,6.46a9.62,9.62,0,0,0-2.15-.74c-.73-.15-1.1-.47-1.1-1S19.38,4.09,20.66,4.09Z" transform="translate(59.66)"/><path class="cls-1" d="M46.38,22.28c-.09,1.17-.36,1.85-.81,2s-1,0-1.53-.63a5.91,5.91,0,0,1-.58-.78c-.26-.39-.56-.84-.88-1.35s-.64-1-1-1.58-.58-1-.79-1.42A12.37,12.37,0,0,1,38,23a19.33,19.33,0,0,1-5.17,3.5c-1.4.7-2.2.94-2.38.75s.31-.7,1.47-1.53a18.17,18.17,0,0,0,4-3.86,14.49,14.49,0,0,0,2.43-5.39L36.67,17c-.56.18-1.25.42-2.05.72a9.48,9.48,0,0,1-1,.36,2,2,0,0,1-.77,0,2,2,0,0,1-.76-.33A9.34,9.34,0,0,1,31,17c-.61-.49-.87-.86-.8-1.1s.61-.36,1.61-.36a18.7,18.7,0,0,0,3.09-.24c1.21-.18,2.46-.43,3.76-.73a17.42,17.42,0,0,0,.3-2.76,4.6,4.6,0,0,0-.27-1.69,2.66,2.66,0,0,0-.38-.1,3.53,3.53,0,0,1-.46-.1,14.61,14.61,0,0,1-1.46,1.58,14,14,0,0,1-1.72,1.38,12.69,12.69,0,0,1-1.48.94c-.38.2-.62.26-.71.2s0-.27.16-.6a12,12,0,0,1,1.15-1.48,15.06,15.06,0,0,0,1.8-2.58A26.48,26.48,0,0,0,37,6.42a16.27,16.27,0,0,0,.84-2.54A3.18,3.18,0,0,0,38,2.31a4.18,4.18,0,0,1-.33-1.21A.57.57,0,0,1,37.9.5a1.53,1.53,0,0,1,1,0,10.71,10.71,0,0,1,1.72.65c1.12.52,1.74,1,1.85,1.35s-.11.8-.65,1.28L41.56,4a1.75,1.75,0,0,0-.26.34c-.1.15-.22.36-.36.62s-.33.6-.57,1-.47.84-.7,1.23S39.21,8,39,8.35A9.37,9.37,0,0,0,40.68,8a7,7,0,0,0,1.41-.54,12.32,12.32,0,0,1,1.33-.63,3.57,3.57,0,0,1,1-.24,2.36,2.36,0,0,1,.88.08,6.46,6.46,0,0,1,.94.34c.48.24.67.49.58.76s-.47.55-1.16.83a7.65,7.65,0,0,1-.93.32l-1.15.35-1.27.32-1.23.28a5.09,5.09,0,0,1,1.07.52,1.44,1.44,0,0,1,.52.53.79.79,0,0,1,0,.54,1.7,1.7,0,0,1-.31.52,4.44,4.44,0,0,0-.59,1.62c.63-.21,1.14-.38,1.53-.49a4.88,4.88,0,0,1,1-.17,1.58,1.58,0,0,1,.73.11,7,7,0,0,1,.78.39c.52.3.71.59.58.88s-.73.49-1.81.65c-.37,0-.83.11-1.38.22s-1.11.23-1.68.36c-.11.65-.24,1.27-.39,1.85,1.17.56,2.11,1,2.81,1.41a7.18,7.18,0,0,1,1.59,1.09A2.41,2.41,0,0,1,46.27,21,4.49,4.49,0,0,1,46.38,22.28Zm12.63-9a4,4,0,0,0-.94,1.51,17.92,17.92,0,0,0-.91,3.33q1.08.73,1,1.38c-.08.42-.59.65-1.54.69-.65.05-1.54.1-2.68.15l-3.52.21a3.8,3.8,0,0,1-.61,1.66c-.27.34-.52.52-.76.52a1,1,0,0,1-.94-.73A5.85,5.85,0,0,1,47.68,20c-.15-2.59-.34-4.54-.55-5.82a4.49,4.49,0,0,0-.85-2.39,2.39,2.39,0,0,1-.68-.85.37.37,0,0,1,.18-.52,2.08,2.08,0,0,1,1-.09,9.89,9.89,0,0,1,2,.42,14,14,0,0,0,3.15-.42,11.4,11.4,0,0,0,2.6-1,9.09,9.09,0,0,1,.91-.42,1.62,1.62,0,0,1,.72-.08,2.33,2.33,0,0,1,.79.29c.29.17.69.41,1.19.73.67.46,1.18.82,1.52,1.09a1.47,1.47,0,0,1,.6.75.74.74,0,0,1-.24.7A9.42,9.42,0,0,1,59,13.32Zm-3.89-.85a2.23,2.23,0,0,0,0-.52.35.35,0,0,0-.21-.27,1.35,1.35,0,0,0-.56-.08q-.37,0-1,.06L52,11.82l-1.84.26c.2,2.67.29,5,.29,7,1.13-.13,2-.25,2.52-.35a13.74,13.74,0,0,0,1.38-.3c.07-.33.13-.75.19-1.27s.14-1.07.22-1.66.14-1.14.19-1.69S55.07,12.82,55.12,12.47Z" transform="translate(59.66)"/><path class="cls-1" d="M90.36,18.09a7.18,7.18,0,0,1-1.5,4.45,9.76,9.76,0,0,1-4.74,3.12,21.83,21.83,0,0,1-7.27,1.14c-2.17,0-3.25-.24-3.25-.72,0-.19.16-.37.48-.52a4.45,4.45,0,0,1,1.37-.32,32.44,32.44,0,0,0,5-1,16.41,16.41,0,0,0,3.77-1.54,7.74,7.74,0,0,0,2.37-2.07,4.29,4.29,0,0,0,.83-2.55,4.41,4.41,0,0,0-1.53-3.31,5.28,5.28,0,0,0-3.74-1.43,8.71,8.71,0,0,0-4.51,1.4,23.07,23.07,0,0,0-5.23,5,2,2,0,0,1-1.43.84c-.47,0-1-.39-1.49-1.16a4,4,0,0,1-.78-1.73,3.52,3.52,0,0,1,.49-1.49,17.84,17.84,0,0,0,1-3q.27-1,.42-1.8A13.25,13.25,0,0,0,70.9,10a6.11,6.11,0,0,1,.85-2.54,4.39,4.39,0,0,1,.73-1,1.29,1.29,0,0,1,.58-.34.4.4,0,0,1,.39.17.82.82,0,0,1,.15.52,2,2,0,0,1-.12.68,1.84,1.84,0,0,0-.11.55,2.37,2.37,0,0,0,.71,1.46,3.5,3.5,0,0,1,.57.7,1.17,1.17,0,0,1,.18.57.86.86,0,0,1-.23.55,4.31,4.31,0,0,1-.68.68,7.12,7.12,0,0,0-1.36,2.21,14.84,14.84,0,0,0-.78,1.79c0,.21.14.18.42-.1a17.66,17.66,0,0,1,4.87-3.82A11.54,11.54,0,0,1,82.24,11a8.36,8.36,0,0,1,5.91,2A6.66,6.66,0,0,1,90.36,18.09ZM83,4.06a3.06,3.06,0,0,1-.29,1,1,1,0,0,1-1,.65A5,5,0,0,1,81,5.64a5.56,5.56,0,0,0-1-.09,10.79,10.79,0,0,0-3.86,1,2.75,2.75,0,0,1-1,.23c-.47,0-.71-.14-.71-.43a1.05,1.05,0,0,1,.39-.78c.15-.1.44-.32.86-.65l1.7-1.29c.11-.11.17-.19.17-.23,0-.3-1.42-.62-4.26-.94Q72,2.28,72,1.75c0-.36.47-.65,1.43-.84a12.76,12.76,0,0,1,3-.33A7.82,7.82,0,0,1,81,2C82.3,2.86,83,3.56,83,4.06Z" transform="translate(59.66)"/><path class="cls-1" d="M116.6,9l2.16-.3a8.24,8.24,0,0,0,1.35-.26,4.32,4.32,0,0,1,1.3-.22,3.15,3.15,0,0,1,2,1.13c.76.76,1.13,1.28,1.13,1.56s-.45.56-1.36.56c-.43,0-1,0-1.56-.1a16.92,16.92,0,0,0-1.88-.1c-.33,0-.77,0-1.32.05l-1.83.11q0,5-1.11,7.18a11.54,11.54,0,0,1-1.07,1.8,1.39,1.39,0,0,1-1,.7.82.82,0,0,1-.65-.42,3.71,3.71,0,0,1-.45-.94,6.16,6.16,0,0,0-.36-.91,7,7,0,0,0-.36-.65,4.81,4.81,0,0,0-1-1.11c-.45-.39-.68-.73-.68-1s.2-.52.59-.52a3.3,3.3,0,0,1,1.46.56,4.21,4.21,0,0,0,1.3.55c.24,0,.36-.08.39-.23a8.52,8.52,0,0,0,.18-1.56c0-.88.09-2,.11-3.28l-1.84.2-2,.18-2,.17-1.87.2c0,.82-.08,1.62-.1,2.39s0,1.52,0,2.25q0,.56,0,1.17c0,.42,0,.82.08,1.21s.08.74.13,1.05a7.27,7.27,0,0,0,.18.76,2.27,2.27,0,0,0,1.37,1.47,3.42,3.42,0,0,0,.68.16c.3,0,.64.08,1,.11s.78.06,1.2.07h1.22a13.34,13.34,0,0,0,5.42-.84,3.49,3.49,0,0,1,1.34-.36,4.46,4.46,0,0,1,1.88.85c.87.54,1.3,1,1.3,1.33s-.25.58-.75.78a21.23,21.23,0,0,1-3.12.58c-.8.11-1.67.19-2.63.24s-2,.09-3,.09l-1.57,0c-.53,0-1,0-1.51-.07s-.91-.07-1.3-.12-.71-.12-1-.18A5.06,5.06,0,0,1,104.71,24a5.77,5.77,0,0,1-1.1-2.95,10,10,0,0,1-.15-1.38c0-.58-.06-1.23-.08-2s0-1.51,0-2.36v-2.6c-.93.16-1.71.28-2.32.36s-1,.15-1.25.2a8.32,8.32,0,0,1-1.08.09,1.82,1.82,0,0,1-1.85-1.13,5.46,5.46,0,0,1-.48-2c0-.55.17-.83.51-.83a1.79,1.79,0,0,1,1.17.65,1.91,1.91,0,0,0,1.3.65c.46,0,1,0,1.74-.11s1.45-.15,2.23-.21l.06-3.22a2.73,2.73,0,0,0-.84-2.11,2.08,2.08,0,0,1-.82-1.3c0-.35.29-.52.85-.52A9,9,0,0,1,105,3.9c1.24.39,1.86.85,1.86,1.39a2.53,2.53,0,0,1-.33,1.11A5.13,5.13,0,0,0,106.17,8a13.8,13.8,0,0,0,0,2L111,9.55c1.41-.13,2.37-.24,2.89-.33V6.48c0-.79,0-1.33,0-1.61l0-1.49a1.36,1.36,0,0,0-.18-.78,1.22,1.22,0,0,0-.73-.39c-.8-.2-1.2-.54-1.2-1a.71.71,0,0,1,.4-.63,2.74,2.74,0,0,1,1.38-.25,7.39,7.39,0,0,1,2.5.59c1,.37,1.53.8,1.53,1.3a2.47,2.47,0,0,1-.42,1.07,5.5,5.5,0,0,0-.31.75,4.2,4.2,0,0,0-.21.94,14.77,14.77,0,0,0-.1,1.62C116.58,7.32,116.58,8.13,116.6,9Z" transform="translate(59.66)"/><path class="cls-1" d="M115.14,38.89c.15,0,.09-.38.12-.45C115,38.53,115.14,39,115.14,38.89Z" transform="translate(59.66)"/><polygon class="cls-1" points="172.29 39.84 172.34 39.67 171.97 40.09 172.29 39.84"/><path class="cls-1" d="M110.3,39.84c.22.71.85-.12,1.26.14l.07.16.19-.58C111.31,39.65,110.66,40,110.3,39.84Z" transform="translate(59.66)"/><path class="cls-1" d="M109.05,38.29c.08.28-.26.24.3.09l-.06-.07A1.3,1.3,0,0,1,109.05,38.29Z" transform="translate(59.66)"/><path class="cls-1" d="M109.29,38.31c.25,0-.16-.23,0,0Z" transform="translate(59.66)"/><path class="cls-1" d="M108.16,38.47l.32-.25c-.07-.16-.36-.2-.25-.32C107.9,38,108,38.2,108.16,38.47Z" transform="translate(59.66)"/><path class="cls-1" d="M107.85,39l.17-.11C108,38.82,107.94,38.79,107.85,39Z" transform="translate(59.66)"/><path class="cls-1" d="M108.37,38.66l-.35.22c0,.12,0,.35.16-.08C108.15,39,108.22,38.81,108.37,38.66Z" transform="translate(59.66)"/><path class="cls-1" d="M108.57,38.77c.19.16.42.25.1.5C109.29,39.17,109.19,38.67,108.57,38.77Z" transform="translate(59.66)"/><path class="cls-1" d="M110.18,40.57l.24.21.21-.24C110.53,40.66,110.17,40.35,110.18,40.57Z" transform="translate(59.66)"/><path class="cls-1" d="M106.14,38.1a4.39,4.39,0,0,0,.13.6l.24-.18C106.39,38.42,106.15,38.32,106.14,38.1Z" transform="translate(59.66)"/><path class="cls-1" d="M106.27,38.7l-.36.26C106.23,39,106.29,38.87,106.27,38.7Z" transform="translate(59.66)"/><polygon class="cls-1" points="167.45 39.78 168.04 39.23 167.33 39.79 167.45 39.78"/><polygon class="cls-1" points="164.42 38.08 164.63 37.73 164.27 38.26 164.42 38.08"/><path class="cls-1" d="M103.86,38.14c.15-.29-.21-.49,0-.67a1.38,1.38,0,0,0-.64.53C103.37,37.87,103.58,37.9,103.86,38.14Z" transform="translate(59.66)"/><path class="cls-1" d="M102.85,38.32a2.4,2.4,0,0,0,.32-.32A.88.88,0,0,0,102.85,38.32Z" transform="translate(59.66)"/><path class="cls-1" d="M105.3,38.88a.65.65,0,0,0-.28-.43l.14.43Z" transform="translate(59.66)"/><path class="cls-1" d="M105.16,38.89h0l-.3,0Z" transform="translate(59.66)"/><path class="cls-1" d="M105.34,38.89h0S105.32,38.94,105.34,38.89Z" transform="translate(59.66)"/><path class="cls-1" d="M106.85,39.4c-.21.23-.65.49-.22.85C106.78,40,106.53,39.75,106.85,39.4Z" transform="translate(59.66)"/><path class="cls-1" d="M105.51,39.42l.38.1c0-.12-.07-.28,0-.4Z" transform="translate(59.66)"/><polygon class="cls-1" points="164.98 39.55 165.17 39.42 165.03 39.38 164.98 39.55"/><path class="cls-1" d="M103.5,38.72A.75.75,0,0,1,103,39a2,2,0,0,0,.66.12C103.64,39,103.73,38.71,103.5,38.72Z" transform="translate(59.66)"/><path class="cls-1" d="M104.31,38.84l0,0S104.31,38.91,104.31,38.84Z" transform="translate(59.66)"/><path class="cls-1" d="M101,39a.2.2,0,0,0,0,.08V39Z" transform="translate(59.66)"/><path class="cls-1" d="M103.65,39.16c.16.09.26,0,.35-.15a1.23,1.23,0,0,1-.39.07C103.6,39.14,103.59,39.18,103.65,39.16Z" transform="translate(59.66)"/><path class="cls-1" d="M102.29,38.52a2.09,2.09,0,0,0,.28.24C102.49,38.62,102.32,38.41,102.29,38.52Z" transform="translate(59.66)"/><path class="cls-1" d="M104.22,38.75l0,0C104.19,38.64,104.19,38.68,104.22,38.75Z" transform="translate(59.66)"/><path class="cls-1" d="M104.22,38.75A1.12,1.12,0,0,0,104,39a.87.87,0,0,0,.27-.14A.43.43,0,0,1,104.22,38.75Z" transform="translate(59.66)"/><path class="cls-1" d="M100.35,41.7c0-.4.46-.77.83-.34.36-.3.12-1.6-.19-2.33,0,.17,0,.33-.39.57.13.21.83.5.51.86-.49.2-.4-.14-.65-.35.21.49-.63.72-.52,1.44l.44-.25C100.38,41.41,100.23,41.59,100.35,41.7Z" transform="translate(59.66)"/><path class="cls-1" d="M101.7,39.07l.16,0c-.18-.07-.31-.23-.54-.54A.69.69,0,0,0,101,39l.76,0Z" transform="translate(59.66)"/><path class="cls-1" d="M102.55,39c-.12.43-.49.61-.26,1.08.45,0,.31-.36.59-.55-.74.11.21-.24-.32-.48A1.05,1.05,0,0,1,103,39a2.75,2.75,0,0,1-.38-.2l0,0h0c0,.05,0,.09,0,.06h0a.47.47,0,0,1,0,.17c-.21-.09,0-.11,0-.17a.13.13,0,0,0,0-.06h0l-.73.23A1.4,1.4,0,0,0,102.55,39Z" transform="translate(59.66)"/><path class="cls-1" d="M106.24,41.18a.14.14,0,0,1,0-.1C106.16,41.13,106.15,41.17,106.24,41.18Z" transform="translate(59.66)"/><path class="cls-1" d="M105.93,40.92c.06-.06.1-.23.27-.19s0,.21,0,.35c.11-.11.37-.31,0-.52l0,.06c-.3-.15-.68-.68-.63-.74A4.29,4.29,0,0,0,105.93,40.92Z" transform="translate(59.66)"/><path class="cls-1" d="M104.22,40.08l-.61.21.31.37v-.22C104.25,40.53,104.18,40.25,104.22,40.08Z" transform="translate(59.66)"/><polygon class="cls-1" points="160.54 38.74 160.62 38.28 160.27 38.93 160.54 38.74"/><polygon class="cls-1" points="159.75 38.79 159.77 38.4 159.56 38.63 159.75 38.79"/><path class="cls-1" d="M55.26,43.7l-.18.12A.7.7,0,0,0,55.26,43.7Z" transform="translate(59.66)"/><path class="cls-1" d="M56.56,43.73l0-.2C56.53,43.64,56.51,43.72,56.56,43.73Z" transform="translate(59.66)"/><path class="cls-1" d="M80.58,38.84c-.26-.37-.56-1-.52-.5l.08.43A.41.41,0,0,1,80.58,38.84Z" transform="translate(59.66)"/><path class="cls-1" d="M67.21,41.43a.57.57,0,0,1,.08.13c.07-.15.12-.29.18-.42C67.39,41.23,67.31,41.33,67.21,41.43Z" transform="translate(59.66)"/><path class="cls-1" d="M67,43.22l-.34-.28A1,1,0,0,0,67,43.22Z" transform="translate(59.66)"/><path class="cls-1" d="M48.16,44.16,48,44.6C48.27,44.6,48.13,44.38,48.16,44.16Z" transform="translate(59.66)"/><path class="cls-1" d="M92,39a1.15,1.15,0,0,0-.56-.26C91.66,38.94,91.88,39.31,92,39Z" transform="translate(59.66)"/><path class="cls-1" d="M55.77,39.1a.29.29,0,0,0-.15.26C55.73,39.29,55.79,39.21,55.77,39.1Z" transform="translate(59.66)"/><path class="cls-1" d="M90.74,38.69a.53.53,0,0,0,.12.1.94.94,0,0,1,.53-.1C91.19,38.51,91,38.39,90.74,38.69Z" transform="translate(59.66)"/><path class="cls-1" d="M22.4,43.8s0,0-.06,0S22.36,43.81,22.4,43.8Z" transform="translate(59.66)"/><path class="cls-1" d="M14.89,39.43a1.37,1.37,0,0,1,.31,0C15.14,39.36,15.05,39.37,14.89,39.43Z" transform="translate(59.66)"/><path class="cls-1" d="M96.89,38.6c.17,0,0,0,0,0Z" transform="translate(59.66)"/><path class="cls-1" d="M97.71,40.32a.47.47,0,0,0-.07.21A.56.56,0,0,1,97.71,40.32Z" transform="translate(59.66)"/><path class="cls-1" d="M89.06,41.39h0C89.09,41.48,89.09,41.46,89.06,41.39Z" transform="translate(59.66)"/><path class="cls-1" d="M97.15,38.8a1,1,0,0,0-.22-.13A.56.56,0,0,0,97.15,38.8Z" transform="translate(59.66)"/><path class="cls-1" d="M97.11,38.6l.15,0C97.28,38.57,97.26,38.52,97.11,38.6Z" transform="translate(59.66)"/><path class="cls-1" d="M96.66,38.63a.63.63,0,0,1,.27,0s-.05-.05,0-.07Z" transform="translate(59.66)"/><path class="cls-1" d="M36.2,42.64l0,0C36,42.78,36.07,42.75,36.2,42.64Z" transform="translate(59.66)"/><path class="cls-1" d="M76.19,43.34s0,0,0,0h0Z" transform="translate(59.66)"/><path class="cls-1" d="M75.59,43.67c.25-.54.4-.48.6-.36L76,42.06Z" transform="translate(59.66)"/><path class="cls-1" d="M52.14,43.83l.43.39c-.51.64-.89.42-.49,1,.06-1.36,1.66-.14,1.71-1.5l.28.29C54,44,54,44,53.9,44c.55.65.41-1,1.11-.79.24.1.41.3.25.46l.54-.33a.12.12,0,1,1,0,.23l.84-.11v0a4.84,4.84,0,0,1,.52-.68c.21.2-.11.15,0,.32l.46-.33c.18.35-.2.69-.51.64.43,1.36.38-.34,1.31.45l-.44.17c.28.77.62.49,1.11,1-.12-.25-1-1.21-.48-1.54.14.1.32.15.59-.13,0,.49.27.37.6.34l0,.64c.35-.18.32-.51.53-.8.4.06.48.56.58,1,.63.1-.44-.8.31-.92.53.25.9,0,1.53-.4.37.22-.06.39.07.58l.33-.51c.08,0,0,.17,0,.24.27-.19,0-.63.46-.81.11-.7.89,1,1.42.23.14.18-.06.39,0,.64a4,4,0,0,0,1.24-1.09l.52.42c-.38-.48.1-1,.52-1.51a4.19,4.19,0,0,0-.32-.53l.68-.35c.08.11,0,.33-.1.59a1.58,1.58,0,0,0,.12-.15c.24.24.12.61,0,1-.09-.12-.17-.26-.25-.39A2.67,2.67,0,0,0,67,42.75a.54.54,0,0,1,.22-.17.47.47,0,0,0,0,.26c0,.07.1-.07.21-.23l.15.71,0-.28.88.44c.64-.72,1.19-1.77,2.2-2.07-.25.53-.06.86-.07,1.48-.28-.66-.78.28-1.3.14.27.07.21.37.14.47l.93-.6c0,.51.2.38.44.59-.18-1,.69-.66,1.07-1,0,.33-.06.68-.53.6.51.75.66-1.18,1.16-.54-.11,0-.17,0-.22.13.27-.3.91-.06.76.23h-.11c.75.12,2.27,0,2.39-.85a11.55,11.55,0,0,1-.15,1.2l1.34-2.86c-.12.73.33,2.47-.29,2.88a.61.61,0,0,0,.78,0c-.13-.1-.31-1.06-.14-1.12.45.81.32.43.88,1.12-.19-.15,0-1.3.31-1.26A8.26,8.26,0,0,1,78,43.28l.72-1.13c-.18.21,0,1,.13,1.28-.08-.22.62,0,.81-.1l-.3-.26c.81.17.8-1.58,1.6-1.52-.1.23-.24,1.43.17,1.57.18-.57.82-2.77,1.53-3.21l.14.33.55-.38a21.21,21.21,0,0,1-1.82,3.4c.31.26.09.39.54.36.16.31-.25.47-.38.49l1.06.2c0-.68.8-.68.76-1.24l-1.14.7c0-.67.66-1.91,1.41-1.79.19.27-.14,1.2-.13,1.42.1-.23.71-.44.78-.28l-.32.36c.42.25.68-.89,1.18-.25.18.05.52.87.55.47A10.07,10.07,0,0,1,85.64,40a6.13,6.13,0,0,1,1.1,1.12c.29.6-.42,1.43-.18,1.95a1.07,1.07,0,0,1,.23-.49c.18.16-.07.57.32.49.07-.68.8.06.19-.58.38-.19.41.14.86.11A2.12,2.12,0,0,1,89,40.89a1.19,1.19,0,0,0,.11.5c.79.06,1.21.37,2,.38.07.16.42.36.27.66.11-.12.2-.35.43-.37.44.59-.5.09-.17.8,0-.4.59-.55.91-.79-.1-.62-.75-.12-1.07.13a2.5,2.5,0,0,1,1.33-2.12c.62-.21.27.54.37.42,1.15.15,1-1.47,1.94-.86.38.54,0,1.07.1,1.46-.5.2-.77-.35-1.1-.32l.41.25c-.16.18-.49.31-.67.16.32.48,1.94.09,2.83.54.16-.18.43-.37.3-.59l-.28.08c-.26-.43.53-.6.17-.8.38-.31.8-.79,1.33-.54l.1.61c0-.18-.35-.36-.49-.18.22-.27.81.83,1,0l-.37-.42c.38-.31.84-1,1.31-.77-.21-.61-.1.07-.44-.64.29.88-1.2,0-.73.89-.35-.82-.6-.35-1.05-1,0,.2.16.39-.23.29a1,1,0,0,1-.09.18l0,0a0,0,0,0,0,0,0s0,0,0,0a.75.75,0,0,1,.2.31c-.2.46-.83.45-1,.69-.23-.1.1-.23,0-.45l-.32.36c0-.45-.62-.74-.07-1l-.49,0a.79.79,0,0,0-.94-.16c-.24-.1-.59.5-.39.15l-.78.27v-.11c-.76-.06-1.58.74-2.45-.07a1.2,1.2,0,0,1-1,.13l-.09-.39c-.33.14-1-.39-1.14,0-.35-1-1.61-.23-2.19-.42l0,.51a3,3,0,0,0-1.29.32l0,.45c-.43.37-1.1-.32-1.78-.28,0-.17.22-.12.34,0-.81-1-1.72.74-2.45,0a.29.29,0,0,1-.45,0,.06.06,0,0,0,0,0h-.08a2.83,2.83,0,0,0-.25-.24.87.87,0,0,0,.21.24,1.51,1.51,0,0,0-.56.17l-.09-.48,0,0c-.21-.18-.17.22-.06.59a1.11,1.11,0,0,0-.28.29c-.17-.78-.55.26-.78-.57-.14.4-1.06.3-1.17,1.16,0-.12-.07-.17,0-.18-.23-.09-.46-.19-.67.05l-.1-.61-.52.82c-.31-.37-.44-.59-.13-1.06-.74.73-.6.27-1.24,1l0-.39c-.22,0-.59.54-.72.21-.51-.75-2.52-.1-3.82-.8.25,1.17-.6-.52-.66.38-.07-.27-.25-.43,0-.67-.67.27-1-.44-1.46.33-.08-.28.14-.41.07-.57,0,.06-.21.24-.28.07s.1-.23.21-.35c-.68.05-.75.9-.8,1.69-.35-.37-.52-.32-.77.2-.12-.26-.32-.53.11-.62-.24,0-1.45-.39-1.48.25-.07-.16-.33,0-.39,0a4.15,4.15,0,0,0-1.11,0l.15.11c-.21.77-.44.17-.86.26l0-.08c-1-.55-.42.27-1.38-.36l.06.48c-.09,1-.85-.61-1.4-.22l.2.28c-.31.35-.85-1.41-1.15-1.54-.07-.09.1-.14.19-.21-.79-.61-.1.63-.69.78-.11-.34.14-.86-.26-.93-.2-.27-1.16,1.1-1.7.45.12.26.24.52,0,.72s-1.14-1-1.52-.16a.35.35,0,0,1-.07-.21c-.33.21-1,.36-1.25.8-.29-1.65-2,.81-2-.72l-1,.08,0-.15c-.63-.11-.86.26-1.08.63-.15-.11,0-.25,0-.33-.92-.31-1-.24-1.79.52l-.08-.5c-.21.29-1.34-.77-2.25-.2a.42.42,0,0,1,.1-.22c-1,.58-2.45-1.37-2.82.43l-.68.45c.87.14-.13.78.23,1.08-.34.11-.89-.54-.47-.64l.07.09c.16-.94-1.08-.33-1.06-1-1.72,0-3.39-.48-5-.52l.19.74-.57,0c-.14-.17-.19-.57.21-.54-.21-.41-.67.35-.69.51-.78-.3.31-.86.07-.87l-.33.05.08.09c-.27.3-.29.61-.77.58-.31-.15-.16-.45-.28-.48s0-.08-.18,0l-.71-.07.28.58c-.31.29-.66,0-.34.63-.47-1-2.63-.37-2.93-.68a1.55,1.55,0,0,1-1.4.36c.13.12.21.77-.25.69.16-1.34-.85-.58-1.23-1.54.34.64-1.31.16-.79,1.06-.38-.11,0-.5-.31-.81-.92.52-2-.34-3.17-.17,0,.18.18.45-.07.71l-.6-.88c-.22.09-.2,1-.61.41.05.14.14.37,0,.42-2.23-.85-4.55.71-6.81-.9.31.34.1.37-.13.38.15.08,0,.44,0,.68l-1-.67c-.17.66-1,.05-1.11.68l.3-.11c-.4.74.55,1.66.5,2.61.44-.85,1.17,1.26,1.9.05.17.19-.13.3,0,.53.19-.41.41-.5.83-.32l0,.11c1.17-.1,1.67.3,3,.57l-.1-.47c.28.06.34.21.47.33.33-.72-.79,0-.49-.84.37,1,2,0,2.24,1.11.43,0-.13-.54.3-.54l.12.3.11-.38c.28.06.43.43.44.68-.07,0-.2.07-.27.09.36.35,1-.12,1.16,0l-.42-.18c1.19-.28,2.63.11,3.77-.5l-.08-.22c.87-.41.7.25,1.65.06l0,0a.83.83,0,0,1,.71-.31c-.24.26.45.51.14.8.94-.45.47-.35,1.09-1.18l.14.37c.22-.34.24-.51.71-.61-.39.32.31.57-.13,1,1,.81,1.49-.82,2,.36.46-1-.87-.57-.61-.79-.22-.33.38-.76.7-.66s.54,1.31,1.35,1.29c-.08,0-.09.08-.17.07.3.26.59-.35,1,.07.21-.62.48,0,.54-.75l-.74.18c.42-.21.82-1.13,1.51-.68a1.41,1.41,0,0,1-.4.48c.2.24.39-.15.6.09-.06.79-.9.17-1.35.77.21.34.85-.57.62.29.33-1.09.8.14,1.34-.7l0,.48c.08-.08.26-.3.42-.29l-.29.62c.45-.53.86.45,1.28.17-.89,0-.2-.57-.57-.92,1.09-.63.63,1.24,1.85,1-.16.07-.62-.28-.36-.5a1.46,1.46,0,0,1,.68.53c.82-.1-.12-.49.23-.78.27.58.39-.24.75-.42v.48c.93.31.25-1,1.08-.63l-.35.67.43-.17-.08.54c.47-.4.62-.3,1.08-.14-.11-.34.06-.88.47-.89.28.28-.16.45.42.39-.13.3-.27.68-.52.23,0,.16-.13.3-.16.46.3.33.76.08,1,.07a.38.38,0,0,1-.23-.11l.84-.67c.14.18,0,.33-.07.47.17,0,.28-.28.54-.32-.07.4,0,.8-.41,1l.8-.43c.06.17.42.47.31.61.45.23,1.09-.76,1.68-.45a.45.45,0,0,1,.22-.21c.56.09,1,.57,1.71,0l.37.71c.51-.16-.51-.89.35-1.15.61-.23.23.59.44.79.3-.35.83-1.08,1.39-.5C52.46,43.88,52.32,43.78,52.14,43.83Zm6.36-.31c-.13.1-.37.41-.46.13C58.18,43.09,58.29,43.36,58.5,43.52Zm9.65-1.17c-.09.16-.23.09-.39-.1A.39.39,0,0,1,68.15,42.35ZM95.05,39l0,0C94.76,38.83,94.85,38.91,95.05,39Zm.57.21a.2.2,0,0,0,0-.21c0,.13-.16.13-.31.1C95.37,39.23,95.45,39.31,95.62,39.21ZM34.4,39.4l.11.12C34.26,39.66,34.33,39.53,34.4,39.4Z" transform="translate(59.66)"/><path class="cls-1" d="M67.06,43a.76.76,0,0,1-.06-.26A.18.18,0,0,0,67.06,43Z" transform="translate(59.66)"/><path class="cls-1" d="M48.19,44.08h0a.19.19,0,0,0,0,.08Z" transform="translate(59.66)"/><path class="cls-1" d="M86.79,43.3a.54.54,0,0,1-.23-.25C86.55,43.16,86.61,43.26,86.79,43.3Z" transform="translate(59.66)"/><path class="cls-1" d="M98.64,38.39l-.37.12c.18,0,.24.08.33.16C98.59,38.56,98.52,38.39,98.64,38.39Z" transform="translate(59.66)"/><path class="cls-1" d="M101.81,41.37c0-.06.11,0,.16-.07v-.22C101.73,41.09,101.57,41.28,101.81,41.37Z" transform="translate(59.66)"/><path class="cls-1" d="M99,40c0,.4.26.27.52.19h0C99.52,39.61,99.25,39.8,99,40Z" transform="translate(59.66)"/><path class="cls-1" d="M99.55,40.17a.45.45,0,0,1,.23,0C99.81,39.93,99.69,40.11,99.55,40.17Z" transform="translate(59.66)"/><path class="cls-1" d="M96.34,38.94c.12.1.07-.52.14-.36C96.62,38.07,95.67,39.21,96.34,38.94Z" transform="translate(59.66)"/><polygon class="cls-1" points="158.84 41.33 158.75 40.82 158.6 41.23 158.84 41.33"/><path class="cls-1" d="M97.16,41l.41.14a.17.17,0,0,1,.11-.17C97.43,40.91,97.15,40.81,97.16,41Z" transform="translate(59.66)"/><path class="cls-1" d="M97.68,40.93a.4.4,0,0,0,.33-.09A.82.82,0,0,0,97.68,40.93Z" transform="translate(59.66)"/><polygon class="cls-1" points="158.28 41.48 158.16 41.37 157.87 41.34 158.28 41.48"/><path class="cls-1" d="M92.77,40.86l-.45.14c0,.18.08.28.24.21S92.84,41,92.77,40.86Z" transform="translate(59.66)"/><path class="cls-1" d="M94.12,42.23c-.12-.1-.13-.21-.2-.38v.62Z" transform="translate(59.66)"/><path class="cls-1" d="M92.82,42.38c0,.17-.65.49-.09.45C92.78,42.66,93.23,42.52,92.82,42.38Z" transform="translate(59.66)"/><polygon class="cls-1" points="145.75 41.59 145.87 41.59 145.85 40.57 145.75 41.59"/><path class="cls-1" d="M80.17,44c.53.24.13-.63.6-.32.13-.25-.39-.25-.26-.46C80.19,43.5,80,43.36,80.17,44Z" transform="translate(59.66)"/><path class="cls-1" d="M80.51,43.25a.8.8,0,0,0,.16-.16A.77.77,0,0,0,80.51,43.25Z" transform="translate(59.66)"/><polygon class="cls-1" points="73.3 38.88 72.96 38.67 73.18 39.01 73.3 38.88"/><path class="cls-1" d="M13,39.63,12.91,39l-.2.59C12.79,39.54,12.94,39.49,13,39.63Z" transform="translate(59.66)"/><path class="cls-1" d="M59.44,44.82l0-.15c-.06-.17-.14-.18-.3-.21Z" transform="translate(59.66)"/><polygon class="cls-1" points="114.49 44.34 114.56 44.35 114.42 43.76 114.49 44.34"/><path class="cls-1" d="M51,45.09c.16,0,.34-.11.5-.08C51.12,45.11,50.92,44.35,51,45.09Z" transform="translate(59.66)"/><line class="cls-2" y1="29.59" x2="249.37" y2="29.59"/></g></g></svg>