<svg xmlns="http://www.w3.org/2000/svg" viewBox="0 0 543.91 118.38"><defs><style>.cls-1{fill:#231815;}</style></defs><g id="レイヤー_2" data-name="レイヤー 2"><g id="レイヤー_1-2" data-name="レイヤー 1"><path class="cls-1" d="M111.23,18.53A2.27,2.27,0,1,1,109,16.27,2.26,2.26,0,0,1,111.23,18.53Z"/><path class="cls-1" d="M23.63,24.58a3.35,3.35,0,0,1,2.15,1.07c.78.69,1.17,1.2,1.17,1.52,0,.62-1.35,1.15-4,1.59a45.13,45.13,0,0,1-7.44.69q-6.37,0-9.13-1.83T3.57,23.19a7.83,7.83,0,0,1,1.21-3.7c.83-1.43,1.54-2.14,2.14-2.14a.87.87,0,0,1,.54.19,1.12,1.12,0,0,1,.38.46,1.31,1.31,0,0,1,.1.63,1.22,1.22,0,0,1-.29.69,7.16,7.16,0,0,0-1.18,3.39,2.91,2.91,0,0,0,2.25,2.8,19.8,19.8,0,0,0,6.51.83q4.8,0,6.85-1.18A2.93,2.93,0,0,1,23.63,24.58ZM18.82,5.41A4,4,0,0,1,21,6.73c.95.87,1.42,1.5,1.42,1.87s-.53.77-1.59.93a10.57,10.57,0,0,0-3.37,1.14,16,16,0,0,0-3.27,2.21,1.4,1.4,0,0,1-.69.4.87.87,0,0,1-.56-.07,1.09,1.09,0,0,1-.4-.34,1.26,1.26,0,0,1-.19-.47c0-.67,1-1.69,3-3.08q.21-.13.21-.24c0-.07-.07-.1-.21-.1a26.77,26.77,0,0,0-4.19.83,10.22,10.22,0,0,1-1.79.27,2.11,2.11,0,0,1-2-1.59,8.37,8.37,0,0,1-.58-2.35c0-.55.17-.83.53-.83A1.62,1.62,0,0,1,8.45,6a2.72,2.72,0,0,0,1.1.79,4.79,4.79,0,0,0,1.25.14l1.07,0,1.7-.11c.66,0,1.22-.1,1.66-.17l1-.17c.23-.07.47-.16.71-.26l.71-.33c.23-.12.45-.21.64-.3A1.42,1.42,0,0,1,18.82,5.41Zm3.26-.83A8.73,8.73,0,0,1,24.15,5a4.28,4.28,0,0,1,2.21,1.31,2.17,2.17,0,0,1,.7,1.21,1.85,1.85,0,0,1-.16,1,1.79,1.79,0,0,1-.69.73,1.83,1.83,0,0,1-.92.27c-.6,0-1-.35-1.24-1.07a4.15,4.15,0,0,0-.64-1.26A5.39,5.39,0,0,0,22.11,6c-.51-.4-.76-.72-.76-1S21.59,4.58,22.08,4.58Zm4.08-2a7.6,7.6,0,0,1,2,.42,3.89,3.89,0,0,1,2,1.31,3,3,0,0,1,.66,1.3,1.81,1.81,0,0,1-.1,1.07,1.68,1.68,0,0,1-.61.73,1.54,1.54,0,0,1-.85.26,1.26,1.26,0,0,1-1.24-1,5,5,0,0,0-1.77-2.53c-.66-.39-1-.75-1-1.09S25.58,2.54,26.16,2.54Z"/><path class="cls-1" d="M61.37,16.27c-.39.05-.75.11-1.07.18a6,6,0,0,0-1,.31,12.92,12.92,0,0,0-1.18.55q-.66.35-1.56.9c-.9.53-1.48.71-1.76.52s-.16-.74.34-1.66c.33-.6.56-1.07.71-1.42a1.52,1.52,0,0,0,.19-.76.32.32,0,0,0-.31-.29,4.09,4.09,0,0,0-.79,0q-.8,0-2.37.15c-1,.1-2.42.28-4.1.54a15.22,15.22,0,0,1,1.47.62,2.11,2.11,0,0,1,.76.57.83.83,0,0,1,.17.66,3.15,3.15,0,0,1-.26.84,2.16,2.16,0,0,0-.1.42,8.73,8.73,0,0,0,0,.9q0,.66.06,1.89c.05.81.11,1.94.18,3.37.07,1.08.09,2,.07,2.73a10.1,10.1,0,0,1-.23,1.92A5.16,5.16,0,0,1,50,30.6a7,7,0,0,1-1,1.28A2.93,2.93,0,0,1,47,33a1.4,1.4,0,0,1-1.33-1,7.43,7.43,0,0,0-1.09-1.67,10.85,10.85,0,0,0-1.92-1.75,10.9,10.9,0,0,1-1-.85q-.37-.36-.33-.57c0-.14.19-.22.5-.24a6.68,6.68,0,0,1,1.47.14,15.94,15.94,0,0,0,1.92.24,2.26,2.26,0,0,0,1.09-.16,1,1,0,0,0,.52-.62,5.41,5.41,0,0,0,.2-1.12,34.26,34.26,0,0,0,.13-6.14,7.85,7.85,0,0,0-1-3.69L44,15.93c-.6.09-1.13.19-1.59.29l-1.28.33L39.82,17c-.51.18-.93.32-1.26.41a3.15,3.15,0,0,1-.92.12,2,2,0,0,1-.79-.19,4.74,4.74,0,0,1-.9-.55C34.72,15.91,34.08,15.33,34,15s.58-.42,1.94-.35a14.08,14.08,0,0,0,1.85,0c.82-.06,1.75-.14,2.8-.24S42.78,14.16,44,14s2.41-.32,3.61-.5c-.39-.39-.81-.85-1.26-1.37L45,10.64q-.75-.87-.69-1.32c0-.3.49-.36,1.32-.17a14.37,14.37,0,0,1,2.45.66c.33-.37.68-.82,1.06-1.34s.7-1,1-1.36q.55-.87.45-1c-.07-.11-.37-.1-.9,0l-1.54.33c-.4.08-.78.18-1.14.28s-.74.23-1.14.38l-1.58.61a11.08,11.08,0,0,1-1.05.36,2.51,2.51,0,0,1-.85.1,2.15,2.15,0,0,1-.86-.22,7.41,7.41,0,0,1-1-.62,7.93,7.93,0,0,1-1.21-1C39,6.06,39,5.87,39,5.74s.31-.2.68-.22a12,12,0,0,1,1.48,0A20.07,20.07,0,0,0,46,5.14,15.72,15.72,0,0,0,50.2,3.72a6.84,6.84,0,0,1,1-.47,2.37,2.37,0,0,1,1.83.09A7.29,7.29,0,0,1,54.18,4a16.24,16.24,0,0,1,1.74,1.3,2.74,2.74,0,0,1,.76.91.53.53,0,0,1-.08.63,1.7,1.7,0,0,1-.8.38l-1.11.36a9.19,9.19,0,0,0-1.24.57c-.46.26-1,.58-1.63,1s-1.38.91-2.28,1.54a1.65,1.65,0,0,1,.52,1.1,4.18,4.18,0,0,1-.24,1.46c2.1-.33,3.62-.6,4.58-.83a14.33,14.33,0,0,0,1.82-.52,7.5,7.5,0,0,1,1-.38,2.1,2.1,0,0,1,.85-.11,3,3,0,0,1,.9.26,6.9,6.9,0,0,1,1.1.68A13.1,13.1,0,0,1,62,13.89a2.91,2.91,0,0,1,.78,1.19.73.73,0,0,1-.24.8A2.3,2.3,0,0,1,61.37,16.27Z"/><path class="cls-1" d="M75.45,14.06a14.54,14.54,0,0,0-1.85.76,11.72,11.72,0,0,0-1.44.87,2.5,2.5,0,0,1-.55.34.66.66,0,0,1-.5,0,2,2,0,0,1-.62-.4,12.87,12.87,0,0,1-.95-.93c-.56-.58-.81-1-.77-1.25s.49-.55,1.32-.9a4.46,4.46,0,0,0,.78-.41,3.62,3.62,0,0,0,.76-.73,14.6,14.6,0,0,0,.9-1.28c.33-.53.73-1.23,1.19-2.11a7.9,7.9,0,0,0,.88-2.16,3.08,3.08,0,0,0-.08-1.57c-.26-.83-.17-1.33.27-1.49s1.14.1,2.11.79q1.77,1.25,1.92,2c.11.48-.16.88-.81,1.21a5.35,5.35,0,0,0-.73.57,8.1,8.1,0,0,0-.93,1L75.4,9.48l-.85,1-.9,1-1.14,1.32c.78-.12,1.47-.21,2.06-.28l2-.24c.34-.53.61-1,.81-1.33a6.41,6.41,0,0,0,.43-.92A2.57,2.57,0,0,0,78,9.41a2.75,2.75,0,0,0,0-.5c-.21-.86-.13-1.36.24-1.51s1.08.15,2.11.88,1.4,1.21,1.44,1.56-.31.72-1,1.11a12.67,12.67,0,0,0-2.28,2.18c-1.09,1.2-2.38,2.75-3.88,4.67l1.09-.38.9-.33c.29-.11.58-.2.86-.28s.6-.18.92-.29a3.69,3.69,0,0,0-.17-.42,3,3,0,0,1-.17-.38c-.26-.6-.29-1-.11-1.16s.57-.13,1.14.12a11.46,11.46,0,0,1,1.35.71,2.84,2.84,0,0,1,.78.68,1.43,1.43,0,0,1,.29.74,3.35,3.35,0,0,1-.06.92c-.14.69-.42,1.11-.83,1.26s-.79,0-1.11-.5c-.07-.12-.16-.25-.26-.4a2.9,2.9,0,0,1-.26-.43c-.72.32-1.32.62-1.82.88s-.92.52-1.28.76a9.76,9.76,0,0,0-.93.71,5.91,5.91,0,0,0-.74.76,1.26,1.26,0,0,1-1,.5,3.22,3.22,0,0,1-1.65-.95c-.39-.34-.69-.63-.9-.85a1.1,1.1,0,0,1-.33-.55.41.41,0,0,1,.23-.38,5.08,5.08,0,0,1,.76-.36,5.63,5.63,0,0,0,.93-.44,5.3,5.3,0,0,0,.94-.7,11.66,11.66,0,0,0,1.05-1.16C74.53,15.4,75,14.8,75.45,14.06ZM73.44,28c-.39.8-.83,1.2-1.33,1.19s-.89-.36-1.19-1.05A21.54,21.54,0,0,1,70,25.68a14,14,0,0,1-.5-2.14c-.12-.81-.09-1.26.1-1.37s.62.07,1.31.5a6.15,6.15,0,0,1,2.6,2.65A3.23,3.23,0,0,1,73.44,28Zm4.19-2.7c-.14.67-.42,1-.85,1.11s-.81-.17-1.16-.7A9,9,0,0,1,75,24.54,8.35,8.35,0,0,1,74.45,23c-.19-.74-.2-1.17,0-1.28s.51,0,1,.24a12.66,12.66,0,0,1,1.33.81,2.52,2.52,0,0,1,.73.73,1.45,1.45,0,0,1,.22.79A5.35,5.35,0,0,1,77.63,25.27Zm4-1.9c-.09.69-.34,1.09-.76,1.21a1.21,1.21,0,0,1-1.21-.45,7.41,7.41,0,0,1-.61-.9c-.19-.35-.49-.92-.88-1.73s-.42-1.17-.22-1.37.71-.13,1.54.19a12.11,12.11,0,0,1,1.23.59,2.11,2.11,0,0,1,.69.62,1.72,1.72,0,0,1,.26.78A5.73,5.73,0,0,1,81.64,23.37Zm3.84-11.14a13.69,13.69,0,0,1-1.59,1.43c-.58.45-1.24.93-2,1.44-.62.41-1,.53-1.19.34s0-.55.5-1.1.84-1,1.21-1.46a12.6,12.6,0,0,0,1-1.6c.32-.59.65-1.24,1-1.94s.67-1.53,1-2.47c.2-.51.36-.93.46-1.25a7.27,7.27,0,0,0,.23-.83,1.43,1.43,0,0,0,0-.57,2.85,2.85,0,0,0-.13-.5c-.37-.92-.4-1.47-.09-1.64s1.17,0,2.58.57a10,10,0,0,1,1.73.84,2,2,0,0,1,.74.76.74.74,0,0,1-.09.73,3,3,0,0,1-.76.74,2.65,2.65,0,0,0-.64.68,11.29,11.29,0,0,0-.74,1.23c-.33.6-.64,1.13-.94,1.59s-.6.89-.9,1.28A11.64,11.64,0,0,0,89.08,10a5.85,5.85,0,0,0,1.56-.78,5.44,5.44,0,0,1,.67-.38,1.61,1.61,0,0,1,.59-.15,1.72,1.72,0,0,1,.62.07,4.06,4.06,0,0,1,.78.29c.6.25,1.08.47,1.45.64s.79.39,1.25.64.8.52.81.74a2.51,2.51,0,0,1-.54,1.16,7.11,7.11,0,0,0-.38.78,6.26,6.26,0,0,0-.29,1.3c-.08.57-.15,1.35-.21,2.32s-.11,2.23-.15,3.8a18.55,18.55,0,0,1-1,6.11,7.25,7.25,0,0,1-2.8,3.54,2.7,2.7,0,0,1-1.8.64,1,1,0,0,1-.83-.81c-.07-.3-.14-.58-.22-.85a6.24,6.24,0,0,0-.35-.86,8.28,8.28,0,0,0-.59-1c-.24-.38-.56-.85-1-1.4-.67-.92-.94-1.48-.81-1.66s.64-.05,1.54.41a15.13,15.13,0,0,0,1.71.76,2.42,2.42,0,0,0,1.09.19.83.83,0,0,0,.64-.39,3.78,3.78,0,0,0,.4-1,24.51,24.51,0,0,0,.52-2.53c.14-.9.24-1.81.31-2.75s.11-1.87.12-2.8,0-1.84,0-2.72a2.76,2.76,0,0,0-.38-1.59,1.48,1.48,0,0,0-1.21-.1l-1.63.29c-.46.08-.88.15-1.26.19a10.9,10.9,0,0,1-1.09.09Zm2.91,7.23a1.63,1.63,0,0,1-.69,1.42,1.09,1.09,0,0,1-1.32-.25c-.62-.53-1.18-1-1.68-1.52a20.11,20.11,0,0,1-1.64-1.87c-.51-.62-.71-1-.62-1.16s.52-.2,1.28-.15a12.52,12.52,0,0,1,2.4.36,4.2,4.2,0,0,1,1.44.69A2.14,2.14,0,0,1,88.25,18,4.82,4.82,0,0,1,88.39,19.46Z"/><path class="cls-1" d="M132.46,16.17A18.78,18.78,0,0,1,140.38,14a7,7,0,0,1,7.4,7.4c0,2.74-.86,4.79-2.59,6.12a9.35,9.35,0,0,1-6.09,2.08,5.27,5.27,0,0,1-3.67-1.35c-1-.9-1.52-1.55-1.52-1.94a.55.55,0,0,1,.62-.62,5.05,5.05,0,0,1,1.8.59,7.05,7.05,0,0,0,3,.55,4.84,4.84,0,0,0,3.35-1.28c1-.85,1.49-2.27,1.49-4.25A4.62,4.62,0,0,0,143.15,18a4,4,0,0,0-3.08-1.14,15.9,15.9,0,0,0-7.68,2.56q0,6.57.1,7.23a6.58,6.58,0,0,1,.11,1,4.34,4.34,0,0,1-.73,2.46,2,2,0,0,1-1.52,1.07c-.53,0-.89-.32-1.08-1a8.5,8.5,0,0,0-2.73-3.91.93.93,0,0,1-.31-.67.85.85,0,0,1,.23-.61.91.91,0,0,1,.57-.28.9.9,0,0,1,.69.28c.57.51,1,.76,1.21.76s.22-.15.24-.45,0-.53.05-1.1,0-1.36,0-2.36c-1.38,1.13-2.55,2.17-3.51,3.1a19.11,19.11,0,0,0-2.23,2.51c-.42.53-.78.79-1.09.79a1.2,1.2,0,0,1-.92-.62,2.09,2.09,0,0,1-.41-1.19,6,6,0,0,1,.24-1.51,3.56,3.56,0,0,1,.71-1.38,2.39,2.39,0,0,1,1.23-.69,7.49,7.49,0,0,0,2-1.18q.61-.48,1.62-1.35c.67-.58,1.47-1.28,2.39-2.11.05-.58.08-1.29.1-2.14s.05-1.85.07-3a45.23,45.23,0,0,1-6.09.76,1.54,1.54,0,0,1-1.14-.38,5.45,5.45,0,0,1-.93-1.45,4.21,4.21,0,0,1-.59-1.56.57.57,0,0,1,.64-.65,2.72,2.72,0,0,1,1.47.55,2.92,2.92,0,0,0,1,.4,6.57,6.57,0,0,0,1.37.12,11.9,11.9,0,0,0,1.9-.18,23.89,23.89,0,0,0,2.54-.55c0-1,.07-1.84.07-2.63a10.36,10.36,0,0,0-.17-2,3,3,0,0,0-1-1.6,2.17,2.17,0,0,1-.79-1.34c0-.42.29-.63.86-.63a11.12,11.12,0,0,1,3.15.83Q134,3.64,134,4.41a2.62,2.62,0,0,1-.45,1.18A3.77,3.77,0,0,0,133,6.93a15.91,15.91,0,0,0-.11,2.39,5.07,5.07,0,0,0,2.94-1.73,6.22,6.22,0,0,1,.52-.57,1.13,1.13,0,0,1,.61-.29,2.91,2.91,0,0,1,.93,0q.57.09,1.47.33c.83.26,1.25.59,1.25,1s-.64,1.05-1.92,1.83a29.93,29.93,0,0,1-6,2.49C132.55,13.65,132.48,14.9,132.46,16.17Zm10.27-9.79a7.83,7.83,0,0,1,3.56.76,5.67,5.67,0,0,1,2.39,2,3.92,3.92,0,0,1,.83,1.77,2.29,2.29,0,0,1-.52,1.28,1.46,1.46,0,0,1-1.19.72,1.67,1.67,0,0,1-1.26-.65.66.66,0,0,0-.45-.11,6.55,6.55,0,0,0-1.49.38,5.39,5.39,0,0,1-1.7.35.88.88,0,0,1-.45-.1.29.29,0,0,1-.12-.33,1.46,1.46,0,0,1,.38-.57,6.2,6.2,0,0,1,1.06-.83c.48-.35.84-.62,1.07-.82a1,1,0,0,0,.38-.5c0-.14-.06-.26-.26-.38s-.46-.25-.81-.41a9.85,9.85,0,0,0-2.28-.8c-.79-.16-1.18-.49-1.18-1S141.37,6.38,142.73,6.38Z"/><path class="cls-1" d="M160.68,5.62a6.16,6.16,0,0,0,1.46-.41,2.8,2.8,0,0,0,.9-.59,3.4,3.4,0,0,1,.57-.49A1.07,1.07,0,0,1,164.2,4a2,2,0,0,1,.77.19c.3.13.68.32,1.15.57,1,.58,1.51,1,1.64,1.4s0,.76-.5,1.2a1.35,1.35,0,0,0-.28.36,2.81,2.81,0,0,0-.21.71c-.07.34-.14.83-.22,1.47l-.33,2.61a2.68,2.68,0,0,1-.3,1.07,2.83,2.83,0,0,1-.77.8,5.59,5.59,0,0,1-.76.45c-.26.11-.44.11-.56,0a.87.87,0,0,0-1-.28,5.61,5.61,0,0,1-.88.19l-1,.12q-.08,2-.09,4.59c0,1.69,0,3.47-.05,5.34a20.24,20.24,0,0,1-.11,2.33,12.33,12.33,0,0,1-.34,1.82c-.21.85-.57,1.3-1.09,1.33s-1-.4-1.44-1.29a5.62,5.62,0,0,1-.31-.73,2.41,2.41,0,0,1-.12-.66,4.41,4.41,0,0,1,.05-.78c0-.28.13-.64.24-1.05A13.36,13.36,0,0,0,158,23.8q.13-1.31.24-3.06c.07-1.18.11-2.49.14-3.93s0-3,0-4.55c0-1-.07-1.83-.14-2.51s-.15-1.24-.23-1.69A5,5,0,0,0,157.71,7a2.45,2.45,0,0,0-.35-.58c-.43-.53-.54-.9-.31-1.09s.87-.24,1.9-.12a9.82,9.82,0,0,1,1,.17A2,2,0,0,1,160.68,5.62Zm.28,7.71a10.44,10.44,0,0,1,1.33-.22l1-.09a.44.44,0,0,0,.42-.2,3.87,3.87,0,0,0,.17-1.11c0-.74.09-1.49.14-2.25s.06-1.44,0-2-.12-.94-.28-1a1.28,1.28,0,0,0-.83,0l-.85.23a8.63,8.63,0,0,1-1.12.19c0,.3,0,.65,0,1.07s0,.9.06,1.45a5,5,0,0,0,.5-.15L162,9a1.3,1.3,0,0,1,1.24.1c.4.24.57.47.54.7s-.25.43-.64.62a5.53,5.53,0,0,1-1,.33,3.78,3.78,0,0,1-1.12.08c0,.35,0,.72,0,1.13S161,12.83,161,13.33Zm5.26,3.43a14.18,14.18,0,0,0,2.7-.47,4,4,0,0,0,1.42-.6,2.47,2.47,0,0,1,.55-.45,1,1,0,0,1,.57-.11,2.72,2.72,0,0,1,.85.3q.51.25,1.38.78a14.08,14.08,0,0,1,1.18.81,1.83,1.83,0,0,1,.53.6.54.54,0,0,1,0,.51,1.52,1.52,0,0,1-.49.43,3.48,3.48,0,0,0-.85.78,13.87,13.87,0,0,0-.91,1.43c.67.46.94.92.81,1.37s-.59.7-1.4.74l-2.2.16c-.84.06-1.95.18-3.34.36-.46,1.18-.92,1.69-1.4,1.54s-.81-1-1-2.44c-.11-.76-.21-1.4-.29-1.92s-.17-.95-.26-1.3a6.09,6.09,0,0,0-.28-.83,4.12,4.12,0,0,0-.27-.52,3.16,3.16,0,0,1-.54-.84.36.36,0,0,1,.16-.49,2.17,2.17,0,0,1,1-.12A19.48,19.48,0,0,1,166.22,16.76Zm1,4.74,1.81-.36c.61-.13,1.15-.25,1.61-.37.07-.37.12-.71.16-1a8.5,8.5,0,0,1,.12-.86c.07-.53.05-.85,0-1s-.35-.14-.75-.07l-1.24.21c-.44.07-1.07.2-1.9.38,0,.46.08.94.12,1.43S167.14,20.9,167.19,21.5Zm6.54-8.58c-.21.58-.53.86-1,.86a1.35,1.35,0,0,1-1.12-.76,2,2,0,0,1-.26-.81,14.26,14.26,0,0,1,0-1.57,19.12,19.12,0,0,0-.12-3.43,4.46,4.46,0,0,0-.57-1.8,3.1,3.1,0,0,1-.47-.93.51.51,0,0,1,.18-.57,1.51,1.51,0,0,1,1-.14,12,12,0,0,1,1.9.36,15,15,0,0,0,2.22-.45,3.42,3.42,0,0,0,1.34-.62,3,3,0,0,1,.58-.41.92.92,0,0,1,.57-.11,2.89,2.89,0,0,1,.74.23c.29.12.65.3,1.09.53a14.1,14.1,0,0,1,1.37.83,1.73,1.73,0,0,1,.6.68.77.77,0,0,1-.05.69,5.7,5.7,0,0,1-.61.88,1.89,1.89,0,0,0-.29.62,7.15,7.15,0,0,0-.17,1.47c0,.71-.06,1.69-.06,3s0,2.94.11,5c0,.53,0,1.15.07,1.85s0,1.43.07,2.18,0,1.49.07,2.23,0,1.41.07,2c0,.83,0,1.52,0,2.09a7.79,7.79,0,0,1-.2,1.49,3.52,3.52,0,0,1-.46,1.12,8.83,8.83,0,0,1-.76,1c-.79.83-1.39,1.24-1.82,1.23s-.8-.42-1.12-1.23a7.54,7.54,0,0,0-.8-1.38,11,11,0,0,0-1.45-1.66c-.74-.72-1-1.15-.88-1.32s.83-.08,2.05.25c.51.13.92.23,1.21.27a1.62,1.62,0,0,0,.7,0,.42.42,0,0,0,.31-.26,1.62,1.62,0,0,0,.07-.5c0-1.54,0-2.94.05-4.18s0-2.4,0-3.45,0-2,0-2.92,0-1.77-.07-2.63c-.69,0-1.36.06-2,.11S174.42,12.85,173.73,12.92Zm.2-5.33c1.43-.39,2.4-.45,2.91-.17a.5.5,0,0,1,.29.54.7.7,0,0,1-.5.6A6.48,6.48,0,0,1,173.9,9v1.21c0,.39,0,.79,0,1.18.7-.09,1.36-.16,2-.19l1.85-.09c0-.74,0-1.48-.07-2.23s-.07-1.54-.13-2.37a3,3,0,0,0-.26-1.25.56.56,0,0,0-.57-.17l-1.23.17c-.45.07-.95.18-1.51.32Z"/><path class="cls-1" d="M219.39,15.79q2.7,1.08-.11,1.59c-1.59.28-2.87.48-3.84.61a9.65,9.65,0,0,1-2.35.07,2.88,2.88,0,0,1-1.47-.59,6.52,6.52,0,0,1-1.19-1.37q-1.32-1.91-3.24-4.41t-4.3-5.38a35.69,35.69,0,0,1-5.9,8.06A19.83,19.83,0,0,1,189.81,19c-1.71.62-2.63.82-2.78.6s.46-.81,1.85-1.78a28.53,28.53,0,0,0,5.58-5.15,43.35,43.35,0,0,0,4.83-7.37,8.57,8.57,0,0,0,.81-2,2.58,2.58,0,0,0,.05-1.42c-.3-1-.25-1.63.14-1.85s1.34.09,2.84.92A9.93,9.93,0,0,1,204.75,2a1.68,1.68,0,0,1,.64.88,1,1,0,0,1-.24.83,5.21,5.21,0,0,1-1,.9q1.94,1.9,3.46,3.32t2.76,2.49c.83.72,1.6,1.33,2.3,1.84s1.4,1,2.1,1.36a20.62,20.62,0,0,0,2.14,1.11Q218,15.27,219.39,15.79ZM211,22.57a6.94,6.94,0,0,0-.71.59,5.14,5.14,0,0,0-.64.73,9.36,9.36,0,0,0-.63.93c-.2.34-.42.75-.65,1.21.9.67,1.3,1.24,1.21,1.71s-.63.71-1.59.71c-1.2,0-2.59.05-4.16.16s-3.18.24-4.84.43a3.92,3.92,0,0,1-.81,1.35.8.8,0,0,1-.88.24,1.8,1.8,0,0,1-.83-.93,8.25,8.25,0,0,1-.63-2.22,35,35,0,0,0-.83-3.77,6,6,0,0,0-.79-1.94,4.47,4.47,0,0,1-.75-1,.43.43,0,0,1,.13-.61,2.24,2.24,0,0,1,1.15-.19c.57,0,1.37.09,2.41.23,1.47-.14,2.7-.28,3.68-.42s1.8-.27,2.44-.41a10.49,10.49,0,0,0,1.58-.45,6.08,6.08,0,0,0,1.08-.56,3.33,3.33,0,0,1,.66-.29,1.67,1.67,0,0,1,.71,0,3.88,3.88,0,0,1,.95.35c.37.18.84.44,1.42.76a15.18,15.18,0,0,1,1.71,1.11,2,2,0,0,1,.69.81.64.64,0,0,1-.17.69A5.72,5.72,0,0,1,211,22.57Zm-3.57-7.44-1.16.44c-.35.12-.69.23-1,.32s-.66.18-1,.26-.74.16-1.16.23c-1,.16-1.8.28-2.43.34a9.16,9.16,0,0,1-1.58.07,4.07,4.07,0,0,1-1-.15,3.2,3.2,0,0,1-.73-.33c-.67-.39-1-.68-.93-.85s.5-.31,1.38-.43,1.85-.29,2.84-.52a15.2,15.2,0,0,0,2.59-.83c.44-.18.83-.33,1.16-.43a3.05,3.05,0,0,1,1-.16,3.48,3.48,0,0,1,.9.12,7.53,7.53,0,0,1,1,.37c.52.23.81.5.86.81S207.94,15,207.45,15.13ZM206,22.47a1.7,1.7,0,0,0,0-.9c-.08-.16-.29-.23-.61-.21-.94.07-2,.17-3.08.29l-3.87.47c.11.74.22,1.53.31,2.37s.2,1.64.31,2.4l3.75-.48c1.12-.14,1.91-.25,2.37-.35a6.75,6.75,0,0,0,.42-1.33A20.65,20.65,0,0,0,206,22.47Z"/><path class="cls-1" d="M244.92,11.6c.87-.11,1.64-.21,2.3-.31a10.54,10.54,0,0,0,1.43-.27,4.7,4.7,0,0,1,1.38-.25A3.35,3.35,0,0,1,252.15,12c.8.8,1.21,1.36,1.21,1.66s-.49.58-1.46.58a15.66,15.66,0,0,1-1.66-.1,19.27,19.27,0,0,0-2-.1c-.35,0-.82,0-1.41.05l-2,.12q0,5.32-1.18,7.64a12.15,12.15,0,0,1-1.14,1.92,1.49,1.49,0,0,1-1.1.75.87.87,0,0,1-.7-.45,4.09,4.09,0,0,1-.48-1,6.86,6.86,0,0,0-.38-1c-.14-.28-.27-.51-.38-.7a5,5,0,0,0-1.11-1.17,1.68,1.68,0,0,1-.72-1.11c0-.37.2-.55.62-.55a3.32,3.32,0,0,1,1.55.59,4.59,4.59,0,0,0,1.39.58c.25,0,.39-.08.41-.24a7.46,7.46,0,0,0,.19-1.66c.06-.94.1-2.11.13-3.49l-2,.21-2.14.19c-.73,0-1.45.12-2.15.19s-1.37.13-2,.2c0,.88-.08,1.73-.1,2.55s0,1.62,0,2.4c0,.39,0,.81,0,1.25s.05.86.09,1.27.08.8.13,1.13a6.15,6.15,0,0,0,.19.81,2.4,2.4,0,0,0,1.46,1.56,2.72,2.72,0,0,0,.72.17c.33.05.69.09,1.09.12s.83.06,1.28.07l1.3,0a14.17,14.17,0,0,0,5.78-.9,3.77,3.77,0,0,1,1.41-.38,4.7,4.7,0,0,1,2,.9c.92.58,1.38,1,1.38,1.42s-.26.62-.79.83a22,22,0,0,1-3.32.62c-.86.11-1.79.2-2.8.26s-2.08.09-3.19.09l-1.67,0c-.57,0-1.11,0-1.61-.07s-1-.08-1.39-.14a10.29,10.29,0,0,1-1-.19,5.35,5.35,0,0,1-2.43-1.31,6.32,6.32,0,0,1-1.17-3.15,12.89,12.89,0,0,1-.16-1.47c0-.61-.06-1.3-.08-2.08s0-1.61,0-2.51V15.62c-1,.16-1.81.29-2.47.38s-1.1.16-1.33.21a9.6,9.6,0,0,1-1.14.1,2,2,0,0,1-2-1.21,5.85,5.85,0,0,1-.52-2.13c0-.59.19-.88.56-.88a1.9,1.9,0,0,1,1.24.69,2,2,0,0,0,1.39.69,18.16,18.16,0,0,0,1.85-.12c.75-.08,1.54-.15,2.37-.22l.07-3.43a2.93,2.93,0,0,0-.9-2.25,2.23,2.23,0,0,1-.87-1.38c0-.37.3-.55.9-.55a9.76,9.76,0,0,1,2.6.65c1.31.42,2,.92,2,1.49a2.79,2.79,0,0,1-.35,1.18,5.36,5.36,0,0,0-.38,1.68,13,13,0,0,0,0,2.16l5.15-.49c1.5-.14,2.53-.25,3.08-.34V8.92q0-1.26,0-1.71l0-1.59a1.43,1.43,0,0,0-.19-.83,1.3,1.3,0,0,0-.78-.41c-.85-.21-1.28-.58-1.28-1.11a.78.78,0,0,1,.43-.68,3.08,3.08,0,0,1,1.47-.26A7.84,7.84,0,0,1,244.4,3Q246,3.55,246,4.34a2.64,2.64,0,0,1-.45,1.14c-.11.23-.22.5-.33.8a4.75,4.75,0,0,0-.22,1,17,17,0,0,0-.1,1.73C244.89,9.82,244.89,10.68,244.92,11.6Z"/><path class="cls-1" d="M42.11,87.83c0,16.16-5.2,30.55-21.13,30.55C5.36,118.38,0,104,0,87.83,0,71.52,5.51,57.36,21,57.36,36.75,57.36,42.11,71.52,42.11,87.83Zm-33.92,0c0,16.08,5.13,23.51,12.71,23.51,8,0,13-7.43,13-23.51,0-16.23-5.13-23.43-13-23.43C13.32,64.4,8.19,71.6,8.19,87.83Z"/><path class="cls-1" d="M79.7,85.54c7.51,2.52,11,7.65,11,14.93,0,9.19-6.74,17.91-19.91,17.91-9.42,0-16.31-3.9-20.75-11.79a4,4,0,0,1-.61-1.91c0-1.92,2.14-3.83,4.67-3.83a3.67,3.67,0,0,1,3.45,2.3c2.91,5.59,7.35,8.42,13.24,8.42,7,0,11.79-4.29,11.79-10.95,0-6.81-4.59-10.87-12.78-10.87-1.07,0-3,.23-4.29.23C63.09,90,62,88.45,62,86c0-2.07,1.15-3.68,3.44-3.68,1.3,0,2.76.23,3.75.23,7.13,0,11.26-3.52,11.26-9.88,0-5-3.67-8.57-9.19-8.57-4.82,0-8.42,2.37-10.87,7a3.62,3.62,0,0,1-3.29,2.14c-2.3,0-4.6-1.69-4.6-3.75A3.84,3.84,0,0,1,53,67.77c4.06-7,10-10.41,18.38-10.41,10.49,0,17.15,6.66,17.15,15C88.51,78.26,86.44,82.7,79.7,85.54Z"/><path class="cls-1" d="M102.83,99.47c-2,0-3.07-1.07-3.07-3.14s1.07-3.14,3.07-3.14h12.48c2,0,3.06,1.08,3.06,3.14s-1.07,3.14-3.06,3.14Z"/><path class="cls-1" d="M168.21,87.83c0,16.16-5.2,30.55-21.13,30.55-15.62,0-21-14.39-21-30.55,0-16.31,5.51-30.47,21-30.47C162.85,57.36,168.21,71.52,168.21,87.83Zm-33.92,0c0,16.08,5.13,23.51,12.71,23.51,8,0,13-7.43,13-23.51,0-16.23-5.13-23.43-13-23.43C139.42,64.4,134.29,71.6,134.29,87.83Z"/><path class="cls-1" d="M218.13,87.83c0,16.16-5.2,30.55-21.13,30.55-15.62,0-21-14.39-21-30.55,0-16.31,5.51-30.47,21-30.47C212.77,57.36,218.13,71.52,218.13,87.83Zm-33.92,0c0,16.08,5.13,23.51,12.71,23.51,8,0,13-7.43,13-23.51,0-16.23-5.13-23.43-13-23.43C189.34,64.4,184.21,71.6,184.21,87.83Z"/><path class="cls-1" d="M268.05,87.83c0,16.16-5.21,30.55-21.13,30.55-15.62,0-21-14.39-21-30.55,0-16.31,5.51-30.47,21-30.47C262.69,57.36,268.05,71.52,268.05,87.83Zm-33.92,0c0,16.08,5.13,23.51,12.71,23.51,8,0,13-7.43,13-23.51,0-16.23-5.13-23.43-13-23.43C239.26,64.4,234.13,71.6,234.13,87.83Z"/><path class="cls-1" d="M318,87.83c0,16.16-5.21,30.55-21.13,30.55-15.62,0-21-14.39-21-30.55,0-16.31,5.51-30.47,21-30.47C312.61,57.36,318,71.52,318,87.83Zm-33.92,0c0,16.08,5.13,23.51,12.71,23.51,8,0,13-7.43,13-23.51,0-16.23-5.13-23.43-13-23.43C289.18,64.4,284.05,71.6,284.05,87.83Z"/><path class="cls-1" d="M328.76,99.47c-2,0-3.06-1.07-3.06-3.14s1.07-3.14,3.06-3.14h12.48c2,0,3.07,1.08,3.07,3.14s-1.08,3.14-3.07,3.14Z"/><path class="cls-1" d="M394.15,87.83c0,16.16-5.21,30.55-21.13,30.55-15.62,0-21-14.39-21-30.55,0-16.31,5.51-30.47,21-30.47C388.79,57.36,394.15,71.52,394.15,87.83Zm-33.92,0c0,16.08,5.13,23.51,12.71,23.51,8,0,13-7.43,13-23.51,0-16.23-5.13-23.43-13-23.43C365.36,64.4,360.23,71.6,360.23,87.83Z"/><path class="cls-1" d="M444.07,87.83c0,16.16-5.21,30.55-21.13,30.55-15.62,0-21-14.39-21-30.55,0-16.31,5.51-30.47,21-30.47C438.71,57.36,444.07,71.52,444.07,87.83Zm-33.92,0c0,16.08,5.13,23.51,12.71,23.51,8,0,13-7.43,13-23.51,0-16.23-5.13-23.43-13-23.43C415.28,64.4,410.15,71.6,410.15,87.83Z"/><path class="cls-1" d="M494,87.83c0,16.16-5.21,30.55-21.13,30.55-15.62,0-21-14.39-21-30.55,0-16.31,5.51-30.47,21-30.47C488.63,57.36,494,71.52,494,87.83Zm-33.92,0c0,16.08,5.13,23.51,12.71,23.51,8,0,13-7.43,13-23.51,0-16.23-5.13-23.43-13-23.43C465.2,64.4,460.07,71.6,460.07,87.83Z"/><path class="cls-1" d="M543.91,87.83c0,16.16-5.21,30.55-21.14,30.55-15.62,0-21-14.39-21-30.55,0-16.31,5.51-30.47,21-30.47C538.55,57.36,543.91,71.52,543.91,87.83Zm-33.92,0c0,16.08,5.13,23.51,12.71,23.51,8,0,13-7.43,13-23.51,0-16.23-5.14-23.43-13-23.43C515.12,64.4,510,71.6,510,87.83Z"/></g></g></svg>