<svg id="レイヤー_1" data-name="レイヤー 1" xmlns="http://www.w3.org/2000/svg" viewBox="0 0 1920 1122"><defs><style>.cls-1{fill:#fff;}</style></defs><rect class="cls-1" x="751.93" y="737.11" width="32.38" height="64.75" rx="1.42"/><polygon class="cls-1" points="1197.17 750.61 722.3 761.4 722.3 766.79 1197.17 766.79 1197.17 750.61"/><polygon class="cls-1" points="1197.17 788.38 722.3 777.59 722.3 772.19 1197.17 772.19 1197.17 788.38"/><path class="cls-1" d="M752,550.94c0-114.55,93.2-207.75,207.76-207.75s207.75,93.2,207.75,207.75c0,71.49-35.94,136.75-96.2,175.18h27.93a222.49,222.49,0,0,0,84.46-175.18c0-123.48-100.46-223.94-223.94-223.94s-224,100.46-224,223.94a222.49,222.49,0,0,0,84.46,175.18h27.93C787.92,687.69,752,622.43,752,550.94Z"/><path class="cls-1" d="M892.65,633.07h2.88V648c0,5.92-2.91,7.74-6.75,7.74a9.27,9.27,0,0,1-3.07-.53l.43-2.35a6.89,6.89,0,0,0,2.41.43c2.58,0,4.1-1.15,4.1-5.52Z"/><path class="cls-1" d="M918.49,648.34l-2.32,7h-3l7.57-22.28h3.46l7.61,22.28h-3.08l-2.37-7Zm7.3-2.25-2.18-6.41c-.5-1.46-.83-2.78-1.16-4.07h-.06c-.34,1.32-.7,2.68-1.13,4l-2.18,6.45Z"/><path class="cls-1" d="M949.68,633.33a33.53,33.53,0,0,1,5.52-.43c2.85,0,4.92.66,6.25,1.85a6,6,0,0,1,1.95,4.66,6.53,6.53,0,0,1-1.72,4.76,9.23,9.23,0,0,1-6.81,2.45,10.14,10.14,0,0,1-2.31-.2v8.93h-2.88Zm2.88,10.74a9.38,9.38,0,0,0,2.38.23c3.47,0,5.58-1.68,5.58-4.76s-2.08-4.36-5.25-4.36a12.16,12.16,0,0,0-2.71.23Z"/><path class="cls-1" d="M985.43,648.34l-2.31,7h-3l7.57-22.28h3.47l7.6,22.28h-3.07l-2.38-7Zm7.31-2.25-2.18-6.41c-.5-1.46-.83-2.78-1.16-4.07h-.07c-.33,1.32-.69,2.68-1.12,4L986,646.09Z"/><path class="cls-1" d="M1016.63,655.35V633.07h3.14l7.14,11.27a63.8,63.8,0,0,1,4,7.24l.07,0c-.27-3-.34-5.68-.34-9.15v-9.32h2.71v22.28h-2.9L1023.37,644a71,71,0,0,1-4.16-7.44l-.1,0c.16,2.81.23,5.48.23,9.18v9.53Z"/><path class="cls-1" d="M898.11,431.53a80,80,0,0,1-.65,11.51c1.69,1.83,6.15,7.09,7.19,8.42l-2.28,2.44a85.56,85.56,0,0,0-5.6-7.39,29,29,0,0,1-7.29,13.93,10.05,10.05,0,0,0-2.28-2.23c7.09-7.54,7.88-17.26,7.88-26.68V414.27c2.34.2,3.18.2,4,.25,0,.35-.3.6-.94.65Zm-10.86,5.16c2-2.63,2.93-7.54,3-12.15l2.43.35c-.1,4.76-.94,10-3.22,13ZM906,424.29a1.09,1.09,0,0,1-1,.4,91.74,91.74,0,0,1-4.11,9.62c0-.05-2.09-1.09-2.09-1.09a73.38,73.38,0,0,0,3.82-10.42Zm17.66,31.39c0,1.14.2,1.34,1.53,1.34h4.27c1.19,0,1.43-.7,1.58-5.65a10.47,10.47,0,0,0,2.78,1.24c-.3,5.8-1.14,7.23-4,7.23h-5c-3.52,0-4.32-.89-4.32-4.21V444.17h-5.2c0,.3-.4.5-.95.55-.69,7.79-2.48,12.94-11.15,15.72a7.22,7.22,0,0,0-1.84-2.43c7.64-2.33,9.37-6.55,9.87-13.84h-7.49v-2.92h6.1V434.7h-6.1v-3h6.1v-6.2l4,.3c-.05.3-.3.54-.94.64v5.26h11.2v-6.2l4.07.3c0,.3-.3.54-.94.64v5.26h6.15v3h-6.15v6.55h6.24v2.92h-8.87c-.1.3-.35.5-.94.55Zm-6.8-27.12v-6.05h-11.2v-2.88h11.2v-5.36l4.17.25c0,.35-.3.6-1,.7v4.41h11.5v2.88H920v6.05Zm-4,6.14v6.55h11.2V434.7Z"/><path class="cls-1" d="M979.65,432a74.2,74.2,0,0,1-15,3.07c1.54,2.68,4.56,6.4,8.18,7.79l-2,2.82c-.7-.34-2-.94-2.88-1.48a20.55,20.55,0,0,0-5.85-.75c-.69,0-1.39,0-2,.1l-.7-2.73a33.44,33.44,0,0,1,5.56.2,25,25,0,0,1-3.92-5.6,127.56,127.56,0,0,1-13.29.49c-2.43,0-5.15,0-7.39-.05l0-3.12c2.24.05,5.11.1,7.59.1,4.07,0,8.08,0,12.1-.35-.55-1.53-1.34-4.36-1.93-6.59-2,.2-4.22.3-6.25.3-2.68,0-6.1,0-8.43-.1v-3.08c3,.15,6.25.15,8.38.15,1.78,0,3.82-.1,5.7-.25-.45-2.28-.94-5-1.34-7.78l5.11.05c0,.59-.45.94-1.34,1.09.3,2.13.64,4.41,1,6.34a51.6,51.6,0,0,0,13.29-2.87l.84,3.07a60.4,60.4,0,0,1-13.48,2.83,59.11,59.11,0,0,0,1.88,6.5A71.37,71.37,0,0,0,979,428.9Zm-8.72,26.23c-2.73.2-6,.3-10.91.3-8-.05-14.28-2.63-14.18-8.24,0-2.92,2.63-6,5.85-7.83l2.23,2.28c-2.88,1.54-4.56,3.62-4.56,5.51,0,3.52,4.36,5.05,10.66,5.1,3.72,0,7.63-.2,11-.45Z"/><path class="cls-1" d="M995.1,449.33c-1,3.77-2.72,8.09-5.55,10.71l-2.68-1.68c2.68-2.38,4.46-6.45,5.41-10Zm37.14-9.27h-35.3v3.72h31.39l.74,0,1.83.3a9,9,0,0,1-.19,1c-.7,9.27-1.39,12.79-2.68,14.08-1,1.09-2.18,1.29-4.71,1.29-1.24,0-2.83-.05-4.46-.15a7.35,7.35,0,0,0-.85-2.82c2.43.24,4.81.24,5.65.24s1.34-.05,1.74-.44c.84-.85,1.49-3.72,2-10.81H993.66V418.34h12.25a41.09,41.09,0,0,0,1.84-4.31l4.31.94a1,1,0,0,1-1,.5c-.45.84-1,1.88-1.69,2.87h15.77v15.57H996.94v3.57h35.3Zm-10.36-19.14H996.94v3.87h24.94Zm-24.94,10.41h24.94v-4.16H996.94Zm3.32,27.33a33.38,33.38,0,0,0-1.14-9l2.78-.45a31.85,31.85,0,0,1,1.34,8.93Zm9.52-1.2a31.37,31.37,0,0,0-2.48-8l2.63-.64a31.66,31.66,0,0,1,2.68,7.88Zm7.88-9.66a29.42,29.42,0,0,1,3.92,6.39l-2.53,1.14a28.25,28.25,0,0,0-3.76-6.54Z"/><path class="cls-1" d="M847.65,509.73c12.2-11.66,26.88-17.69,42.74-17.69,12.72,0,23.86,3.8,32.77,10.88,13.11,10.48,21.24,27.53,21.24,45.62,0,13.5-4.46,24.51-15.34,32.38-10.48,7.47-27.52,12.32-52.56,13.37-.92,0-1.32-.39-1.32-.79a1.12,1.12,0,0,1,1.05-1c14.69-3.4,27.14-8.91,35.92-16.25,9.84-8.13,14.69-19.67,14.69-33.3s-5-26.74-13.11-35.13c-6.56-6.69-14.69-10.49-24-10.49-1.31,0-2.63.13-3.94.26a29.92,29.92,0,0,1,5.25,6.16,20,20,0,0,1,3.27,11.8,71.21,71.21,0,0,1-1.44,11.28c-3.67,18.48-11.8,35.65-19,44.57-6.81,8.39-14.68,13.11-21.63,13.11-5.63,0-9.83-1.45-12.19-9.31a45,45,0,0,0-4.06-9.57c-3.8-6.16-7.48-10.75-7.48-18C828.51,533.33,836.64,520.22,847.65,509.73Zm-3.93,53.1c2.1,2.88,4.07,3.93,7.61,3.93,4.32,0,9-3.15,14-9.44,7.34-9,15.21-25,18.75-40.11a51.77,51.77,0,0,0,1.44-9.31,18.47,18.47,0,0,0-1-6.29,21.71,21.71,0,0,0-1.83-3.54c-9.7,2.09-18.75,8.52-26.09,17.56-9.05,11.15-15.21,24.26-15.21,37.5C841.36,558,842.41,560.86,843.72,562.83Z"/><path class="cls-1" d="M1004.72,549.06c-3.41-4.06-5.38-8.39-5.38-12.19,0-4.72,1.84-8.26,4.46-11.8,2.23-3,5-5.77,9.44-10.62a26.74,26.74,0,0,1-10.62-7.86,20.9,20.9,0,0,1-3.93-9.44,38.33,38.33,0,0,1-.4-4.33,21.4,21.4,0,0,1,.26-2.88c.14-.79.53-1.18,1.05-1.18s.66.26.92.92a17.86,17.86,0,0,0,2.89,5,15.71,15.71,0,0,0,5.9,4.06,39.92,39.92,0,0,0,14,2.89,14.48,14.48,0,0,1,9.57,3.54c2.88,2.35,4.85,5.11,4.85,9,0,1.57-.39,3.41-1.57,4.33-1.7,1.7-4.46,1.7-6.82,1.7-3.67,0-6.81-.65-10.88.79-2.88,1-8.13,3.41-11,6.29-1.44,1.44-3.41,3.41-3.41,5.64,0,3.14,2.1,5.63,5.77,8.78,2,1.7,4.06,3.15,6.16,4.72a48.58,48.58,0,0,1,21.24-4.85,44.82,44.82,0,0,1,18,3.93,48.45,48.45,0,0,1,16.25,11.8c4.46,5.11,6.82,10.49,6.82,14.95,0,3.27-.79,5-2.36,6.42a8.78,8.78,0,0,1-6,2.23,11.33,11.33,0,0,1-6.42-1.58,13.08,13.08,0,0,1-3.67-5c-1.32-3-2.23-6.16-3.67-9a38.16,38.16,0,0,0-9.71-12.85,22.66,22.66,0,0,0-15.07-5.5,21.24,21.24,0,0,0-10.62,2.75,88.65,88.65,0,0,1,9,6.68c6.29,5.38,9.17,10.49,9.17,16.65a16.45,16.45,0,0,1-6.29,12.59,18.48,18.48,0,0,1-11.54,3.8c-4.72,0-11-2.49-16-3.8s-10.75-2.75-17.17-4.72c-.53.78-1.18,1.44-1.71,2.09-2.75,3.28-4.46,6.17-7.08,8.27a10.87,10.87,0,0,1-7.21,2.35,23.32,23.32,0,0,1-9.57-1.57c-3-1.31-5.37-3.67-5.37-7.47,0-3.54,2-6.42,7.08-7.21,3.14-.53,6-.66,7.21-.79,3.8-.26,8.91-4.06,11.8-6.29,4.45-3.54,8-6.95,12.45-10.36,3.67-2.75,7.47-5.77,11.4-8.39C1006.16,550.77,1005.5,550,1004.72,549.06Zm-4.2,16.52c-3.93,4.33-7.47,9-10.49,12.72a113.11,113.11,0,0,0,14.56.65c5.5,0,9.83-.39,12.58-1.44,3.8-1.44,5.24-4.2,5.24-6.29s-1.18-5.64-4.85-9.83a50.55,50.55,0,0,0-6.16-5.77A77.15,77.15,0,0,0,1000.52,565.58Zm60.31-50.87c3,1.84,5,4.33,5,7.35,0,3.27-2.36,5.9-5.12,5.9-1.83,0-3.41-.79-5-3.54-3.15-5.64-6.42-8.79-10.35-11.15-.66-.26-.92-.65-.92-1s.39-.78,1.31-.78C1052.17,511.31,1057.28,512.62,1060.83,514.71Zm.12-12.58a25.55,25.55,0,0,1,11.15,2.1c3.41,1.7,5.51,4.45,5.51,7.47s-2,5.51-4.6,5.51c-1.7,0-3-.53-5.11-3.54-3.67-5.12-6.55-7.48-10.88-9.57-.65-.27-.91-.66-.91-1.05s.39-.66,1.17-.79A36.06,36.06,0,0,1,1061,502.13Z"/><path class="cls-1" d="M170,164.3c.05,1.8.06,3.39,0,4.78a20.48,20.48,0,0,1-.38,3.78,11.57,11.57,0,0,1-1.08,3.08,14.27,14.27,0,0,1-2,2.77q-2.47,2.63-3.82,2.62c-.9,0-1.83-.82-2.81-2.47a15.56,15.56,0,0,0-1.73-2.5,16.86,16.86,0,0,0-3.74-3c-2.93-1.85-4.22-3.07-3.89-3.66s2.38-.6,6.13,0a10,10,0,0,0,2.38.15,2.19,2.19,0,0,0,1.47-.65,3.3,3.3,0,0,0,.73-1.73,25.3,25.3,0,0,0,.27-3.09c.05-2.51.06-5.16,0-7.93s-.09-5.47-.2-8.09-.21-5-.34-7.28-.27-4.09-.43-5.58a24,24,0,0,0-.34-2.55,3.6,3.6,0,0,0-.54-1.38,1.34,1.34,0,0,0-1-.54,9.48,9.48,0,0,0-1.7,0l-5,.38c-2,.16-4.13.36-6.44.62a33.57,33.57,0,0,1-1.54,4.31q3.93.54,6.2,1.08a14.94,14.94,0,0,1,3.43,1.16,3.19,3.19,0,0,1,1.5,1.38,6.9,6.9,0,0,1,.5,1.85c.31,2.26.13,3.65-.54,4.16s-1.84.26-3.54-.77a35.89,35.89,0,0,1-3.77-2.69c-1.49-1.18-3.14-2.55-4.93-4.09a15.55,15.55,0,0,1-3.59,4.2,28.81,28.81,0,0,1-5.12,3.28q-4.54,2.31-4.7,1.65t2.62-3.35a25.85,25.85,0,0,0,4.39-5.51,24.33,24.33,0,0,0,2.54-6q-2.69.39-5.39.7c-1.8.2-3.54.43-5.24.69q0,4.08-.07,7.47t-.23,6.74q-.16,3.36-.39,7t-.54,8.17c-.1,1.34-.24,2.71-.42,4.12a31.4,31.4,0,0,1-.66,3.66,11.39,11.39,0,0,1-1.58,3.66,3.56,3.56,0,0,1-2.08,1.58,2.46,2.46,0,0,1-2.15-.66,6.54,6.54,0,0,1-1.74-2.88,18.41,18.41,0,0,1-.69-2.2,7.82,7.82,0,0,1-.23-1.77,5.22,5.22,0,0,1,.23-1.54,8.35,8.35,0,0,1,.69-1.58,14.38,14.38,0,0,0,1.27-3.85,53.06,53.06,0,0,0,.93-5.82q.34-3.19.5-6.66t.12-6.47a44.81,44.81,0,0,0-.35-5.24,8.12,8.12,0,0,0-.77-2.93c-1.8-2.52-2.33-4.17-1.58-5s3.12-.55,7.12.73c2-.15,4.13-.36,6.51-.61s4.82-.54,7.28-.85a40.62,40.62,0,0,0,.58-6.39,7.5,7.5,0,0,0-1.27-4.16,7.52,7.52,0,0,1-1.12-2.24,1.56,1.56,0,0,1,.23-1.54,2.52,2.52,0,0,1,1.93-.5,17.56,17.56,0,0,1,4,.81,16.38,16.38,0,0,1,3.51,1.39,5.28,5.28,0,0,1,1.66,1.34,1.53,1.53,0,0,1,.27,1.31,4.94,4.94,0,0,1-.66,1.35,9.65,9.65,0,0,0-1.39,3.24c-.36,1.38-.66,2.87-.92,4.46q4-.61,7-1.23a13,13,0,0,0,3.93-1.23,11.92,11.92,0,0,1,2-1,4.55,4.55,0,0,1,1.58-.31,3.94,3.94,0,0,1,1.43.27c.46.18,1,.42,1.61.73q3,1.62,4.66,2.66A7.29,7.29,0,0,1,171,130a2,2,0,0,1,.27,1.77,7.53,7.53,0,0,1-1.23,2,3.13,3.13,0,0,0-.58,1,7.32,7.32,0,0,0-.27,1.77c-.05.8-.08,1.86-.08,3.2s0,3.08.12,5.24.18,4.8.3,7.93S169.82,159.89,170,164.3ZM158.16,159q.39,4.15-1.5,5.16c-1.26.67-2.68.23-4.28-1.31l-2.15-2c-.67-.62-1.35-1.22-2-1.81l-2.2-1.85-2.54-2.12a18.6,18.6,0,0,1-4,4,25.28,25.28,0,0,1-6.39,3.15q-4,1.4-4.43.85t2.5-2.77a27.18,27.18,0,0,0,2.81-2.51,21.45,21.45,0,0,0,2.82-3.5,25.34,25.34,0,0,0,2.62-4.7,3.58,3.58,0,0,0,.23-2.54c-.57-1.49-.56-2.52,0-3.08s2-.36,4.27.61c2.41,1,3.74,2,4,3s-.25,1.91-1.43,2.89a3.52,3.52,0,0,0-1,1.08c-.28.46-.63,1-1,1.77,3,.51,5.35,1,7.13,1.38A24.11,24.11,0,0,1,155.7,156a4.35,4.35,0,0,1,1.92,1.38A3.59,3.59,0,0,1,158.16,159Z"/><path class="cls-1" d="M257.38,141.58a8.81,8.81,0,0,1,1.93,2.23,1.29,1.29,0,0,1,0,1.62,4,4,0,0,1-2.31.85,24.57,24.57,0,0,1-4.74,0,40.35,40.35,0,0,0-4.47-.08c-1.84.05-3.85.18-6,.39a81.1,81.1,0,0,1,1,12.4q0,4.55-.23,7.74a29.73,29.73,0,0,1-.85,5.47,11.6,11.6,0,0,1-1.77,3.85,14.64,14.64,0,0,1-3,3c-1.69,1.28-3.11,1.86-4.23,1.73a2.22,2.22,0,0,1-2.08-1.89,12.18,12.18,0,0,0-1.7-3.73,18.43,18.43,0,0,0-3.7-4q-3.62-2.93-3.08-3.54t5.78.54a25.13,25.13,0,0,0,3,.58,2.74,2.74,0,0,0,1.77-.31,2.56,2.56,0,0,0,1-1.54q.3-1.12.69-3.12a33.9,33.9,0,0,0,.46-3.62c.1-1.34.16-2.74.16-4.2s-.06-2.91-.16-4.35-.23-2.83-.38-4.16q-2.85.38-5.24.81a25.7,25.7,0,0,0-3.93,1c-1.18.41-2.13.7-2.85.88a4.77,4.77,0,0,1-2,.12,4.39,4.39,0,0,1-1.78-.77,27.27,27.27,0,0,1-2.27-1.85q-1.08,3.09-2,5.43a38.88,38.88,0,0,1-2,4.28q4,2.46,5.31,4.73a7.72,7.72,0,0,1,.93,5.05,11,11,0,0,1-1,3.74,2.87,2.87,0,0,1-1.7,1.58,2.46,2.46,0,0,1-2.08-.66,8.38,8.38,0,0,1-2.12-3,35.74,35.74,0,0,0-3.62-5.93,55.58,55.58,0,0,1-7.58,6.35,29.08,29.08,0,0,1-9.29,4.2c-2.1.57-3.32.63-3.66.19s.4-1.24,2.2-2.42q2.31-1.47,4.51-3.16t4-3.39c1.23-1.13,2.35-2.24,3.35-3.31a32.44,32.44,0,0,0,2.51-3c-.52-.56-1.07-1.13-1.66-1.69s-1.17-1.13-1.73-1.7a6.92,6.92,0,0,1-1.7-2.27,4.78,4.78,0,0,1-.08-2.27c.16-.88.31-1.7.47-2.47s.28-1.54.38-2.31c-1,.36-1.85.72-2.62,1.08s-1.54.74-2.31,1.15a20.54,20.54,0,0,1-2.35,1,3.55,3.55,0,0,1-1.73.24,3.62,3.62,0,0,1-1.62-.77,20.65,20.65,0,0,1-2-1.82c-1.95-1.95-2.8-3.2-2.54-3.77s1.72-.77,4.39-.62a15.3,15.3,0,0,0,2,0c.69,0,1.47-.09,2.35-.19s1.88-.24,3-.42,2.53-.43,4.12-.74c.62-3.54,1.05-6.58,1.31-9.12s.39-4.68.39-6.4a21.66,21.66,0,0,0-.31-4.08,5.56,5.56,0,0,0-.85-2.2q-1.92-2.46-.77-3.66c.77-.79,2.34-.73,4.7.2a20,20,0,0,1,2.5,1.08q1.2.61,2.43,1.38c1.64,1.13,2.55,2.11,2.73,2.93a2.29,2.29,0,0,1-1,2.31,1.9,1.9,0,0,0-.3.42,8,8,0,0,0-.39.81c-.15.36-.35.86-.58,1.51s-.5,1.47-.81,2.5c-.25.87-.51,1.69-.77,2.46s-.51,1.58-.77,2.43-.54,1.79-.84,2.81-.65,2.19-1,3.47l5.7-1.08a6.94,6.94,0,0,0-.62-3.47,3,3,0,0,1-.54-1.81,1.56,1.56,0,0,1,.62-1.19,2.23,2.23,0,0,1,1.42-.35,4.14,4.14,0,0,1,2,.73c.87.52,1.63,1,2.27,1.47l2.19,1.54c1.13.92,1.67,1.71,1.62,2.35a3.2,3.2,0,0,1-1.08,2,7.32,7.32,0,0,0-1.27,2.08c-.43,1-.91,2.24-1.42,3.78,1.08,0,2.18-.12,3.31-.2s2.35-.2,3.66-.38,2.75-.4,4.31-.65l5.43-.93a15.93,15.93,0,0,0-.88-2.66,3.41,3.41,0,0,0-1.12-1.5,10.72,10.72,0,0,1-2.85-2.5c-.46-.7-.54-1.27-.23-1.74a2.64,2.64,0,0,1,2.12-1.19,9.11,9.11,0,0,1,3.89.89c1-1.39,1.92-2.65,2.69-3.78s1.6-2.44,2.47-3.93c.56-1,.8-1.65.69-1.89s-.49-.21-1.15,0c-1.34.41-2.94,1-4.82,1.62s-3.73,1.36-5.58,2.08c-1,.41-1.76.71-2.35.89a5.3,5.3,0,0,1-1.5.27,2.8,2.8,0,0,1-1.2-.27,10,10,0,0,1-1.35-.81,28.38,28.38,0,0,1-2.77-2c-.62-.54-.9-1-.85-1.27s.44-.56,1.16-.74a20.2,20.2,0,0,1,3.23-.42,40.58,40.58,0,0,0,4.55-.62c1.64-.3,3.23-.66,4.78-1.07s2.91-.83,4.12-1.24a9.28,9.28,0,0,0,2.5-1.15,14.32,14.32,0,0,1,2.16-1.39,3.13,3.13,0,0,1,1.81-.35,5.44,5.44,0,0,1,1.92.7,27.61,27.61,0,0,1,2.66,1.73,35.25,35.25,0,0,1,4,3.24,4.06,4.06,0,0,1,1.42,2.19,1.53,1.53,0,0,1-1,1.47,15.26,15.26,0,0,1-3.16,1.11,8.09,8.09,0,0,0-1.5.54,24,24,0,0,0-2.12,1.2c-.87.53-2,1.28-3.27,2.23l-5,3.58a17.24,17.24,0,0,1,1.85,2.43,15.56,15.56,0,0,1,1.46,3.12c1.49-.31,2.85-.6,4.08-.89a25.44,25.44,0,0,0,2.93-.81c1.18-.36,2.21-.63,3.08-.81a8.19,8.19,0,0,1,2.43-.15,6.09,6.09,0,0,1,2.12.62A10.58,10.58,0,0,1,257.38,141.58ZM205,143.89c-.26.87-.53,1.84-.81,2.89s-.58,2.19-.89,3.43a2.8,2.8,0,0,0,0,1.77,3.06,3.06,0,0,0,1.58,1.23c.3.16.6.3.88.42s.58.27.89.43a56,56,0,0,0,3-6.24,39.83,39.83,0,0,0,1.81-5.62Z"/><path class="cls-1" d="M305.68,142.53a14.63,14.63,0,0,0,4-1.33,28.06,28.06,0,0,0,4-2.39,6.45,6.45,0,0,1,3.15-1.43h1.57a5.72,5.72,0,0,1,2.43.71c1.91.91,2.86,1.79,2.86,2.65s-.78,1.57-2.36,2.29a46.8,46.8,0,0,1-4.39,1.64c-2.13.72-4.93,1.62-8.41,2.72a54.74,54.74,0,0,0,2.54,5.68,22.28,22.28,0,0,0,3,4.54c.76,1,1.34,1.73,1.72,2.18a3.22,3.22,0,0,1,.71,1.29,4,4,0,0,1,0,1.57c-.12.65-.33,1.64-.61,3-.43,1.72-1.09,2.58-2,2.58s-2-.77-3.39-2.29a13.11,13.11,0,0,0-6.12-3.43,30.15,30.15,0,0,0-8.47-1.15q-11.29,0-11.3,6.44a9.27,9.27,0,0,0,.22,1.86,3.39,3.39,0,0,0,.64,1.57,6.39,6.39,0,0,0,1.54,1.14,12.65,12.65,0,0,0,2.89,1.15,30.2,30.2,0,0,0,3.79.78,21.9,21.9,0,0,0,3.93.22,24.3,24.3,0,0,0,3.76-.43,12.39,12.39,0,0,0,3.32-1.14,7.46,7.46,0,0,1,3.29-1.08c.91,0,2.17.67,3.79,2l1.93,1.51a1.48,1.48,0,0,1,.65,1.21c0,1.15-1.43,2-4.29,2.58a48.1,48.1,0,0,1-10.51.93,53.48,53.48,0,0,1-6.05-.33,33.38,33.38,0,0,1-5.36-1,20.22,20.22,0,0,1-4.36-1.71,9.2,9.2,0,0,1-3-2.47,10.11,10.11,0,0,1-2.14-6.19,9.81,9.81,0,0,1,2.14-6.11,11.65,11.65,0,0,1,4.47-3.4,23.94,23.94,0,0,1,6.54-1.93,30.36,30.36,0,0,1,7.33-.17,19.54,19.54,0,0,1,6.83,1.85c.24.2.43.23.57.11s.1-.42-.14-.89a36,36,0,0,1-2.29-4.51c-.67-1.57-1.26-3-1.79-4.29q-3,.72-5.93,1.25c-2,.36-4,.71-6.15,1a75.28,75.28,0,0,1-8.94.86,8,8,0,0,1-4-.72,5.06,5.06,0,0,1-2-2.86,9.55,9.55,0,0,1-.72-3.43c0-1.09.39-1.54,1.18-1.32a7.62,7.62,0,0,1,2.9,2c.62.63,1.81.93,3.57.93.91,0,2,0,3.25-.1s2.73-.2,4.4-.4a66.42,66.42,0,0,0,10-1.93c-.24-.81-.56-1.8-1-3s-.87-2.35-1.4-3.54c-.81.19-1.76.38-2.86.57l-3.86.64q-2.14.36-3.54.54a17.83,17.83,0,0,1-2,.18c-2.44,0-4.1-.86-5-2.58a9.23,9.23,0,0,1-1.43-4c0-1,.43-1.46,1.29-1.46a1.63,1.63,0,0,1,1,.53,12.92,12.92,0,0,0,1.36,1.11,6.53,6.53,0,0,0,3.79,1.07,50.78,50.78,0,0,0,9-1.35c-.15-.48-.35-1-.61-1.65s-.59-1.31-1-2.07a7.3,7.3,0,0,0-2.46-3.26l-2.11-1.32c-1.19-.47-1.79-1.12-1.79-1.93a1.26,1.26,0,0,1,.79-1.14,9.23,9.23,0,0,1,3.71-.43,27.23,27.23,0,0,1,4.72.28,3.8,3.8,0,0,1,2.36,1,7.43,7.43,0,0,1,.72,3.44,12.33,12.33,0,0,0,.43,2.64,22.76,22.76,0,0,0,.93,2.65,12.68,12.68,0,0,0,5.15-3,5,5,0,0,1,2.71-1.44,6.52,6.52,0,0,1,4,1c1.62.76,2.43,1.59,2.43,2.5,0,.43-.3.85-.9,1.25a13.09,13.09,0,0,1-2.5,1.25c-1.07.43-2.36.92-3.86,1.47s-3.16,1.18-5,1.89c.38,1.1.79,2.23,1.22,3.4A24.35,24.35,0,0,0,305.68,142.53Z"/><path class="cls-1" d="M375,151.75l2.79-1.14,2.29-1q1.06-.46,2-1l2-1.08,1.71-.86a3.79,3.79,0,0,0,.64-.35.22.22,0,0,0,.08-.15c0-.23-.46-.73-1.36-1.5a2.85,2.85,0,0,1-1.29-2c0-.62.45-.93,1.36-.93a9.86,9.86,0,0,1,3.93,1.29,13.43,13.43,0,0,1,4,3,5,5,0,0,1,1.54,2.68q0,1.58-3.86,2.64a60.78,60.78,0,0,0-7.62,2.54q-3.75,1.55-7.68,3.54c0,.81.08,1.67.1,2.58s0,1.88,0,2.93a13.73,13.73,0,0,1-.43,4.22,3.66,3.66,0,0,1-2.29,1.86,7.2,7.2,0,0,1-3.32.78c-1,0-1.47-.64-1.47-1.79a11.48,11.48,0,0,1,.39-2.53,28.74,28.74,0,0,0,.61-4.69,19.51,19.51,0,0,0-3.86,2.58,18.09,18.09,0,0,0-2.72,2.89,12.19,12.19,0,0,0-1.6,2.9,7.36,7.36,0,0,0-.54,2.57,3.73,3.73,0,0,0,.86,2.43,4.35,4.35,0,0,0,1.78,1,17.26,17.26,0,0,0,3.58.75c1.48.19,2.8.33,4,.43s2.18.14,3,.14a36.2,36.2,0,0,0,11-1.93,11.56,11.56,0,0,1,3.07-.57c.91,0,2.17.6,3.79,1.79s2.43,2.07,2.43,2.64q0,1.58-7.36,2.51a93,93,0,0,1-12.94,1.07q-19.24,0-19.24-9.44a18.15,18.15,0,0,1,.75-4.83,13.32,13.32,0,0,1,2.4-4.75q3.21-3.87,11.65-8.44a7.21,7.21,0,0,0-.93-4.11,3.36,3.36,0,0,0-3.07-1.61,8.86,8.86,0,0,0-4.22,1.15,39.35,39.35,0,0,0-4.43,2.78,21.84,21.84,0,0,0-2.29,1.83c-.76.69-1.5,1.39-2.22,2.11a25.27,25.27,0,0,0-1.89,2.11,21.37,21.37,0,0,0-1.32,1.82c-1.29,2.19-2.31,3.29-3,3.29s-1.4-.72-2-2.15a10.39,10.39,0,0,1-.79-3,2.36,2.36,0,0,1,.43-1.43l5.44-7c.76-1,1.52-2.18,2.28-3.39s1.49-2.41,2.19-3.58l2-3.43c.67-1.12,1.31-2.13,1.93-3a24.33,24.33,0,0,1-3,0c-1.22-.07-2.43-.15-3.62-.25q-3.42-.28-4.43-2.78a10.51,10.51,0,0,1-1.07-3.94c0-1,.36-1.5,1.07-1.5s1.48.57,2.58,1.72a4.21,4.21,0,0,0,.82.75,4.14,4.14,0,0,0,1.21.53,11.32,11.32,0,0,0,1.9.36,22.09,22.09,0,0,0,2.79.14,51.43,51.43,0,0,0,5.65-.42,31,31,0,0,0,2.68-4.9,9.44,9.44,0,0,0,.82-3.11,5.23,5.23,0,0,0-1-2.65,5.62,5.62,0,0,1-.93-2.14c0-1,.55-1.43,1.64-1.43a4,4,0,0,1,1.83.5,22.63,22.63,0,0,1,2.57,1.39c.88.55,1.72,1.12,2.5,1.72a10.65,10.65,0,0,1,1.61,1.39,2.19,2.19,0,0,1-.14,3.36,4.21,4.21,0,0,0-.54.5l-.68.79c-.28.33-.64.79-1.07,1.36s-1,1.31-1.72,2.21a36.43,36.43,0,0,0,10.3-3.21,7.08,7.08,0,0,1,2.93-.86,13.65,13.65,0,0,1,3.94,1.43c2,.91,3.07,1.64,3.07,2.22q0,2.49-24.45,6.15-1.58,2.07-2.72,3.61l-2.11,2.82c-.64.86-1.24,1.68-1.79,2.47s-1.13,1.65-1.75,2.61c-.05.05,0,.07.07.07a2,2,0,0,0,.79-.36,15.54,15.54,0,0,1,9.08-3.36,8.06,8.06,0,0,1,6.22,3A8.2,8.2,0,0,1,375,151.75Z"/><path class="cls-1" d="M451.16,158.68a7.78,7.78,0,0,1-1.62,1.08,5.56,5.56,0,0,1,2.93,1.62,4.87,4.87,0,0,1,.85,2.77c.05,1.8-.38,2.94-1.28,3.43a2.58,2.58,0,0,1-2.88-.35,19.49,19.49,0,0,1-2.74-2.16,35.07,35.07,0,0,1-2.58-2.61q-1.77-2-1.77-2.82c0-.54.95-.75,2.85-.65.77.1,1.46.18,2.08.23a2.76,2.76,0,0,1,.46-2.39,16.76,16.76,0,0,1,1.54-2.19c.72-.9,1.54-1.92,2.47-3,.56-.66.77-1,.61-1.11a5.18,5.18,0,0,0-1.77.11,24.55,24.55,0,0,0-3.54.89,28.33,28.33,0,0,0-3.24,1.35c-1,.3-1.76.54-2.35.69a4.11,4.11,0,0,1-1.54.15,3,3,0,0,1-1.31-.5,15.89,15.89,0,0,1-1.65-1.27c-1.39-1.13-2.08-2-2.08-2.46a34.34,34.34,0,0,1-4.93,3.62q-3.78,2.24-4.2,1.65t2.5-3.81l.93-1.08c.3-.36.61-.74.92-1.15a1.27,1.27,0,0,1-.54.15c-1.69.26-3.25.51-4.66.77s-3.07.64-5,1.16a13.45,13.45,0,0,1-1,4.23c-.44.83-.88,1.24-1.35,1.24-.77,0-1.49-.68-2.15-2.05a19.75,19.75,0,0,1-1.39-6.58c-.1-1-.24-2-.42-3.2s-.4-2.28-.66-3.39a29.14,29.14,0,0,0-.92-3.16,11.18,11.18,0,0,0-1.16-2.42,10.25,10.25,0,0,1-1.15-2c-.21-.53-.13-.91.23-1.11a4,4,0,0,1,2.12-.16,41.29,41.29,0,0,1,4.58.85,19.58,19.58,0,0,0,4.93-1.23,10.89,10.89,0,0,0,3.16-1.93,7.21,7.21,0,0,1,1.35-1,2.44,2.44,0,0,1,1.27-.27,4.93,4.93,0,0,1,1.69.5c.67.31,1.54.75,2.62,1.31q3,1.69,3.35,2.74t-1.35,2.73a11.07,11.07,0,0,0-2.08,3.12,42.2,42.2,0,0,0-2,5.66,3.22,3.22,0,0,1,1.43,1.16,2,2,0,0,1,.34,1.31,64,64,0,0,0,5.86-9.86,91.36,91.36,0,0,0,4.7-11.79,20.07,20.07,0,0,0,.88-4,6.48,6.48,0,0,0-.19-2.89,5.29,5.29,0,0,1-.65-2,1,1,0,0,1,.57-1.08,3.31,3.31,0,0,1,2,.11,22,22,0,0,1,3.77,1.62,14.32,14.32,0,0,1,2.85,1.7,3.73,3.73,0,0,1,1.16,1.38,1.44,1.44,0,0,1-.08,1.2,6.81,6.81,0,0,1-.85,1.19,4.43,4.43,0,0,0-.88,1.27,6.12,6.12,0,0,1-.66,1.12c3.34,3.18,6.25,5.77,8.74,7.74a70.73,70.73,0,0,0,6.78,4.85,45,45,0,0,0,5.7,3.05c1.78.77,3.61,1.51,5.51,2.23q3.93,1.4,3.89,2.16c0,.51-1.53,1.1-4.5,1.77a46.12,46.12,0,0,1-6.17,1,14.61,14.61,0,0,1-4-.12,6.3,6.3,0,0,1-2.66-1.11,11,11,0,0,1-2.08-2.12q-3-3.47-6-7.2t-6.7-8.21q-1.08,2.39-2.12,4.47t-2.12,3.93a4.5,4.5,0,0,1,.77-.23,5.38,5.38,0,0,1,1-.08,20.57,20.57,0,0,1,5.09.5,3.08,3.08,0,0,1,2.23,2.74,4,4,0,0,1-.08,2.11,2.53,2.53,0,0,1-2.15,1.74,2.73,2.73,0,0,1-1.31-.16,11,11,0,0,1-2.62-1.54c-.88-.66-1.65-1.28-2.31-1.85a6.5,6.5,0,0,1-1-.88,2.59,2.59,0,0,1-.54-.81,57.25,57.25,0,0,1-3.74,5.51,41.62,41.62,0,0,1-4,4.43,11.42,11.42,0,0,1,2.85-.16,20.8,20.8,0,0,0,4.05-.27,38.93,38.93,0,0,0,4.27-.92,35.5,35.5,0,0,0,3.78-1.27,15.4,15.4,0,0,0,2.62-1.31,15.58,15.58,0,0,1,1.38-.81,2,2,0,0,1,1.16-.19,4.34,4.34,0,0,1,1.42.5c.54.28,1.25.7,2.12,1.27,2.47,1.64,3.78,2.84,3.93,3.58s-.44,1.32-1.77,1.73a11.72,11.72,0,0,0-3.81,2.35C455.79,154.61,453.78,156.37,451.16,158.68ZM424.35,143c.1-.72.18-1.43.23-2.15s.16-1.62.31-2.7c.2-1.39.15-2.21-.15-2.47s-1-.25-2.16,0c-.57.11-1.14.22-1.73.35l-2.2.5q.54,5.09.92,9.86a12.91,12.91,0,0,0,3.66-1.58A2.65,2.65,0,0,0,424.35,143Zm6.09,31.2q-1.47,1.77-2.85,1.5c-.93-.18-1.73-1.06-2.39-2.65-.31-.83-.54-1.49-.7-2a4,4,0,0,1-.19-1.31,2.1,2.1,0,0,1,.31-1,8.81,8.81,0,0,1,.66-.89,19.51,19.51,0,0,0,2.31-3.27,12.92,12.92,0,0,0,1.61-4.2c.26-1.54.67-2.28,1.24-2.23s1.28,1.05,2.15,3a10.58,10.58,0,0,1,.74,6.9A15.22,15.22,0,0,1,430.44,174.24Zm36.05,4.08A30.26,30.26,0,0,1,454.93,180a33.39,33.39,0,0,1-8.93-1.89,13.84,13.84,0,0,1-6-4.12,20.29,20.29,0,0,1-3.47-7.51,18.83,18.83,0,0,1-.77-4.54,1.61,1.61,0,0,1,1.08-1.54,1.52,1.52,0,0,1,1.77.34,10.43,10.43,0,0,1,1.54,3.66,12.53,12.53,0,0,0,2.08,3.81,10.75,10.75,0,0,0,3.55,3.12,10.14,10.14,0,0,0,1.88.77,16.83,16.83,0,0,0,2.7.62c1,.16,2,.27,3.16.35a14.74,14.74,0,0,0,3.2-.12,7.66,7.66,0,0,0,1.65-.38,1,1,0,0,0,.66-.81,3.68,3.68,0,0,0-.39-1.7c-.31-.74-.8-1.76-1.46-3-1.39-2.46-1.79-3.88-1.2-4.24s2.15.77,4.66,3.39a22.66,22.66,0,0,0,4.4,3.78,23.14,23.14,0,0,0,4.69,2.23,2.51,2.51,0,0,1,1.55,1.16,1.91,1.91,0,0,1,0,1.65,4.93,4.93,0,0,1-1.55,1.78A11,11,0,0,1,466.49,178.32Zm1.62-12.17a26.55,26.55,0,0,1-3.55-2.42c-1.49-1.16-3.05-2.4-4.7-3.74s-2.3-2.27-2-2.66,1.5-.6,3.5-.65a43.68,43.68,0,0,1,5,.23,9.82,9.82,0,0,1,3.39.92,5,5,0,0,1,2,1.85,7.55,7.55,0,0,1,.93,2.93c.26,2,0,3.31-.89,3.93S469.75,167,468.11,166.15Z"/><path class="cls-1" d="M544.18,160.12a15.88,15.88,0,0,1-3.29,9.79q-3.36,4.44-10.44,6.87a48.52,48.52,0,0,1-16,2.5c-4.77,0-7.15-.53-7.15-1.57,0-.43.36-.81,1.07-1.15a10,10,0,0,1,3-.71,70.24,70.24,0,0,0,11.11-2.11,35.35,35.35,0,0,0,8.3-3.4A16.84,16.84,0,0,0,536,165.8a9.42,9.42,0,0,0,1.82-5.61,9.73,9.73,0,0,0-3.36-7.3,11.61,11.61,0,0,0-8.22-3.14,19.12,19.12,0,0,0-9.94,3.07q-5.14,3.23-11.51,11a4.31,4.31,0,0,1-3.15,1.86c-1.05,0-2.14-.85-3.29-2.57s-1.71-3-1.71-3.79A7.73,7.73,0,0,1,497.7,156a37.51,37.51,0,0,0,2.21-6.51c.39-1.47.69-2.8.93-4a29.44,29.44,0,0,0,.5-3.18,13.45,13.45,0,0,1,1.86-5.57,9.44,9.44,0,0,1,1.61-2.11,2.52,2.52,0,0,1,1.29-.75.87.87,0,0,1,.86.35,1.91,1.91,0,0,1,.32,1.15A4.46,4.46,0,0,1,507,137a3.72,3.72,0,0,0-.25,1.21,5.14,5.14,0,0,0,1.57,3.22,7.88,7.88,0,0,1,1.25,1.54,2.46,2.46,0,0,1,.4,1.25,2.06,2.06,0,0,1-.5,1.22,11.82,11.82,0,0,1-1.51,1.5,15.5,15.5,0,0,0-3,4.86,32.64,32.64,0,0,0-1.71,3.93c0,.48.3.41.93-.21a38.41,38.41,0,0,1,10.72-8.4,25.37,25.37,0,0,1,11.37-2.61q8.15,0,13,4.5A14.6,14.6,0,0,1,544.18,160.12Zm-16.31-30.89a6.42,6.42,0,0,1-.64,2.21,2.17,2.17,0,0,1-2.22,1.43,10,10,0,0,1-1.46-.18,14.43,14.43,0,0,0-2.26-.17,23.61,23.61,0,0,0-8.5,2.14,6,6,0,0,1-2.22.5c-1.05,0-1.57-.31-1.57-.93a2.29,2.29,0,0,1,.85-1.71c.34-.24,1-.72,1.9-1.44l3.75-2.85q.36-.36.36-.51,0-1-9.37-2.07c-1.81-.24-2.71-.74-2.71-1.5s1-1.43,3.14-1.86a28.49,28.49,0,0,1,6.51-.71,17.25,17.25,0,0,1,10.15,3Q527.87,127.58,527.87,129.23Z"/><path class="cls-1" d="M602,140.09c1.81-.23,3.4-.45,4.76-.64a21.27,21.27,0,0,0,3-.57,9.68,9.68,0,0,1,2.86-.5q1.86,0,4.37,2.5c1.66,1.67,2.5,2.81,2.5,3.43,0,.81-1,1.22-3,1.22a31.37,31.37,0,0,1-3.44-.22,41,41,0,0,0-4.14-.21c-.72,0-1.68,0-2.9.11l-4,.25q0,11-2.43,15.8a27.35,27.35,0,0,1-2.36,4,3.09,3.09,0,0,1-2.29,1.54,1.79,1.79,0,0,1-1.43-.93,7.56,7.56,0,0,1-1-2.08,13.23,13.23,0,0,0-.79-2c-.28-.57-.55-1-.78-1.43a10.87,10.87,0,0,0-2.29-2.43c-1-.86-1.5-1.62-1.5-2.29s.43-1.14,1.28-1.14a7.11,7.11,0,0,1,3.22,1.21,9.83,9.83,0,0,0,2.86,1.22c.53,0,.81-.17.86-.5a17.37,17.37,0,0,0,.39-3.43c.12-2,.21-4.37.25-7.23-1.24.15-2.58.29-4,.43s-2.93.28-4.43.4-3,.25-4.43.39-2.83.29-4.11.43c-.1,1.81-.17,3.56-.22,5.25s-.07,3.35-.07,5c0,.81,0,1.67.07,2.58s.11,1.79.18,2.64.17,1.64.29,2.33a11.15,11.15,0,0,0,.39,1.68,5,5,0,0,0,3,3.22,6.4,6.4,0,0,0,1.5.35c.67.1,1.42.18,2.26.25s1.71.12,2.64.15l2.68,0q8,0,11.94-1.86a7.79,7.79,0,0,1,2.94-.78q1.21,0,4.14,1.86c1.91,1.19,2.86,2.16,2.86,2.93s-.54,1.28-1.64,1.71A44.79,44.79,0,0,1,605,176q-2.64.36-5.79.54c-2.1.11-4.29.18-6.58.18-1.14,0-2.3,0-3.46,0s-2.28-.07-3.33-.14-2-.17-2.86-.29-1.57-.25-2.14-.39a11.09,11.09,0,0,1-5-2.72q-1.71-1.94-2.43-6.51a25,25,0,0,1-.32-3q-.1-1.89-.18-4.29c-.05-1.59-.07-3.32-.07-5.18v-5.72c-2,.33-3.76.6-5.11.79s-2.28.33-2.76.42a15.61,15.61,0,0,1-2.36.22,4,4,0,0,1-4.07-2.5,11.81,11.81,0,0,1-1.08-4.4c0-1.22.39-1.82,1.15-1.82a3.91,3.91,0,0,1,2.57,1.43A4.15,4.15,0,0,0,564,144c1,0,2.28-.09,3.83-.25s3.18-.33,4.9-.47l.14-7.08a6,6,0,0,0-1.86-4.65c-1.19-1.14-1.79-2.09-1.79-2.86s.62-1.14,1.86-1.14a19.51,19.51,0,0,1,5.36,1.36q4.08,1.29,4.08,3.07a5.72,5.72,0,0,1-.71,2.43,10.6,10.6,0,0,0-.79,3.47,27.84,27.84,0,0,0-.07,4.47l10.65-1c3.1-.29,5.22-.52,6.37-.71v-6c0-1.74,0-2.92.07-3.54l.07-3.29a3,3,0,0,0-.4-1.71,2.59,2.59,0,0,0-1.6-.86c-1.77-.43-2.65-1.19-2.65-2.29a1.6,1.6,0,0,1,.89-1.39,6.25,6.25,0,0,1,3-.54,16.2,16.2,0,0,1,5.51,1.29q3.36,1.22,3.36,2.86a5.43,5.43,0,0,1-.93,2.36,14.55,14.55,0,0,0-.68,1.64,10.12,10.12,0,0,0-.46,2.08c-.1.71-.17,1.9-.22,3.57S601.9,138.19,602,140.09Z"/><path class="cls-1" d="M671,172.77a12.64,12.64,0,0,0,6.83-4.72,11.91,11.91,0,0,0,2.11-6.79,10.21,10.21,0,0,0-3.43-8.22,8.23,8.23,0,0,0-2.11-1.25,17.93,17.93,0,0,0-2.65-.9,27.07,27.07,0,0,0-2.82-.57,18.71,18.71,0,0,0-2.72-.21,25.33,25.33,0,0,0-10,2.57,35.44,35.44,0,0,0-9.51,6.22q-1.86,1.78-3.25,3.36a35,35,0,0,0-2.4,3c-1.28,1.82-2.43,2.72-3.43,2.72q-2,0-2-5.58c0-1.38.31-2.28.93-2.71a49.94,49.94,0,0,0,5.29-5.44q3.79-4.29,10.72-11.65a82.09,82.09,0,0,0,5.76-6.55,30.51,30.51,0,0,1,3.4-3.89,14.56,14.56,0,0,0,2.21-2.36.19.19,0,0,0-.21-.22,20.88,20.88,0,0,0-3.72.93c-1.1.29-2.19.6-3.29.93s-2.17.69-3.22,1.08a13.57,13.57,0,0,1-4.29,1.14q-2.43,0-4.07-2.93a10.31,10.31,0,0,1-1.57-4.15q0-1.29.75-1.29a3.22,3.22,0,0,1,1.6.5,10.13,10.13,0,0,0,4.3,1.29,18.74,18.74,0,0,0,2.64-.29c1.24-.19,2.86-.47,4.86-.85a46.32,46.32,0,0,0,5.37-1.33,32.61,32.61,0,0,0,4-1.53,5.58,5.58,0,0,1,2.5-.65q1.22,0,3.94,2.51t2.78,3.29a1.62,1.62,0,0,1-.71,1.28,13,13,0,0,1-2.72,1.43,14.83,14.83,0,0,0-4.29,3c-1.57,1.5-3.5,3.33-5.79,5.47-1.1,1.05-2.25,2.15-3.47,3.29s-2.44,2.36-3.68,3.65l-2.82,2.93-1,1.07c-.1.1-.1.17,0,.22a1.78,1.78,0,0,0,.43-.22,21.9,21.9,0,0,1,3.93-2.36,34.83,34.83,0,0,1,4.33-1.68,28.83,28.83,0,0,1,4.29-1,26.42,26.42,0,0,1,3.89-.32,19.62,19.62,0,0,1,8.73,2,14.73,14.73,0,0,1,6.58,5.61,15.29,15.29,0,0,1,2.21,8.12,16.12,16.12,0,0,1-6.58,13.44,24.4,24.4,0,0,1-15.37,5.08q-6.79,0-11-2.72a8.82,8.82,0,0,1-3.22-3.14,8.16,8.16,0,0,1-.93-3.94,7.73,7.73,0,0,1,2.68-5.93q2.69-2.43,8.55-2.43a15.34,15.34,0,0,1,8.08,2.29,11.61,11.61,0,0,1,2.75,2.39,4.74,4.74,0,0,1,1.25,3.11A6.23,6.23,0,0,1,671,172.77Zm-2.64.72a4.6,4.6,0,0,1-1.93-2.79,7.28,7.28,0,0,0-2.58-3.36q-1.35-1.08-4.5-.93c-2,.09-3.22.43-3.79,1a2.75,2.75,0,0,0-.86,2,2.79,2.79,0,0,0,1.39,2.68,10.6,10.6,0,0,0,3.72,1.5,20.12,20.12,0,0,0,4.58.43A14,14,0,0,0,668.31,173.49Z"/><path class="cls-1" d="M132.82,259.83a42.7,42.7,0,0,1-2.58-3.43q-1.12-1.65-2.58-4.2a34.57,34.57,0,0,1-1.93,5.09,30.88,30.88,0,0,1-2.39,4.12,22.9,22.9,0,0,1-2.89,3.43q-1.58,1.53-3.42,3c-3.09,2.46-4.87,3.49-5.36,3.08s.5-2.18,3-5.31A44.63,44.63,0,0,0,121.15,254,48.26,48.26,0,0,0,124,239.11q.3-6.24.35-10.64t-.16-7.35a29.19,29.19,0,0,0-.65-4.82,11.25,11.25,0,0,0-1.16-3c-1.08-1.8-1.28-2.93-.62-3.39s2.55-.15,5.63.92a33,33,0,0,1,3.39,1.39,4.59,4.59,0,0,1,1.69,1.27,1.66,1.66,0,0,1,.31,1.35,6.67,6.67,0,0,1-.69,1.69,5.74,5.74,0,0,0-.54,1.35,14.26,14.26,0,0,0-.39,2.31c-.1,1-.2,2.28-.31,3.82s-.2,3.46-.3,5.77a14.7,14.7,0,0,0,2-2.73,6.05,6.05,0,0,0,.81-2.2c.2-1.9.63-3,1.27-3.23s1.71.33,3.2,1.77c1.85,1.8,2.82,3,2.93,3.74s-.49,1.32-1.78,1.88c-1,.47-2.23,1.07-3.62,1.81s-3,1.71-4.93,2.89c-.15,3.24-.38,6.15-.69,8.75a53.65,53.65,0,0,1-1.31,7.12,35.67,35.67,0,0,1,4.7,1.43,7.63,7.63,0,0,1,2.81,1.77,4.88,4.88,0,0,1,1.23,2.46,9.77,9.77,0,0,1,0,3.36,3.37,3.37,0,0,1-.57,1.42,2.25,2.25,0,0,1-1,.81,2,2,0,0,1-1.31,0A2.9,2.9,0,0,1,132.82,259.83Zm-15.64-18a21.89,21.89,0,0,1-1.81-3.39,27.21,27.21,0,0,1-1.5-4.47c-.41-1.64-.47-2.64-.16-3s1.24-.18,2.78.54q4.31,1.92,5.58,4.08a5.36,5.36,0,0,1,.5,4.55q-1.08,3.39-2.46,3.66C119.18,244,118.21,243.29,117.18,241.8Zm58.16,28.74a31.26,31.26,0,0,1-7.66.73,45.7,45.7,0,0,1-6.82-.66c-2.93-.56-4.8-1.81-5.63-3.73s-1.07-4.71-.77-8.36c.11-1,.17-2,.2-2.85s.06-1.67.11-2.39a24.15,24.15,0,0,0-.23-4.85c-.72.1-1.42.22-2.12.34s-1.47.25-2.35.35c1.65,1.28,2.55,2.29,2.7,3s-.26,1.44-1.23,2.16a14.43,14.43,0,0,0-2.47,2.47,37,37,0,0,1-4,4.43,42.47,42.47,0,0,1-4.86,3.89,31.71,31.71,0,0,1-5.31,3,23.72,23.72,0,0,1-5.28,1.66c-2.51.41-3.8.38-3.85-.08s1.16-1.31,3.62-2.54a34.25,34.25,0,0,0,5.82-3.7,42.64,42.64,0,0,0,4.89-4.5,29.22,29.22,0,0,0,3.58-4.74,18.18,18.18,0,0,0,2-4.32,3.22,3.22,0,0,0-.39,0,2.38,2.38,0,0,1-.46,0q-1.23,0-2.7-.12a6.85,6.85,0,0,1-2.31-.5c-1.49-.56-2.19-1-2.12-1.34s1-.66,2.74-1c1.95-.36,3.73-.7,5.35-1s3.15-.66,4.58-1,2.8-.68,4.09-1,2.59-.74,3.93-1.15c.35-1.18.65-2.29.88-3.32s.45-2,.66-2.85c-.67.11-1.36.2-2.08.27l-2.31.27c-.83.11-1.71.23-2.66.39s-1.94.33-3,.54c0,.77.13,1.62.23,2.54.16,1.64-.06,2.76-.65,3.35a2.46,2.46,0,0,1-1.58.89,2.28,2.28,0,0,1-.69-.12,1.55,1.55,0,0,1-.74-.58,5.84,5.84,0,0,1-.69-1.38,15.72,15.72,0,0,1-.65-2.62l-.24-1.16-1.42.31c-.44.1-.81.21-1.12.31a8.46,8.46,0,0,1-2.73.42,4.15,4.15,0,0,1-2.35-.88c-1.9-1.34-2.75-2.25-2.54-2.74s1.54-.81,4-1l2.47-.16c.82-.05,1.72-.12,2.69-.23a19.37,19.37,0,0,0-2.08-4.16c-1.07-1.33-1.41-2.26-1-2.77s1.88-.49,4.39.08a10,10,0,0,1,4.12,1.5,2.67,2.67,0,0,1,.58,2.58,6.75,6.75,0,0,0-.11.89c0,.33,0,.7,0,1.11,1.49-.25,3.14-.55,5-.88s3.89-.79,6.2-1.35a18.53,18.53,0,0,0,.31-3.74,6.7,6.7,0,0,0-.54-2.42c-.72-1.6-.73-2.6,0-3s2.3,0,4.81,1.08q3.16,1.38,3.7,2.43c.36.69.1,1.55-.77,2.58a6.85,6.85,0,0,0-.92,1.54l.81-.16a3.51,3.51,0,0,0,.8-.23,13.69,13.69,0,0,1,4.28-.46,9.19,9.19,0,0,1,3.5,1.08,8.37,8.37,0,0,1,2.59,1.89c.53.64.7,1.19.5,1.65s-.81.82-1.81,1.08a15,15,0,0,1-4.36.23c-.87-.05-1.94-.06-3.19,0s-3,.17-5.13.43c-.3.92-.64,1.87-1,2.85s-.72,1.92-1.08,2.85a6.83,6.83,0,0,1,3.24.61c1.59.77,2.21,1.56,1.85,2.35s-1.93,1.53-4.7,2.2c-.41.1-.88.21-1.39.31l-1.85.38c1,.72,1.56,1.39,1.58,2a3.61,3.61,0,0,1-.73,2.08,4.66,4.66,0,0,0-.54,1.54c-.15.72-.28,1.51-.38,2.38s-.17,1.73-.2,2.55,0,1.46,0,1.92a11.11,11.11,0,0,0,.53,3.31,1.82,1.82,0,0,0,1.55,1,30.78,30.78,0,0,0,4.62.38,14.14,14.14,0,0,0,4.62-.85q3.31-1.06,5.08-7.85c.88-3.24,1.58-4.86,2.12-4.86s.84,1.62.89,4.86a24,24,0,0,0,.46,4.27,10.66,10.66,0,0,0,1.46,3.51,6.8,6.8,0,0,1,.77,1.85,2.21,2.21,0,0,1-.34,1.81,5.58,5.58,0,0,1-2.12,1.69A18.35,18.35,0,0,1,175.34,270.54Zm-11.17-49.46-4,1.15c-1.2.36-2.32.67-3.35.93-.1.77-.2,1.62-.31,2.54s-.2,1.9-.3,2.93a7.55,7.55,0,0,1-.93,3.16,2,2,0,0,1-1.5,1.11c-.54,0-1-.32-1.5-1a7.13,7.13,0,0,1-.85-3.31,12.36,12.36,0,0,1-.12-1.54c0-.77-.06-1.67-.11-2.7a26.78,26.78,0,0,1-4,.39,7,7,0,0,1-2.35-.31c-1.8-.61-2.69-1.14-2.69-1.58s1.05-.81,3.15-1.11a32.94,32.94,0,0,0,5.78-1.47v-1.15a6.14,6.14,0,0,1,.08-1,10.65,10.65,0,0,0-.42-3.9,6.52,6.52,0,0,0-1.2-2.5q-2.93-2.93-1.77-4t6.16.69a25.83,25.83,0,0,1,3.16,1.27,5.33,5.33,0,0,1,1.66,1.16,1.55,1.55,0,0,1,.42,1.23,5,5,0,0,1-.54,1.58,13.94,13.94,0,0,0-1.08,3.85,10.38,10.38,0,0,1,4.16-1,6.81,6.81,0,0,1,3.32,1.23Q168.33,219.78,164.17,221.08Z"/><path class="cls-1" d="M228.65,235a15.05,15.05,0,0,0,4-1.32,29.76,29.76,0,0,0,4-2.4,6.56,6.56,0,0,1,3.14-1.43h1.58a5.69,5.69,0,0,1,2.43.72c1.9.9,2.86,1.78,2.86,2.64s-.79,1.57-2.36,2.29q-1.22.57-4.4,1.64c-2.12.72-4.92,1.62-8.4,2.72a53.77,53.77,0,0,0,2.54,5.69,22.56,22.56,0,0,0,3,4.54c.76,1,1.33,1.72,1.71,2.18a3.29,3.29,0,0,1,.72,1.28,4.07,4.07,0,0,1,0,1.58c-.12.64-.32,1.63-.61,3-.43,1.72-1.08,2.58-2,2.58s-2-.76-3.4-2.29a13.21,13.21,0,0,0-6.11-3.43,30.59,30.59,0,0,0-8.48-1.15q-11.29,0-11.29,6.44a10,10,0,0,0,.21,1.86,3.5,3.5,0,0,0,.64,1.57,6.12,6.12,0,0,0,1.54,1.15,13,13,0,0,0,2.9,1.14,29.81,29.81,0,0,0,3.79.79,21.78,21.78,0,0,0,3.93.21,24,24,0,0,0,3.75-.43,12.34,12.34,0,0,0,3.33-1.14,7.35,7.35,0,0,1,3.29-1.07c.9,0,2.17.66,3.79,2l1.93,1.5a1.48,1.48,0,0,1,.64,1.21q0,1.72-4.29,2.58a48,48,0,0,1-10.51.93,55.78,55.78,0,0,1-6-.32,35.5,35.5,0,0,1-5.36-1,20.84,20.84,0,0,1-4.37-1.72,8.94,8.94,0,0,1-3-2.47,10.09,10.09,0,0,1-2.15-6.18,9.82,9.82,0,0,1,2.15-6.12,11.63,11.63,0,0,1,4.47-3.39,23.07,23.07,0,0,1,6.54-1.93,29.83,29.83,0,0,1,7.33-.18,19.76,19.76,0,0,1,6.83,1.86c.23.19.43.22.57.1s.09-.41-.14-.89a35.2,35.2,0,0,1-2.29-4.5q-1-2.37-1.79-4.29-3,.71-5.94,1.25c-1.95.35-4,.7-6.15,1a72.88,72.88,0,0,1-8.93.86,8.16,8.16,0,0,1-4-.71,5.18,5.18,0,0,1-2-2.86,9.57,9.57,0,0,1-.71-3.44q0-1.63,1.17-1.32a7.6,7.6,0,0,1,2.9,2c.62.62,1.81.93,3.58.93.9,0,2,0,3.25-.11s2.73-.2,4.4-.39a68.19,68.19,0,0,0,10-1.93c-.24-.81-.56-1.8-1-3s-.87-2.35-1.39-3.54c-.81.19-1.77.38-2.86.57s-2.39.41-3.86.64-2.61.42-3.54.54a18,18,0,0,1-2,.18q-3.65,0-5-2.57a9.18,9.18,0,0,1-1.43-4c0-1,.42-1.47,1.28-1.47a1.58,1.58,0,0,1,1,.54,15.72,15.72,0,0,0,1.36,1.1,6.53,6.53,0,0,0,3.79,1.08,50.94,50.94,0,0,0,9-1.36,14,14,0,0,0-.61-1.65q-.39-.93-1-2.07a7.35,7.35,0,0,0-2.47-3.25c-.93-.6-1.63-1-2.11-1.33-1.19-.47-1.79-1.12-1.79-1.93a1.3,1.3,0,0,1,.79-1.14,9.32,9.32,0,0,1,3.72-.43,27.13,27.13,0,0,1,4.72.29,3.74,3.74,0,0,1,2.36,1,7.29,7.29,0,0,1,.71,3.43,12.13,12.13,0,0,0,.43,2.64,22.13,22.13,0,0,0,.93,2.65,12.68,12.68,0,0,0,5.15-3,5,5,0,0,1,2.72-1.43,6.47,6.47,0,0,1,4,1c1.62.76,2.43,1.6,2.43,2.5,0,.43-.3.85-.89,1.25a13.4,13.4,0,0,1-2.5,1.25c-1.08.43-2.36.92-3.86,1.47s-3.16,1.18-5,1.89c.38,1.1.78,2.23,1.21,3.4A24.25,24.25,0,0,0,228.65,235Z"/><path class="cls-1" d="M271,252a18.18,18.18,0,0,1,1.08,4.51,18,18,0,0,1-.08,4.35,17.6,17.6,0,0,1-1,3.74,7.74,7.74,0,0,1-1.58,2.58,3.41,3.41,0,0,1-2.89,1.27c-1-.13-1.89-1.07-2.66-2.81A7,7,0,0,1,263,262a6.05,6.05,0,0,1,1.35-2.77,14.31,14.31,0,0,0,1.93-3.27,16.23,16.23,0,0,0,1.08-4.05c.36-2.36.79-3.58,1.31-3.66S269.93,249.4,271,252Zm9.63-33.28c1.38-1.69,2.53-3.11,3.43-4.24a29.56,29.56,0,0,0,2.07-2.88,13,13,0,0,0,1-2,5.39,5.39,0,0,0,.39-1.46,6.13,6.13,0,0,1,.39-2,1.36,1.36,0,0,1,.88-.89,2.77,2.77,0,0,1,1.58.23,17.32,17.32,0,0,1,2.54,1.31c2.42,1.44,3.62,2.62,3.62,3.54s-.77,1.75-2.31,2.47a27.64,27.64,0,0,0-3.62,2q-2.09,1.35-4.08,2.81,10.94-1.38,14.33-3.54a3.8,3.8,0,0,1,2.73-.81,12,12,0,0,1,3.74,1.66,19.73,19.73,0,0,1,3.08,2.15,3.81,3.81,0,0,1,1.19,1.66,1.37,1.37,0,0,1-.38,1.35,5.73,5.73,0,0,1-1.66,1.15,5.5,5.5,0,0,0-1,.74,6.25,6.25,0,0,0-1,1.15,13.12,13.12,0,0,0-1,1.89c-.36.77-.77,1.74-1.24,2.93a23.4,23.4,0,0,1-1.34,2.92q-.74,1.32-1.35,2.31c-.77,1.13-1.48,1.7-2.12,1.7s-1.4-.59-2.27-1.77q-2.78.15-6.86.65c-2.72.34-6,.86-9.78,1.58,0,.41,0,.84,0,1.27s0,.91,0,1.43c2.31-.16,4.25-.36,5.82-.62a45.39,45.39,0,0,0,4.58-1c1.28-.36,2.31-.63,3.08-.81a9,9,0,0,1,2-.27,4.63,4.63,0,0,1,1.5.23,11.83,11.83,0,0,1,1.5.7q1.69.92,1.35,2c-.23.74-1.33,1.17-3.28,1.27-.82.05-1.88.14-3.19.27l-4.24.42-4.7.5-4.58.5c-.11,1-.18,2-.23,2.78,1.23-.11,2.69-.25,4.39-.43l5.31-.58q2.78-.3,5.63-.69c1.9-.26,3.69-.53,5.39-.81s3.22-.59,4.58-.92a18.49,18.49,0,0,0,3.2-1,12,12,0,0,1,1.89-.7,3.86,3.86,0,0,1,1.85,0,10.49,10.49,0,0,1,2.23.89,34.24,34.24,0,0,1,3.12,1.89,27.41,27.41,0,0,1,3,2.31,4.22,4.22,0,0,1,1.24,1.69,1.84,1.84,0,0,1-.2,1.51,7.73,7.73,0,0,1-1.27,1.57,4.16,4.16,0,0,0-.88,1.89c-.23.9-.53,2.4-.89,4.51-.46,2.77-.94,5.06-1.42,6.85a24.55,24.55,0,0,1-1.66,4.55,12.77,12.77,0,0,1-2.2,3.16,22.14,22.14,0,0,1-3.12,2.62c-1.74,1.28-3,1.86-3.81,1.73s-1.58-1.09-2.35-2.89a32.44,32.44,0,0,0-2.39-4.5,23.55,23.55,0,0,0-2.69-3.59q-3.78-4.08,2.38-1.92c1.55.56,2.75,1,3.63,1.19a7.08,7.08,0,0,0,2.08.31,1.62,1.62,0,0,0,1.15-.46,5.19,5.19,0,0,0,.77-1.2,24,24,0,0,0,1.81-5.54,28.81,28.81,0,0,0,.66-5.86c0-1.85-.33-3.07-1-3.66a5.24,5.24,0,0,0-3.19-1,20.24,20.24,0,0,0-2.85.08c-1.34.1-3.11.27-5.32.5s-4.89.57-8.05,1-6.84,1-11.05,1.58c-.42.05-.83.57-1.24,1.54a5.17,5.17,0,0,1-.61,1.08,1,1,0,0,1-.81.39,2.37,2.37,0,0,1-1.2-.43,8.81,8.81,0,0,1-1.69-1.5,3.61,3.61,0,0,1-1-1.89,9.83,9.83,0,0,1,.31-3.19,27.79,27.79,0,0,0,.5-3.74c.12-1.62.24-3.94.34-7,0-1.23,0-2.52,0-3.85s-.14-2.58-.27-3.74a23.21,23.21,0,0,0-.5-3,6.41,6.41,0,0,0-.69-1.93,5.79,5.79,0,0,1-1-2,.88.88,0,0,1,.46-1.12,4.64,4.64,0,0,1,2.31-.08A37.29,37.29,0,0,1,280.59,218.69Zm2.31,41.14a4.45,4.45,0,0,1-.85,1.92,2.57,2.57,0,0,1-1.39,1,2.07,2.07,0,0,1-1.58-.27,3.9,3.9,0,0,1-1.42-1.77,17.39,17.39,0,0,1-1.08-2.51c-.31-.9-.72-2.14-1.23-3.73q-1.16-3.85,2.69-1.47a13,13,0,0,1,4.13,3.39A4.38,4.38,0,0,1,282.9,259.83Zm14.79-30.12a7.16,7.16,0,0,0,.62-.85,3.92,3.92,0,0,0,.38-.92c.51-1.6.9-2.89,1.16-3.89s.51-2.17.77-3.51c.1-.62.07-1-.08-1.16s-.52-.17-1.08-.07q-2.62.47-7.09,1.08c-3,.41-6.37.84-10.17,1.31a13.87,13.87,0,0,0-.19,1.69c0,.57-.06,1.21-.11,1.93,1.23-.16,2.45-.35,3.66-.58a22.89,22.89,0,0,0,3.5-1,17,17,0,0,1,2.27-.66,8.78,8.78,0,0,1,1.74-.19,4.67,4.67,0,0,1,1.54.27,14.14,14.14,0,0,1,1.69.73,1.38,1.38,0,0,1,.93,1.5c-.11.64-.85,1.09-2.24,1.35q-2.39.47-6,.81c-2.39.23-4.81.42-7.28.58-.05.56-.07,1.18-.07,1.85v2.08c1.33-.21,2.69-.44,4.08-.7s2.59-.51,3.62-.77a32.15,32.15,0,0,1,4.58-1A11.87,11.87,0,0,1,297.69,229.71Zm-4,27.5a4.47,4.47,0,0,1-.77,2,2.39,2.39,0,0,1-1.27.89,2.23,2.23,0,0,1-1.54-.19,4.89,4.89,0,0,1-1.58-1.31,9.25,9.25,0,0,1-1.46-2.2q-.62-1.27-1.62-3.27c-.57-1.18-.72-1.89-.46-2.12s1-.14,2.39.27a24.72,24.72,0,0,1,3.66,1.35,7,7,0,0,1,2,1.34,2.54,2.54,0,0,1,.73,1.47A6.85,6.85,0,0,1,293.68,257.21Zm11-2.39a4.32,4.32,0,0,1-.42,2.31,3.23,3.23,0,0,1-1.31,1.35,2.65,2.65,0,0,1-1.7.27,3.12,3.12,0,0,1-1.66-.92,18.3,18.3,0,0,1-2-2.55,25.72,25.72,0,0,1-2.12-4c-.61-1.49-.8-2.43-.57-2.81s1.06-.3,2.5.26,2.63,1.07,3.58,1.51a10.35,10.35,0,0,1,2.24,1.31,3.86,3.86,0,0,1,1.15,1.42A4.52,4.52,0,0,1,304.7,254.82Z"/><path class="cls-1" d="M389.9,216.69a15.3,15.3,0,0,0-1.54.73,11.5,11.5,0,0,0-1.19.77,8,8,0,0,0-1.12,1l-1.23,1.35c1.54.92,2.11,1.88,1.73,2.85s-1.89,1.54-4.51,1.7c-.87,0-1.9.12-3.08.23l-3.58.3-3.47.31c-1.1.11-2,.21-2.73.31l-3.35.5c-.9.13-1.71.23-2.43.31a18.24,18.24,0,0,1-2,.12h-2.08q-1.4,14-5.93,23.49a45,45,0,0,1-10.94,15c-3.5,3-5.51,4.27-6.05,3.89s.37-2.17,2.73-5.36A60.64,60.64,0,0,0,346.84,250a72.1,72.1,0,0,0,4.23-17.26,77.18,77.18,0,0,0,.7-11.09c-.11-2.52-.46-4.24-1.08-5.16a9.76,9.76,0,0,1-1.27-2.51,1,1,0,0,1,.5-1.31,5.66,5.66,0,0,1,2.81,0q2,.3,5.66,1.23a54,54,0,0,0,5.78-.31,49.3,49.3,0,0,0,5.58-.89,42.53,42.53,0,0,0,4.82-1.31,15.84,15.84,0,0,0,3.47-1.57c.92-.57,1.68-1,2.27-1.28a3.58,3.58,0,0,1,1.73-.38,5.89,5.89,0,0,1,1.89.46,23.06,23.06,0,0,1,2.66,1.35c1.79,1,3.16,1.87,4.08,2.54a4.65,4.65,0,0,1,1.66,1.73,1.11,1.11,0,0,1-.39,1.31A8.15,8.15,0,0,1,389.9,216.69ZM398.84,262c2.36,1.91,3.12,3.39,2.27,4.47s-3.1,1.26-6.74.54a51.71,51.71,0,0,0-8.59-.84c-3.47-.11-7.06-.07-10.79.11s-7.35.49-10.9.93a61.89,61.89,0,0,0-8.93,1.65,13.88,13.88,0,0,1-2.2.5,4.15,4.15,0,0,1-1.69-.11,6,6,0,0,1-1.74-.89,22.26,22.26,0,0,1-2.15-1.81c-1.34-1.18-1.88-2-1.62-2.35s1.26-.55,3-.5c.93,0,2.12,0,3.59-.08s3.1-.12,4.93-.23,3.78-.24,5.89-.42l6.55-.58.07-5.32q-1.85.17-3.12.24a21.36,21.36,0,0,1-2.23,0,8.53,8.53,0,0,1-1.66-.19,5.36,5.36,0,0,1-1.31-.46c-1.38-.67-2.08-1.22-2.08-1.66s.72-.7,2.16-.81c1.28-.1,2.57-.24,3.85-.42s2.75-.45,4.39-.81a24.89,24.89,0,0,0-.07-3.54,11.82,11.82,0,0,0-.54-2.31c-1.49.41-2.73.79-3.7,1.15s-1.8.7-2.47,1a27.2,27.2,0,0,1-2.77,1.2,1.51,1.51,0,0,1-2.31-1.27,17.31,17.31,0,0,1-.31-2.93,8.25,8.25,0,0,1,0-1.85,2.43,2.43,0,0,1,.46-1.12,2.19,2.19,0,0,1,1-.65,11.42,11.42,0,0,1,1.77-.39,7.75,7.75,0,0,0,3.12-1,10.35,10.35,0,0,0,2.43-2.42,10.08,10.08,0,0,0,1.73-2.62,9.12,9.12,0,0,0,.58-2.16c-1.28.1-2.35.16-3.19.16a13.07,13.07,0,0,1-2.16-.16,7.12,7.12,0,0,1-1.62-.46,10,10,0,0,1-1.66-.93q-2.24-1.45,1.08-1.54c1.39-.05,3.05-.19,5-.42s3.89-.51,5.89-.85,3.9-.69,5.67-1.08,3.17-.73,4.2-1,2.06-.64,2.81-.84a7.4,7.4,0,0,1,2-.31,4.57,4.57,0,0,1,1.69.31,13.3,13.3,0,0,1,1.89.92c1.13.62,1.63,1.27,1.5,2s-1,1.24-2.5,1.65-3.56.8-5.74,1.16-5.07.69-8.66,1c1.79,1.08,2.68,1.86,2.65,2.35s-.78,1.09-2.27,1.81c-.77.36-1.48.71-2.12,1s-1.3.71-2,1.12-1.36.88-2.08,1.42-1.54,1.17-2.47,1.89c1.18-.16,2.31-.32,3.39-.5s2.18-.37,3.31-.58,2.33-.44,3.59-.69l4.35-.93c-1-1.33-1.68-2.37-2.12-3.12a2.92,2.92,0,0,1-.58-1.62c.05-.33.36-.48.93-.46a14.78,14.78,0,0,1,2.46.43,38.93,38.93,0,0,1,4.32,1.27,10.93,10.93,0,0,1,2.92,1.54,6.5,6.5,0,0,1,1.81,2.08,10.76,10.76,0,0,1,1,2.81,4.48,4.48,0,0,1-.07,2.2,2.75,2.75,0,0,1-1,1.46,2.87,2.87,0,0,1-1.77.46,3.8,3.8,0,0,1-2.12-.81,15.35,15.35,0,0,1-1.54-1.23,21.08,21.08,0,0,1-1.85-1.93l-8.55,2a7.67,7.67,0,0,1,2.88,2c.29.49.17,1.12-.34,1.89a4.07,4.07,0,0,0-.54,1.85q1.92-.61,3.27-.93a11.27,11.27,0,0,1,2.39-.31,4.69,4.69,0,0,1,1.85.35,8.43,8.43,0,0,1,1.73,1q1.4,1.08.66,2t-4.43,1.81c-1.34.31-2.43.54-3.28.7s-1.73.28-2.65.38l-.31,5.32,6.32-.77,5.85-.77c1.34-.21,2.48-.35,3.43-.43a10.82,10.82,0,0,1,2.58.08,6.58,6.58,0,0,1,2.12.73A16.65,16.65,0,0,1,398.84,262ZM379,217.15c.2-.87.11-1.42-.27-1.66a3.25,3.25,0,0,0-2-.11l-5.4.77c-1.43.2-2.74.4-3.92.58l-3.47.54c-1.13.18-2.47.37-4,.57-.05,1.08-.09,2.07-.11,3s-.09,1.78-.2,2.66q3.63-.39,8.17-1.12t9.09-1.81a2.36,2.36,0,0,0,1.35-1A8.8,8.8,0,0,0,379,217.15Z"/><path class="cls-1" d="M449.36,224a32.23,32.23,0,0,1,.43,5.5,53.94,53.94,0,0,1-3.22,17.67q-3.21,9.29-8.44,14.73a19.4,19.4,0,0,1-5.18,4,11.1,11.1,0,0,1-5,1.32,7.89,7.89,0,0,1-4.43-1.36,11.32,11.32,0,0,1-3.54-4.08,27.16,27.16,0,0,1-3-13.3,30.2,30.2,0,0,1,4.07-15A30.64,30.64,0,0,1,440,219a33.58,33.58,0,0,1,8.51-1.07q12.09,0,20.17,7.72t8.08,18.09A23,23,0,0,1,473,256.21a25.2,25.2,0,0,1-11.16,9.36,38.46,38.46,0,0,1-16.8,3.58,10.11,10.11,0,0,1-2.9-.36c-.78-.24-1.18-.62-1.18-1.14,0-.82,1.29-1.48,3.87-2s4.93-1.08,6.93-1.68a36.82,36.82,0,0,0,5.15-1.89,21.61,21.61,0,0,0,3.86-2.29,24.1,24.1,0,0,0,3.08-2.72,28.37,28.37,0,0,0,4.11-5.93,15.11,15.11,0,0,0,1.46-6.79,20.85,20.85,0,0,0-5.14-13.73Q459.23,224.59,449.36,224Zm-4.93.07a22.7,22.7,0,0,0-14.88,8.51,26.09,26.09,0,0,0-5.72,16.66,27,27,0,0,0,.36,4.54,16.82,16.82,0,0,0,1,3.65,6.56,6.56,0,0,0,1.61,2.39,3.2,3.2,0,0,0,2.18.86A5.52,5.52,0,0,0,432.7,259q1.79-1.78,4.93-7.72a55.45,55.45,0,0,0,4.76-12.48A78.49,78.49,0,0,0,444.43,224.1Z"/><path class="cls-1" d="M551.61,259c-3.8.46-6.81.78-9.05,1a19.48,19.48,0,0,1-5.35-.15,6.58,6.58,0,0,1-3.2-1.54,19.58,19.58,0,0,1-2.58-3.12q-2.77-3.93-5.86-8.21t-7.16-10q-.07,3.39,0,7.82t.12,9.51a20.46,20.46,0,0,1,5-.53,8.87,8.87,0,0,1,3.89,1.07,4.36,4.36,0,0,1,1.88,1.58c.29.54.12,1.06-.5,1.54a8.58,8.58,0,0,1-3.39,1.27,36.08,36.08,0,0,1-6.78.62q.16,3.71.12,6.7c0,2-.12,3.7-.27,5.09a7.36,7.36,0,0,1-1,3,2.9,2.9,0,0,1-1.77,1.31,3.09,3.09,0,0,1-2.31-.54,10.31,10.31,0,0,1-2.66-2.54,6.59,6.59,0,0,1-1.39-3.43,12.81,12.81,0,0,1,1.24-5.28,17.1,17.1,0,0,0,.61-3.77,34.22,34.22,0,0,1-4.54.12,8.74,8.74,0,0,1-2.55-.5c-2.15-.93-3.21-1.66-3.15-2.2s.89-.83,2.54-.89c.92-.05,2.1-.18,3.54-.38s2.93-.44,4.47-.69q.15-2.77.27-6.48t.27-8.55a59.12,59.12,0,0,1-4.58,7.32,37.77,37.77,0,0,1-11,10,59.94,59.94,0,0,1-7.13,3.62Q485,263.6,484.36,263t3.16-3.58a80.29,80.29,0,0,0,13-13,65.56,65.56,0,0,0,8.9-14.86c-1.65.3-3,.54-4,.69a18.72,18.72,0,0,1-2.62.23,7.43,7.43,0,0,1-1.92-.23,11.9,11.9,0,0,1-1.85-.69c-2-.88-3-1.54-3-2s1.16-.82,3.58-1.08q2.31-.22,5.74-.84c2.28-.41,4.58-.88,6.89-1.39a60,60,0,0,0-.73-10.05,10.32,10.32,0,0,0-1.73-4.51c-2-2.16-2.56-3.55-1.81-4.2s3.17-.39,7.28.73a18.63,18.63,0,0,1,3.62,1.31,5.28,5.28,0,0,1,1.84,1.47,2.29,2.29,0,0,1,.39,1.73,6.87,6.87,0,0,1-.77,2.12,10.29,10.29,0,0,0-.42,1.19,16.44,16.44,0,0,0-.39,1.78c-.13.74-.24,1.67-.35,2.77s-.2,2.48-.3,4.12q3.39-1.15,5.74-1.77a29.16,29.16,0,0,1,4.08-.81,13.59,13.59,0,0,1,3,0,13.4,13.4,0,0,1,2.7.62,8.22,8.22,0,0,1,2.54,1.35,1.38,1.38,0,0,1,.62,1.46A3.06,3.06,0,0,1,535.9,227a14.38,14.38,0,0,1-4.16,1.2c-.67.1-1.52.24-2.54.42s-2.15.36-3.36.54-2.45.37-3.73.58l-3.62.54q4.85,5.31,8.93,9.2a95,95,0,0,0,7.86,6.78,67.7,67.7,0,0,0,7.47,5,69.28,69.28,0,0,0,7.78,3.81q4.63,1.93,4.78,2.7C555.41,258.26,554.18,258.67,551.61,259Z"/><path class="cls-1" d="M598.06,266.84a62.25,62.25,0,0,0-7-8.86,39.88,39.88,0,0,1-9,6.59,49.51,49.51,0,0,1-9.9,4.12c-3.29.87-5,1.11-5.28.73s1.25-1.5,4.43-3.35a73.47,73.47,0,0,0,8.36-5.74,48.35,48.35,0,0,0,6.9-6.74c-1.44-1.34-3-2.72-4.66-4.16s-3.48-2.93-5.43-4.47c-2.27-1.75-3.12-2.85-2.59-3.31s2.4,0,5.59,1.54q3.24,1.55,5.89,2.89t4.89,2.65a23.06,23.06,0,0,0,2.93-5.27,5.46,5.46,0,0,0,.31-3.28c-.51-1.64-.45-2.69.19-3.15s2.12-.08,4.43,1.15a30.86,30.86,0,0,1,3.39,2,3.59,3.59,0,0,1,1.39,1.46,1.35,1.35,0,0,1-.27,1.31,14.73,14.73,0,0,1-1.58,1.66,7,7,0,0,0-1.27,1.57c-.44.7-1,1.61-1.66,2.74-.31.51-.64,1-1,1.58s-.74,1.12-1.16,1.73a32.1,32.1,0,0,1,4.2,3.43,15.16,15.16,0,0,1,2.43,3,8.89,8.89,0,0,1,1.08,2.81,17.13,17.13,0,0,1,.23,2.82q-.15,5.16-1.77,5.81T598.06,266.84Zm26.2,4.54a22.67,22.67,0,0,1-8.75-4.27,20.91,20.91,0,0,1-5.74-8.21,25.88,25.88,0,0,1-1.61-5.5,42.92,42.92,0,0,1-.66-6,45.82,45.82,0,0,1,.12-5.78,35.89,35.89,0,0,1,.69-4.86c.26-1.33.3-2.13.12-2.38s-.63-.36-1.35-.31q-2.48.15-6.55.69T592.25,236q-4.2.71-7.63,1.35a26.59,26.59,0,0,0-4.5,1.12c-1.29.51-2.34.89-3.16,1.12a6.89,6.89,0,0,1-2.16.3,3.93,3.93,0,0,1-1.81-.53,16.31,16.31,0,0,1-2-1.43c-2.36-1.75-3.46-2.81-3.28-3.2s1.81-.57,4.9-.57c.46,0,1.11,0,2-.08s2.07-.18,3.66-.39,3.63-.47,6.12-.81,5.61-.78,9.36-1.34q3.71-.54,6-1t3.78-.84a17.6,17.6,0,0,0,2.58-.93c.72-.33,1.51-.76,2.39-1.27a7.78,7.78,0,0,1,1.46-.77,2.44,2.44,0,0,1,1.35-.08,7.54,7.54,0,0,1,1.77.7c.69.36,1.61.9,2.74,1.61s2.09,1.42,2.73,1.93a3.31,3.31,0,0,1,1.16,1.39,1.15,1.15,0,0,1-.39,1.19,10,10,0,0,1-1.81,1.35,5.92,5.92,0,0,0-1.54,1.46,11.58,11.58,0,0,0-1.39,2.43,17.3,17.3,0,0,0-1,3.27,14.55,14.55,0,0,0-.23,4,26.33,26.33,0,0,0,2.27,10.24,13.07,13.07,0,0,0,5.51,5.94,5.17,5.17,0,0,0,2.31.84c.57,0,1-.56,1.47-1.69a12.48,12.48,0,0,0,.69-2.27c.2-1,.44-2.1.69-3.43.88-4.52,1.53-6.78,2-6.78s.75,2.28,1,6.86c.1,1.79.24,3.58.42,5.35a13.7,13.7,0,0,0,1.35,4.81,13.66,13.66,0,0,1,1.27,3.43,2.28,2.28,0,0,1-.46,2.16,3.54,3.54,0,0,1-2.54.73A19.36,19.36,0,0,1,624.26,271.38Zm-19.8-59.24c1.18-.41,2.16-.72,2.93-.92a9.58,9.58,0,0,1,2-.35,5.14,5.14,0,0,1,1.62.19c.51.16,1.13.36,1.85.62a6.94,6.94,0,0,1,2.35,1.27,2.22,2.22,0,0,1,.84,1.47,1.61,1.61,0,0,1-.73,1.34,5.43,5.43,0,0,1-2.39.93q-9.7,1.92-16,2.69a38.67,38.67,0,0,1-10.63.08c-.72,1.08-1.38,2-2,2.81a20.6,20.6,0,0,1-1.92,2.24,21.6,21.6,0,0,1-2.27,2c-.83.62-1.78,1.29-2.85,2q-5,3.17-6.09,2.78t2.54-4.24a31.52,31.52,0,0,0,4.16-5.39,35.59,35.59,0,0,0,2.54-5,21.21,21.21,0,0,0,1.24-3.89,4.71,4.71,0,0,0,.07-2.23c-.61-1.85-.55-3,.2-3.32s2.47-.1,5.2.77a31.15,31.15,0,0,1,3.46,1.27,4.72,4.72,0,0,1,1.62,1.08.9.9,0,0,1,0,1.12,7.54,7.54,0,0,1-1.31,1.46,12.19,12.19,0,0,0-1,1.12c-.39.49-.86,1.17-1.43,2a78.06,78.06,0,0,0,7.82-1.54C599,213.86,601.74,213.07,604.46,212.14Zm4.39,13.25-5.89,1.2c-2.19.43-4.34.81-6.47,1.11a57,57,0,0,1-5.78.58,10.42,10.42,0,0,1-3.81-.34,13.31,13.31,0,0,1-3.2-1.47c-.54-.41-.71-.76-.5-1a2.43,2.43,0,0,1,1.38-.69,19.91,19.91,0,0,1,2.47-.43c1.13-.1,2.41-.25,3.85-.46s2.93-.46,4.47-.77,3.09-.66,4.66-1.08,3.07-.84,4.51-1.31c.77-.2,1.42-.35,2-.46a5,5,0,0,1,1.46-.08,9.08,9.08,0,0,1,1.24.24c.38.1.78.23,1.19.38,2,.82,2.88,1.66,2.77,2.5S611.62,224.83,608.85,225.39Z"/><path class="cls-1" d="M653.45,252.43a10.34,10.34,0,0,1,3.93.73,9.28,9.28,0,0,1,3.08,2.05,9,9,0,0,1,2,3.12,10.59,10.59,0,0,1,0,7.78,9.18,9.18,0,0,1-2,3.12,9.41,9.41,0,0,1-3.08,2,10.94,10.94,0,0,1-7.86,0,9.28,9.28,0,0,1-5.12-5.12,10,10,0,0,1-.73-3.86,9.53,9.53,0,0,1,2.85-7A9.43,9.43,0,0,1,653.45,252.43Zm0,14.33a4.38,4.38,0,0,0,3.28-1.31,4.76,4.76,0,0,0,0-6.47,4.3,4.3,0,0,0-3.2-1.31,4.61,4.61,0,0,0-4.62,4.62,4.27,4.27,0,0,0,1.31,3.16A4.4,4.4,0,0,0,653.45,266.76Z"/></svg>