<svg xmlns="http://www.w3.org/2000/svg" viewBox="0 0 757.8 945.8"><defs><style>.cls-1{fill:#fff;}</style></defs><g id="レイヤー_2" data-name="レイヤー 2"><g id="レイヤー_1-2" data-name="レイヤー 1"><rect class="cls-1" x="100.03" y="860.41" width="42.7" height="85.38" rx="1.87"/><polygon class="cls-1" points="687.15 878.22 60.96 892.44 60.96 899.55 687.15 899.55 687.15 878.22"/><polygon class="cls-1" points="687.15 928.02 60.96 913.79 60.96 906.67 687.15 906.67 687.15 928.02"/><path class="cls-1" d="M100.12,614.92c0-151.06,122.9-274,274-274s274,122.9,274,274c0,94.27-47.39,180.32-126.86,231H558a293.38,293.38,0,0,0,111.37-231c0-162.83-132.47-295.31-295.3-295.31S78.71,452.09,78.71,614.92a293.38,293.38,0,0,0,111.37,231h36.83C147.49,795.24,100.12,709.19,100.12,614.92Z"/><path class="cls-1" d="M285.59,723.22h3.8v19.69c0,7.8-3.84,10.2-8.9,10.2a12.15,12.15,0,0,1-4.05-.7l.57-3.09a9.24,9.24,0,0,0,3.17.56c3.41,0,5.41-1.51,5.41-7.28Z"/><path class="cls-1" d="M319.67,743.35l-3.06,9.24h-4l10-29.38h4.57l10,29.38h-4.06L330,743.35Zm9.62-3-2.87-8.45c-.66-1.93-1.1-3.67-1.53-5.37h-.08c-.45,1.74-.92,3.53-1.49,5.27l-2.88,8.51Z"/><path class="cls-1" d="M360.79,723.56a44.47,44.47,0,0,1,7.28-.57c3.76,0,6.49.87,8.25,2.44a7.91,7.91,0,0,1,2.57,6.15,8.62,8.62,0,0,1-2.27,6.28,12.19,12.19,0,0,1-9,3.23,13,13,0,0,1-3.05-.27V752.6h-3.8Zm3.8,14.16a12.31,12.31,0,0,0,3.14.31c4.58,0,7.36-2.22,7.36-6.28s-2.74-5.75-6.92-5.75a16.55,16.55,0,0,0-3.58.3Z"/><path class="cls-1" d="M407.94,743.35l-3.05,9.24h-3.95l10-29.38h4.57l10,29.38h-4l-3.14-9.24Zm9.64-3-2.88-8.45c-.66-1.93-1.09-3.67-1.53-5.37h-.09c-.44,1.74-.91,3.53-1.48,5.27l-2.91,8.55Z"/><path class="cls-1" d="M449.08,752.6V723.22h4.14l9.42,14.86a84.45,84.45,0,0,1,5.27,9.55H468c-.35-4-.45-7.49-.45-12.07V723.27h3.58v29.38H467.3l-9.33-15a92.37,92.37,0,0,1-5.49-9.81h-.13c.21,3.71.3,7.23.3,12.11v12.56Z"/><path class="cls-1" d="M292.79,457.45a105.46,105.46,0,0,1-.86,15.18c2.23,2.42,8.11,9.35,9.49,11.11l-3,3.21a112.81,112.81,0,0,0-7.39-9.74,38.18,38.18,0,0,1-9.61,18.37,12.92,12.92,0,0,0-3-2.94c9.35-9.95,10.4-22.76,10.4-35.19V434.69c3.08.27,4.19.27,5.27.33,0,.47-.4.79-1.24.86Zm-14.32,6.81c2.64-3.47,3.86-9.94,4-16l3.2.46c-.13,6.28-1.24,13.18-4.25,17.14Zm24.73-16.35a1.45,1.45,0,0,1-1.32.52,123.41,123.41,0,0,1-5.42,12.69c0-.07-2.76-1.44-2.76-1.44a97,97,0,0,0,5-13.74Zm23.28,41.39c0,1.5.27,1.77,2,1.77h5.63c1.57,0,1.89-.93,2.08-7.45a13.86,13.86,0,0,0,3.67,1.63c-.39,7.65-1.5,9.54-5.27,9.54H328c-4.64,0-5.69-1.18-5.69-5.56V474.12h-6.86c0,.4-.53.66-1.25.73-.91,10.27-3.27,17.06-14.71,20.73a9.66,9.66,0,0,0-2.42-3.21c10.07-3.07,12.35-8.63,13-18.25h-9.87v-3.85h8v-8.64h-8v-3.95h8V449.5l5.27.4c-.06.39-.39.71-1.24.84v6.94h14.77V449.5l5.37.4c0,.39-.4.71-1.24.84v6.94h8.11v3.95h-8.11v8.64h8.23v3.85h-11.7c-.13.4-.46.66-1.24.73Zm-9-35.76v-8H302.75v-3.8h14.77v-7.07L323,435c0,.47-.39.79-1.31.93v5.81h15.16v3.8h-15.2v8Zm-5.28,8.09v8.64H327v-8.64Z"/><path class="cls-1" d="M400.32,458.07a97.58,97.58,0,0,1-19.78,4.05c2,3.54,6,8.44,10.78,10.27l-2.64,3.72c-.92-.44-2.63-1.24-3.79-1.95a27.18,27.18,0,0,0-7.72-1,17.1,17.1,0,0,0-2.63.13l-.93-3.6a44.86,44.86,0,0,1,7.33.27,33.05,33.05,0,0,1-5.17-7.39,167.89,167.89,0,0,1-17.52.65c-3.2,0-6.79,0-9.75-.07v-4.11c3,.07,6.74.13,10,.13,5.37,0,10.66,0,16-.46-.73-2-1.77-5.75-2.55-8.69-2.63.26-5.56.4-8.24.4-3.53,0-8,0-11.11-.14v-4.06c3.95.2,8.24.2,11.05.2,2.34,0,5-.13,7.51-.33-.59-3-1.24-6.59-1.76-10.26l6.73.07c0,.78-.59,1.24-1.76,1.43.39,2.81.84,5.82,1.32,8.36a67.87,67.87,0,0,0,17.52-3.78l1.11,4.05a79.38,79.38,0,0,1-17.78,3.73,79.88,79.88,0,0,0,2.48,8.57A94.14,94.14,0,0,0,399.46,454Zm-11.5,34.59c-3.6.27-7.92.4-14.39.4-10.55-.07-18.83-3.47-18.7-10.87,0-3.85,3.47-7.91,7.72-10.32l2.94,3c-3.8,2-6,4.78-6,7.27,0,4.64,5.75,6.66,14.06,6.72,4.91,0,10.06-.26,14.51-.59Z"/><path class="cls-1" d="M420.69,480.93c-1.32,5-3.59,10.66-7.32,14.12l-3.53-2.22c3.53-3.13,5.88-8.5,7.13-13.18Zm49-12.23H423.12v4.91h42.36l2.42.39c-.06.45-.15.89-.25,1.32-.93,12.23-1.84,16.87-3.54,18.57-1.32,1.44-2.87,1.7-6.21,1.7-1.63,0-3.73-.07-5.88-.2a9.74,9.74,0,0,0-1.12-3.72c3.2.32,6.34.32,7.45.32s1.77-.07,2.29-.58c1.11-1.12,2-4.91,2.64-14.25H418.79v-37.1h16.15a53.58,53.58,0,0,0,2.43-5.68l5.68,1.24a1.32,1.32,0,0,1-1.32.66,36.59,36.59,0,0,1-2.22,3.78H460.3v20.53H423.12v4.71h46.54ZM456,443.46H423.12v5.11H456Zm-32.88,13.73H456V451.7H423.12Zm4.37,36a44,44,0,0,0-1.5-11.87l3.67-.59a41.89,41.89,0,0,1,1.76,11.77Zm12.56-1.58a41.8,41.8,0,0,0-3.27-10.55l3.46-.85a42,42,0,0,1,3.54,10.4Zm10.39-12.74a39.18,39.18,0,0,1,5.17,8.43l-3.34,1.5a37.41,37.41,0,0,0-5-8.63Z"/><path class="cls-1" d="M226.25,560.57c16.09-15.37,35.45-23.32,56.36-23.32,16.77,0,31.46,5,43.21,14.34,17.29,13.82,28,36.31,28,60.16,0,17.8-5.88,32.32-20.23,42.7-13.82,9.85-36.29,16.25-69.31,17.63-1.21,0-1.74-.51-1.74-1a1.49,1.49,0,0,1,1.39-1.32c19.37-4.48,35.79-11.75,47.37-21.43,13-10.72,19.37-25.94,19.37-43.91s-6.6-35.26-17.29-46.32c-8.65-8.83-19.37-13.84-31.65-13.84a50.07,50.07,0,0,0-5.19.35,39.53,39.53,0,0,1,6.92,8.12,26.4,26.4,0,0,1,4.31,15.56,94.22,94.22,0,0,1-1.9,14.87c-4.84,24.37-15.56,47-25.05,58.78-9,11.06-19.36,17.28-28.53,17.28-7.42,0-13-1.91-16.07-12.27a59.45,59.45,0,0,0-5.35-12.62c-5-8.13-9.87-14.18-9.87-23.74C201,591.69,211.73,574.41,226.25,560.57Zm-5.18,70c2.77,3.79,5.37,5.18,10,5.18q8.55,0,18.47-12.45c9.67-11.87,20.05-33,24.72-52.89a68.94,68.94,0,0,0,1.9-12.28,24.32,24.32,0,0,0-1.32-8.29,29,29,0,0,0-2.41-4.67c-12.79,2.75-24.73,11.23-34.41,23.15-11.93,14.71-20.05,32-20.05,49.45,0,6.43,1.34,10.2,3.07,12.8Z"/><path class="cls-1" d="M433.37,612.44c-4.49-5.36-7.09-11.07-7.09-16.08,0-6.22,2.43-10.89,5.88-15.56,2.94-3.95,6.59-7.61,12.45-14a35.15,35.15,0,0,1-14-10.37A27.44,27.44,0,0,1,425.42,544a49.85,49.85,0,0,1-.52-5.71,26.7,26.7,0,0,1,.34-3.8c.18-1,.7-1.56,1.38-1.56s.87.34,1.22,1.21a23.52,23.52,0,0,0,3.81,6.6,20.64,20.64,0,0,0,7.78,5.35,52.66,52.66,0,0,0,18.46,3.81,19.17,19.17,0,0,1,12.62,4.67c3.8,3.1,6.39,6.74,6.39,11.87,0,2.07-.51,4.5-2.07,5.71-2.24,2.24-5.88,2.24-9,2.24-4.84,0-9-.86-14.35,1-3.79,1.32-10.72,4.5-14.5,8.3-1.9,1.9-4.5,4.49-4.5,7.43,0,4.14,2.77,7.43,7.61,11.58,2.64,2.24,5.35,4.16,8.12,6.23a63.94,63.94,0,0,1,28-6.4A59.24,59.24,0,0,1,500,607.74,64.11,64.11,0,0,1,521.4,623.3c5.88,6.74,9,13.84,9,19.72,0,4.31-1,6.59-3.11,8.46a11.6,11.6,0,0,1-7.92,2.94,14.87,14.87,0,0,1-8.46-2.08,17.26,17.26,0,0,1-4.84-6.59c-1.74-4-2.94-8.13-4.84-11.87a50.36,50.36,0,0,0-12.8-17,29.88,29.88,0,0,0-19.88-7.25,27.93,27.93,0,0,0-14,3.63,115.73,115.73,0,0,1,11.87,8.81c8.29,7.09,12.09,13.83,12.09,22a21.67,21.67,0,0,1-8.3,16.6,24.36,24.36,0,0,1-15.21,5c-6.23,0-14.51-3.29-21.1-5s-14.18-3.62-22.64-6.22c-.7,1-1.56,1.9-2.26,2.76-3.62,4.32-5.88,8.13-9.33,10.9a14.36,14.36,0,0,1-9.51,3.1,30.7,30.7,0,0,1-12.62-2.07c-4-1.73-7.08-4.84-7.08-9.85,0-4.67,2.63-8.47,9.33-9.51,4.14-.7,7.92-.87,9.51-1,5-.34,11.75-5.35,15.56-8.29,5.87-4.67,10.55-9.17,16.42-13.67,4.84-3.62,9.85-7.6,15-11.06C435.27,614.69,434.4,613.68,433.37,612.44Zm-5.53,21.78C422.65,639.93,418,646.09,414,651a150.21,150.21,0,0,0,19.2.85c7.26,0,13-.51,16.59-1.9,5-1.9,6.91-5.53,6.91-8.29s-1.55-7.44-6.39-13a65.76,65.76,0,0,0-8.13-7.61,102,102,0,0,0-14.34,13.13Zm79.52-67.08c4,2.43,6.6,5.71,6.6,9.69,0,4.32-3.11,7.78-6.75,7.78-2.42,0-4.5-1-6.6-4.66-4.15-7.44-8.46-11.6-13.64-14.71-.88-.34-1.22-.85-1.22-1.32s.52-1,1.73-1C496,562.66,502.68,564.39,507.36,567.14Zm.16-16.59a33.79,33.79,0,0,1,14.71,2.77c4.49,2.24,7.26,5.87,7.26,9.85s-2.64,7.27-6.06,7.27c-2.25,0-4-.7-6.74-4.67-4.84-6.75-8.64-9.86-14.35-12.62-.86-.36-1.2-.87-1.2-1.38s.52-.87,1.54-1a47.29,47.29,0,0,1,4.91-.17Z"/><path class="cls-1" d="M77.08,66c.06,2.37.08,4.47,0,6.3a26.87,26.87,0,0,1-.5,5,15,15,0,0,1-1.43,4.07A19.22,19.22,0,0,1,72.52,85c-2.18,2.31-3.85,3.46-5,3.45s-2.41-1.08-3.71-3.25a20.19,20.19,0,0,0-2.28-3.3,22.4,22.4,0,0,0-4.93-4q-5.79-3.66-5.13-4.82c.44-.78,3.14-.79,8.08,0a13.23,13.23,0,0,0,3.14.19,2.88,2.88,0,0,0,1.94-.85,4.3,4.3,0,0,0,1-2.28,34.73,34.73,0,0,0,.36-4.08c.07-3.31.08-6.8,0-10.46s-.12-7.21-.26-10.66-.28-6.6-.45-9.6-.36-5.4-.57-7.36a31.53,31.53,0,0,0-.45-3.36,4.78,4.78,0,0,0-.71-1.82,1.75,1.75,0,0,0-1.32-.72,14,14,0,0,0-2.24,0l-6.59.51c-2.64.21-5.45.47-8.5.81a42.81,42.81,0,0,1-2,5.69c3.46.47,6.18,1,8.18,1.42A19.59,19.59,0,0,1,55.49,32a4.17,4.17,0,0,1,2,1.82,9.38,9.38,0,0,1,.66,2.44q.61,4.47-.71,5.48c-.89.68-2.43.35-4.67-1a46.76,46.76,0,0,1-5-3.55c-2-1.55-4.14-3.36-6.5-5.39a20.63,20.63,0,0,1-4.74,5.54,38.13,38.13,0,0,1-6.75,4.32q-6,3-6.2,2.18t3.46-4.42a34.17,34.17,0,0,0,5.79-7.27,32.28,32.28,0,0,0,3.35-7.91c-2.37.35-4.74.65-7.11.93s-4.67.56-6.91.91c0,3.58,0,6.87-.09,9.85s-.17,5.94-.31,8.88-.31,6-.51,9.23-.44,6.8-.71,10.78c-.13,1.77-.32,3.57-.56,5.43a39.41,39.41,0,0,1-.87,4.83A14.88,14.88,0,0,1,17,79.92,4.7,4.7,0,0,1,14.3,82a3.27,3.27,0,0,1-2.84-.87,8.7,8.7,0,0,1-2.29-3.8,23.17,23.17,0,0,1-.91-2.9A10.88,10.88,0,0,1,8,72.1a6.71,6.71,0,0,1,.31-2A10.67,10.67,0,0,1,9.17,68a18.82,18.82,0,0,0,1.67-5.08,70.78,70.78,0,0,0,1.23-7.67c.3-2.81.52-5.73.66-8.78s.19-5.9.16-8.54A59.26,59.26,0,0,0,12.42,31a10.56,10.56,0,0,0-1-3.86C9,23.83,8.34,21.65,9.33,20.56s4.11-.73,9.38,1c2.64-.2,5.45-.47,8.59-.8s6.35-.72,9.6-1.13a52.82,52.82,0,0,0,.76-8.42A9.85,9.85,0,0,0,36,5.68a9.85,9.85,0,0,1-1.48-2.95,2.06,2.06,0,0,1,.3-2A3.35,3.35,0,0,1,37.36,0a23.15,23.15,0,0,1,5.27,1.07,21.26,21.26,0,0,1,4.63,1.83,6.84,6.84,0,0,1,2.19,1.77,2,2,0,0,1,.36,1.72,6.4,6.4,0,0,1-.87,1.78,12.83,12.83,0,0,0-1.84,4.28q-.7,2.73-1.21,5.88,5.28-.81,9.23-1.62a17.1,17.1,0,0,0,5.18-1.63,15.45,15.45,0,0,1,2.64-1.31A6,6,0,0,1,65,13.4a5.27,5.27,0,0,1,1.88.35c.61.24,1.32.56,2.12,1q4,2.13,6.15,3.5a9.56,9.56,0,0,1,3.22,2.5,2.61,2.61,0,0,1,.35,2.33,9.82,9.82,0,0,1-1.62,2.64A4.14,4.14,0,0,0,76.37,27,9.2,9.2,0,0,0,76,29.34c-.07,1.05-.11,2.45-.11,4.22s0,4.06.16,6.91.24,6.33.4,10.46S76.84,60.13,77.08,66ZM61.47,59c.34,3.65-.32,5.91-2,6.8S56,66.06,53.84,64L51,61.4c-.89-.82-1.78-1.61-2.64-2.39l-2.9-2.44-3.35-2.8a24.66,24.66,0,0,1-5.27,5.28,33.57,33.57,0,0,1-8.43,4.15c-3.52,1.23-5.46,1.61-5.84,1.12s.72-1.7,3.29-3.65a35.23,35.23,0,0,0,3.71-3.31,28.45,28.45,0,0,0,3.72-4.61,33.58,33.58,0,0,0,3.45-6.2,4.74,4.74,0,0,0,.31-3.35c-.75-2-.74-3.32,0-4.06s2.63-.48,5.63.8c3.18,1.32,4.93,2.64,5.27,4s-.33,2.52-1.88,3.81a4.59,4.59,0,0,0-1.32,1.42,24.51,24.51,0,0,0-1.32,2.34c4,.67,7.05,1.32,9.4,1.82A31.75,31.75,0,0,1,58.22,55a5.69,5.69,0,0,1,2.53,1.82A4.82,4.82,0,0,1,61.47,59Z"/><path class="cls-1" d="M192.3,36a11.57,11.57,0,0,1,2.55,2.94,1.7,1.7,0,0,1,0,2.13,5.21,5.21,0,0,1-3,1.12,31.08,31.08,0,0,1-6.25,0,52.63,52.63,0,0,0-5.89-.1c-2.43.06-5.08.24-7.91.51a107.93,107.93,0,0,1,1.31,16.35c0,4-.1,7.41-.3,10.21a39.05,39.05,0,0,1-1.12,7.21,15.34,15.34,0,0,1-2.33,5.08,19.55,19.55,0,0,1-4,4c-2.23,1.68-4.1,2.45-5.58,2.28A2.92,2.92,0,0,1,157,85.19a15.89,15.89,0,0,0-2.24-4.92A24.48,24.48,0,0,0,149.91,75c-3.18-2.57-4.54-4.13-4.06-4.67s3-.29,7.62.72a33.16,33.16,0,0,0,3.95.76,3.59,3.59,0,0,0,2.34-.41,3.42,3.42,0,0,0,1.32-2c.26-1,.56-2.35.91-4.11a42.75,42.75,0,0,0,.6-4.78c.14-1.76.21-3.61.21-5.53s-.07-3.84-.21-5.74-.3-3.73-.5-5.49c-2.5.34-4.81.69-6.91,1.07A33.06,33.06,0,0,0,150,46.1c-1.56.54-2.81.92-3.76,1.16a6.32,6.32,0,0,1-2.63.16,5.76,5.76,0,0,1-2.35-1,36.73,36.73,0,0,1-3-2.44q-1.41,4.08-2.63,7.16A52.77,52.77,0,0,1,133,56.77Q138.27,60,140,63a10.15,10.15,0,0,1,1.23,6.65,14.66,14.66,0,0,1-1.32,4.94,3.77,3.77,0,0,1-2.24,2.08,3.25,3.25,0,0,1-2.74-.87,11,11,0,0,1-2.8-4A47.39,47.39,0,0,0,127.35,64a73.4,73.4,0,0,1-10,8.38A38.43,38.43,0,0,1,105.1,78q-4.16,1.13-4.83.25t2.9-3.19q3.06-2,6-4.17c1.94-1.49,3.69-3,5.28-4.47s3.1-3,4.41-4.37a41.45,41.45,0,0,0,3.31-4c-.68-.74-1.41-1.49-2.19-2.23s-1.54-1.49-2.28-2.24a9.19,9.19,0,0,1-2.24-3,6.3,6.3,0,0,1-.1-3c.21-1.16.41-2.24.62-3.26s.37-2,.5-3c-1.32.47-2.44,1-3.46,1.42s-2,1-3,1.52a29.13,29.13,0,0,1-3.1,1.32,4.68,4.68,0,0,1-2.28.31,4.76,4.76,0,0,1-2.14-1,28.57,28.57,0,0,1-2.64-2.4c-2.57-2.57-3.69-4.22-3.35-5s2.27-1,5.79-.82a19.38,19.38,0,0,0,2.64,0,29.35,29.35,0,0,0,3.1-.25c1.16-.13,2.48-.32,4-.56s3.34-.56,5.44-1q1.22-7,1.72-12a83.5,83.5,0,0,0,.52-8.44A28.56,28.56,0,0,0,119.17,9a7.31,7.31,0,0,0-1.12-2.9q-2.53-3.24-1-4.83c1-1,3.09-1,6.2.27A26.67,26.67,0,0,1,126.53,3c1,.54,2.12,1.15,3.2,1.82Q133,7,133.33,8.68a3,3,0,0,1-1.32,3,2.44,2.44,0,0,0-.39.56c-.19.34-.36.7-.52,1.06s-.46,1.14-.76,2-.66,1.93-1.07,3.29c-.33,1.15-.67,2.23-1,3.25s-.68,2.08-1,3.2-.71,2.36-1.11,3.71-.85,2.88-1.32,4.57l7.52-1.42a9.14,9.14,0,0,0-.82-4.58A3.91,3.91,0,0,1,130.8,25a2,2,0,0,1,.82-1.56,2.94,2.94,0,0,1,1.87-.47,5.47,5.47,0,0,1,2.64,1c1.15.68,2.15,1.32,3,1.94l2.89,2c1.49,1.21,2.2,2.25,2.14,3.09a4.23,4.23,0,0,1-1.43,2.64,9.56,9.56,0,0,0-1.67,2.75c-.57,1.31-1.2,3-1.88,5,1.43,0,2.88-.16,4.37-.26s3.1-.27,4.83-.51,3.62-.52,5.68-.85l7.16-1.23A20.92,20.92,0,0,0,160.05,35a4.45,4.45,0,0,0-1.48-2,14.3,14.3,0,0,1-3.76-3.3c-.6-.92-.71-1.68-.3-2.3a3.46,3.46,0,0,1,2.8-1.56A11.88,11.88,0,0,1,162.44,27c1.31-1.83,2.53-3.5,3.54-5s2.11-3.21,3.26-5.18c.74-1.32,1-2.17.91-2.49s-.65-.28-1.52,0c-1.76.54-3.87,1.32-6.35,2.14s-4.92,1.79-7.36,2.74c-1.32.54-2.32.94-3.1,1.17a6.66,6.66,0,0,1-2,.36,3.62,3.62,0,0,1-1.58-.36,12.35,12.35,0,0,1-1.78-1.07,36.31,36.31,0,0,1-3.65-2.63c-.82-.72-1.19-1.32-1.12-1.68s.58-.74,1.53-1a26.43,26.43,0,0,1,4.26-.56,53.06,53.06,0,0,0,6-.82c2.16-.39,4.25-.87,6.3-1.41s3.84-1.09,5.43-1.63a12.21,12.21,0,0,0,3.3-1.52,18.43,18.43,0,0,1,2.85-1.83,4.1,4.1,0,0,1,2.38-.46,7.06,7.06,0,0,1,2.53.92A35.75,35.75,0,0,1,179.8,9a47.15,47.15,0,0,1,5.28,4.27A5.43,5.43,0,0,1,187,16.19a2,2,0,0,1-1.32,1.94,19.84,19.84,0,0,1-4.17,1.46,10.56,10.56,0,0,0-2,.72,29.58,29.58,0,0,0-2.8,1.58c-1.15.7-2.64,1.69-4.31,2.94l-6.59,4.72a22.37,22.37,0,0,1,2.43,3.21,20,20,0,0,1,1.93,4.11c2-.41,3.76-.79,5.38-1.17a33.9,33.9,0,0,0,3.86-1.07c1.56-.48,2.92-.83,4.07-1.07a10.75,10.75,0,0,1,3.2-.2,8.14,8.14,0,0,1,2.8.82A13.67,13.67,0,0,1,192.3,36Zm-69.07,3c-.34,1.15-.7,2.43-1.07,3.81s-.76,2.89-1.17,4.53a3.71,3.71,0,0,0,0,2.33,4,4,0,0,0,2.08,1.62c.4.21.79.4,1.16.56s.77.35,1.18.56a73.16,73.16,0,0,0,4-8.23,51.62,51.62,0,0,0,2.39-7.41Z"/><path class="cls-1" d="M256,37.24a19.24,19.24,0,0,0,5.27-1.76,36,36,0,0,0,5.27-3.15,8.59,8.59,0,0,1,4.16-1.88h2.07a7.64,7.64,0,0,1,3.2.93c2.52,1.2,3.77,2.36,3.77,3.5s-1,2.07-3.11,3a59.15,59.15,0,0,1-5.79,2.16q-4.21,1.42-11.09,3.59a75,75,0,0,0,3.35,7.49,29.14,29.14,0,0,0,4,6c1,1.32,1.77,2.29,2.27,2.88a4.17,4.17,0,0,1,.93,1.7,5.15,5.15,0,0,1,0,2.07c-.16.86-.43,2.16-.8,4-.57,2.26-1.44,3.4-2.64,3.4s-2.64-1-4.47-3a17.26,17.26,0,0,0-8.07-4.52,39.41,39.41,0,0,0-11.17-1.52q-14.88,0-14.9,8.49A11.8,11.8,0,0,0,228.5,73a4.44,4.44,0,0,0,.84,2.07,8.64,8.64,0,0,0,2,1.51,16.27,16.27,0,0,0,3.81,1.51,38.75,38.75,0,0,0,5,1,29.05,29.05,0,0,0,5.19.29,33.18,33.18,0,0,0,5-.56,16.18,16.18,0,0,0,4.37-1.51A9.86,9.86,0,0,1,259,75.93c1.2,0,2.86.88,5,2.64l2.54,2a2,2,0,0,1,.86,1.59c0,1.52-1.88,2.64-5.66,3.4a63.13,63.13,0,0,1-13.85,1.23,70.87,70.87,0,0,1-8-.43A44.7,44.7,0,0,1,232.88,85a26.86,26.86,0,0,1-5.75-2.26,12.21,12.21,0,0,1-4-3.25,13.37,13.37,0,0,1-2.82-8.17,12.91,12.91,0,0,1,2.82-8,15.32,15.32,0,0,1,5.9-4.49,31.67,31.67,0,0,1,8.62-2.54,40.12,40.12,0,0,1,9.67-.23,25.85,25.85,0,0,1,9,2.44c.32.27.57.31.76.15s.13-.56-.19-1.18a48.73,48.73,0,0,1-3-5.94c-.88-2.07-1.66-4-2.36-5.66-2.64.63-5.24,1.18-7.82,1.65s-5.27.93-8.11,1.32A99,99,0,0,1,223.83,50a10.52,10.52,0,0,1-5.27-1,6.68,6.68,0,0,1-2.64-3.77,12.78,12.78,0,0,1-.95-4.52c0-1.44.52-2,1.56-1.74a10,10,0,0,1,3.82,2.63c.82.83,2.39,1.23,4.71,1.23,1.2,0,2.64,0,4.29-.13s3.59-.27,5.8-.53a88.12,88.12,0,0,0,13.18-2.54c-.31-1.07-.73-2.38-1.31-4s-1.15-3.1-1.85-4.67c-1.07.25-2.32.5-3.77.75l-5.09.85c-1.88.31-3.44.55-4.67.71a23.12,23.12,0,0,1-2.64.24c-3.22,0-5.4-1.14-6.59-3.41a12.13,12.13,0,0,1-1.89-5.27c0-1.32.57-1.93,1.7-1.93a2.17,2.17,0,0,1,1.32.7,18,18,0,0,0,1.8,1.47,8.65,8.65,0,0,0,5,1.41,66.84,66.84,0,0,0,11.87-1.78c-.2-.64-.46-1.32-.8-2.18a27.78,27.78,0,0,0-1.32-2.73,9.72,9.72,0,0,0-3.24-4.3l-2.79-1.74c-1.57-.62-2.36-1.47-2.36-2.54a1.68,1.68,0,0,1,1-1.51,12.14,12.14,0,0,1,4.9-.56,35,35,0,0,1,6.22.37A5,5,0,0,1,247,10.87a9.72,9.72,0,0,1,.95,4.53,15.71,15.71,0,0,0,.57,3.48,29,29,0,0,0,1.23,3.5,16.77,16.77,0,0,0,6.79-4,6.64,6.64,0,0,1,3.57-1.9,8.58,8.58,0,0,1,5.27,1.32q3.21,1.5,3.21,3.3c0,.56-.4,1.12-1.19,1.65a17.42,17.42,0,0,1-3.29,1.64q-2.13.86-5.09,1.94c-2,.73-4.17,1.56-6.6,2.5q.75,2.18,1.61,4.48A31.8,31.8,0,0,0,256,37.24Z"/><path class="cls-1" d="M347.41,49.4l3.67-1.51,3-1.32a25,25,0,0,0,2.64-1.31l2.64-1.43,2.25-1.13a5.36,5.36,0,0,0,.85-.46.26.26,0,0,0,.1-.2c0-.3-.6-1-1.79-2a3.75,3.75,0,0,1-1.7-2.64c0-.81.59-1.22,1.79-1.22a12.83,12.83,0,0,1,5.18,1.7,17.79,17.79,0,0,1,5.28,4,6.68,6.68,0,0,1,2,3.54q0,2.09-5.09,3.48a79,79,0,0,0-10,3.35q-4.94,2-10.13,4.67c0,1.06.11,2.2.14,3.4s0,2.48,0,3.86a18,18,0,0,1-.57,5.57,4.84,4.84,0,0,1-3,2.45,9.53,9.53,0,0,1-4.38,1c-1.32,0-1.94-.85-1.94-2.36a15.09,15.09,0,0,1,.52-3.34,38.85,38.85,0,0,0,.8-6.18,25.82,25.82,0,0,0-5.09,3.4A24,24,0,0,0,331,68.53a16.37,16.37,0,0,0-2.11,3.82,10.12,10.12,0,0,0-.71,3.39A5,5,0,0,0,329.29,79a5.74,5.74,0,0,0,2.34,1.32,23.88,23.88,0,0,0,4.72,1c2,.25,3.7.43,5.28.56s2.87.19,4,.19a47.75,47.75,0,0,0,14.5-2.55,15.49,15.49,0,0,1,4.05-.75c1.2,0,2.86.79,5,2.36s3.2,2.73,3.2,3.48q0,2.08-9.7,3.31a121.93,121.93,0,0,1-17.07,1.41q-25.36,0-25.37-12.44a23.65,23.65,0,0,1,1-6.37,17.53,17.53,0,0,1,3.17-6.27q4.23-5.1,15.36-11.13a9.51,9.51,0,0,0-1.23-5.42,4.43,4.43,0,0,0-4.05-2.12A11.57,11.57,0,0,0,328.88,47,51,51,0,0,0,323,50.7a28.07,28.07,0,0,0-3,2.42c-1,.91-2,1.83-2.93,2.78a34.54,34.54,0,0,0-2.49,2.78,27.12,27.12,0,0,0-1.74,2.4c-1.7,2.89-3.05,4.34-4,4.34s-1.85-1-2.64-2.84a13.89,13.89,0,0,1-1-3.95,3.1,3.1,0,0,1,.57-1.89L313,47.51c1-1.32,2-2.87,3-4.47s2-3.18,2.89-4.72l2.63-4.52c.89-1.48,1.73-2.81,2.55-4a32.7,32.7,0,0,1-4,0q-2.41-.14-4.77-.33c-3-.25-4.95-1.47-5.84-3.66a13.7,13.7,0,0,1-1.41-5.2q0-2,1.41-2c.93,0,1.95.75,3.4,2.27a5.34,5.34,0,0,0,1.08,1,5.45,5.45,0,0,0,1.6.7,14.13,14.13,0,0,0,2.5.47,30.14,30.14,0,0,0,3.68.19,68.77,68.77,0,0,0,7.45-.56,41.29,41.29,0,0,0,3.54-6.46,12.63,12.63,0,0,0,1.08-4.1,6.92,6.92,0,0,0-1.32-3.49,7.54,7.54,0,0,1-1.23-2.83c0-1.31.73-1.88,2.16-1.88a5.25,5.25,0,0,1,2.42.66,30.72,30.72,0,0,1,3.39,1.83c1.16.73,2.26,1.48,3.29,2.27a14.29,14.29,0,0,1,2.13,1.83,2.88,2.88,0,0,1,.19,4.08,2.11,2.11,0,0,1-.38.35,6.31,6.31,0,0,0-.71.66l-.9,1c-.37.44-.84,1-1.41,1.8s-1.32,1.72-2.27,2.91a48,48,0,0,0,13.59-4.23A9.34,9.34,0,0,1,356.61,16a18.23,18.23,0,0,1,5.2,1.89c2.63,1.2,4,2.16,4,2.93q0,3.28-32.24,8.11c-1.39,1.82-2.58,3.4-3.58,4.76l-2.79,3.72c-.84,1.13-1.63,2.21-2.36,3.25s-1.49,2.18-2.31,3.45c-.06.06,0,.09.1.09a2.6,2.6,0,0,0,1-.48,20.56,20.56,0,0,1,12-4.43,10.63,10.63,0,0,1,8.2,4A10.82,10.82,0,0,1,347.41,49.4Z"/><path class="cls-1" d="M447.84,58.54A10.2,10.2,0,0,1,445.7,60a7.28,7.28,0,0,1,3.86,2.14,6.34,6.34,0,0,1,1.12,3.65c.07,2.37-.5,3.88-1.68,4.52a3.4,3.4,0,0,1-3.8-.46A25.5,25.5,0,0,1,441.58,67a48,48,0,0,1-3.4-3.44q-2.32-2.64-2.33-3.72c0-.71,1.25-1,3.76-.86,1,.14,1.92.24,2.74.31A3.62,3.62,0,0,1,443,56.1a20.84,20.84,0,0,1,2-2.89c.95-1.19,2-2.53,3.25-4,.74-.87,1-1.32.81-1.46a6.83,6.83,0,0,0-2.34.14,32.45,32.45,0,0,0-4.66,1.18,37.13,37.13,0,0,0-4.28,1.78c-1.31.39-2.32.71-3.1.91a5.33,5.33,0,0,1-2,.19,3.92,3.92,0,0,1-1.72-.65,20.73,20.73,0,0,1-2.18-1.68C426.91,48.17,426,47,426,46.42a45.22,45.22,0,0,1-6.5,4.77c-3.33,2-5.17,2.69-5.54,2.18s.73-2.2,3.3-5l1.22-1.42c.4-.48.81-1,1.21-1.52a1.58,1.58,0,0,1-.71.2c-2.23.34-4.28.67-6.14,1s-4,.85-6.6,1.53a17.82,17.82,0,0,1-1.31,5.58c-.58,1.1-1.16,1.64-1.78,1.64-1,0-2-.9-2.84-2.71A26.05,26.05,0,0,1,398.48,44c-.13-1.32-.32-2.64-.56-4.22s-.52-3-.87-4.47a37.53,37.53,0,0,0-1.21-4.17,14.63,14.63,0,0,0-1.53-3.19,14.13,14.13,0,0,1-1.52-2.64c-.27-.7-.17-1.2.31-1.46a5.2,5.2,0,0,1,2.79-.21,53.51,53.51,0,0,1,6,1.12,25.91,25.91,0,0,0,6.5-1.62,14.39,14.39,0,0,0,4.17-2.55,9.55,9.55,0,0,1,1.78-1.32,3.17,3.17,0,0,1,1.68-.35,6.19,6.19,0,0,1,2.22.66c.89.4,2,1,3.46,1.72,2.64,1.49,4.11,2.69,4.42,3.62s-.29,2.12-1.78,3.6a14.44,14.44,0,0,0-2.75,4.11A56.44,56.44,0,0,0,419,40.07a4.27,4.27,0,0,1,1.88,1.53,2.6,2.6,0,0,1,.45,1.73,83.9,83.9,0,0,0,7.73-13,122,122,0,0,0,6.2-15.55,27.1,27.1,0,0,0,1.16-5.27,8.75,8.75,0,0,0-.25-3.81,6.9,6.9,0,0,1-.86-2.64,1.32,1.32,0,0,1,.75-1.43,4.42,4.42,0,0,1,2.64.15,29.1,29.1,0,0,1,5,2.14,18.86,18.86,0,0,1,3.76,2.24A4.91,4.91,0,0,1,449,8a1.94,1.94,0,0,1-.11,1.58,9.14,9.14,0,0,1-1.12,1.57,5.89,5.89,0,0,0-1.16,1.67,8.1,8.1,0,0,1-.87,1.48c4.4,4.19,8.24,7.61,11.52,10.21a95,95,0,0,0,8.94,6.39,58.36,58.36,0,0,0,7.52,4c2.35,1,4.76,2,7.27,3q5.18,1.84,5.13,2.84c0,.68-2,1.45-5.94,2.34A62,62,0,0,1,472,44.35a19.45,19.45,0,0,1-5.28-.16,8.26,8.26,0,0,1-3.51-1.47,14.48,14.48,0,0,1-2.74-2.79q-4-4.57-7.91-9.5t-8.84-10.82q-1.43,3.15-2.79,5.89t-2.8,5.18a6,6,0,0,1,1-.3,7.27,7.27,0,0,1,1.32-.1,27.06,27.06,0,0,1,6.71.66,4.05,4.05,0,0,1,2.94,3.61,5.25,5.25,0,0,1-.11,2.78,3.33,3.33,0,0,1-2.83,2.3,3.64,3.64,0,0,1-1.73-.22,14.1,14.1,0,0,1-3.45-2c-1.16-.87-2.18-1.68-3.05-2.44a8.57,8.57,0,0,1-1.32-1.16,3.46,3.46,0,0,1-.71-1.06A75.93,75.93,0,0,1,432,40a55.11,55.11,0,0,1-5.28,5.84,15.3,15.3,0,0,1,3.76-.21,27.25,27.25,0,0,0,5.34-.35A51.29,51.29,0,0,0,441.45,44a46.37,46.37,0,0,0,5-1.67,21,21,0,0,0,3.45-1.73c.59-.39,1.2-.74,1.82-1.07a2.7,2.7,0,0,1,1.53-.25,5.64,5.64,0,0,1,1.87.66,30.88,30.88,0,0,1,2.8,1.68c3.26,2.16,5,3.74,5.18,4.72s-.58,1.74-2.33,2.28a15.39,15.39,0,0,0-5,3.1C453.94,53.17,451.29,55.49,447.84,58.54ZM412.48,37.86c.13-1,.24-1.89.31-2.84s.21-2.13.4-3.56c.27-1.83.2-2.91-.19-3.25s-1.32-.33-2.85,0c-.75.14-1.51.29-2.28.46l-2.9.66q.7,6.7,1.21,13A16.92,16.92,0,0,0,411,40.25,3.5,3.5,0,0,0,412.48,37.86Zm8,41.14q-1.93,2.34-3.76,2c-1.22-.24-2.28-1.4-3.15-3.5-.41-1.09-.71-2-.92-2.63a5.33,5.33,0,0,1-.25-1.73,2.69,2.69,0,0,1,.41-1.32,9.85,9.85,0,0,1,.87-1.17,25.79,25.79,0,0,0,3-4.31,17.08,17.08,0,0,0,2.13-5.54c.34-2,.88-3,1.63-2.94s1.69,1.38,2.84,3.95a13.93,13.93,0,0,1,1,9.1,19.94,19.94,0,0,1-3.81,8.16Zm47.54,5.38a39.92,39.92,0,0,1-15.24,2.27A44.36,44.36,0,0,1,441,84.16a18.27,18.27,0,0,1-7.91-5.44,26.74,26.74,0,0,1-4.58-9.9,24.87,24.87,0,0,1-1-6,2.12,2.12,0,0,1,1.42-2,2,2,0,0,1,2.34.45,13.74,13.74,0,0,1,2,4.83,16.37,16.37,0,0,0,2.74,5,14.24,14.24,0,0,0,4.68,4.12,13,13,0,0,0,2.48,1,21.62,21.62,0,0,0,3.56.82c1.32.21,2.64.36,4.17.46a19.22,19.22,0,0,0,4.22-.16,9.5,9.5,0,0,0,2.17-.5,1.3,1.3,0,0,0,.87-1.07,4.87,4.87,0,0,0-.51-2.24c-.41-1-1.06-2.32-1.93-4Q453,64.72,454.19,64c.78-.47,2.84,1,6.15,4.47a29.71,29.71,0,0,0,5.8,5,30.71,30.71,0,0,0,6.18,2.94,3.34,3.34,0,0,1,2.05,1.53,2.52,2.52,0,0,1,0,2.18,6.5,6.5,0,0,1-2.05,2.34,14.35,14.35,0,0,1-4.27,2Zm2.14-16a33.87,33.87,0,0,1-4.68-3.19c-2-1.53-4-3.16-6.2-4.93s-3-3-2.64-3.51,2-.79,4.62-.85a55.8,55.8,0,0,1,6.59.3,12.92,12.92,0,0,1,4.47,1.21A6.6,6.6,0,0,1,475,59.8a10,10,0,0,1,1.22,3.86c.35,2.64,0,4.37-1.17,5.19s-2.69.66-4.85-.46Z"/><path class="cls-1" d="M570.5,60.43a21,21,0,0,1-4.34,12.91q-4.42,5.86-13.77,9.06a63.83,63.83,0,0,1-21.1,3.3c-6.29,0-9.42-.7-9.42-2.07,0-.57.47-1.07,1.41-1.52a13.09,13.09,0,0,1,4-.93,93.48,93.48,0,0,0,14.65-2.79,46.63,46.63,0,0,0,11-4.48,22.22,22.22,0,0,0,6.88-6,12.41,12.41,0,0,0,2.4-7.39,12.81,12.81,0,0,0-4.43-9.63,15.28,15.28,0,0,0-10.84-4.14,25.15,25.15,0,0,0-13.11,4.05q-6.78,4.26-15.17,14.5a5.7,5.7,0,0,1-4.16,2.46c-1.38,0-2.82-1.13-4.34-3.39s-2.25-4-2.25-5a10,10,0,0,1,1.4-4.38,50.12,50.12,0,0,0,2.91-8.58c.51-1.94.91-3.7,1.23-5.28A42,42,0,0,0,514,37a17.65,17.65,0,0,1,2.45-7.35,12.48,12.48,0,0,1,2.12-2.78,3.39,3.39,0,0,1,1.7-1,1.15,1.15,0,0,1,1.14.46,2.56,2.56,0,0,1,.42,1.52,6,6,0,0,1-.37,2.14,4.85,4.85,0,0,0-.33,1.59,6.77,6.77,0,0,0,2.07,4.25,10.4,10.4,0,0,1,1.65,2,3.32,3.32,0,0,1,.53,1.65,2.75,2.75,0,0,1-.66,1.61,16.1,16.1,0,0,1-2,2,20.46,20.46,0,0,0-4,6.41,44.25,44.25,0,0,0-2.26,5.19c0,.63.4.54,1.23-.28a50.56,50.56,0,0,1,14.14-11.08,33.41,33.41,0,0,1,15-3.44q10.75,0,17.14,5.93A19.24,19.24,0,0,1,570.5,60.43ZM549,19.7a8.47,8.47,0,0,1-.84,2.91,2.86,2.86,0,0,1-2.93,1.89,12.57,12.57,0,0,1-1.93-.24,19.73,19.73,0,0,0-3-.22,31.13,31.13,0,0,0-11.21,2.82,7.72,7.72,0,0,1-2.92.66c-1.39,0-2.07-.41-2.07-1.23A3,3,0,0,1,525.23,24c.45-.32,1.32-.95,2.5-1.9l4.95-3.76c.31-.31.47-.54.47-.67q0-1.32-12.35-2.73c-2.39-.32-3.58-1-3.58-2s1.32-1.88,4.14-2.45A37.63,37.63,0,0,1,530,9.61a22.77,22.77,0,0,1,13.38,4Q549,17.53,549,19.7Z"/><path class="cls-1" d="M646.74,34c2.39-.3,4.49-.59,6.28-.84a29.41,29.41,0,0,0,4-.75,12.65,12.65,0,0,1,3.77-.66q2.44,0,5.76,3.29c2.19,2.2,3.3,3.71,3.3,4.53,0,1.06-1.32,1.6-4,1.6a40.54,40.54,0,0,1-4.54-.29c-1.81-.18-3.63-.27-5.45-.27-1,0-2.22,0-3.83.14l-5.27.33q0,14.51-3.21,20.84a34.89,34.89,0,0,1-3.11,5.27,4,4,0,0,1-3,2A2.36,2.36,0,0,1,635.53,68a10.08,10.08,0,0,1-1.31-2.75,18,18,0,0,0-1.05-2.63c-.37-.76-.72-1.32-1-1.89a14.35,14.35,0,0,0-3-3.2c-1.32-1.14-2-2.14-2-3s.56-1.51,1.69-1.51a9.42,9.42,0,0,1,4.24,1.6,13.37,13.37,0,0,0,3.77,1.61c.7,0,1.07-.23,1.14-.66a22.93,22.93,0,0,0,.51-4.52c.16-2.64.28-5.77.33-9.54-1.63.2-3.4.38-5.27.57s-3.87.37-5.85.53-4,.33-5.84.51-3.73.38-5.42.57c-.13,2.38-.22,4.69-.29,6.92s-.09,4.42-.09,6.59c0,1.07,0,2.21.09,3.41s.15,2.36.24,3.48.22,2.16.38,3.07a15.1,15.1,0,0,0,.52,2.21,6.58,6.58,0,0,0,4,4.25,8.5,8.5,0,0,0,2,.46c.89.13,1.87.24,3,.33s2.26.16,3.48.2h3.54q10.54,0,15.74-2.45a10.08,10.08,0,0,1,3.88-1q1.59,0,5.46,2.45c2.52,1.57,3.77,2.85,3.77,3.86s-.71,1.69-2.16,2.26a59,59,0,0,1-9.22,1.67q-3.48.48-7.64.72c-2.76.14-5.65.23-8.67.23h-4.57c-1.52,0-3-.09-4.39-.18s-2.63-.22-3.77-.38a27.61,27.61,0,0,1-2.82-.52,14.69,14.69,0,0,1-6.59-3.58c-1.51-1.71-2.57-4.57-3.21-8.59a32.87,32.87,0,0,1-.42-3.95c-.09-1.67-.17-3.55-.24-5.66s-.09-4.38-.09-6.83V45.08c-2.64.44-5,.8-6.74,1.05s-3,.43-3.64.55a20.33,20.33,0,0,1-3.11.29,5.27,5.27,0,0,1-5.37-3.3,15.7,15.7,0,0,1-1.42-5.8c0-1.61.51-2.4,1.52-2.4a5.2,5.2,0,0,1,3.39,1.89,5.46,5.46,0,0,0,3.71,1.82c1.32,0,3-.12,5-.33s4.2-.44,6.47-.62l.18-9.34a7.9,7.9,0,0,0-2.45-6.13q-2.36-2.25-2.36-3.77c0-1,.82-1.51,2.45-1.51a25.8,25.8,0,0,1,7.07,1.8q5.38,1.7,5.38,4a7.51,7.51,0,0,1-.94,3.2,14.13,14.13,0,0,0-1,4.58,36.21,36.21,0,0,0-.09,5.89l14-1.32c4.09-.38,6.89-.68,8.4-.93V26.83c0-2.29,0-3.85.09-4.66l.1-4.34a4,4,0,0,0-.53-2.26,3.39,3.39,0,0,0-2.11-1.13c-2.33-.57-3.5-1.57-3.5-3A2.12,2.12,0,0,1,634,9.59a8.28,8.28,0,0,1,4-.72,21.4,21.4,0,0,1,7.27,1.71c3,1.07,4.43,2.32,4.43,3.77a7.19,7.19,0,0,1-1.23,3.11,18.5,18.5,0,0,0-.89,2.16,13.56,13.56,0,0,0-.61,2.74c-.13.94-.22,2.51-.29,4.71S646.61,31.52,646.74,34Z"/><path class="cls-1" d="M737.73,77.12a16.74,16.74,0,0,0,9-6.23,15.63,15.63,0,0,0,2.78-9A13.48,13.48,0,0,0,745,51.1a10.86,10.86,0,0,0-2.78-1.65,24.46,24.46,0,0,0-3.5-1.19c-1.22-.31-2.47-.56-3.72-.75a25.28,25.28,0,0,0-3.58-.28,33.54,33.54,0,0,0-13.19,3.39,46.38,46.38,0,0,0-12.54,8.21q-2.46,2.34-4.29,4.43a47.94,47.94,0,0,0-3.16,3.95c-1.69,2.4-3.21,3.59-4.53,3.59q-2.62,0-2.63-7.36c0-1.82.41-3,1.22-3.57a64.84,64.84,0,0,0,7-7.18q5-5.65,14.14-15.36A107.56,107.56,0,0,0,721,28.69a41.27,41.27,0,0,1,4.48-5.13,18.69,18.69,0,0,0,2.92-3.11.26.26,0,0,0-.21-.29h-.07a27.46,27.46,0,0,0-4.9,1.23c-1.45.38-2.89.79-4.34,1.22s-2.86.91-4.25,1.43a17.9,17.9,0,0,1-5.66,1.5q-3.19,0-5.36-3.86a13.51,13.51,0,0,1-2.07-5.47q0-1.71,1-1.71a4.29,4.29,0,0,1,2.11.66,13.32,13.32,0,0,0,5.67,1.71,25.56,25.56,0,0,0,3.48-.39q2.44-.37,6.41-1.12a62,62,0,0,0,7.08-1.75,43,43,0,0,0,5.27-2,7.46,7.46,0,0,1,3.3-.86c1.07,0,2.8,1.11,5.19,3.31s3.62,3.66,3.67,4.34a2.13,2.13,0,0,1-.94,1.69A17.26,17.26,0,0,1,740.2,22a19.56,19.56,0,0,0-5.66,3.95q-3.1,3-7.63,7.21c-1.46,1.39-3,2.84-4.58,4.34s-3.22,3.11-4.85,4.82l-3.72,3.86-1.32,1.41c-.13.13-.13.22,0,.29a2.55,2.55,0,0,0,.57-.29,28.35,28.35,0,0,1,5.18-3.11,45,45,0,0,1,5.71-2.22,39.07,39.07,0,0,1,5.66-1.32,36.59,36.59,0,0,1,5.13-.42,25.85,25.85,0,0,1,11.51,2.64,19.39,19.39,0,0,1,8.67,7.4,20.08,20.08,0,0,1,2.92,10.71A21.25,21.25,0,0,1,749.11,79a32.19,32.19,0,0,1-20.27,6.7q-9,0-14.5-3.59a11.71,11.71,0,0,1-4.25-4.14,10.68,10.68,0,0,1-1.22-5.2,10.19,10.19,0,0,1,3.53-7.82q3.54-3.2,11.27-3.2a20.25,20.25,0,0,1,10.66,3A15.39,15.39,0,0,1,738,67.87,6.24,6.24,0,0,1,739.6,72,8.15,8.15,0,0,1,737.73,77.12Zm-3.48.94a6,6,0,0,1-2.54-3.67A9.6,9.6,0,0,0,728.3,70q-1.77-1.41-5.93-1.22c-2.64.12-4.25.57-5,1.32a3.63,3.63,0,0,0-1.13,2.63,3.68,3.68,0,0,0,1.83,3.54,14,14,0,0,0,4.91,2,26,26,0,0,0,6,.56,18,18,0,0,0,5.16-.7Z"/><path class="cls-1" d="M28.05,191.92q-1.82-2.17-3.4-4.52c-1-1.46-2.12-3.3-3.4-5.54a46.07,46.07,0,0,1-2.55,6.71A40.79,40.79,0,0,1,15.55,194a30.58,30.58,0,0,1-3.81,4.53q-2.09,2-4.51,3.95c-4.08,3.24-6.42,4.6-7.07,4.06s.66-2.87,4-7a59.15,59.15,0,0,0,8.54-15.31,63.61,63.61,0,0,0,3.76-19.63q.39-8.23.46-14t-.21-9.7a38.78,38.78,0,0,0-.86-6.35,14.46,14.46,0,0,0-1.53-4c-1.42-2.37-1.68-3.86-.81-4.47s3.36-.2,7.42,1.21a43.3,43.3,0,0,1,4.47,1.84,6,6,0,0,1,2.23,1.67,2.19,2.19,0,0,1,.41,1.78,9,9,0,0,1-.91,2.23,7.61,7.61,0,0,0-.71,1.78,18.52,18.52,0,0,0-.52,3.05c-.13,1.32-.26,3-.41,5s-.26,4.57-.39,7.61a19,19,0,0,0,2.63-3.6,7.76,7.76,0,0,0,1.07-2.9c.27-2.5.83-3.95,1.68-4.26s2.25.44,4.22,2.34c2.44,2.37,3.72,3.95,3.86,4.93s-.65,1.74-2.35,2.48c-1.32.62-2.94,1.41-4.77,2.38s-4,2.26-6.5,3.81c-.2,4.28-.5,8.11-.91,11.54a70.86,70.86,0,0,1-1.73,9.39,47.68,47.68,0,0,1,6.2,1.89,9.9,9.9,0,0,1,3.7,2.33,6.49,6.49,0,0,1,1.63,3.25,13.18,13.18,0,0,1,0,4.43,4.44,4.44,0,0,1-.76,1.87,2.92,2.92,0,0,1-1.31,1.07,2.7,2.7,0,0,1-1.73,0A3.85,3.85,0,0,1,28.05,191.92ZM7.43,168.18A27.79,27.79,0,0,1,5,163.71a35.77,35.77,0,0,1-2-5.89c-.54-2.16-.62-3.48-.21-4s1.64-.24,3.67.71q5.69,2.53,7.35,5.38a7,7,0,0,1,.66,6q-1.42,4.47-3.24,4.83c-1.23.26-2.51-.67-3.86-2.64Zm76.69,37.9A40.82,40.82,0,0,1,74,207a58.86,58.86,0,0,1-9-.87c-3.87-.74-6.33-2.38-7.43-4.92s-1.41-6.21-1-11c.14-1.32.22-2.64.26-3.76s.08-2.2.14-3.15a31,31,0,0,0-.3-6.39c-.95.13-1.87.29-2.79.44s-1.94.33-3.1.47c2.17,1.68,3.36,3,3.56,3.95s-.35,1.9-1.62,2.85a18.63,18.63,0,0,0-3.26,3.26,48.68,48.68,0,0,1-5.28,5.84,56.39,56.39,0,0,1-6.4,5.13,42,42,0,0,1-7,3.95,30.78,30.78,0,0,1-7,2.19c-3.31.54-5,.5-5.08-.1s1.53-1.73,4.78-3.35a45.87,45.87,0,0,0,7.67-4.88,55.79,55.79,0,0,0,6.45-5.94,38.39,38.39,0,0,0,4.72-6.25A23.93,23.93,0,0,0,45,178.8a4.51,4.51,0,0,0-.52,0,3,3,0,0,1-.6,0c-1.08,0-2.27-.06-3.56-.16a9.11,9.11,0,0,1-3-.66c-2-.74-2.89-1.32-2.79-1.77s1.31-.87,3.61-1.32l7-1.31c2.14-.4,4.16-.87,6-1.32s3.7-.9,5.4-1.32,3.41-1,5.18-1.52c.46-1.55.86-3,1.16-4.38s.59-2.63.87-3.75c-.88.14-1.79.26-2.74.35L58,162c-1.09.14-2.25.3-3.51.51s-2.56.44-4,.71a33.46,33.46,0,0,0,.3,3.35c.21,2.17-.08,3.64-.86,4.42a3.23,3.23,0,0,1-2.08,1.17A2.8,2.8,0,0,1,47,172a2.07,2.07,0,0,1-1-.77,8,8,0,0,1-.91-1.82,20.45,20.45,0,0,1-.85-3.45l-.32-1.53-1.87.41c-.58.13-1.07.27-1.48.4a11,11,0,0,1-3.6.56,5.47,5.47,0,0,1-3.1-1.16Q30.14,162,30.54,161c.28-.65,2-1.07,5.28-1.32l3.25-.21c1.09-.07,2.27-.16,3.55-.31a25.53,25.53,0,0,0-2.74-5.48c-1.41-1.76-1.86-3-1.32-3.66s2.48-.64,5.79.11a13.1,13.1,0,0,1,5.43,2,3.52,3.52,0,0,1,.77,3.4,7.8,7.8,0,0,0-.15,1.17v1.47c2-.33,4.14-.73,6.59-1.16s5.13-1.05,8.18-1.78a24.78,24.78,0,0,0,.41-4.94,9,9,0,0,0-.71-3.19c-1-2.11-1-3.43,0-4s3,0,6.34,1.42c2.78,1.21,4.4,2.28,4.88,3.21s.13,2-1,3.4a8.87,8.87,0,0,0-1.21,2l1.07-.21a4.23,4.23,0,0,0,1-.31,18.26,18.26,0,0,1,5.65-.6,12,12,0,0,1,4.61,1.42A11.07,11.07,0,0,1,89.66,156c.7.85.92,1.57.66,2.18s-1.07,1.08-2.39,1.42a19.47,19.47,0,0,1-5.75.31,39.1,39.1,0,0,0-4.21,0c-1.64.08-4,.22-6.76.56-.4,1.22-.84,2.47-1.32,3.76s-1,2.53-1.42,3.76a9,9,0,0,1,4.27.81c2.1,1,2.91,2.05,2.44,3.09s-2.55,2-6.2,2.91c-.54.13-1.16.27-1.83.4l-2.44.51c1.32.94,2.06,1.83,2.08,2.63a4.75,4.75,0,0,1-1,2.75,6.06,6.06,0,0,0-.71,2c-.2,1-.37,2-.5,3.13s-.23,2.29-.27,3.37,0,1.92,0,2.53a14.67,14.67,0,0,0,.7,4.36,2.39,2.39,0,0,0,2,1.32,40,40,0,0,0,6.09.5,18.59,18.59,0,0,0,6.09-1.12q4.36-1.39,6.7-10.35c1.16-4.27,2.08-6.41,2.79-6.41s1.11,2.14,1.18,6.41a30.41,30.41,0,0,0,.61,5.63,13.86,13.86,0,0,0,1.92,4.63,9,9,0,0,1,1,2.44,3,3,0,0,1-.45,2.39,7.52,7.52,0,0,1-2.8,2.23A24.23,24.23,0,0,1,84.12,206ZM69.39,140.86l-5.27,1.52c-1.59.47-3.06.88-4.42,1.22-.13,1-.27,2.14-.41,3.35s-.26,2.51-.4,3.87A9.82,9.82,0,0,1,57.67,155a2.66,2.66,0,0,1-2,1.47c-.71,0-1.32-.43-2-1.32a9.37,9.37,0,0,1-1.12-4.37,17.18,17.18,0,0,1-.16-2c0-1-.08-2.2-.14-3.56a36,36,0,0,1-5.28.52,9.32,9.32,0,0,1-3.1-.41c-2.37-.81-3.54-1.51-3.54-2.09s1.38-1.06,4.15-1.46a42.58,42.58,0,0,0,7.62-1.94v-1.51a8.2,8.2,0,0,1,.11-1.32,14,14,0,0,0-.56-5.15,8.44,8.44,0,0,0-1.58-3.29q-3.86-3.87-2.33-5.28c1-.94,3.72-.64,8.12.91a34.92,34.92,0,0,1,4.17,1.68,6.93,6.93,0,0,1,2.19,1.53,2,2,0,0,1,.55,1.62,6.66,6.66,0,0,1-.71,2.08,18.41,18.41,0,0,0-1.43,5.08,13.59,13.59,0,0,1,5.49-1.32,9,9,0,0,1,4.38,1.62q4.33,2.67-1.15,4.38Z"/><path class="cls-1" d="M154.42,159.18a20,20,0,0,0,5.27-1.74,40.34,40.34,0,0,0,5.28-3.17,8.59,8.59,0,0,1,4.14-1.89h2.08a7.71,7.71,0,0,1,3.21,1c2.5,1.19,3.77,2.35,3.77,3.49s-1,2.07-3.11,3c-1.08.5-3,1.22-5.81,2.16s-6.48,2.13-11.07,3.58a71,71,0,0,0,3.35,7.51,29.51,29.51,0,0,0,3.95,6c1,1.32,1.76,2.27,2.26,2.88a4.35,4.35,0,0,1,.95,1.69,5.6,5.6,0,0,1,0,2.08c-.16.84-.43,2.15-.81,4-.57,2.26-1.42,3.4-2.64,3.4s-2.63-1-4.48-3a17.31,17.31,0,0,0-8.06-4.52A40.21,40.21,0,0,0,141.52,184q-14.88,0-14.89,8.49a13.33,13.33,0,0,0,.28,2.45,4.71,4.71,0,0,0,.84,2.07,8,8,0,0,0,2,1.52,17,17,0,0,0,3.82,1.5,38.61,38.61,0,0,0,5,1,28.93,28.93,0,0,0,5.18.27,32.77,32.77,0,0,0,4.94-.56,16.38,16.38,0,0,0,4.4-1.51,9.68,9.68,0,0,1,4.33-1.41c1.19,0,2.87.87,5,2.64l2.55,2a2,2,0,0,1,.84,1.59c0,1.52-1.88,2.65-5.66,3.41a63.77,63.77,0,0,1-13.86,1.22,74.71,74.71,0,0,1-7.91-.42,47.32,47.32,0,0,1-7.07-1.32,27.72,27.72,0,0,1-5.76-2.27,11.73,11.73,0,0,1-4-3.25,13.27,13.27,0,0,1-2.84-8.15,12.87,12.87,0,0,1,2.84-8.07,15.24,15.24,0,0,1,5.89-4.47,30.24,30.24,0,0,1,8.62-2.55,39.12,39.12,0,0,1,9.67-.24,25.93,25.93,0,0,1,9,2.46c.3.25.56.29.75.13s.12-.54-.19-1.18a47.88,47.88,0,0,1-3-5.93q-1.31-3.12-2.36-5.66-3.94.94-7.83,1.65c-2.57.46-5.27.92-8.11,1.32a94.9,94.9,0,0,1-11.77,1.13A10.77,10.77,0,0,1,117,171a6.88,6.88,0,0,1-2.64-3.77,12.61,12.61,0,0,1-.93-4.54c0-1.43.51-2,1.54-1.74a10,10,0,0,1,3.82,2.64c.82.81,2.39,1.22,4.72,1.22,1.19,0,2.64,0,4.29-.14s3.6-.27,5.8-.52a89.53,89.53,0,0,0,13.19-2.54c-.32-1.07-.74-2.37-1.32-4s-1.15-3.1-1.83-4.67c-1.07.26-2.34.51-3.77.76s-3.16.54-5.09.84-3.45.55-4.67.71a23.54,23.54,0,0,1-2.64.24q-4.81,0-6.59-3.39a12.18,12.18,0,0,1-1.89-5.27c0-1.32.56-1.94,1.69-1.94a2.09,2.09,0,0,1,1.32.71,20.62,20.62,0,0,0,1.79,1.45,8.54,8.54,0,0,0,5,1.42,67.13,67.13,0,0,0,11.87-1.79,16.63,16.63,0,0,0-.81-2.17,30,30,0,0,0-1.32-2.73,9.59,9.59,0,0,0-3.25-4.29c-1.23-.79-2.15-1.32-2.78-1.75-1.57-.62-2.37-1.48-2.37-2.55a1.72,1.72,0,0,1,1-1.5,12.35,12.35,0,0,1,4.9-.57,37.11,37.11,0,0,1,6.23.38,5,5,0,0,1,3.11,1.32,9.68,9.68,0,0,1,.93,4.53,15.9,15.9,0,0,0,.57,3.48,30.73,30.73,0,0,0,1.23,3.49,16.77,16.77,0,0,0,6.79-4,6.67,6.67,0,0,1,3.59-1.88,8.47,8.47,0,0,1,5.27,1.32c2.14,1,3.2,2.11,3.2,3.29a2.13,2.13,0,0,1-1.17,1.65,17,17,0,0,1-3.3,1.65c-1.42.57-3.11,1.21-5.09,1.94s-4.16,1.56-6.59,2.49c.5,1.45,1,2.94,1.6,4.49A31.6,31.6,0,0,0,154.42,159.18Z"/><path class="cls-1" d="M210.26,181.59a23.32,23.32,0,0,1,1.32,11.69,22.88,22.88,0,0,1-1.32,4.93,10.19,10.19,0,0,1-2.08,3.4,4.51,4.51,0,0,1-3.81,1.68q-2-.27-3.51-3.71a9.26,9.26,0,0,1-1.15-4.8,8.06,8.06,0,0,1,1.78-3.65,18.76,18.76,0,0,0,2.55-4.31,21.57,21.57,0,0,0,1.42-5.35c.48-3.11,1-4.72,1.73-4.82S208.85,178.16,210.26,181.59ZM223,137.71c1.82-2.23,3.34-4.1,4.53-5.59a41.06,41.06,0,0,0,2.73-3.8,17.07,17.07,0,0,0,1.31-2.64,7.1,7.1,0,0,0,.52-1.92,8.14,8.14,0,0,1,.51-2.64,1.78,1.78,0,0,1,1.16-1.17,3.66,3.66,0,0,1,2.09.3,22.59,22.59,0,0,1,3.35,1.73c3.19,1.9,4.77,3.45,4.77,4.66s-1,2.31-3.05,3.26a36.35,36.35,0,0,0-4.77,2.64q-2.76,1.78-5.38,3.7,14.43-1.81,18.9-4.66a5,5,0,0,1,3.6-1.07,15.8,15.8,0,0,1,4.93,2.19,25.88,25.88,0,0,1,4.06,2.83,5.13,5.13,0,0,1,1.57,2.19,1.82,1.82,0,0,1-.5,1.78A7.69,7.69,0,0,1,261.1,141a7,7,0,0,0-1.32,1,8.33,8.33,0,0,0-1.32,1.52,17,17,0,0,0-1.32,2.49c-.47,1-1,2.3-1.63,3.87a30.42,30.42,0,0,1-1.77,3.85c-.65,1.16-1.24,2.17-1.78,3-1,1.49-2,2.24-2.8,2.24s-1.84-.77-3-2.33c-2.44.13-5.46.42-9,.86s-7.92,1.13-12.9,2.08v3.56c3-.21,5.6-.47,7.67-.82a59,59,0,0,0,6-1.31c1.69-.48,3.05-.84,4.06-1.07a11.82,11.82,0,0,1,2.64-.36,6.34,6.34,0,0,1,2,.3,16.22,16.22,0,0,1,2,.93c1.48.81,2.08,1.69,1.78,2.63s-1.76,1.55-4.33,1.68c-1.08.07-2.48.18-4.2.36l-5.6.55-6.19.66-6,.66c-.15,1.32-.24,2.64-.31,3.66,1.63-.14,3.55-.33,5.79-.56l7-.77q3.66-.39,7.42-.91t7.11-1.07c2.24-.37,4.24-.77,6-1.21a24.27,24.27,0,0,0,4.22-1.32,16.48,16.48,0,0,1,2.49-.92,5,5,0,0,1,2.44,0,14.09,14.09,0,0,1,2.94,1.17,44.13,44.13,0,0,1,4.11,2.5,36.48,36.48,0,0,1,4,3,5.48,5.48,0,0,1,1.63,2.23,2.4,2.4,0,0,1-.26,2,10.11,10.11,0,0,1-1.67,2.07,5.34,5.34,0,0,0-1.16,2.49q-.46,1.78-1.18,5.95c-.6,3.65-1.24,6.67-1.87,9a31.91,31.91,0,0,1-2.19,6,16.76,16.76,0,0,1-2.9,4.17,29,29,0,0,1-4.12,3.46c-2.29,1.68-3.95,2.45-5,2.28s-2.08-1.44-3.1-3.81a42.69,42.69,0,0,0-3.15-5.94,30.91,30.91,0,0,0-3.55-4.73q-5-5.38,3.14-2.53a48.94,48.94,0,0,0,4.79,1.57,9.42,9.42,0,0,0,2.74.4,2.15,2.15,0,0,0,1.52-.6,6.6,6.6,0,0,0,1-1.59,31.69,31.69,0,0,0,2.39-7.3,38.63,38.63,0,0,0,.87-7.73q0-3.66-1.32-4.82a6.91,6.91,0,0,0-4.21-1.32,26.1,26.1,0,0,0-3.75.1c-1.77.13-4.1.36-7,.66s-6.45.75-10.61,1.32-9,1.32-14.58,2.08c-.55.07-1.09.76-1.63,2a6.9,6.9,0,0,1-.8,1.43,1.33,1.33,0,0,1-1.07.51,3.15,3.15,0,0,1-1.59-.56,11.62,11.62,0,0,1-2.22-2,4.73,4.73,0,0,1-1.32-2.49,12.71,12.71,0,0,1,.41-4.21,37.41,37.41,0,0,0,.66-4.93c.15-2.14.31-5.2.44-9.23v-5.08a44,44,0,0,0-.35-4.93,33,33,0,0,0-.66-4,8.48,8.48,0,0,0-.91-2.54,7.54,7.54,0,0,1-1.32-2.64,1.16,1.16,0,0,1,.61-1.48,6.14,6.14,0,0,1,3-.1,48.53,48.53,0,0,1,5.95,1.41ZM226,192a5.9,5.9,0,0,1-1.12,2.53,3.37,3.37,0,0,1-1.84,1.32,2.73,2.73,0,0,1-2.08-.36,5.15,5.15,0,0,1-1.87-2.33,23.61,23.61,0,0,1-1.43-3.31c-.4-1.19-.94-2.82-1.62-4.92q-1.53-5.07,3.55-1.94a17.2,17.2,0,0,1,5.45,4.47,5.79,5.79,0,0,1,.91,4.5Zm19.5-39.72a10.05,10.05,0,0,0,.82-1.12,4.91,4.91,0,0,0,.5-1.21c.67-2.11,1.19-3.82,1.53-5.13s.67-2.87,1-4.63c.13-.82.09-1.32-.11-1.53s-.69-.23-1.42-.09c-2.31.41-5.42.88-9.35,1.42s-8.4,1.11-13.41,1.73a16.54,16.54,0,0,0-.25,2.23c0,.75-.08,1.59-.15,2.54,1.62-.21,3.23-.46,4.83-.76a30.71,30.71,0,0,0,4.61-1.32,22.36,22.36,0,0,1,3-.87,11,11,0,0,1,2.29-.25,6.1,6.1,0,0,1,2,.35,18.33,18.33,0,0,1,2.23,1,1.81,1.81,0,0,1,1.23,2c-.15.85-1.13,1.44-3,1.78-2.1.42-4.74.77-7.91,1.07s-6.34.56-9.6.77c-.07.73-.09,1.55-.09,2.44v2.74c1.75-.28,3.54-.58,5.38-.92s3.41-.68,4.77-1a41.71,41.71,0,0,1,6-1.32,15.61,15.61,0,0,1,4.92.12Zm-5.27,36.26a5.86,5.86,0,0,1-1,2.64,3.1,3.1,0,0,1-1.67,1.17,2.86,2.86,0,0,1-2-.25,6.56,6.56,0,0,1-2.09-1.72,12.49,12.49,0,0,1-1.92-2.9q-.82-1.68-2.14-4.32c-.75-1.55-1-2.49-.61-2.79s1.32-.19,3.16.35a33.17,33.17,0,0,1,4.82,1.78,9.27,9.27,0,0,1,2.64,1.77,3.27,3.27,0,0,1,1,1.94,8.79,8.79,0,0,1-.17,2.29Zm14.5-3.15a5.73,5.73,0,0,1-.55,3.05,4.3,4.3,0,0,1-1.73,1.78,3.48,3.48,0,0,1-2.24.35,4.08,4.08,0,0,1-2.19-1.21,24.4,24.4,0,0,1-2.64-3.36,33.69,33.69,0,0,1-2.79-5.28c-.81-2-1.06-3.2-.75-3.7s1.39-.4,3.29.34,3.47,1.41,4.72,2a13.49,13.49,0,0,1,3,1.73,5,5,0,0,1,1.51,1.87,5.81,5.81,0,0,1,.37,2.4Z"/><path class="cls-1" d="M367.05,135a22.1,22.1,0,0,0-2,1,17.54,17.54,0,0,0-1.57,1,10.2,10.2,0,0,0-1.47,1.32l-1.63,1.78c2,1.21,2.79,2.48,2.29,3.76s-2.5,2-5.95,2.24c-1.15,0-2.51.16-4.06.3l-4.72.4-4.58.41c-1.45.14-2.64.27-3.6.4l-4.42.66c-1.18.18-2.25.31-3.2.41a23.38,23.38,0,0,1-2.64.16h-2.74q-1.85,18.47-7.82,31a59.4,59.4,0,0,1-14.43,19.78c-4.61,3.95-7.26,5.63-8,5.13s.49-2.87,3.6-7.07A80,80,0,0,0,310.27,179a95.06,95.06,0,0,0,5.58-22.76,100.86,100.86,0,0,0,.92-14.63c-.14-3.32-.6-5.59-1.42-6.8a12.9,12.9,0,0,1-1.68-3.31,1.33,1.33,0,0,1,.66-1.73,7.52,7.52,0,0,1,3.71,0c1.76.26,4.24.8,7.46,1.62a69.21,69.21,0,0,0,7.62-.41,65.15,65.15,0,0,0,7.36-1.17,55.83,55.83,0,0,0,6.36-1.73,20.68,20.68,0,0,0,4.57-2.07,33.82,33.82,0,0,1,3-1.69,4.84,4.84,0,0,1,2.28-.5,7.91,7.91,0,0,1,2.49.61,30.41,30.41,0,0,1,3.51,1.78,56,56,0,0,1,5.38,3.35,6.14,6.14,0,0,1,2.19,2.28,1.47,1.47,0,0,1-.52,1.73A10.59,10.59,0,0,1,367.05,135Zm11.79,59.75c3.11,2.52,4.12,4.47,3,5.89s-4.09,1.67-8.89.72a67.33,67.33,0,0,0-11.33-1.11c-4.58-.15-9.31-.09-14.23.14s-9.69.65-14.37,1.23a81.4,81.4,0,0,0-11.78,2.18,20,20,0,0,1-2.9.66,5.61,5.61,0,0,1-2.23-.15,7.88,7.88,0,0,1-2.29-1.17,30.94,30.94,0,0,1-2.84-2.39c-1.76-1.56-2.48-2.64-2.13-3.1s1.66-.72,3.95-.66c1.23,0,2.8,0,4.74-.1s4.09-.16,6.5-.31,5-.31,7.77-.55l8.63-.77.1-7c-1.63.15-3,.25-4.12.32a28.83,28.83,0,0,1-2.94,0,11.49,11.49,0,0,1-2.19-.26,7.1,7.1,0,0,1-1.73-.6c-1.82-.89-2.74-1.61-2.74-2.19s.95-.92,2.85-1.07c1.69-.13,3.39-.32,5.08-.55s3.62-.6,5.79-1.07a33.08,33.08,0,0,0-.1-4.67,14.93,14.93,0,0,0-.71-3c-2,.54-3.6,1-4.88,1.51s-2.37.92-3.26,1.32a35.87,35.87,0,0,1-3.65,1.58,2,2,0,0,1-2.74-.63,1.91,1.91,0,0,1-.3-1,21.91,21.91,0,0,1-.41-3.87,11.06,11.06,0,0,1,0-2.44,3.17,3.17,0,0,1,.6-1.47,3,3,0,0,1,1.32-.86,15.76,15.76,0,0,1,2.34-.51,10.29,10.29,0,0,0,4.11-1.32,13.65,13.65,0,0,0,3.2-3.19,13.34,13.34,0,0,0,2.29-3.46,12.11,12.11,0,0,0,.76-2.85c-1.69.14-3.1.21-4.21.21a16.89,16.89,0,0,1-2.84-.21,9.33,9.33,0,0,1-2.14-.6,13.07,13.07,0,0,1-2.19-1.23q-3-1.91,1.43-2c1.83-.07,4-.25,6.59-.55s5.13-.68,7.77-1.13,5.14-.91,7.47-1.42,4.18-1,5.54-1.32,2.72-.84,3.71-1.11a9.74,9.74,0,0,1,2.63-.4,6,6,0,0,1,2.23.4,17.4,17.4,0,0,1,2.49,1.22c1.49.82,2.15,1.67,2,2.63s-1.32,1.64-3.29,2.18-4.7,1.06-7.57,1.53-6.69.91-11.42,1.32c2.36,1.42,3.53,2.45,3.49,3.1s-1,1.44-3,2.38c-1,.48-2,.94-2.8,1.32s-1.71.94-2.64,1.48a29.7,29.7,0,0,0-2.74,1.87c-.95.71-2,1.55-3.25,2.49,1.55-.21,3-.42,4.47-.65s2.87-.49,4.36-.77,3.07-.58,4.73-.91l5.74-1.23a45.88,45.88,0,0,1-2.8-4.11,3.83,3.83,0,0,1-.76-2.14c.07-.43.47-.63,1.23-.6a18.77,18.77,0,0,1,3.24.56,51.67,51.67,0,0,1,5.7,1.68,14.49,14.49,0,0,1,3.85,2,8.58,8.58,0,0,1,2.38,2.74,14,14,0,0,1,1.32,3.71,5.93,5.93,0,0,1-.09,2.9,3.55,3.55,0,0,1-1.32,1.92,3.71,3.71,0,0,1-2.33.61,4.94,4.94,0,0,1-2.8-1.07,19.74,19.74,0,0,1-2-1.62,27.91,27.91,0,0,1-2.44-2.54l-11.27,2.63a10.26,10.26,0,0,1,3.8,2.64c.38.65.22,1.48-.45,2.49a5.4,5.4,0,0,0-.72,2.44c1.69-.53,3.13-.94,4.32-1.22a14.54,14.54,0,0,1,3.15-.41,6,6,0,0,1,2.44.46,11.28,11.28,0,0,1,2.28,1.32c1.23,1,1.52,1.83.87,2.63s-2.6,1.61-5.84,2.39c-1.77.41-3.21.71-4.33.92s-2.28.37-3.49.51l-.41,7,8.33-1,7.72-1c1.76-.28,3.27-.46,4.52-.57a14.33,14.33,0,0,1,3.4.11,8.69,8.69,0,0,1,2.8,1A22.65,22.65,0,0,1,378.84,194.78Zm-26.16-59.14c.26-1.15.15-1.87-.36-2.19a4.23,4.23,0,0,0-2.63-.15l-7.12,1c-1.89.26-3.62.53-5.17.76l-4.58.72c-1.49.23-3.26.48-5.27.75-.07,1.42-.12,2.73-.15,3.95s-.12,2.35-.26,3.51q4.78-.51,10.77-1.48t12-2.38a3.15,3.15,0,0,0,1.78-1.32A12,12,0,0,0,352.68,135.64Z"/><path class="cls-1" d="M445.46,144.67a42,42,0,0,1,.57,7.25,71,71,0,0,1-4.25,23.3q-4.23,12.25-11.13,19.43a25.6,25.6,0,0,1-6.83,5.27,14.61,14.61,0,0,1-6.59,1.74,10.39,10.39,0,0,1-5.84-1.79,14.94,14.94,0,0,1-4.67-5.38,35.83,35.83,0,0,1-4-17.54,39.94,39.94,0,0,1,5.37-19.78,40.39,40.39,0,0,1,25-19.09,43.79,43.79,0,0,1,11.22-1.41q15.95,0,26.6,10.18t10.65,23.85a30.26,30.26,0,0,1-4.95,16.44,33.29,33.29,0,0,1-14.72,12.35,50.74,50.74,0,0,1-22.15,4.72,13,13,0,0,1-3.83-.48c-1-.31-1.56-.81-1.56-1.5,0-1.08,1.71-1.95,5.11-2.64s6.5-1.42,9.14-2.21a49.72,49.72,0,0,0,6.79-2.49,29,29,0,0,0,5.09-3,32.18,32.18,0,0,0,4.06-3.59,37.66,37.66,0,0,0,5.42-7.82,19.8,19.8,0,0,0,1.92-9,27.52,27.52,0,0,0-6.77-18.11Q458.48,145.45,445.46,144.67Zm-6.5.09A30,30,0,0,0,419.34,156a34.39,34.39,0,0,0-7.54,22,35.32,35.32,0,0,0,.47,6,22.27,22.27,0,0,0,1.32,4.81,8.6,8.6,0,0,0,2.12,3.16,4.26,4.26,0,0,0,2.88,1.13,7.28,7.28,0,0,0,4.9-2.22q2.37-2.34,6.5-10.18a72.82,72.82,0,0,0,6.28-16.45A103.22,103.22,0,0,0,439,144.8Z"/><path class="cls-1" d="M580.3,190.82c-5,.61-9,1-11.94,1.32a25.23,25.23,0,0,1-7.05-.2,8.5,8.5,0,0,1-4.22-2,25.33,25.33,0,0,1-3.41-4.11Q550,180.61,546,175t-9.44-13.18c-.07,3-.07,6.41,0,10.31s.11,8.07.15,12.54a27.13,27.13,0,0,1,6.6-.7,11.7,11.7,0,0,1,5.13,1.41,5.73,5.73,0,0,1,2.48,2.09c.38.71.15,1.39-.66,2a11.29,11.29,0,0,1-4.47,1.67,47.89,47.89,0,0,1-8.94.82q.21,4.89.15,8.83a62.1,62.1,0,0,1-.35,6.72,9.79,9.79,0,0,1-1.32,4,3.85,3.85,0,0,1-2.33,1.73,4.08,4.08,0,0,1-3.05-.71,13.81,13.81,0,0,1-3.51-3.35,8.63,8.63,0,0,1-1.83-4.53,17,17,0,0,1,1.63-7,22,22,0,0,0,.81-5,44.35,44.35,0,0,1-6,.16,11.32,11.32,0,0,1-3.36-.66c-2.84-1.23-4.23-2.19-4.16-2.9s1.18-1.1,3.35-1.18c1.22-.06,2.77-.23,4.67-.5s3.87-.58,5.9-.91q.2-3.65.35-8.54t.36-11.28a78.45,78.45,0,0,1-6,9.66,49.66,49.66,0,0,1-14.51,13.18,78.28,78.28,0,0,1-9.4,4.78q-5.71,2.42-6.56,1.62t4.16-4.72a105.66,105.66,0,0,0,17.14-17.14,86.43,86.43,0,0,0,11.74-19.6c-2.17.4-4,.71-5.27.91a25.12,25.12,0,0,1-3.46.3,9.84,9.84,0,0,1-2.53-.3,16.26,16.26,0,0,1-2.44-.91c-2.64-1.16-4-2-4-2.64s1.53-1.08,4.72-1.42c2-.2,4.56-.56,7.57-1.11s6-1.16,9.09-1.83a79.58,79.58,0,0,0-1-13.26,13.59,13.59,0,0,0-2.28-5.94c-2.64-2.85-3.38-4.68-2.39-5.54s4.18-.51,9.6,1a24.51,24.51,0,0,1,4.77,1.73,6.86,6.86,0,0,1,2.43,1.94,3,3,0,0,1,.51,2.28,8.89,8.89,0,0,1-1,2.79,15.48,15.48,0,0,0-.56,1.57,24,24,0,0,0-.51,2.35c-.17,1-.32,2.2-.46,3.65s-.27,3.27-.4,5.44c3-1,5.51-1.79,7.57-2.34a39.69,39.69,0,0,1,5.38-1.07,18.72,18.72,0,0,1,4,0,18.2,18.2,0,0,1,3.56.82,11,11,0,0,1,3.35,1.78,1.83,1.83,0,0,1,.82,1.93,4.1,4.1,0,0,1-2.18,1.9,19.1,19.1,0,0,1-5.49,1.58c-.88.13-2,.32-3.35.55s-2.83.48-4.43.71-3.23.49-4.92.77l-4.77.71q6.4,7,11.78,12.13A123.86,123.86,0,0,0,558.76,174a90,90,0,0,0,9.85,6.6,92.71,92.71,0,0,0,10.26,5q6.11,2.55,6.3,3.56C585.31,189.85,583.68,190.39,580.3,190.82Z"/><path class="cls-1" d="M641.55,201.16a83.15,83.15,0,0,0-9.23-11.68,52.76,52.76,0,0,1-11.87,8.69,64.89,64.89,0,0,1-13.06,5.43c-4.33,1.15-6.59,1.47-7,1s1.65-2,5.84-4.41a97.86,97.86,0,0,0,11-7.57,63.73,63.73,0,0,0,9.1-8.89c-1.9-1.77-4-3.59-6.15-5.49s-4.59-3.86-7.16-5.89c-3-2.31-4.11-3.76-3.41-4.36s3.16,0,7.37,2c2.85,1.36,5.43,2.63,7.76,3.81s4.48,2.34,6.45,3.49a30.33,30.33,0,0,0,3.87-6.95,7.18,7.18,0,0,0,.4-4.32c-.67-2.17-.59-3.55.26-4.16s2.79-.1,5.84,1.52A40.32,40.32,0,0,1,646.1,166a4.7,4.7,0,0,1,1.83,1.92,1.76,1.76,0,0,1-.36,1.73,19.54,19.54,0,0,1-2.08,2.19,9,9,0,0,0-1.67,2.07c-.58.92-1.32,2.12-2.19,3.61-.41.67-.85,1.32-1.32,2.09s-1,1.47-1.53,2.28a42.86,42.86,0,0,1,5.54,4.52,20,20,0,0,1,3.2,4,11.9,11.9,0,0,1,1.43,3.7,23.14,23.14,0,0,1,.3,3.72q-.19,6.81-2.34,7.66T641.55,201.16Zm34.55,6a29.89,29.89,0,0,1-11.54-5.63A27.61,27.61,0,0,1,657,190.69a33.87,33.87,0,0,1-2.12-7.25,55.32,55.32,0,0,1-.87-7.91,60.54,60.54,0,0,1,.15-7.62,49.21,49.21,0,0,1,.91-6.41c.35-1.76.4-2.81.16-3.14s-.83-.48-1.78-.41q-3.27.2-8.63.91t-10.92,1.63c-3.7.63-7,1.22-10.07,1.78a35.72,35.72,0,0,0-5.93,1.48c-1.7.67-3.08,1.18-4.17,1.48a9.11,9.11,0,0,1-2.84.39,5.17,5.17,0,0,1-2.39-.69,22.59,22.59,0,0,1-2.64-1.89c-3.11-2.31-4.56-3.71-4.32-4.22s2.38-.75,6.46-.75a26.41,26.41,0,0,0,2.64-.11c1.17-.1,2.72-.23,4.82-.51s4.79-.62,8.07-1.07,7.4-1,12.34-1.77c3.27-.47,5.9-.91,7.92-1.32s3.67-.77,5-1.1a22.61,22.61,0,0,0,3.4-1.23c1-.43,2-1,3.15-1.67a10.18,10.18,0,0,1,1.93-1,3.17,3.17,0,0,1,1.78-.1,9.35,9.35,0,0,1,2.33.92c.91.47,2.13,1.18,3.62,2.12a40.61,40.61,0,0,1,3.6,2.55,4.33,4.33,0,0,1,1.53,1.83,1.52,1.52,0,0,1-.52,1.57,13,13,0,0,1-2.38,1.78,7.73,7.73,0,0,0-2,1.92,15.26,15.26,0,0,0-1.84,3.21,23.09,23.09,0,0,0-1.32,4.31,19.42,19.42,0,0,0-.3,5.27,34.78,34.78,0,0,0,3,13.51A17.23,17.23,0,0,0,672,195a6.82,6.82,0,0,0,3,1.11c.75,0,1.31-.74,1.93-2.23a15.85,15.85,0,0,0,.91-3c.27-1.32.58-2.77.91-4.53,1.16-6,2-8.94,2.64-8.94s1,3,1.32,9.05c.13,2.36.32,4.72.55,7a18.25,18.25,0,0,0,1.78,6.35,17.7,17.7,0,0,1,1.68,4.52,3,3,0,0,1-.61,2.85,4.69,4.69,0,0,1-3.35,1A25.64,25.64,0,0,1,676.1,207.15ZM650,129c1.55-.54,2.85-.95,3.86-1.21a12.48,12.48,0,0,1,2.64-.46,6.65,6.65,0,0,1,2.13.25c.68.21,1.49.47,2.44.81a9.24,9.24,0,0,1,3.1,1.68,2.93,2.93,0,0,1,1.11,1.94,2.1,2.1,0,0,1-1,1.76,7.11,7.11,0,0,1-3.15,1.23q-12.79,2.53-21.1,3.55a51,51,0,0,1-14,.1c-.95,1.43-1.82,2.64-2.64,3.71a27.34,27.34,0,0,1-2.53,3,27.8,27.8,0,0,1-3,2.64q-1.65,1.23-3.76,2.64c-4.4,2.78-7.07,4-8,3.66s.16-2.2,3.35-5.59a40.69,40.69,0,0,0,5.48-7.11,46.36,46.36,0,0,0,3.35-6.59,27.86,27.86,0,0,0,1.64-5.13,6.22,6.22,0,0,0,.09-2.94c-.8-2.44-.72-4,.26-4.38s3.26-.13,6.86,1a42.83,42.83,0,0,1,4.56,1.67,6.19,6.19,0,0,1,2.14,1.43,1.19,1.19,0,0,1,0,1.47,9.64,9.64,0,0,1-1.73,1.93,15.49,15.49,0,0,0-1.32,1.48c-.51.64-1.13,1.54-1.88,2.63a100.43,100.43,0,0,0,10.31-2A112.23,112.23,0,0,0,650,129Zm5.79,17.47L648,148.09c-2.89.56-5.72,1.06-8.53,1.46a75,75,0,0,1-7.62.76,13.76,13.76,0,0,1-5-.44,17.92,17.92,0,0,1-4.22-1.94c-.71-.54-.93-1-.66-1.32a3.23,3.23,0,0,1,1.82-.91,25.54,25.54,0,0,1,3.26-.57c1.49-.13,3.18-.33,5.08-.6s3.86-.61,5.89-1,4.08-.87,6.15-1.42,4-1.11,5.94-1.73c1-.27,1.88-.46,2.64-.61a6.56,6.56,0,0,1,1.93-.1,11.42,11.42,0,0,1,1.63.31c.5.13,1,.31,1.57.5,2.64,1.09,3.8,2.19,3.65,3.3s-2.08,2-5.73,2.74Z"/><path class="cls-1" d="M714.59,182.16a13.72,13.72,0,0,1,5.18,1,12.21,12.21,0,0,1,4.06,2.71,11.69,11.69,0,0,1,2.64,4.11,14,14,0,0,1,0,10.26,12,12,0,0,1-2.64,4.11,12.17,12.17,0,0,1-4.06,2.64,14.35,14.35,0,0,1-10.36,0,12.24,12.24,0,0,1-6.76-6.75,13.27,13.27,0,0,1-1-5.09,12.59,12.59,0,0,1,3.76-9.23A12.43,12.43,0,0,1,714.59,182.16Zm0,18.9a5.77,5.77,0,0,0,4.32-1.73,6.27,6.27,0,0,0,0-8.53,5.67,5.67,0,0,0-4.22-1.73,6.08,6.08,0,0,0-6.09,6.07v0a5.65,5.65,0,0,0,1.73,4.17,5.81,5.81,0,0,0,4.26,1.73Z"/></g></g></svg>