<?xml version="1.0" encoding="utf-8"?>
<!-- Generator: Adobe Illustrator 25.2.0, SVG Export Plug-In . SVG Version: 6.00 Build 0)  -->
<svg version="1.1" id="レイヤー_1" xmlns="http://www.w3.org/2000/svg" xmlns:xlink="http://www.w3.org/1999/xlink" x="0px"
	 y="0px" viewBox="0 0 1920 1122" style="enable-background:new 0 0 1920 1122;" xml:space="preserve">
<style type="text/css">
	.st0{fill:#FFFFFF;}
</style>
<path class="st0" d="M686.4,948.9h39c1,0,1.9,0.8,1.9,1.9v81.6c0,1-0.8,1.9-1.9,1.9h-39c-1,0-1.9-0.8-1.9-1.9v-81.6
	C684.5,949.7,685.4,948.9,686.4,948.9z"/>
<polygon class="st0" points="1271.7,966.7 645.5,980.9 645.5,988 1271.7,988 "/>
<polygon class="st0" points="1271.7,1016.5 645.5,1002.3 645.5,995.2 1271.7,995.2 "/>
<path class="st0" d="M684.6,703.4c0-151.1,122.9-274,274-274c151.1,0,274,122.9,274,274c0,94.3-47.4,180.3-126.9,231h36.8
	c70.6-55.8,111.7-141,111.4-231c0-162.8-132.5-295.3-295.3-295.3S663.2,540.6,663.2,703.4c-0.3,90,40.8,175.2,111.4,231h36.8
	C732,883.7,684.6,797.7,684.6,703.4z"/>
<path class="st0" d="M870.1,811.7h3.8v19.7c0,7.8-3.8,10.2-8.9,10.2c-1.4,0-2.7-0.2-4-0.7l0.6-3.1c1,0.4,2.1,0.6,3.2,0.6
	c3.4,0,5.4-1.5,5.4-7.3L870.1,811.7z"/>
<path class="st0" d="M904.2,831.8l-3.1,9.2h-4l10-29.4h4.6l10,29.4h-4.1l-3.1-9.2H904.2z M913.8,828.9l-2.9-8.5
	c-0.7-1.9-1.1-3.7-1.5-5.4h-0.1c-0.4,1.7-0.9,3.5-1.5,5.3l-2.9,8.5L913.8,828.9z"/>
<path class="st0" d="M945.3,812.1c2.4-0.4,4.8-0.6,7.3-0.6c3.8,0,6.5,0.9,8.2,2.4c1.7,1.6,2.7,3.8,2.6,6.1c0.1,2.3-0.7,4.6-2.3,6.3
	c-2.4,2.3-5.7,3.4-9,3.2c-1,0-2-0.1-3-0.3v11.8h-3.8L945.3,812.1z M949.1,826.2c1,0.2,2.1,0.3,3.1,0.3c4.6,0,7.4-2.2,7.4-6.3
	s-2.7-5.7-6.9-5.7c-1.2,0-2.4,0.1-3.6,0.3V826.2z"/>
<path class="st0" d="M992.4,831.8l-3,9.2h-4l10-29.4h4.6l10,29.4h-4l-3.1-9.2H992.4z M1002.1,828.9l-2.9-8.5
	c-0.7-1.9-1.1-3.7-1.5-5.4h-0.1c-0.4,1.7-0.9,3.5-1.5,5.3l-2.9,8.5H1002.1z"/>
<path class="st0" d="M1033.6,841.1v-29.4h4.1l9.4,14.9c2,3.1,3.7,6.3,5.3,9.5h0.1c-0.4-4-0.4-7.5-0.4-12.1v-12.3h3.6v29.4h-3.8
	l-9.3-15c-2-3.2-3.9-6.4-5.5-9.8h-0.1c0.2,3.7,0.3,7.2,0.3,12.1V841L1033.6,841.1z"/>
<path class="st0" d="M877.3,545.9c0.1,5.1-0.2,10.1-0.9,15.2c2.2,2.4,8.1,9.3,9.5,11.1l-3,3.2c-2.3-3.4-4.7-6.6-7.4-9.7
	c-1.5,6.9-4.8,13.2-9.6,18.4c-0.8-1.1-1.9-2.1-3-2.9c9.3-9.9,10.4-22.8,10.4-35.2v-22.8c3.1,0.3,4.2,0.3,5.3,0.3
	c0,0.5-0.4,0.8-1.2,0.9L877.3,545.9z M863,552.8c2.6-3.5,3.9-9.9,4-16l3.2,0.5c-0.1,6.3-1.2,13.2-4.2,17.1L863,552.8z M887.7,536.4
	c-0.3,0.4-0.8,0.6-1.3,0.5c-1.6,4.3-3.4,8.6-5.4,12.7c0-0.1-2.8-1.4-2.8-1.4c2-4.4,3.7-9,5-13.7L887.7,536.4z M911,577.8
	c0,1.5,0.3,1.8,2,1.8h5.6c1.6,0,1.9-0.9,2.1-7.5c1.1,0.7,2.4,1.3,3.7,1.6c-0.4,7.6-1.5,9.5-5.3,9.5h-6.6c-4.6,0-5.7-1.2-5.7-5.6
	v-15.1H900c0,0.4-0.5,0.7-1.3,0.7c-0.9,10.3-3.3,17.1-14.7,20.7c-0.6-1.2-1.4-2.3-2.4-3.2c10.1-3.1,12.4-8.6,13-18.3h-9.9v-3.9h8
	v-8.6h-8v-4h8V538l5.3,0.4c-0.1,0.4-0.4,0.7-1.2,0.8v6.9h14.8V538l5.4,0.4c0,0.4-0.4,0.7-1.2,0.8v6.9h8.1v4h-8.1v8.6h8.2v3.9h-11.7
	c-0.1,0.4-0.5,0.7-1.2,0.7V577.8z M902,542v-8h-14.8v-3.8H902v-7.1l5.5,0.3c0,0.5-0.4,0.8-1.3,0.9v5.8h15.2v3.8h-15.2v8L902,542z
	 M896.8,550.1v8.6h14.8v-8.6H896.8z"/>
<path class="st0" d="M984.8,546.6c-6.4,2-13.1,3.4-19.8,4c2,3.5,6,8.4,10.8,10.3l-2.6,3.7c-0.9-0.4-2.6-1.2-3.8-2
	c-2.5-0.7-5.1-1-7.7-1c-0.9,0-1.8,0-2.6,0.1l-0.9-3.6c2.4-0.1,4.9,0,7.3,0.3c-2.1-2.2-3.8-4.7-5.2-7.4c-5.8,0.5-11.7,0.7-17.5,0.6
	c-3.2,0-6.8,0-9.7-0.1v-4.1c3,0.1,6.7,0.1,10,0.1c5.4,0,10.7,0,16-0.5c-0.7-2-1.8-5.7-2.5-8.7c-2.6,0.3-5.6,0.4-8.2,0.4
	c-3.5,0-8,0-11.1-0.1v-4.1c4,0.2,8.2,0.2,11.1,0.2c2.3,0,5-0.1,7.5-0.3c-0.6-3-1.2-6.6-1.8-10.3l6.7,0.1c0,0.8-0.6,1.2-1.8,1.4
	c0.4,2.8,0.8,5.8,1.3,8.4c6-0.5,11.9-1.8,17.5-3.8l1.1,4c-5.8,1.9-11.7,3.2-17.8,3.7c0.7,2.9,1.5,5.8,2.5,8.6
	c7-0.7,13.8-2.1,20.5-4.3L984.8,546.6z M973.3,581.2c-3.6,0.3-7.9,0.4-14.4,0.4c-10.5-0.1-18.8-3.5-18.7-10.9
	c0-3.9,3.5-7.9,7.7-10.3l2.9,3c-3.8,2-6,4.8-6,7.3c0,4.6,5.7,6.7,14.1,6.7c4.9,0,10.1-0.3,14.5-0.6L973.3,581.2z"/>
<path class="st0" d="M1005.2,569.4c-1.3,5-3.6,10.7-7.3,14.1l-3.5-2.2c3.5-3.1,5.9-8.5,7.1-13.2L1005.2,569.4z M1054.2,557.2h-46.5
	v4.9h41.4h1l2.4,0.4c-0.1,0.4-0.1,0.9-0.3,1.3c-0.9,12.2-1.8,16.9-3.5,18.6c-1.3,1.4-2.9,1.7-6.2,1.7c-1.6,0-3.7-0.1-5.9-0.2
	c-0.1-1.3-0.5-2.6-1.1-3.7c3.2,0.3,6.3,0.3,7.5,0.3c1.1,0,1.8-0.1,2.3-0.6c1.1-1.1,2-4.9,2.6-14.3h-44.5v-37.1h16.2
	c0.9-1.8,1.7-3.7,2.4-5.7l5.7,1.2c-0.3,0.5-0.8,0.7-1.3,0.7c-0.6,1.1-1.3,2.5-2.2,3.8h20.8v20.5h-37.2v4.7h46.5V557.2z M1040.5,532
	h-32.9v5.1h32.9V532z M1007.6,545.7h32.9v-5.5h-32.9V545.7z M1012,581.7c0-4-0.5-8-1.5-11.9l3.7-0.6c1.1,3.8,1.7,7.8,1.8,11.8
	L1012,581.7z M1024.6,580.1c-0.6-3.6-1.7-7.2-3.3-10.5l3.5-0.8c1.6,3.3,2.8,6.8,3.5,10.4L1024.6,580.1z M1034.9,567.4
	c2.1,2.6,3.8,5.4,5.2,8.4l-3.3,1.5c-1.3-3.1-2.9-6-5-8.6L1034.9,567.4z"/>
<path class="st0" d="M810.8,649.1c16.1-15.4,35.4-23.3,56.4-23.3c16.8,0,31.5,5,43.2,14.3c17.3,13.8,28,36.3,28,60.2
	c0,17.8-5.9,32.3-20.2,42.7c-13.8,9.9-36.3,16.2-69.3,17.6c-1.2,0-1.7-0.5-1.7-1c0.1-0.7,0.7-1.3,1.4-1.3
	c19.4-4.5,35.8-11.7,47.4-21.4c13-10.7,19.4-25.9,19.4-43.9c0-18-6.6-35.3-17.3-46.3c-8.7-8.8-19.4-13.8-31.6-13.8
	c-1.7,0-3.5,0.2-5.2,0.3c2.7,2.4,5,5.1,6.9,8.1c3,4.6,4.5,10.1,4.3,15.6c-0.2,5-0.9,10-1.9,14.9c-4.8,24.4-15.6,47-25.1,58.8
	c-9,11.1-19.4,17.3-28.5,17.3c-7.4,0-13-1.9-16.1-12.3c-1.3-4.4-3.1-8.6-5.4-12.6c-5-8.1-9.9-14.2-9.9-23.7
	C785.5,680.2,796.2,662.9,810.8,649.1z M805.6,719.1c2.8,3.8,5.4,5.2,10,5.2c5.7,0,11.9-4.2,18.5-12.4c9.7-11.9,20.1-33,24.7-52.9
	c1-4,1.6-8.1,1.9-12.3c0-2.8-0.4-5.6-1.3-8.3c-0.7-1.6-1.5-3.2-2.4-4.7c-12.8,2.8-24.7,11.2-34.4,23.2c-11.9,14.7-20.1,32-20.1,49.5
	C802.5,712.7,803.9,716.5,805.6,719.1L805.6,719.1z"/>
<path class="st0" d="M1017.9,700.9c-4.5-5.4-7.1-11.1-7.1-16.1c0-6.2,2.4-10.9,5.9-15.6c2.9-4,6.6-7.6,12.4-14
	c-5.5-2.2-10.3-5.8-14-10.4c-2.7-3.7-4.5-7.9-5.2-12.4c-0.3-1.9-0.5-3.8-0.5-5.7c0-1.3,0.1-2.5,0.3-3.8c0.2-1,0.7-1.6,1.4-1.6
	s0.9,0.3,1.2,1.2c0.9,2.4,2.2,4.6,3.8,6.6c2.1,2.4,4.8,4.2,7.8,5.4c5.9,2.4,12.1,3.7,18.5,3.8c4.6,0,9.1,1.6,12.6,4.7
	c3.8,3.1,6.4,6.7,6.4,11.9c0,2.1-0.5,4.5-2.1,5.7c-2.2,2.2-5.9,2.2-9,2.2c-4.8,0-9-0.9-14.3,1c-3.8,1.3-10.7,4.5-14.5,8.3
	c-1.9,1.9-4.5,4.5-4.5,7.4c0,4.1,2.8,7.4,7.6,11.6c2.6,2.2,5.4,4.2,8.1,6.2c8.7-4.2,18.3-6.4,28-6.4c8.2,0.1,16.3,1.8,23.7,5.2
	c8.2,3.6,15.5,8.9,21.4,15.6c5.9,6.7,9,13.8,9,19.7c0,4.3-1,6.6-3.1,8.5c-2.2,1.9-5,3-7.9,2.9c-3,0.2-5.9-0.6-8.5-2.1
	c-2.1-1.8-3.8-4-4.8-6.6c-1.7-4-2.9-8.1-4.8-11.9c-3-6.5-7.4-12.3-12.8-16.9c-5.5-4.8-12.6-7.3-19.9-7.3c-4.9,0-9.7,1.2-14,3.6
	c4.1,2.7,8.1,5.6,11.9,8.8c8.3,7.1,12.1,13.8,12.1,22c-0.1,6.5-3.2,12.6-8.3,16.6c-4.4,3.3-9.7,5.1-15.2,5c-6.2,0-14.5-3.3-21.1-5
	s-14.2-3.6-22.6-6.2c-0.7,1-1.6,1.9-2.3,2.8c-3.6,4.3-5.9,8.1-9.3,10.9c-2.7,2.1-6.1,3.2-9.5,3.1c-4.3,0.2-8.6-0.5-12.6-2.1
	c-4-1.7-7.1-4.8-7.1-9.9c0-4.7,2.6-8.5,9.3-9.5c4.1-0.7,7.9-0.9,9.5-1c5-0.3,11.7-5.4,15.6-8.3c5.9-4.7,10.5-9.2,16.4-13.7
	c4.8-3.6,9.9-7.6,15-11.1C1019.8,703.2,1018.9,702.2,1017.9,700.9z M1012.3,722.7c-5.2,5.7-9.9,11.9-13.8,16.8
	c6.4,0.7,12.8,1,19.2,0.9c7.3,0,13-0.5,16.6-1.9c5-1.9,6.9-5.5,6.9-8.3s-1.6-7.4-6.4-13c-2.5-2.8-5.2-5.3-8.1-7.6
	C1021.5,713.5,1016.7,717.9,1012.3,722.7L1012.3,722.7z M1091.9,655.6c4,2.4,6.6,5.7,6.6,9.7c0,4.3-3.1,7.8-6.8,7.8
	c-2.4,0-4.5-1-6.6-4.7c-4.2-7.4-8.5-11.6-13.6-14.7c-0.9-0.3-1.2-0.9-1.2-1.3c0-0.5,0.5-1,1.7-1
	C1080.5,651.2,1087.2,652.9,1091.9,655.6z M1092,639c5-0.2,10.1,0.8,14.7,2.8c4.5,2.2,7.3,5.9,7.3,9.9s-2.6,7.3-6.1,7.3
	c-2.2,0-4-0.7-6.7-4.7c-4.8-6.8-8.6-9.9-14.3-12.6c-0.9-0.4-1.2-0.9-1.2-1.4c0-0.5,0.5-0.9,1.5-1C1088.8,639.1,1090.5,639,1092,639
	L1092,639z"/>
<g>
	<path class="st0" d="M661.6,154.4c0.1,2.4,0.1,4.5,0,6.3c0,1.7-0.2,3.3-0.5,5c-0.3,1.4-0.8,2.8-1.4,4.1c-0.7,1.3-1.6,2.5-2.6,3.7
		c-2.2,2.3-3.9,3.5-5,3.5c-1.2,0-2.4-1.1-3.7-3.3c-0.7-1.2-1.4-2.3-2.3-3.3c-1.4-1.5-3.1-2.9-4.9-4c-3.9-2.4-5.6-4-5.1-4.8
		s3.1-0.8,8.1,0c1,0.2,2.1,0.3,3.1,0.2c0.7,0,1.4-0.3,1.9-0.9c0.5-0.7,0.9-1.4,1-2.3c0.2-1.3,0.3-2.7,0.4-4.1
		c0.1-3.3,0.1-6.8,0-10.5c-0.1-3.7-0.1-7.2-0.3-10.7c-0.1-3.5-0.3-6.6-0.4-9.6c-0.2-3-0.4-5.4-0.6-7.4c-0.1-1.1-0.2-2.3-0.4-3.4
		c-0.1-0.6-0.4-1.3-0.7-1.8c-0.3-0.4-0.8-0.7-1.3-0.7c-0.7-0.1-1.5-0.1-2.2,0l-6.6,0.5c-2.6,0.2-5.4,0.5-8.5,0.8
		c-0.5,1.9-1.2,3.8-2,5.7c3.5,0.5,6.2,0.9,8.2,1.4c1.6,0.3,3.1,0.8,4.5,1.5c0.8,0.4,1.5,1,2,1.8c0.3,0.8,0.6,1.6,0.7,2.4
		c0.4,3,0.2,4.8-0.7,5.5s-2.4,0.3-4.7-1c-1.7-1.1-3.4-2.3-5-3.5c-2-1.6-4.1-3.4-6.5-5.4c-1.2,2.1-2.8,4-4.7,5.5
		c-2.1,1.7-4.4,3.1-6.8,4.3c-4,2-6.1,2.8-6.2,2.2s1-2.1,3.5-4.4c2.3-2.1,4.2-4.6,5.8-7.3c1.5-2.5,2.6-5.1,3.3-7.9
		c-2.4,0.3-4.7,0.7-7.1,0.9c-2.4,0.3-4.7,0.6-6.9,0.9c0,3.6,0,6.9-0.1,9.9c-0.1,3-0.2,5.9-0.3,8.9c-0.1,3-0.3,6-0.5,9.2
		c-0.2,3.2-0.4,6.8-0.7,10.8c-0.1,1.8-0.3,3.6-0.6,5.4c-0.2,1.6-0.5,3.2-0.9,4.8c-0.4,1.7-1.1,3.4-2.1,4.8c-0.6,1-1.6,1.8-2.7,2.1
		c-1,0.2-2.1-0.1-2.8-0.9c-1.1-1-1.9-2.4-2.3-3.8c-0.4-0.9-0.7-1.9-0.9-2.9c-0.2-0.8-0.3-1.5-0.3-2.3c0-0.7,0.1-1.4,0.3-2
		c0.2-0.7,0.5-1.4,0.9-2.1c0.8-1.6,1.4-3.3,1.7-5.1c0.6-2.5,1-5.1,1.2-7.7c0.3-2.8,0.5-5.7,0.7-8.8c0.1-3.1,0.2-5.9,0.2-8.5
		c0-2.3-0.2-4.6-0.5-6.9c-0.1-1.3-0.4-2.7-1-3.9c-2.4-3.3-3.1-5.5-2.1-6.6s4.1-0.7,9.4,1c2.6-0.2,5.4-0.5,8.6-0.8s6.4-0.7,9.6-1.1
		c0.5-2.8,0.7-5.6,0.8-8.4c0-2-0.6-3.9-1.7-5.5c-0.7-0.9-1.2-1.9-1.5-3c-0.3-0.7-0.2-1.5,0.3-2c0.7-0.6,1.6-0.8,2.5-0.7
		c1.8,0.1,3.6,0.5,5.3,1.1c1.6,0.4,3.2,1,4.6,1.8c0.8,0.4,1.6,1,2.2,1.8c0.4,0.5,0.5,1.1,0.4,1.7c-0.2,0.6-0.5,1.2-0.9,1.8
		c-0.9,1.3-1.5,2.7-1.8,4.3c-0.5,1.8-0.9,3.8-1.2,5.9c3.5-0.5,6.6-1.1,9.2-1.6c1.8-0.3,3.6-0.8,5.2-1.6c0.8-0.5,1.7-1,2.6-1.3
		c0.7-0.3,1.4-0.4,2.1-0.4c0.6,0,1.3,0.1,1.9,0.4c0.6,0.2,1.3,0.6,2.1,1c2.6,1.4,4.7,2.6,6.1,3.5c1.2,0.6,2.3,1.4,3.2,2.5
		c0.5,0.7,0.6,1.5,0.4,2.3c-0.4,1-0.9,1.8-1.6,2.6c-0.3,0.4-0.6,0.8-0.8,1.3c-0.2,0.8-0.3,1.5-0.4,2.3c-0.1,1.1-0.1,2.5-0.1,4.2
		s0,4.1,0.2,6.9c0.2,2.8,0.2,6.3,0.4,10.5C661.1,143.5,661.4,148.6,661.6,154.4z M646,147.4c0.3,3.6-0.3,5.9-2,6.8
		c-1.7,0.9-3.5,0.3-5.6-1.7l-2.8-2.6c-0.9-0.8-1.8-1.6-2.6-2.4l-2.9-2.4l-3.3-2.8c-1.5,2-3.3,3.8-5.3,5.3c-2.6,1.8-5.4,3.2-8.4,4.2
		c-3.5,1.2-5.5,1.6-5.8,1.1c-0.4-0.5,0.7-1.7,3.3-3.7c1.3-1,2.5-2.1,3.7-3.3c1.4-1.4,2.6-3,3.7-4.6c1.4-1.9,2.5-4,3.5-6.2
		c0.5-1,0.6-2.2,0.3-3.3c-0.8-2-0.7-3.3,0-4.1c0.7-0.7,2.6-0.5,5.6,0.8c3.2,1.3,4.9,2.6,5.3,4c0.3,1.3-0.3,2.5-1.9,3.8
		c-0.5,0.4-1,0.9-1.3,1.4c-0.4,0.6-0.8,1.3-1.3,2.3c4,0.7,7.1,1.3,9.4,1.8c1.8,0.4,3.6,1,5.4,1.7c1,0.4,1.9,1,2.5,1.8
		C645.7,146,645.9,146.7,646,147.4z"/>
	<path class="st0" d="M776.8,124.5c1,0.8,1.9,1.8,2.5,2.9c0.5,0.6,0.5,1.5,0,2.1c-0.9,0.7-1.9,1.1-3,1.1c-2.1,0.2-4.2,0.2-6.3,0
		c-2-0.1-3.9-0.2-5.9-0.1c-2.4,0.1-5.1,0.2-7.9,0.5c0.9,5.4,1.3,10.9,1.3,16.4c0,4-0.1,7.4-0.3,10.2c-0.1,2.4-0.5,4.8-1.1,7.2
		c-0.5,1.8-1.3,3.5-2.3,5.1c-1.1,1.5-2.5,2.8-4,4c-2.2,1.7-4.1,2.5-5.6,2.3c-1.4-0.1-2.5-1.1-2.7-2.5c-0.5-1.8-1.2-3.4-2.2-4.9
		c-1.4-2-3-3.8-4.9-5.3c-3.2-2.6-4.5-4.1-4.1-4.7c0.5-0.5,3-0.3,7.6,0.7c1.3,0.3,2.6,0.6,4,0.8c0.8,0.1,1.6,0,2.3-0.4
		c0.7-0.5,1.1-1.2,1.3-2c0.3-1,0.6-2.4,0.9-4.1c0.3-1.6,0.5-3.2,0.6-4.8c0.1-1.8,0.2-3.6,0.2-5.5c0-1.9-0.1-3.8-0.2-5.7
		c-0.1-1.9-0.3-3.7-0.5-5.5c-2.5,0.3-4.8,0.7-6.9,1.1c-1.8,0.3-3.5,0.7-5.2,1.3c-1.6,0.5-2.8,0.9-3.8,1.2c-0.9,0.2-1.8,0.3-2.6,0.2
		c-0.8-0.2-1.7-0.5-2.3-1c-1-0.8-2-1.6-3-2.4c-0.9,2.7-1.8,5.1-2.6,7.2c-0.8,1.9-1.6,3.8-2.6,5.6c3.5,2.2,5.9,4.2,7,6.2
		c1.2,2,1.6,4.4,1.2,6.7c-0.1,1.7-0.6,3.4-1.3,4.9c-0.4,1-1.2,1.7-2.2,2.1c-1,0.2-2-0.2-2.7-0.9c-1.2-1.1-2.2-2.4-2.8-4
		c-1.3-2.8-2.9-5.4-4.8-7.8c-3.1,3.1-6.4,5.9-10,8.4c-3.7,2.6-7.9,4.4-12.3,5.5c-2.8,0.8-4.4,0.8-4.8,0.3c-0.4-0.6,0.5-1.6,2.9-3.2
		c2-1.3,4-2.7,5.9-4.2c1.9-1.5,3.7-3,5.3-4.5c1.6-1.5,3.1-3,4.4-4.4c1.2-1.3,2.3-2.6,3.3-4c-0.7-0.7-1.4-1.5-2.2-2.2
		c-0.8-0.7-1.5-1.5-2.3-2.2c-0.9-0.8-1.7-1.9-2.2-3c-0.3-1-0.3-2-0.1-3c0.2-1.2,0.4-2.2,0.6-3.3c0.2-1,0.4-2,0.5-3
		c-1.3,0.5-2.4,0.9-3.5,1.4c-1,0.5-2,1-3,1.5c-1,0.5-2,0.9-3.1,1.3c-0.7,0.3-1.5,0.4-2.3,0.3c-0.8-0.2-1.5-0.5-2.1-1
		c-0.9-0.7-1.8-1.5-2.6-2.4c-2.6-2.6-3.7-4.2-3.3-5c0.3-0.8,2.3-1,5.8-0.8c0.9,0.1,1.8,0.1,2.6,0c0.9,0,1.9-0.1,3.1-0.3
		c1.2-0.1,2.5-0.3,4-0.6c1.5-0.2,3.3-0.6,5.4-1c0.8-4.7,1.4-8.7,1.7-12s0.5-6.2,0.5-8.4c0-1.8-0.1-3.6-0.4-5.4c-0.2-1-0.5-2-1.1-2.9
		c-1.7-2.2-2-3.8-1-4.8c1-1,3.1-1,6.2,0.3c1.1,0.4,2.2,0.9,3.3,1.4c1.1,0.5,2.1,1.1,3.2,1.8c2.2,1.5,3.4,2.8,3.6,3.9
		c0.2,1.2-0.3,2.4-1.3,3c-0.2,0.2-0.3,0.4-0.4,0.6c-0.2,0.3-0.4,0.7-0.5,1.1c-0.2,0.5-0.5,1.1-0.8,2c-0.3,0.9-0.7,1.9-1.1,3.3
		c-0.3,1.1-0.7,2.2-1,3.2c-0.3,1-0.7,2.1-1,3.2c-0.3,1.1-0.7,2.4-1.1,3.7c-0.4,1.3-0.9,2.9-1.3,4.6l7.5-1.4c0.1-1.6-0.2-3.1-0.8-4.6
		c-0.5-0.7-0.7-1.5-0.7-2.4c0-0.6,0.3-1.2,0.8-1.6c0.6-0.4,1.2-0.5,1.9-0.5c0.9,0.1,1.9,0.4,2.6,1c1.1,0.7,2.1,1.3,3,1.9l2.9,2
		c1.5,1.2,2.2,2.3,2.1,3.1c-0.1,1-0.6,2-1.4,2.6c-0.7,0.8-1.3,1.7-1.7,2.7c-0.6,1.3-1.2,3-1.9,5c1.4,0,2.9-0.2,4.4-0.3
		c1.5-0.1,3.1-0.3,4.8-0.5c1.7-0.2,3.6-0.5,5.7-0.9l7.2-1.2c-0.3-1.2-0.7-2.4-1.2-3.5c-0.3-0.8-0.8-1.5-1.5-2
		c-1.4-0.9-2.7-2-3.8-3.3c-0.6-0.9-0.7-1.7-0.3-2.3c0.6-0.9,1.7-1.5,2.8-1.6c1.8,0,3.5,0.4,5.1,1.2c1.3-1.8,2.5-3.5,3.5-5
		c1-1.5,2.1-3.2,3.3-5.2c0.7-1.3,1.1-2.2,0.9-2.5c-0.1-0.3-0.6-0.3-1.5,0c-1.8,0.5-3.9,1.3-6.4,2.1c-2.5,0.8-4.9,1.8-7.4,2.7
		c-1.3,0.5-2.3,0.9-3.1,1.2c-0.6,0.2-1.3,0.3-2,0.4c-0.5,0-1.1-0.1-1.6-0.4c-0.6-0.3-1.2-0.7-1.8-1.1c-1.3-0.8-2.5-1.7-3.7-2.6
		c-0.8-0.7-1.2-1.3-1.1-1.7c0.1-0.4,0.6-0.7,1.5-1c1.4-0.3,2.8-0.5,4.3-0.6c2-0.2,4-0.4,6-0.8c2.2-0.4,4.3-0.9,6.3-1.4
		s3.8-1.1,5.4-1.6c1.2-0.3,2.3-0.8,3.3-1.5c0.9-0.7,1.8-1.3,2.8-1.8c0.7-0.4,1.6-0.6,2.4-0.5c0.9,0.1,1.8,0.5,2.5,0.9
		c1.2,0.7,2.4,1.5,3.5,2.3c1.9,1.3,3.6,2.7,5.3,4.3c0.9,0.7,1.6,1.7,1.9,2.9c0,0.9-0.5,1.6-1.3,1.9c-1.3,0.6-2.7,1.1-4.2,1.5
		c-0.7,0.2-1.3,0.4-2,0.7c-1,0.5-1.9,1-2.8,1.6c-1.1,0.7-2.6,1.7-4.3,2.9l-6.6,4.7c0.9,1,1.7,2.1,2.4,3.2c0.8,1.3,1.4,2.7,1.9,4.1
		c2-0.4,3.8-0.8,5.4-1.2c1.3-0.3,2.6-0.6,3.9-1.1c1.6-0.5,2.9-0.8,4.1-1.1c1.1-0.2,2.1-0.3,3.2-0.2c1,0.1,1.9,0.4,2.8,0.8
		C775,123.2,775.9,123.8,776.8,124.5z M707.7,127.5c-0.3,1.1-0.7,2.4-1.1,3.8c-0.4,1.4-0.8,2.9-1.2,4.5c-0.3,0.8-0.3,1.6,0,2.3
		c0.5,0.8,1.2,1.3,2.1,1.6c0.4,0.2,0.8,0.4,1.2,0.6c0.4,0.2,0.8,0.4,1.2,0.6c1.5-2.7,2.8-5.4,4-8.2c1-2.4,1.8-4.9,2.4-7.4
		L707.7,127.5z"/>
	<path class="st0" d="M840.5,125.7c1.8-0.3,3.6-0.9,5.3-1.8c1.8-0.9,3.6-2,5.3-3.2c1.2-1,2.6-1.6,4.2-1.9h2.1
		c1.1,0.1,2.2,0.4,3.2,0.9c2.5,1.2,3.8,2.4,3.8,3.5s-1,2.1-3.1,3c-1.9,0.8-3.8,1.5-5.8,2.2c-2.8,0.9-6.5,2.1-11.1,3.6
		c1,2.6,2.1,5.1,3.3,7.5c1.1,2.1,2.4,4.2,4,6c1,1.3,1.8,2.3,2.3,2.9c0.4,0.5,0.8,1.1,0.9,1.7c0.1,0.7,0.1,1.4,0,2.1
		c-0.2,0.9-0.4,2.2-0.8,4c-0.6,2.3-1.4,3.4-2.6,3.4s-2.6-1-4.5-3c-2.2-2.2-5-3.8-8.1-4.5c-3.6-1-7.4-1.5-11.2-1.5
		c-9.9,0-14.9,2.8-14.9,8.5c0,0.8,0.1,1.6,0.3,2.5c0.1,0.8,0.4,1.5,0.8,2.1c0.6,0.6,1.3,1.1,2,1.5c1.2,0.7,2.5,1.2,3.8,1.5
		c1.6,0.4,3.3,0.8,5,1c1.7,0.3,3.4,0.3,5.2,0.3c1.7-0.1,3.3-0.2,5-0.6c1.5-0.3,3-0.8,4.4-1.5c1.3-0.8,2.8-1.3,4.3-1.4
		c1.2,0,2.9,0.9,5,2.6l2.5,2c0.5,0.4,0.9,1,0.9,1.6c0,1.5-1.9,2.6-5.7,3.4c-4.6,0.9-9.2,1.3-13.9,1.2c-2.7,0-5.3-0.1-8-0.4
		c-2.4-0.2-4.8-0.7-7.1-1.3c-2-0.5-3.9-1.3-5.7-2.3c-1.5-0.8-2.9-1.9-4-3.3c-1.8-2.3-2.8-5.2-2.8-8.2c0-2.9,1-5.8,2.8-8.1
		c1.6-2,3.6-3.5,5.9-4.5c2.7-1.3,5.6-2.1,8.6-2.5c3.2-0.5,6.4-0.5,9.7-0.2c3.1,0.3,6.2,1.1,9,2.4c0.3,0.3,0.6,0.3,0.8,0.1
		s0.1-0.6-0.2-1.2c-1.1-1.9-2.2-3.9-3-5.9c-0.9-2.1-1.7-4-2.4-5.7c-2.6,0.6-5.2,1.2-7.8,1.6c-2.6,0.5-5.3,0.9-8.1,1.3
		c-3.9,0.6-7.8,1-11.8,1.1c-1.8,0.1-3.6-0.2-5.3-0.9c-1.3-0.9-2.2-2.2-2.6-3.8c-0.6-1.4-0.9-3-0.9-4.5c0-1.4,0.5-2,1.6-1.7
		c1.5,0.6,2.8,1.5,3.8,2.6c0.8,0.8,2.4,1.2,4.7,1.2c1.2,0,2.6,0,4.3-0.1c1.6-0.1,3.6-0.3,5.8-0.5c4.5-0.5,8.9-1.4,13.2-2.5
		c-0.3-1.1-0.7-2.4-1.3-4c-0.6-1.6-1.1-3.1-1.8-4.7c-1.1,0.3-2.3,0.5-3.8,0.8l-5.1,0.8c-1.9,0.3-3.4,0.6-4.7,0.7
		c-0.9,0.1-1.8,0.2-2.6,0.2c-3.2,0-5.4-1.1-6.6-3.4c-1-1.6-1.7-3.4-1.9-5.3c0-1.3,0.6-1.9,1.7-1.9c0.5,0.1,1,0.3,1.3,0.7
		c0.6,0.5,1.2,1,1.8,1.5c1.5,1,3.2,1.5,5,1.4c4-0.2,8-0.8,11.9-1.8c-0.2-0.6-0.5-1.3-0.8-2.2c-0.3-0.9-0.8-1.7-1.3-2.7
		c-0.7-1.7-1.8-3.2-3.2-4.3l-2.8-1.7c-1.6-0.6-2.4-1.5-2.4-2.5c0-0.7,0.4-1.3,1-1.5c1.6-0.5,3.2-0.7,4.9-0.6
		c2.1-0.1,4.2,0.1,6.2,0.4c1.2,0.1,2.3,0.5,3.1,1.3c0.7,1.4,1,3,0.9,4.5c0.1,1.2,0.3,2.3,0.6,3.5c0.3,1.2,0.7,2.4,1.2,3.5
		c2.5-0.8,4.9-2.1,6.8-4c1-1,2.2-1.7,3.6-1.9c1.9-0.1,3.7,0.3,5.3,1.3c2.1,1,3.2,2.1,3.2,3.3c0,0.6-0.4,1.1-1.2,1.6
		c-1,0.7-2.1,1.2-3.3,1.6c-1.4,0.6-3.1,1.2-5.1,1.9c-2,0.7-4.2,1.6-6.6,2.5c0.5,1.5,1,2.9,1.6,4.5
		C839.1,123.2,839.7,124.5,840.5,125.7z"/>
	<path class="st0" d="M931.9,137.9l3.7-1.5l3-1.3c0.9-0.4,1.8-0.8,2.6-1.3l2.6-1.4l2.3-1.1c0.3-0.1,0.6-0.3,0.8-0.5
		c0.1,0,0.1-0.1,0.1-0.2c0-0.3-0.6-1-1.8-2c-0.9-0.6-1.5-1.6-1.7-2.6c0-0.8,0.6-1.2,1.8-1.2c1.8,0.2,3.6,0.8,5.2,1.7
		c2,1,3.8,2.3,5.3,4c1,0.9,1.7,2.2,2,3.5c0,1.4-1.7,2.5-5.1,3.5c-3.4,0.9-6.8,2-10,3.3c-3.3,1.4-6.7,2.9-10.1,4.7
		c0,1.1,0.1,2.2,0.1,3.4c0,1.2,0,2.5,0,3.9c0.1,1.9-0.1,3.8-0.6,5.6c-0.6,1.2-1.7,2.1-3,2.5c-1.4,0.7-2.9,1-4.4,1
		c-1.3,0-1.9-0.8-1.9-2.4c0-1.1,0.2-2.2,0.5-3.3c0.4-2,0.7-4.1,0.8-6.2c-1.8,0.9-3.5,2.1-5.1,3.4c-1.3,1.1-2.5,2.4-3.6,3.8
		c-0.9,1.2-1.6,2.5-2.1,3.8c-0.4,1.1-0.7,2.2-0.7,3.4c0,1.2,0.4,2.3,1.1,3.2c0.7,0.6,1.5,1.1,2.3,1.3c1.5,0.5,3.1,0.8,4.7,1
		c2,0.3,3.7,0.4,5.3,0.6c1.6,0.1,2.9,0.2,4,0.2c4.9-0.1,9.8-1,14.5-2.5c1.3-0.4,2.7-0.7,4-0.8c1.2,0,2.9,0.8,5,2.4s3.2,2.7,3.2,3.5
		c0,1.4-3.2,2.5-9.7,3.3c-5.6,0.9-11.3,1.3-17.1,1.4c-16.9,0-25.4-4.1-25.4-12.4c0-2.2,0.4-4.3,1-6.4c0.6-2.3,1.7-4.4,3.2-6.3
		c2.8-3.4,7.9-7.1,15.4-11.1c0.1-1.9-0.3-3.8-1.2-5.4c-0.9-1.4-2.4-2.2-4-2.1c-2,0-3.9,0.6-5.6,1.5c-2,1.1-4,2.3-5.8,3.7
		c-1.1,0.7-2.1,1.5-3,2.4c-1,0.9-2,1.8-2.9,2.8c-0.9,0.9-1.7,1.8-2.5,2.8c-0.6,0.8-1.2,1.6-1.7,2.4c-1.7,2.9-3,4.3-4,4.3
		c-0.9,0-1.8-0.9-2.6-2.8c-0.5-1.3-0.9-2.6-1-4c0-0.7,0.2-1.3,0.6-1.9l7.2-9.2c1-1.3,2-2.9,3-4.5c1-1.6,2-3.2,2.9-4.7l2.6-4.5
		c0.9-1.5,1.7-2.8,2.5-4c-1.3,0.1-2.6,0.1-4,0c-1.6-0.1-3.2-0.2-4.8-0.3c-3-0.2-5-1.5-5.8-3.7c-0.8-1.6-1.3-3.4-1.4-5.2
		c0-1.3,0.5-2,1.4-2s2,0.8,3.4,2.3c0.3,0.4,0.7,0.7,1.1,1c0.5,0.3,1,0.6,1.6,0.7c0.8,0.2,1.7,0.4,2.5,0.5c1.2,0.1,2.5,0.2,3.7,0.2
		c2.5,0,5-0.2,7.5-0.6c1.4-2,2.6-4.2,3.5-6.5c0.6-1.3,1-2.7,1.1-4.1c-0.1-1.3-0.6-2.5-1.3-3.5c-0.6-0.8-1-1.8-1.2-2.8
		c0-1.3,0.7-1.9,2.2-1.9c0.8,0,1.7,0.2,2.4,0.7c1.2,0.5,2.3,1.1,3.4,1.8c1.2,0.7,2.3,1.5,3.3,2.3c0.8,0.5,1.5,1.2,2.1,1.8
		c1.2,1.1,1.3,2.9,0.2,4.1c-0.1,0.1-0.2,0.2-0.4,0.4c-0.3,0.2-0.5,0.4-0.7,0.7l-0.9,1c-0.4,0.4-0.8,1-1.4,1.8
		c-0.6,0.8-1.3,1.7-2.3,2.9c4.7-0.7,9.3-2.2,13.6-4.2c1.2-0.7,2.5-1,3.9-1.1c1.8,0.4,3.6,1,5.2,1.9c2.6,1.2,4,2.2,4,2.9
		c0,2.2-10.7,4.9-32.2,8.1c-1.4,1.8-2.6,3.4-3.6,4.8l-2.8,3.7c-0.8,1.1-1.6,2.2-2.4,3.3c-0.7,1-1.5,2.2-2.3,3.4
		c-0.1,0.1,0,0.1,0.1,0.1c0.4-0.1,0.7-0.2,1-0.5c3.4-2.7,7.6-4.3,12-4.4c3.2,0,6.2,1.5,8.2,4C930.2,133.4,931.5,135.5,931.9,137.9z"
		/>
	<path class="st0" d="M1032.3,147c-0.6,0.6-1.4,1-2.1,1.4c1.5,0.3,2.8,1,3.9,2.1c0.7,1.1,1.1,2.3,1.1,3.7c0.1,2.4-0.5,3.9-1.7,4.5
		c-1.2,0.6-2.7,0.5-3.8-0.5c-1.3-0.8-2.5-1.8-3.6-2.8c-1.2-1.1-2.3-2.2-3.4-3.4c-1.6-1.8-2.3-3-2.3-3.7c0-0.7,1.3-1,3.8-0.9
		c1,0.1,1.9,0.2,2.7,0.3c-0.3-1.1-0.1-2.3,0.6-3.2c0.6-1,1.3-2,2-2.9c0.9-1.2,2-2.5,3.3-4c0.7-0.9,1-1.3,0.8-1.5
		c-0.8-0.1-1.6,0-2.3,0.1c-1.6,0.3-3.1,0.7-4.7,1.2c-1.5,0.5-2.9,1.1-4.3,1.8c-1.3,0.4-2.3,0.7-3.1,0.9c-0.7,0.2-1.3,0.3-2,0.2
		c-0.6-0.1-1.2-0.3-1.7-0.7c-0.8-0.5-1.5-1.1-2.2-1.7c-1.8-1.5-2.7-2.6-2.7-3.2c-2,1.8-4.2,3.4-6.5,4.8c-3.3,2-5.2,2.7-5.5,2.2
		c-0.4-0.5,0.7-2.2,3.3-5l1.2-1.4c0.4-0.5,0.8-1,1.2-1.5c-0.2,0.1-0.5,0.2-0.7,0.2c-2.2,0.3-4.3,0.7-6.1,1s-4,0.8-6.6,1.5
		c-0.1,1.9-0.6,3.8-1.3,5.6c-0.6,1.1-1.2,1.6-1.8,1.6c-1,0-2-0.9-2.8-2.7c-1.1-2.8-1.7-5.7-1.8-8.7c-0.1-1.3-0.3-2.6-0.6-4.2
		c-0.2-1.6-0.5-3-0.9-4.5c-0.3-1.4-0.7-2.8-1.2-4.2c-0.4-1.1-0.9-2.2-1.5-3.2c-0.6-0.8-1.1-1.7-1.5-2.6c-0.3-0.7-0.2-1.2,0.3-1.5
		c0.9-0.3,1.9-0.4,2.8-0.2c2,0.3,4,0.6,6,1.1c2.2-0.3,4.4-0.8,6.5-1.6c1.5-0.6,2.9-1.5,4.2-2.5c0.5-0.5,1.1-0.9,1.8-1.3
		c0.5-0.3,1.1-0.4,1.7-0.4c0.8,0.1,1.5,0.3,2.2,0.7c0.9,0.4,2,1,3.5,1.7c2.6,1.5,4.1,2.7,4.4,3.6c0.3,0.9-0.3,2.1-1.8,3.6
		c-1.1,1.2-2.1,2.6-2.7,4.1c-1.1,2.4-1.9,4.9-2.6,7.5c0.8,0.3,1.4,0.8,1.9,1.5c0.3,0.5,0.5,1.1,0.4,1.7c3-4.1,5.5-8.4,7.7-13
		c2.4-5,4.5-10.2,6.2-15.5c0.6-1.7,1-3.5,1.2-5.3c0.2-1.3,0.1-2.6-0.3-3.8c-0.5-0.8-0.8-1.7-0.9-2.6c-0.1-0.6,0.2-1.2,0.8-1.4
		c0.9-0.2,1.8-0.2,2.6,0.1c1.7,0.6,3.4,1.3,5,2.1c1.3,0.6,2.6,1.4,3.8,2.2c0.7,0.5,1.2,1.1,1.5,1.8c0.2,0.5,0.2,1.1-0.1,1.6
		c-0.3,0.6-0.7,1.1-1.1,1.6c-0.5,0.5-0.9,1.1-1.2,1.7c-0.2,0.5-0.5,1-0.9,1.5c4.4,4.2,8.2,7.6,11.5,10.2c2.9,2.3,5.8,4.4,8.9,6.4
		c2.4,1.5,4.9,2.9,7.5,4c2.3,1,4.8,2,7.3,2.9c3.5,1.2,5.2,2.2,5.1,2.8c0,0.7-2,1.5-5.9,2.3c-2.7,0.6-5.4,1.1-8.1,1.3
		c-1.8,0.2-3.5,0.1-5.3-0.2c-1.3-0.2-2.5-0.7-3.5-1.5c-1-0.8-2-1.7-2.7-2.8c-2.6-3.1-5.3-6.2-7.9-9.5c-2.6-3.3-5.6-6.9-8.8-10.8
		c-0.9,2.1-1.9,4.1-2.8,5.9c-0.9,1.8-1.8,3.6-2.8,5.2c0.3-0.1,0.7-0.2,1-0.3c0.4-0.1,0.9-0.1,1.3-0.1c2.3-0.1,4.5,0.2,6.7,0.7
		c1.6,0.5,2.8,1.9,2.9,3.6c0.2,0.9,0.2,1.9-0.1,2.8c-0.4,1.3-1.5,2.2-2.8,2.3c-0.6,0.1-1.2,0-1.7-0.2c-1.2-0.5-2.4-1.2-3.5-2
		c-1.2-0.9-2.2-1.7-3-2.4c-0.5-0.3-0.9-0.7-1.3-1.2c-0.3-0.3-0.5-0.7-0.7-1.1c-1.5,2.5-3.1,4.9-4.9,7.3c-1.6,2.1-3.4,4-5.3,5.8
		c1.2-0.2,2.5-0.3,3.8-0.2c1.8,0.1,3.6-0.1,5.3-0.4c1.9-0.3,3.8-0.7,5.6-1.2c1.7-0.5,3.4-1,5-1.7c1.2-0.5,2.4-1,3.5-1.7
		c0.6-0.4,1.2-0.7,1.8-1.1c0.5-0.2,1-0.3,1.5-0.3c0.7,0.1,1.3,0.3,1.9,0.7c0.7,0.4,1.6,0.9,2.8,1.7c3.3,2.2,5,3.7,5.2,4.7
		c0.2,1-0.6,1.7-2.3,2.3c-1.9,0.7-3.6,1.8-5,3.1C1038.5,141.7,1035.8,144,1032.3,147z M997,126.4c0.1-0.9,0.2-1.9,0.3-2.8
		c0.1-0.9,0.2-2.1,0.4-3.6c0.3-1.8,0.2-2.9-0.2-3.3c-0.4-0.3-1.3-0.3-2.8,0c-0.8,0.1-1.5,0.3-2.3,0.5l-2.9,0.7
		c0.5,4.5,0.9,8.8,1.2,13c1.7-0.4,3.3-1.1,4.8-2.1C996.3,128.2,996.9,127.3,997,126.4z M1005,167.5c-1.3,1.6-2.5,2.2-3.8,2
		c-1.2-0.2-2.3-1.4-3.2-3.5c-0.4-1.1-0.7-2-0.9-2.6c-0.2-0.6-0.3-1.1-0.3-1.7c0-0.5,0.2-0.9,0.4-1.3c0.3-0.4,0.6-0.8,0.9-1.2
		c1.2-1.3,2.2-2.8,3-4.3c1-1.7,1.7-3.6,2.1-5.5c0.3-2,0.9-3,1.6-2.9c0.8,0.1,1.7,1.4,2.8,4c1.3,2.8,1.7,6,1,9.1
		C1008.2,162.4,1006.9,165.1,1005,167.5L1005,167.5z M1052.6,172.9c-4.9,1.7-10.1,2.5-15.2,2.3c-4-0.3-8-1.1-11.8-2.5
		c-3.1-1.1-5.8-2.9-7.9-5.4c-2.2-3-3.7-6.3-4.6-9.9c-0.6-1.9-0.9-4-1-6c0-0.9,0.6-1.7,1.4-2c0.8-0.4,1.7-0.2,2.3,0.4
		c1,1.5,1.7,3.1,2,4.8c0.6,1.8,1.5,3.5,2.7,5c1.2,1.7,2.8,3.1,4.7,4.1c0.8,0.4,1.6,0.8,2.5,1c1.2,0.4,2.4,0.6,3.6,0.8
		c1.3,0.2,2.6,0.4,4.2,0.5c1.4,0.1,2.8,0,4.2-0.2c0.7-0.1,1.5-0.3,2.2-0.5c0.5-0.2,0.8-0.6,0.9-1.1c0-0.8-0.2-1.5-0.5-2.2
		c-0.4-1-1.1-2.3-1.9-4c-1.8-3.2-2.4-5.1-1.6-5.6c0.8-0.5,2.8,1,6.1,4.5c1.7,1.9,3.7,3.6,5.8,5c1.9,1.2,4,2.2,6.2,2.9
		c0.9,0.2,1.6,0.8,2,1.5c0.3,0.7,0.3,1.5,0,2.2c-0.5,0.9-1.2,1.7-2,2.3C1055.5,171.8,1054.1,172.5,1052.6,172.9L1052.6,172.9z
		 M1054.7,156.8c-1.6-0.9-3.2-2-4.7-3.2c-2-1.5-4-3.2-6.2-4.9c-2.2-1.8-3-3-2.6-3.5c0.4-0.5,2-0.8,4.6-0.9c2.2,0,4.4,0.1,6.6,0.3
		c1.6,0.1,3.1,0.5,4.5,1.2c1.1,0.6,2,1.4,2.6,2.4c0.7,1.2,1.1,2.5,1.2,3.9c0.3,2.6,0,4.4-1.2,5.2
		C1058.4,158.2,1056.9,158,1054.7,156.8L1054.7,156.8z"/>
	<path class="st0" d="M1155,148.9c0,4.7-1.5,9.2-4.3,12.9c-3,3.9-7.5,6.9-13.8,9.1c-6.8,2.3-13.9,3.4-21.1,3.3
		c-6.3,0-9.4-0.7-9.4-2.1c0-0.6,0.5-1.1,1.4-1.5c1.3-0.5,2.6-0.8,4-0.9c5-0.5,9.8-1.5,14.7-2.8c3.8-1,7.5-2.5,10.9-4.5
		c2.7-1.5,5-3.5,6.9-6c1.6-2.1,2.4-4.7,2.4-7.4c0-3.7-1.6-7.2-4.4-9.6c-2.9-2.7-6.8-4.2-10.8-4.1c-4.7,0.1-9.2,1.5-13.1,4
		c-4.5,2.8-9.6,7.7-15.2,14.5c-1,1.4-2.5,2.3-4.2,2.5c-1.4,0-2.8-1.1-4.3-3.4c-1.5-2.3-2.3-4-2.3-5c0.1-1.5,0.6-3,1.4-4.4
		c1.2-2.8,2.2-5.6,2.9-8.6c0.5-1.9,0.9-3.7,1.2-5.3c0.3-1.4,0.5-2.8,0.7-4.2c0.3-2.6,1.1-5.1,2.5-7.3c0.6-1,1.3-2,2.1-2.8
		c0.5-0.5,1-0.8,1.7-1c0.4-0.1,0.9,0.1,1.1,0.5c0.3,0.4,0.4,1,0.4,1.5c0,0.7-0.1,1.5-0.4,2.1c-0.2,0.5-0.3,1-0.3,1.6
		c0.2,1.6,0.9,3.1,2.1,4.2c0.6,0.6,1.2,1.3,1.6,2c0.3,0.5,0.5,1.1,0.5,1.6c0,0.6-0.3,1.2-0.7,1.6c-0.6,0.7-1.3,1.4-2,2
		c-1.7,1.9-3,4-4,6.4c-0.9,1.7-1.6,3.4-2.3,5.2c0,0.6,0.4,0.5,1.2-0.3c4-4.5,8.8-8.3,14.1-11.1c4.7-2.3,9.8-3.5,15-3.4
		c7.2,0,12.9,2,17.1,5.9C1152.7,138,1155.1,143.3,1155,148.9z M1133.5,108.2c-0.1,1-0.4,2-0.8,2.9c-0.4,1.2-1.6,2-2.9,1.9
		c-0.6,0-1.3-0.1-1.9-0.2c-1-0.2-2-0.2-3-0.2c-3.9,0.2-7.7,1.2-11.2,2.8c-0.9,0.4-1.9,0.6-2.9,0.7c-1.4,0-2.1-0.4-2.1-1.2
		c0-0.9,0.4-1.7,1.1-2.3c0.4-0.3,1.3-0.9,2.5-1.9l4.9-3.8c0.3-0.3,0.5-0.5,0.5-0.7c0-0.9-4.1-1.8-12.4-2.7c-2.4-0.3-3.6-1-3.6-2
		c0-1,1.3-1.9,4.1-2.5c2.8-0.6,5.7-1,8.6-0.9c4.8-0.1,9.4,1.3,13.4,4C1131.6,104.7,1133.5,106.7,1133.5,108.2z"/>
	<path class="st0" d="M1231.3,122.5c2.4-0.3,4.5-0.6,6.3-0.8c1.3-0.2,2.7-0.4,4-0.8c1.2-0.4,2.5-0.6,3.8-0.7c1.6,0,3.6,1.1,5.8,3.3
		c2.2,2.2,3.3,3.7,3.3,4.5c0,1.1-1.3,1.6-4,1.6c-1.5,0-3-0.1-4.5-0.3c-1.8-0.2-3.6-0.3-5.5-0.3c-0.9,0-2.2,0-3.8,0.1l-5.3,0.3
		c0,9.7-1.1,16.6-3.2,20.8c-0.9,1.8-1.9,3.6-3.1,5.3c-0.6,1.1-1.8,1.9-3,2c-0.8-0.1-1.5-0.5-1.9-1.2c-0.6-0.8-1-1.8-1.3-2.7
		c-0.3-0.9-0.6-1.8-1-2.6c-0.4-0.8-0.7-1.3-1-1.9c-0.8-1.2-1.9-2.3-3-3.2c-1.3-1.1-2-2.1-2-3c0-0.9,0.6-1.5,1.7-1.5
		c1.5,0.2,3,0.7,4.2,1.6c1.2,0.7,2.4,1.3,3.8,1.6c0.7,0,1.1-0.2,1.1-0.7c0.3-1.5,0.5-3,0.5-4.5c0.2-2.6,0.3-5.8,0.3-9.5
		c-1.6,0.2-3.4,0.4-5.3,0.6c-1.9,0.2-3.9,0.4-5.8,0.5s-4,0.3-5.8,0.5c-1.9,0.2-3.7,0.4-5.4,0.6c-0.1,2.4-0.2,4.7-0.3,6.9
		c-0.1,2.2-0.1,4.4-0.1,6.6c0,1.1,0,2.2,0.1,3.4c0.1,1.2,0.1,2.4,0.2,3.5c0.1,1.1,0.2,2.2,0.4,3.1c0.1,0.8,0.3,1.5,0.5,2.2
		c0.6,2,2.1,3.5,4,4.2c0.6,0.2,1.3,0.4,2,0.5c0.9,0.1,1.9,0.2,3,0.3c1.1,0.1,2.3,0.2,3.5,0.2h3.5c7,0,12.3-0.8,15.7-2.5
		c1.2-0.6,2.5-0.9,3.9-1c1.1,0,2.9,0.8,5.5,2.5c2.5,1.6,3.8,2.8,3.8,3.9c0,1-0.7,1.7-2.2,2.3c-3,0.8-6.1,1.4-9.2,1.7
		c-2.3,0.3-4.9,0.6-7.6,0.7c-2.8,0.1-5.7,0.2-8.7,0.2c-1.5,0-3,0-4.6,0c-1.5,0-3-0.1-4.4-0.2c-1.4-0.1-2.6-0.2-3.8-0.4
		c-1.1-0.2-2.1-0.3-2.8-0.5c-2.5-0.6-4.7-1.8-6.6-3.6c-1.5-1.7-2.6-4.6-3.2-8.6c-0.2-1.3-0.4-2.6-0.4-4c-0.1-1.7-0.2-3.5-0.2-5.7
		c-0.1-2.1-0.1-4.4-0.1-6.8v-7.5c-2.6,0.4-5,0.8-6.7,1c-1.8,0.3-3,0.4-3.6,0.6c-1,0.2-2.1,0.3-3.1,0.3c-2.3,0.2-4.5-1.1-5.4-3.3
		c-0.8-1.8-1.3-3.8-1.4-5.8c0-1.6,0.5-2.4,1.5-2.4c1.3,0.2,2.5,0.8,3.4,1.9c1,1.1,2.3,1.7,3.7,1.8c1.3,0,3-0.1,5.1-0.3
		s4.2-0.4,6.5-0.6l0.2-9.3c0.1-2.3-0.8-4.5-2.5-6.1c-1.6-1.5-2.4-2.8-2.4-3.8s0.8-1.5,2.5-1.5c2.4,0.3,4.8,0.9,7.1,1.8
		c3.6,1.1,5.4,2.5,5.4,4c-0.1,1.1-0.4,2.2-0.9,3.2c-0.6,1.5-1,3-1,4.6c-0.2,2-0.2,3.9-0.1,5.9l14-1.3c4.1-0.4,6.9-0.7,8.4-0.9v-7.9
		c0-2.3,0-3.9,0.1-4.7l0.1-4.3c0.1-0.8-0.1-1.6-0.5-2.3c-0.5-0.6-1.3-1-2.1-1.1c-2.3-0.6-3.5-1.6-3.5-3c0-0.8,0.5-1.5,1.2-1.8
		c1.2-0.6,2.6-0.8,4-0.7c2.5,0.1,5,0.7,7.3,1.7c3,1.1,4.4,2.3,4.4,3.8c-0.2,1.1-0.6,2.2-1.2,3.1c-0.3,0.7-0.6,1.4-0.9,2.2
		c-0.3,0.9-0.5,1.8-0.6,2.7c-0.1,0.9-0.2,2.5-0.3,4.7S1231.1,120,1231.3,122.5z"/>
	<path class="st0" d="M1322.2,165.6c3.6-1,6.8-3.2,9-6.2c1.8-2.6,2.8-5.8,2.8-9c0.2-4.1-1.4-8.1-4.5-10.8c-0.8-0.7-1.8-1.2-2.8-1.6
		c-1.1-0.5-2.3-0.9-3.5-1.2c-1.2-0.3-2.5-0.6-3.7-0.8c-1.2-0.2-2.4-0.3-3.6-0.3c-4.6,0.2-9.1,1.4-13.2,3.4c-4.6,2-8.8,4.8-12.5,8.2
		c-1.6,1.6-3.1,3-4.3,4.4c-1.1,1.3-2.2,2.6-3.2,4c-1.7,2.4-3.2,3.6-4.5,3.6c-1.8,0-2.6-2.5-2.6-7.4c0-1.8,0.4-3,1.2-3.6
		c2.5-2.2,4.8-4.6,7-7.2c3.3-3.8,8-8.9,14.1-15.4c2.7-2.7,5.2-5.6,7.6-8.6c1.3-1.8,2.8-3.5,4.5-5.1c1.1-0.9,2.1-2,2.9-3.1
		c0-0.1-0.1-0.3-0.2-0.3c0,0,0,0-0.1,0c-1.7,0.3-3.3,0.7-4.9,1.2c-1.5,0.4-2.9,0.8-4.3,1.2c-1.5,0.4-2.9,0.9-4.2,1.4
		c-1.8,0.8-3.7,1.3-5.7,1.5c-2.1,0-3.9-1.3-5.4-3.9c-1.1-1.7-1.8-3.5-2.1-5.5c0-1.1,0.3-1.7,1-1.7c0.7,0,1.5,0.3,2.1,0.7
		c1.7,1,3.7,1.6,5.7,1.7c1.2,0,2.3-0.2,3.5-0.4c1.6-0.3,3.8-0.6,6.4-1.1c2.4-0.4,4.8-1,7.1-1.8c1.8-0.6,3.6-1.2,5.3-2
		c1-0.5,2.1-0.8,3.3-0.9c1.1,0,2.8,1.1,5.2,3.3c2.4,2.2,3.6,3.7,3.7,4.3c0,0.7-0.4,1.3-0.9,1.7c-1.1,0.8-2.3,1.4-3.6,1.9
		c-2.1,1-4,2.3-5.7,4c-2.1,2-4.6,4.4-7.6,7.2c-1.5,1.4-3,2.8-4.6,4.3c-1.6,1.5-3.2,3.1-4.9,4.8l-3.7,3.9l-1.3,1.4
		c-0.1,0.1-0.1,0.2,0,0.3c0.2-0.1,0.4-0.2,0.6-0.3c1.6-1.2,3.4-2.3,5.2-3.1c1.9-0.9,3.8-1.6,5.7-2.2c1.8-0.6,3.7-1,5.7-1.3
		c1.7-0.3,3.4-0.4,5.1-0.4c4,0,7.9,0.9,11.5,2.6c3.6,1.5,6.6,4.1,8.7,7.4c2,3.2,3,6.9,2.9,10.7c0.2,7-3.1,13.6-8.7,17.7
		c-5.8,4.5-12.9,6.8-20.3,6.7c-6,0-10.8-1.2-14.5-3.6c-1.7-1-3.2-2.4-4.2-4.1c-0.8-1.6-1.3-3.4-1.2-5.2c0-3,1.3-5.9,3.5-7.8
		c2.4-2.1,6.1-3.2,11.3-3.2c3.8,0,7.5,1,10.7,3c1.4,0.9,2.6,1.9,3.6,3.2c1,1.1,1.6,2.6,1.6,4.1
		C1324.1,162.3,1323.4,164.2,1322.2,165.6z M1318.8,166.6c-1.3-0.9-2.2-2.2-2.5-3.7c-0.7-1.8-1.9-3.3-3.4-4.4
		c-1.2-0.9-3.2-1.4-5.9-1.2c-2.6,0.1-4.2,0.6-5,1.3c-0.7,0.7-1.1,1.6-1.1,2.6c-0.1,1.4,0.6,2.8,1.8,3.5c1.5,1,3.2,1.6,4.9,2
		c2,0.4,4,0.6,6,0.6C1315.3,167.3,1317,167,1318.8,166.6L1318.8,166.6z"/>
	<path class="st0" d="M612.6,280.4c-1.2-1.4-2.3-3-3.4-4.5c-1-1.5-2.1-3.3-3.4-5.5c-0.7,2.3-1.5,4.5-2.5,6.7c-0.9,1.9-2,3.7-3.2,5.4
		c-1.1,1.6-2.4,3.1-3.8,4.5c-1.4,1.3-2.9,2.7-4.5,4c-4.1,3.2-6.4,4.6-7.1,4.1c-0.6-0.5,0.7-2.9,4-7c3.6-4.6,6.5-9.8,8.5-15.3
		c2.3-6.3,3.5-12.9,3.8-19.6c0.3-5.5,0.4-10.2,0.5-14c0-3.9,0-7.1-0.2-9.7c-0.1-2.1-0.4-4.3-0.9-6.4c-0.3-1.4-0.8-2.7-1.5-4
		c-1.4-2.4-1.7-3.9-0.8-4.5s3.4-0.2,7.4,1.2c1.5,0.5,3,1.1,4.5,1.8c0.9,0.4,1.6,1,2.2,1.7c0.4,0.5,0.5,1.2,0.4,1.8
		c-0.2,0.8-0.5,1.5-0.9,2.2c-0.3,0.6-0.6,1.2-0.7,1.8c-0.3,1-0.4,2-0.5,3c-0.1,1.3-0.3,3-0.4,5c-0.1,2-0.3,4.6-0.4,7.6
		c1-1.1,1.9-2.3,2.6-3.6c0.5-0.9,0.9-1.9,1.1-2.9c0.3-2.5,0.8-4,1.7-4.3c0.8-0.3,2.3,0.4,4.2,2.3c2.4,2.4,3.7,4,3.9,4.9
		c0.1,1-0.6,1.7-2.3,2.5c-1.3,0.6-2.9,1.4-4.8,2.4c-1.8,1-4,2.3-6.5,3.8c-0.2,4.3-0.5,8.1-0.9,11.5c-0.4,3.2-0.9,6.3-1.7,9.4
		c2.1,0.5,4.2,1.1,6.2,1.9c1.4,0.5,2.7,1.3,3.7,2.3c0.8,0.9,1.4,2,1.6,3.2c0.3,1.5,0.3,3,0,4.4c-0.1,0.7-0.4,1.3-0.8,1.9
		c-0.3,0.5-0.8,0.8-1.3,1.1c-0.6,0.2-1.2,0.2-1.7,0C613.7,281.5,613.1,281,612.6,280.4z M591.9,256.7c-0.9-1.4-1.7-2.9-2.4-4.5
		c-0.8-1.9-1.5-3.9-2-5.9c-0.5-2.2-0.6-3.5-0.2-4c0.4-0.5,1.6-0.2,3.7,0.7c3.8,1.7,6.2,3.5,7.4,5.4c1.1,1.8,1.3,4,0.7,6
		c-0.9,3-2,4.6-3.2,4.8C594.6,259.5,593.3,258.6,591.9,256.7L591.9,256.7z M668.6,294.6c-3.3,0.7-6.7,1.1-10.1,1c-3-0.1-6-0.4-9-0.9
		c-3.9-0.7-6.3-2.4-7.4-4.9c-1.1-2.5-1.4-6.2-1-11c0.1-1.3,0.2-2.6,0.3-3.8s0.1-2.2,0.1-3.2c0.1-2.1,0-4.3-0.3-6.4
		c-0.9,0.1-1.9,0.3-2.8,0.4c-0.9,0.2-1.9,0.3-3.1,0.5c2.2,1.7,3.4,3,3.6,4c0.2,0.9-0.3,1.9-1.6,2.8c-1.2,0.9-2.3,2-3.3,3.3
		c-1.6,2.1-3.4,4-5.3,5.8c-2,1.9-4.1,3.6-6.4,5.1c-2.2,1.5-4.5,2.9-7,4c-2.2,1-4.6,1.7-7,2.2c-3.3,0.5-5,0.5-5.1-0.1
		c-0.1-0.6,1.5-1.7,4.8-3.3c2.7-1.4,5.3-3,7.7-4.9c2.3-1.8,4.5-3.8,6.4-5.9c1.8-1.9,3.4-4,4.7-6.3c1.1-1.8,2-3.7,2.6-5.7
		c-0.2,0-0.3,0-0.5,0c-0.2,0-0.4,0-0.6,0c-1.1,0-2.3-0.1-3.6-0.2c-1,0-2.1-0.3-3-0.7c-2-0.7-2.9-1.3-2.8-1.8
		c0.1-0.4,1.3-0.9,3.6-1.3c2.6-0.5,4.9-0.9,7.1-1.3c2.1-0.4,4.2-0.9,6-1.3s3.7-0.9,5.4-1.3c1.7-0.4,3.4-1,5.2-1.5
		c0.5-1.6,0.9-3,1.2-4.4s0.6-2.6,0.9-3.8c-0.9,0.1-1.8,0.3-2.7,0.4l-3,0.4c-1.1,0.1-2.3,0.3-3.5,0.5c-1.3,0.2-2.6,0.4-4,0.7
		c0,1,0.2,2.1,0.3,3.3c0.2,2.2-0.1,3.6-0.9,4.4c-0.5,0.6-1.3,1.1-2.1,1.2c-0.3,0-0.6-0.1-0.9-0.2c-0.4-0.1-0.7-0.4-1-0.8
		c-0.4-0.6-0.7-1.2-0.9-1.8c-0.4-1.1-0.7-2.3-0.9-3.5l-0.3-1.5l-1.9,0.4c-0.6,0.1-1.1,0.3-1.5,0.4c-1.2,0.4-2.4,0.6-3.6,0.6
		c-1.1-0.1-2.2-0.5-3.1-1.2c-2.5-1.8-3.6-3-3.3-3.6c0.3-0.6,2-1.1,5.3-1.3l3.3-0.2c1.1-0.1,2.3-0.2,3.5-0.3
		c-0.7-1.9-1.6-3.8-2.7-5.5c-1.4-1.8-1.9-3-1.3-3.7c0.5-0.7,2.5-0.6,5.8,0.1c1.9,0.2,3.8,0.9,5.4,2c0.8,0.9,1.1,2.2,0.8,3.4
		c-0.1,0.4-0.1,0.8-0.1,1.2c0,0.4,0,0.9,0,1.5c2-0.3,4.1-0.7,6.6-1.2c2.5-0.4,5.1-1,8.2-1.8c0.3-1.6,0.4-3.3,0.4-4.9
		c0-1.1-0.3-2.2-0.7-3.2c-0.9-2.1-1-3.4,0-4c1-0.5,3,0,6.3,1.4c2.8,1.2,4.4,2.3,4.9,3.2c0.5,0.9,0.1,2-1,3.4c-0.5,0.6-0.9,1.3-1.2,2
		l1.1-0.2c0.4-0.1,0.7-0.2,1.1-0.3c1.8-0.5,3.7-0.7,5.6-0.6c1.6,0.2,3.2,0.6,4.6,1.4c1.3,0.6,2.4,1.4,3.4,2.5
		c0.7,0.8,0.9,1.6,0.7,2.2c-0.3,0.6-1.1,1.1-2.4,1.4c-1.9,0.4-3.8,0.5-5.7,0.3c-1.1-0.1-2.6-0.1-4.2,0c-1.6,0.1-4,0.2-6.8,0.6
		c-0.4,1.2-0.8,2.5-1.3,3.8c-0.5,1.3-0.9,2.5-1.4,3.8c1.5-0.1,2.9,0.2,4.3,0.8c2.1,1,2.9,2.1,2.4,3.1s-2.5,2-6.2,2.9
		c-0.5,0.1-1.2,0.3-1.8,0.4l-2.4,0.5c1.3,0.9,2.1,1.8,2.1,2.6c0,1-0.4,2-1,2.7c-0.4,0.6-0.6,1.3-0.7,2c-0.2,0.9-0.4,2-0.5,3.1
		c-0.1,1.1-0.2,2.3-0.3,3.4c0,1.1,0,1.9,0,2.5c0,1.5,0.2,3,0.7,4.4c0.4,0.8,1.2,1.3,2,1.3c2,0.3,4.1,0.5,6.1,0.5
		c2.1,0,4.1-0.4,6.1-1.1c2.9-0.9,5.1-4.4,6.7-10.4c1.2-4.3,2.1-6.4,2.8-6.4c0.7,0,1.1,2.1,1.2,6.4c0,1.9,0.2,3.8,0.6,5.6
		c0.4,1.6,1,3.2,1.9,4.6c0.5,0.8,0.8,1.6,1,2.4c0.2,0.8,0,1.7-0.4,2.4c-0.7,1-1.7,1.7-2.8,2.2C672.8,293.6,670.7,294.2,668.6,294.6
		L668.6,294.6z M653.9,229.4l-5.3,1.5c-1.6,0.5-3.1,0.9-4.4,1.2c-0.1,1-0.3,2.1-0.4,3.3c-0.1,1.2-0.3,2.5-0.4,3.9
		c-0.1,1.5-0.5,2.9-1.2,4.2c-0.4,0.8-1.1,1.3-2,1.5c-0.7,0-1.3-0.4-2-1.3c-0.7-1.3-1.1-2.8-1.1-4.4c-0.1-0.7-0.1-1.4-0.2-2
		c0-1-0.1-2.2-0.1-3.6c-1.7,0.3-3.5,0.5-5.3,0.5c-1,0-2.1-0.1-3.1-0.4c-2.4-0.8-3.5-1.5-3.5-2.1s1.4-1.1,4.2-1.5
		c2.6-0.4,5.1-1.1,7.6-1.9v-1.5c0-0.4,0-0.9,0.1-1.3c0.1-1.7-0.1-3.5-0.6-5.1c-0.3-1.2-0.8-2.3-1.6-3.3c-2.6-2.6-3.4-4.3-2.3-5.3
		c1-0.9,3.7-0.6,8.1,0.9c1.4,0.5,2.8,1,4.2,1.7c0.8,0.4,1.6,0.9,2.2,1.5c0.4,0.4,0.6,1,0.6,1.6c-0.1,0.7-0.4,1.4-0.7,2.1
		c-0.7,1.6-1.2,3.3-1.4,5.1c1.7-0.8,3.6-1.3,5.5-1.3c1.6,0.1,3.1,0.7,4.4,1.6C657.9,226.7,657.6,228.2,653.9,229.4L653.9,229.4z"/>
	<path class="st0" d="M738.9,247.7c1.8-0.3,3.6-0.9,5.3-1.7c1.8-0.9,3.6-2,5.3-3.2c1.2-1,2.6-1.6,4.1-1.9h2.1
		c1.1,0.1,2.2,0.4,3.2,0.9c2.5,1.2,3.8,2.3,3.8,3.5c0,1.1-1,2.1-3.1,3c-1.1,0.5-3,1.2-5.8,2.2c-2.8,0.9-6.5,2.1-11.1,3.6
		c1,2.6,2.1,5.1,3.3,7.5c1.1,2.1,2.4,4.2,4,6c1,1.3,1.8,2.3,2.3,2.9c0.4,0.5,0.8,1.1,0.9,1.7c0.1,0.7,0.1,1.4,0,2.1
		c-0.2,0.8-0.4,2.1-0.8,4c-0.6,2.3-1.4,3.4-2.6,3.4c-1.2,0-2.6-1-4.5-3c-2.2-2.2-5-3.8-8.1-4.5c-3.6-1-7.4-1.5-11.2-1.5
		c-9.9,0-14.9,2.8-14.9,8.5c0,0.8,0.1,1.6,0.3,2.5c0.1,0.7,0.4,1.5,0.8,2.1c0.6,0.6,1.3,1.1,2,1.5c1.2,0.7,2.5,1.2,3.8,1.5
		c1.6,0.5,3.3,0.8,5,1c1.7,0.2,3.5,0.3,5.2,0.3c1.7-0.1,3.3-0.2,4.9-0.6c1.5-0.3,3-0.8,4.4-1.5c1.3-0.8,2.8-1.3,4.3-1.4
		c1.2,0,2.9,0.9,5,2.6l2.5,2c0.5,0.4,0.8,1,0.8,1.6c0,1.5-1.9,2.6-5.7,3.4c-4.6,0.9-9.2,1.3-13.9,1.2c-2.6,0-5.3-0.1-7.9-0.4
		c-2.4-0.3-4.7-0.7-7.1-1.3c-2-0.5-3.9-1.3-5.8-2.3c-1.5-0.8-2.9-1.9-4-3.3c-1.8-2.3-2.8-5.2-2.8-8.1c0-2.9,1-5.8,2.8-8.1
		c1.6-1.9,3.6-3.5,5.9-4.5c2.7-1.3,5.6-2.1,8.6-2.5c3.2-0.5,6.4-0.6,9.7-0.2c3.1,0.3,6.2,1.1,9,2.5c0.3,0.3,0.6,0.3,0.8,0.1
		s0.1-0.5-0.2-1.2c-1.1-1.9-2.2-3.9-3-5.9c-0.9-2.1-1.7-4-2.4-5.7c-2.6,0.6-5.2,1.2-7.8,1.6c-2.6,0.5-5.3,0.9-8.1,1.3
		c-3.9,0.6-7.8,1-11.8,1.1c-1.8,0.1-3.6-0.2-5.3-0.9c-1.3-0.9-2.2-2.2-2.6-3.8c-0.6-1.4-0.9-3-0.9-4.5c0-1.4,0.5-2,1.5-1.7
		c1.5,0.6,2.8,1.5,3.8,2.6c0.8,0.8,2.4,1.2,4.7,1.2c1.2,0,2.6,0,4.3-0.1c1.6-0.1,3.6-0.3,5.8-0.5c4.5-0.5,8.9-1.4,13.2-2.5
		c-0.3-1.1-0.7-2.4-1.3-4s-1.1-3.1-1.8-4.7c-1.1,0.3-2.3,0.5-3.8,0.8c-1.4,0.3-3.2,0.5-5.1,0.8c-1.9,0.3-3.4,0.6-4.7,0.7
		c-0.9,0.1-1.8,0.2-2.6,0.2c-3.2,0-5.4-1.1-6.6-3.4c-1-1.6-1.7-3.4-1.9-5.3c0-1.3,0.6-1.9,1.7-1.9c0.5,0.1,1,0.3,1.3,0.7
		c0.6,0.5,1.2,1,1.8,1.5c1.5,1,3.2,1.5,5,1.4c4-0.2,8-0.8,11.9-1.8c-0.2-0.7-0.5-1.5-0.8-2.2c-0.3-0.8-0.8-1.7-1.3-2.7
		c-0.7-1.7-1.8-3.2-3.3-4.3c-1.2-0.8-2.1-1.3-2.8-1.8c-1.6-0.6-2.4-1.5-2.4-2.5c0-0.7,0.4-1.2,1-1.5c1.6-0.5,3.2-0.7,4.9-0.6
		c2.1-0.1,4.2,0.1,6.2,0.4c1.2,0.1,2.3,0.5,3.1,1.3c0.7,1.4,1,3,0.9,4.5c0.1,1.2,0.3,2.3,0.6,3.5c0.3,1.2,0.7,2.4,1.2,3.5
		c2.5-0.8,4.9-2.1,6.8-4c1-1,2.2-1.6,3.6-1.9c1.9-0.1,3.7,0.3,5.3,1.3c2.1,1,3.2,2.1,3.2,3.3c0,0.6-0.4,1.1-1.2,1.6
		c-1,0.7-2.1,1.2-3.3,1.6c-1.4,0.6-3.1,1.2-5.1,1.9c-2,0.7-4.2,1.6-6.6,2.5c0.5,1.5,1,2.9,1.6,4.5
		C737.5,245.1,738.2,246.4,738.9,247.7z"/>
	<path class="st0" d="M794.8,270.1c0.7,1.9,1.2,3.9,1.4,5.9c0.2,1.9,0.2,3.8-0.1,5.7c-0.3,1.7-0.7,3.3-1.3,4.9
		c-0.5,1.3-1.2,2.4-2.1,3.4c-0.9,1.1-2.3,1.8-3.8,1.7c-1.3-0.2-2.5-1.4-3.5-3.7c-0.8-1.5-1.2-3.1-1.1-4.8c0.3-1.4,0.9-2.6,1.8-3.7
		c1-1.3,1.9-2.8,2.5-4.3c0.7-1.7,1.2-3.5,1.4-5.3c0.5-3.1,1-4.7,1.7-4.8C792.4,265,793.4,266.7,794.8,270.1z M807.5,226.2
		c1.8-2.2,3.3-4.1,4.5-5.6c1-1.2,1.9-2.5,2.7-3.8c0.5-0.8,1-1.7,1.3-2.6c0.3-0.6,0.4-1.3,0.5-1.9c0-0.9,0.2-1.8,0.5-2.6
		c0.2-0.6,0.6-1,1.2-1.2c0.7-0.1,1.4,0,2.1,0.3c1.2,0.5,2.3,1.1,3.3,1.7c3.2,1.9,4.8,3.5,4.8,4.7c0,1.2-1,2.3-3,3.3
		c-1.7,0.8-3.3,1.6-4.8,2.6c-1.8,1.2-3.6,2.4-5.4,3.7c9.6-1.2,15.9-2.8,18.9-4.7c1-0.8,2.3-1.2,3.6-1.1c1.8,0.4,3.4,1.2,4.9,2.2
		c1.4,0.8,2.8,1.8,4.1,2.8c0.7,0.6,1.3,1.3,1.6,2.2c0.2,0.6,0,1.3-0.5,1.8c-0.6,0.6-1.4,1.1-2.2,1.5c-0.5,0.3-0.9,0.6-1.3,1
		c-0.5,0.4-0.9,1-1.3,1.5c-0.5,0.8-0.9,1.6-1.3,2.5c-0.5,1-1,2.3-1.6,3.9c-0.5,1.3-1.1,2.6-1.8,3.9c-0.7,1.2-1.2,2.2-1.8,3
		c-1,1.5-2,2.2-2.8,2.2s-1.8-0.8-3-2.3c-2.4,0.1-5.5,0.4-9,0.9c-3.6,0.4-7.9,1.1-12.9,2.1c0,0.5,0,1.1,0,1.7c0,0.6,0,1.2,0,1.9
		c3-0.2,5.6-0.5,7.7-0.8c2-0.3,4.1-0.8,6-1.3c1.7-0.5,3-0.8,4.1-1.1c0.9-0.2,1.7-0.3,2.6-0.4c0.7,0,1.3,0.1,2,0.3
		c0.7,0.3,1.3,0.6,2,0.9c1.5,0.8,2.1,1.7,1.8,2.6c-0.3,1-1.8,1.5-4.3,1.7c-1.1,0.1-2.5,0.2-4.2,0.4l-5.6,0.6l-6.2,0.7l-6,0.7
		c-0.1,1.3-0.2,2.6-0.3,3.7c1.6-0.1,3.5-0.3,5.8-0.6l7-0.8c2.4-0.3,4.9-0.6,7.4-0.9c2.5-0.3,4.9-0.7,7.1-1.1s4.2-0.8,6-1.2
		c1.4-0.3,2.9-0.8,4.2-1.3c0.8-0.4,1.6-0.7,2.5-0.9c0.8-0.2,1.6-0.2,2.4,0c1,0.3,2,0.7,2.9,1.2c1.4,0.8,2.8,1.6,4.1,2.5
		c1.4,0.9,2.7,1.9,4,3c0.7,0.6,1.3,1.4,1.6,2.2c0.2,0.7,0.1,1.4-0.3,2c-0.5,0.8-1,1.5-1.7,2.1c-0.6,0.7-1,1.6-1.2,2.5
		c-0.3,1.2-0.7,3.2-1.2,5.9c-0.6,3.7-1.2,6.7-1.9,9c-0.5,2.1-1.3,4.1-2.2,6c-0.8,1.5-1.7,2.9-2.9,4.2c-1.3,1.3-2.6,2.4-4.1,3.5
		c-2.3,1.7-4,2.5-5,2.3c-1.1-0.2-2.1-1.4-3.1-3.8c-0.9-2.1-1.9-4-3.2-5.9c-1-1.7-2.2-3.3-3.5-4.7c-3.3-3.6-2.3-4.4,3.1-2.5
		c2,0.7,3.6,1.3,4.8,1.6c0.9,0.3,1.8,0.4,2.7,0.4c0.6,0,1.1-0.2,1.5-0.6c0.4-0.5,0.8-1,1-1.6c1.1-2.3,1.9-4.8,2.4-7.3
		c0.6-2.5,0.8-5.1,0.9-7.7c0-2.4-0.4-4-1.3-4.8c-1.2-0.9-2.7-1.4-4.2-1.3c-1.3-0.1-2.5,0-3.8,0.1c-1.8,0.1-4.1,0.4-7,0.7
		s-6.4,0.8-10.6,1.3c-4.2,0.6-9,1.3-14.6,2.1c-0.6,0.1-1.1,0.8-1.6,2c-0.2,0.5-0.5,1-0.8,1.4c-0.3,0.3-0.7,0.5-1.1,0.5
		c-0.6,0-1.1-0.2-1.6-0.6c-0.8-0.6-1.6-1.2-2.2-2c-0.7-0.7-1.1-1.5-1.3-2.5c-0.1-1.4,0-2.8,0.4-4.2c0.3-1.6,0.6-3.3,0.7-4.9
		c0.2-2.1,0.3-5.2,0.4-9.2c0-1.6,0-3.3,0-5.1s-0.2-3.4-0.4-4.9c-0.1-1.3-0.4-2.7-0.7-4c-0.2-0.9-0.5-1.8-0.9-2.5
		c-0.6-0.8-1.1-1.7-1.3-2.6c-0.2-0.6,0-1.2,0.6-1.5c1-0.3,2-0.3,3-0.1C803.5,225.1,805.5,225.6,807.5,226.2L807.5,226.2z
		 M810.5,280.5c-0.2,0.9-0.6,1.8-1.1,2.5c-0.4,0.6-1.1,1.1-1.8,1.3c-0.7,0.2-1.5,0-2.1-0.4c-0.8-0.6-1.5-1.4-1.9-2.3
		c-0.6-1.1-1-2.2-1.4-3.3c-0.4-1.2-0.9-2.8-1.6-4.9c-1-3.4,0.2-4,3.5-1.9c2.1,1.1,4,2.6,5.4,4.5
		C810.5,277.2,810.8,278.9,810.5,280.5L810.5,280.5z M830,240.7c0.3-0.4,0.6-0.7,0.8-1.1c0.2-0.4,0.4-0.8,0.5-1.2
		c0.7-2.1,1.2-3.8,1.5-5.1c0.3-1.3,0.7-2.9,1-4.6c0.1-0.8,0.1-1.3-0.1-1.5c-0.2-0.2-0.7-0.2-1.4-0.1c-2.3,0.4-5.4,0.9-9.3,1.4
		c-4,0.5-8.4,1.1-13.4,1.7c-0.1,0.7-0.2,1.5-0.3,2.2c0,0.8-0.1,1.6-0.1,2.5c1.6-0.2,3.2-0.5,4.8-0.8c1.6-0.3,3.1-0.8,4.6-1.3
		c1-0.4,2-0.7,3-0.9c0.8-0.2,1.5-0.2,2.3-0.3c0.7,0,1.4,0.1,2,0.4c0.8,0.3,1.5,0.6,2.2,1c0.8,0.3,1.3,1.1,1.2,2
		c-0.1,0.8-1.1,1.4-3,1.8c-2.1,0.4-4.7,0.8-7.9,1.1c-3.2,0.3-6.3,0.6-9.6,0.8c-0.1,0.7-0.1,1.6-0.1,2.4v2.7c1.8-0.3,3.5-0.6,5.4-0.9
		c1.8-0.3,3.4-0.7,4.8-1c2-0.6,4-1,6-1.3C826.7,240.4,828.3,240.4,830,240.7L830,240.7z M824.7,277c-0.1,0.9-0.5,1.9-1,2.6
		c-0.4,0.6-1,1-1.7,1.2c-0.7,0.2-1.4,0.1-2-0.3c-0.8-0.4-1.5-1-2.1-1.7c-0.8-0.9-1.4-1.8-1.9-2.9c-0.5-1.1-1.3-2.6-2.1-4.3
		c-0.8-1.6-0.9-2.5-0.6-2.8c0.3-0.3,1.3-0.2,3.2,0.4c1.7,0.5,3.3,1.1,4.8,1.8c1,0.4,1.9,1,2.6,1.8c0.5,0.5,0.9,1.2,1,1.9
		C824.9,275.4,824.8,276.2,824.7,277L824.7,277z M839.3,273.8c0.1,1-0.1,2.1-0.6,3c-0.4,0.8-1,1.4-1.7,1.8c-0.7,0.4-1.5,0.5-2.2,0.4
		c-0.8-0.2-1.6-0.6-2.2-1.2c-1-1-1.9-2.2-2.6-3.4c-1.1-1.7-2-3.4-2.8-5.3c-0.8-2-1.1-3.2-0.8-3.7s1.4-0.4,3.3,0.3
		c1.9,0.7,3.5,1.4,4.7,2c1.1,0.4,2,1,3,1.7c0.6,0.5,1.2,1.1,1.5,1.9C839.1,272.2,839.3,273,839.3,273.8L839.3,273.8z"/>
	<path class="st0" d="M951.6,223.5c-0.7,0.3-1.4,0.6-2,1c-0.5,0.3-1.1,0.6-1.6,1c-0.5,0.4-1,0.8-1.5,1.3l-1.6,1.8
		c2,1.2,2.8,2.5,2.3,3.8s-2.5,2-5.9,2.2c-1.1,0-2.5,0.2-4.1,0.3l-4.7,0.4l-4.6,0.4c-1.5,0.1-2.6,0.3-3.6,0.4l-4.4,0.7
		c-1.2,0.2-2.3,0.3-3.2,0.4c-0.9,0.1-1.8,0.2-2.6,0.2h-2.7c-1.2,12.3-3.8,22.6-7.8,31c-3.4,7.5-8.3,14.3-14.4,19.8
		c-4.6,4-7.3,5.6-8,5.1c-0.7-0.5,0.5-2.9,3.6-7.1c4.2-5.8,7.6-12,10.2-18.7c2.8-7.3,4.7-15,5.6-22.8c0.7-4.8,1-9.7,0.9-14.6
		c-0.1-3.3-0.6-5.6-1.4-6.8c-0.7-1-1.3-2.1-1.7-3.3c-0.3-0.7,0-1.4,0.7-1.7c1.2-0.3,2.5-0.3,3.7,0c1.8,0.3,4.2,0.8,7.5,1.6
		c2.5,0,5.1-0.1,7.6-0.4c2.5-0.3,4.9-0.6,7.4-1.2c2.2-0.5,4.3-1,6.4-1.7c1.6-0.5,3.1-1.2,4.6-2.1c1.2-0.8,2.2-1.3,3-1.7
		c0.7-0.4,1.5-0.5,2.3-0.5c0.9,0.1,1.7,0.3,2.5,0.6c1.2,0.5,2.4,1.1,3.5,1.8c2.4,1.3,4.2,2.5,5.4,3.3c0.9,0.6,1.7,1.3,2.2,2.3
		c0.2,0.6,0,1.3-0.5,1.7C953.4,222.6,952.5,223.2,951.6,223.5z M963.4,283.3c3.1,2.5,4.1,4.5,3,5.9c-1.1,1.4-4.1,1.7-8.9,0.7
		c-3.7-0.7-7.5-1.1-11.3-1.1c-4.6-0.1-9.3-0.1-14.2,0.1c-4.9,0.2-9.7,0.6-14.4,1.2c-4,0.4-7.9,1.2-11.8,2.2
		c-0.9,0.3-1.9,0.5-2.9,0.7c-0.7,0.1-1.5,0.1-2.2-0.1c-0.8-0.3-1.6-0.7-2.3-1.2c-1-0.7-1.9-1.5-2.8-2.4c-1.8-1.6-2.5-2.6-2.1-3.1
		c0.3-0.5,1.7-0.7,4-0.7c1.2,0,2.8,0,4.7-0.1c1.9-0.1,4.1-0.2,6.5-0.3s5-0.3,7.8-0.6l8.6-0.8l0.1-7c-1.6,0.1-3,0.3-4.1,0.3
		c-1,0.1-2,0.1-2.9,0c-0.7,0-1.5-0.1-2.2-0.3c-0.6-0.1-1.2-0.3-1.7-0.6c-1.8-0.9-2.7-1.6-2.7-2.2c0-0.6,0.9-0.9,2.8-1.1
		c1.7-0.1,3.4-0.3,5.1-0.6c1.7-0.2,3.6-0.6,5.8-1.1c0.1-1.6,0-3.1-0.1-4.7c-0.1-1-0.4-2.1-0.7-3c-2,0.5-3.6,1-4.9,1.5
		c-1.3,0.5-2.4,0.9-3.3,1.3c-1.2,0.6-2.4,1.1-3.7,1.6c-0.9,0.6-2.2,0.3-2.7-0.6c-0.2-0.3-0.3-0.7-0.3-1c-0.2-1.3-0.4-2.6-0.4-3.9
		c-0.1-0.8-0.1-1.6,0-2.4c0.1-0.5,0.3-1,0.6-1.5c0.4-0.4,0.8-0.7,1.3-0.9c0.8-0.2,1.5-0.4,2.3-0.5c1.4-0.1,2.9-0.6,4.1-1.3
		c1.2-0.9,2.3-2,3.2-3.2c0.9-1,1.7-2.2,2.3-3.5c0.4-0.9,0.6-1.9,0.8-2.8c-1.7,0.1-3.1,0.2-4.2,0.2c-1,0-1.9-0.1-2.8-0.2
		c-0.7-0.1-1.5-0.3-2.1-0.6c-0.8-0.3-1.5-0.7-2.2-1.2c-2-1.3-1.5-2,1.4-2c1.8-0.1,4-0.3,6.6-0.6c2.6-0.3,5.1-0.7,7.8-1.1
		c2.6-0.4,5.1-0.9,7.5-1.4c2.3-0.5,4.2-1,5.5-1.3c1.4-0.4,2.7-0.8,3.7-1.1c0.9-0.3,1.7-0.4,2.6-0.4c0.8,0,1.5,0.1,2.2,0.4
		c0.9,0.3,1.7,0.7,2.5,1.2c1.5,0.8,2.1,1.7,2,2.6c-0.2,1-1.3,1.6-3.3,2.2s-4.7,1.1-7.6,1.5c-2.9,0.5-6.7,0.9-11.4,1.3
		c2.4,1.4,3.5,2.5,3.5,3.1c0,0.6-1,1.4-3,2.4c-1,0.5-2,0.9-2.8,1.3s-1.7,0.9-2.6,1.5c-0.9,0.5-1.8,1.2-2.7,1.9
		c-0.9,0.7-2,1.5-3.3,2.5c1.6-0.2,3-0.4,4.5-0.7c1.4-0.2,2.9-0.5,4.4-0.8c1.5-0.3,3.1-0.6,4.7-0.9l5.7-1.2c-1.3-1.8-2.2-3.1-2.8-4.1
		c-0.5-0.6-0.7-1.4-0.8-2.1c0.1-0.4,0.5-0.6,1.2-0.6c1.1,0.1,2.2,0.3,3.2,0.6c1.9,0.4,3.8,1,5.7,1.7c1.4,0.5,2.7,1.2,3.9,2
		c1,0.7,1.8,1.7,2.4,2.7c0.6,1.2,1.1,2.4,1.3,3.7c0.2,1,0.2,2-0.1,2.9c-0.2,0.8-0.7,1.4-1.3,1.9c-0.7,0.5-1.5,0.7-2.3,0.6
		c-1-0.1-2-0.4-2.8-1.1c-0.7-0.5-1.4-1-2-1.6c-0.9-0.8-1.7-1.6-2.4-2.5l-11.3,2.6c1.5,0.6,2.8,1.5,3.8,2.6c0.4,0.6,0.2,1.5-0.4,2.5
		c-0.4,0.7-0.7,1.6-0.7,2.4c1.7-0.5,3.1-0.9,4.3-1.2c1-0.2,2.1-0.4,3.2-0.4c0.8,0,1.7,0.1,2.4,0.5c0.8,0.3,1.6,0.8,2.3,1.3
		c1.2,0.9,1.5,1.8,0.9,2.6c-0.7,0.8-2.6,1.6-5.8,2.4c-1.8,0.4-3.2,0.7-4.3,0.9c-1.1,0.2-2.3,0.4-3.5,0.5l-0.4,7l8.3-1l7.7-1
		c1.8-0.3,3.3-0.5,4.5-0.6c1.1-0.1,2.3-0.1,3.4,0.1c1,0.2,1.9,0.5,2.8,1C961.5,281.9,962.4,282.6,963.4,283.3z M937.2,224.1
		c0.3-1.1,0.1-1.9-0.4-2.2c-0.8-0.3-1.8-0.4-2.6-0.1l-7.1,1c-1.9,0.3-3.6,0.5-5.2,0.8l-4.6,0.7c-1.5,0.2-3.3,0.5-5.3,0.8
		c-0.1,1.4-0.1,2.7-0.1,4c0,1.2-0.1,2.3-0.3,3.5c3.2-0.3,6.8-0.8,10.8-1.5c4-0.6,8-1.4,12-2.4c0.7-0.2,1.4-0.7,1.8-1.3
		C936.7,226.3,937,225.2,937.2,224.1z"/>
	<path class="st0" d="M1030,233.2c0.4,2.4,0.6,4.8,0.6,7.3c-0.1,7.9-1.5,15.8-4.2,23.3c-2.8,8.2-6.5,14.6-11.1,19.4
		c-2,2.1-4.3,3.9-6.8,5.3c-2,1.1-4.3,1.7-6.6,1.7c-2.1,0-4.1-0.6-5.8-1.8c-2-1.4-3.6-3.2-4.7-5.4c-2.8-5.4-4.2-11.5-4-17.5
		c0-6.9,1.9-13.8,5.4-19.8c5.4-9.5,14.4-16.4,25-19.1c3.7-0.9,7.4-1.4,11.2-1.4c10.6,0,19.5,3.4,26.6,10.2
		c7.1,6.8,10.7,14.7,10.7,23.9c0,5.8-1.8,11.6-5,16.4c-3.6,5.5-8.7,9.8-14.7,12.3c-6.9,3.2-14.5,4.8-22.2,4.7
		c-1.3,0-2.6-0.1-3.8-0.5c-1-0.3-1.6-0.8-1.6-1.5c0-1.1,1.7-2,5.1-2.6c3.4-0.7,6.5-1.4,9.1-2.2c2.3-0.7,4.6-1.5,6.8-2.5
		c1.8-0.8,3.5-1.8,5.1-3c1.5-1.1,2.8-2.3,4.1-3.6c2.1-2.4,4-5,5.4-7.8c1.3-2.8,2-5.9,1.9-9c0-6.7-2.4-13.1-6.8-18.1
		C1045.2,236.6,1038.6,233.7,1030,233.2z M1023.5,233.3c-7.8,1-14.8,5.1-19.6,11.2c-5,6.2-7.7,14-7.5,22c0,2,0.1,4,0.5,6
		c0.3,1.6,0.7,3.3,1.3,4.8c0.5,1.2,1.2,2.3,2.1,3.2c0.8,0.7,1.8,1.1,2.9,1.1c1.9-0.1,3.6-0.9,4.9-2.2c1.6-1.6,3.7-5,6.5-10.2
		c2.7-5.2,4.9-10.7,6.3-16.5C1022.3,246.3,1023.2,239.8,1023.5,233.3L1023.5,233.3z"/>
	<path class="st0" d="M1164.8,279.3c-5,0.6-9,1-11.9,1.3c-2.3,0.3-4.7,0.2-7.1-0.2c-1.6-0.3-3-1-4.2-2c-1.3-1.3-2.4-2.6-3.4-4.1
		c-2.4-3.5-5-7.1-7.7-10.8c-2.7-3.8-5.9-8.2-9.4-13.2c-0.1,3-0.1,6.4,0,10.3c0.1,3.9,0.1,8.1,0.2,12.5c2.2-0.5,4.4-0.7,6.6-0.7
		c1.8,0.1,3.6,0.6,5.1,1.4c1,0.4,1.9,1.2,2.5,2.1c0.4,0.7,0.2,1.4-0.7,2c-1.4,0.9-2.9,1.4-4.5,1.7c-2.9,0.6-5.9,0.8-8.9,0.8
		c0.1,3.3,0.2,6.2,0.2,8.8c0,2.6-0.2,4.9-0.4,6.7c-0.1,1.4-0.6,2.7-1.3,4c-0.5,0.9-1.4,1.5-2.3,1.7c-1.1,0.2-2.2-0.1-3-0.7
		c-1.4-0.9-2.5-2-3.5-3.3c-1-1.3-1.7-2.9-1.8-4.5c0-2.4,0.6-4.8,1.6-7c0.5-1.6,0.7-3.3,0.8-5c-2,0.2-4,0.2-6,0.2
		c-1.1-0.1-2.3-0.3-3.4-0.7c-2.8-1.2-4.2-2.2-4.2-2.9s1.2-1.1,3.3-1.2c1.2-0.1,2.8-0.2,4.7-0.5c1.9-0.3,3.9-0.6,5.9-0.9
		c0.1-2.4,0.3-5.3,0.4-8.5s0.2-7,0.4-11.3c-1.8,3.4-3.8,6.6-6,9.7c-3.9,5.3-8.8,9.8-14.5,13.2c-3,1.8-6.2,3.4-9.4,4.8
		c-3.8,1.6-6,2.1-6.6,1.6s0.8-2.1,4.2-4.7c6.4-5,12.1-10.8,17.1-17.1c4.8-6,8.7-12.6,11.7-19.6c-2.2,0.4-4,0.7-5.3,0.9
		c-1.1,0.2-2.3,0.3-3.5,0.3c-0.9,0-1.7-0.1-2.5-0.3c-0.8-0.2-1.7-0.5-2.4-0.9c-2.6-1.2-4-2-4-2.6s1.5-1.1,4.7-1.4
		c2-0.2,4.6-0.6,7.6-1.1c3-0.5,6-1.2,9.1-1.8c0.1-4.4-0.3-8.9-1-13.3c-0.3-2.1-1.1-4.2-2.3-5.9c-2.6-2.8-3.4-4.7-2.4-5.5
		c1-0.9,4.2-0.5,9.6,1c1.6,0.4,3.2,1,4.8,1.7c0.9,0.5,1.8,1.1,2.4,1.9c0.5,0.7,0.7,1.5,0.5,2.3c-0.2,1-0.5,1.9-1,2.8
		c-0.2,0.5-0.4,1-0.6,1.6c-0.2,0.8-0.4,1.6-0.5,2.3c-0.2,1-0.3,2.2-0.5,3.7s-0.3,3.3-0.4,5.4c3-1,5.5-1.8,7.6-2.3
		c1.8-0.5,3.6-0.8,5.4-1.1c1.3-0.1,2.6-0.1,4,0c1.2,0.1,2.4,0.4,3.6,0.8c1.2,0.4,2.3,1,3.3,1.8c0.7,0.4,1,1.2,0.8,1.9
		c-0.5,0.9-1.2,1.6-2.2,1.9c-1.7,0.8-3.6,1.3-5.5,1.6c-0.9,0.1-2,0.3-3.3,0.6c-1.3,0.2-2.8,0.5-4.4,0.7c-1.6,0.2-3.2,0.5-4.9,0.8
		l-4.8,0.7c4.3,4.7,8.2,8.7,11.8,12.1c3.3,3.2,6.7,6.2,10.4,8.9c3.1,2.4,6.4,4.6,9.9,6.6c3.3,1.9,6.7,3.6,10.3,5
		c4.1,1.7,6.2,2.9,6.3,3.6C1169.8,278.3,1168.2,278.9,1164.8,279.3z"/>
	<path class="st0" d="M1226.1,289.7c-2.7-4.2-5.8-8.1-9.2-11.7c-3.5,3.4-7.5,6.4-11.9,8.7c-4.1,2.3-8.5,4.1-13.1,5.4
		c-4.3,1.1-6.6,1.5-7,1c-0.4-0.5,1.6-2,5.8-4.4c3.8-2.3,7.5-4.8,11-7.6c3.3-2.7,6.4-5.6,9.1-8.9c-1.9-1.8-4-3.6-6.1-5.5
		c-2.2-1.9-4.6-3.9-7.2-5.9c-3-2.3-4.1-3.8-3.4-4.4c0.7-0.6,3.2,0,7.4,2c2.8,1.4,5.4,2.6,7.8,3.8c2.3,1.2,4.5,2.3,6.4,3.5
		c1.6-2.1,2.9-4.5,3.9-6.9c0.6-1.4,0.7-2.9,0.4-4.3c-0.7-2.2-0.6-3.5,0.3-4.2c0.8-0.6,2.8-0.1,5.8,1.5c1.5,0.8,3,1.7,4.5,2.6
		c0.8,0.5,1.4,1.1,1.8,1.9c0.2,0.6,0.1,1.3-0.4,1.7c-0.6,0.8-1.3,1.5-2.1,2.2c-0.7,0.6-1.2,1.3-1.7,2.1c-0.6,0.9-1.3,2.1-2.2,3.6
		c-0.4,0.7-0.8,1.3-1.3,2.1s-1,1.5-1.5,2.3c2,1.3,3.8,2.9,5.5,4.5c1.2,1.2,2.3,2.5,3.2,4c0.7,1.1,1.2,2.4,1.4,3.7
		c0.2,1.2,0.3,2.5,0.3,3.7c-0.1,4.5-0.9,7.1-2.3,7.7C1230,294.5,1228.2,293.1,1226.1,289.7z M1260.6,295.6c-4.2-1-8.1-2.9-11.5-5.6
		c-3.4-2.9-6-6.7-7.6-10.8c-1-2.3-1.7-4.8-2.1-7.3c-0.5-2.6-0.8-5.3-0.9-7.9c-0.1-2.5-0.1-5.1,0.2-7.6c0.2-2.2,0.5-4.3,0.9-6.4
		c0.3-1.8,0.4-2.8,0.2-3.1c-0.2-0.3-0.8-0.5-1.8-0.4c-2.2,0.1-5.1,0.4-8.6,0.9c-3.6,0.5-7.2,1-10.9,1.6c-3.7,0.6-7,1.2-10.1,1.8
		c-2,0.3-4,0.8-5.9,1.5c-1.7,0.7-3.1,1.2-4.2,1.5c-0.9,0.3-1.9,0.4-2.8,0.4c-0.8,0-1.7-0.3-2.4-0.7c-0.9-0.6-1.8-1.2-2.6-1.9
		c-3.1-2.3-4.6-3.7-4.3-4.2c0.2-0.5,2.4-0.8,6.5-0.8c0.6,0,1.5,0,2.6-0.1c1.2-0.1,2.7-0.2,4.8-0.5c2.1-0.3,4.8-0.6,8.1-1.1
		c3.3-0.4,7.4-1,12.3-1.8c3.3-0.5,5.9-0.9,7.9-1.3c2-0.4,3.7-0.8,5-1.1c1.2-0.3,2.3-0.7,3.4-1.2c0.9-0.4,2-1,3.2-1.7
		c0.6-0.4,1.2-0.7,1.9-1c0.6-0.2,1.2-0.2,1.8-0.1c0.8,0.2,1.6,0.5,2.3,0.9c0.9,0.5,2.1,1.2,3.6,2.1s2.8,1.9,3.6,2.5
		c0.7,0.5,1.2,1.1,1.5,1.8c0.2,0.6,0,1.2-0.5,1.6c-0.7,0.7-1.5,1.3-2.4,1.8c-0.8,0.5-1.5,1.2-2,1.9c-0.7,1-1.4,2.1-1.8,3.2
		c-0.6,1.4-1,2.8-1.3,4.3c-0.3,1.7-0.4,3.5-0.3,5.3c0.1,4.7,1.1,9.2,3,13.5c1.5,3.3,4.1,6.1,7.3,7.8c0.9,0.6,2,1,3,1.1
		c0.8,0,1.3-0.7,1.9-2.2c0.4-1,0.7-2,0.9-3c0.3-1.3,0.6-2.8,0.9-4.5c1.2-6,2-8.9,2.6-8.9s1,3,1.3,9c0.1,2.4,0.3,4.7,0.6,7.1
		c0.2,2.2,0.8,4.4,1.8,6.3c0.8,1.4,1.3,2.9,1.7,4.5c0.3,1,0.1,2.1-0.6,2.8c-1,0.7-2.2,1.1-3.3,1
		C1265,296.6,1262.8,296.3,1260.6,295.6z M1234.5,217.5c1.6-0.5,2.8-0.9,3.9-1.2c0.9-0.2,1.7-0.4,2.6-0.5c0.7,0,1.4,0.1,2.1,0.3
		c0.7,0.2,1.5,0.5,2.4,0.8c1.1,0.4,2.2,0.9,3.1,1.7c0.6,0.5,1,1.2,1.1,1.9c0,0.7-0.4,1.4-1,1.8c-0.9,0.7-2,1.1-3.2,1.2
		c-8.5,1.7-15.6,2.9-21.1,3.5c-4.6,0.7-9.4,0.7-14,0.1c-0.9,1.4-1.8,2.6-2.6,3.7c-0.8,1-1.6,2-2.5,3c-0.9,0.9-1.9,1.8-3,2.6
		c-1.1,0.8-2.3,1.7-3.8,2.6c-4.4,2.8-7.1,4-8,3.7c-1-0.3,0.2-2.2,3.3-5.6c2.1-2.2,3.9-4.5,5.5-7.1c1.3-2.1,2.4-4.3,3.3-6.6
		c0.7-1.7,1.3-3.4,1.6-5.1c0.3-1,0.3-2,0.1-2.9c-0.8-2.4-0.7-4,0.3-4.4s3.3-0.1,6.9,1c1.6,0.5,3.1,1,4.6,1.7
		c0.8,0.3,1.5,0.8,2.1,1.4c0.3,0.4,0.3,1,0,1.5c-0.5,0.7-1.1,1.4-1.7,1.9c-0.5,0.5-0.9,1-1.3,1.5c-0.5,0.6-1.1,1.5-1.9,2.6
		c3.5-0.5,6.9-1.2,10.3-2C1227.3,219.8,1230.9,218.8,1234.5,217.5z M1240.3,235l-7.8,1.6c-2.9,0.6-5.7,1.1-8.5,1.5
		c-2.5,0.4-5.1,0.6-7.6,0.8c-1.7,0.2-3.4,0-5-0.4c-1.5-0.5-2.9-1.1-4.2-1.9c-0.7-0.5-0.9-1-0.7-1.3c0.5-0.5,1.1-0.8,1.8-0.9
		c1.1-0.3,2.2-0.4,3.3-0.6c1.5-0.1,3.2-0.3,5.1-0.6c1.9-0.3,3.9-0.6,5.9-1s4.1-0.9,6.1-1.4c2.1-0.6,4-1.1,5.9-1.7
		c1-0.3,1.9-0.5,2.6-0.6c0.6-0.1,1.3-0.2,1.9-0.1c0.6,0.1,1.1,0.2,1.6,0.3c0.5,0.1,1,0.3,1.6,0.5c2.6,1.1,3.8,2.2,3.7,3.3
		C1245.9,233.4,1243.9,234.3,1240.3,235L1240.3,235z"/>
	<path class="st0" d="M1299.1,270.7c1.8,0,3.5,0.3,5.2,1c1.5,0.6,2.9,1.5,4.1,2.7c1.2,1.2,2.1,2.6,2.6,4.1c1.3,3.3,1.3,7,0,10.3
		c-0.6,1.5-1.5,2.9-2.6,4.1c-1.2,1.1-2.5,2-4.1,2.6c-3.3,1.3-7,1.3-10.4,0c-3.1-1.2-5.5-3.7-6.8-6.8c-0.7-1.6-1-3.3-1-5.1
		c-0.1-3.5,1.3-6.8,3.8-9.2C1292.4,271.9,1295.7,270.6,1299.1,270.7z M1299.1,289.5c1.6,0.1,3.2-0.6,4.3-1.7c2.2-2.4,2.2-6.1,0-8.5
		c-1.1-1.1-2.6-1.8-4.2-1.7c-3.4,0-6.1,2.7-6.1,6.1c0,0,0,0,0,0c0,1.6,0.6,3.1,1.7,4.2C1296,289,1297.5,289.6,1299.1,289.5
		L1299.1,289.5z"/>
</g>
</svg>
